<svg width="1123" height="437" viewBox="0 0 1123 437" fill="none" xmlns="http://www.w3.org/2000/svg">
<path d="M416.688 171.095L385.704 230.202C385.28 231.013 384.08 230.874 383.851 229.989L348.1 91.7539C347.834 90.7238 349.147 90.0455 349.833 90.8588L416.567 169.986C416.829 170.297 416.877 170.735 416.688 171.095Z" fill="#BE837F"/>
<path d="M423.329 179.42L394.175 241.073C393.861 241.736 394.345 242.5 395.079 242.5H475.371C476.218 242.5 476.682 241.513 476.141 240.862L425.002 179.209C424.535 178.645 423.642 178.758 423.329 179.42Z" fill="#BE837F"/>
<path d="M503.39 173.958L488.447 236.138C488.259 236.924 487.264 237.173 486.728 236.569L428.458 171.015C428.182 170.705 428.127 170.257 428.319 169.889L457.267 114.405C457.607 113.753 458.511 113.679 458.953 114.267L503.217 173.123C503.396 173.362 503.46 173.668 503.39 173.958Z" fill="#BE837F"/>
<path d="M497.344 241.237L511.456 189.495C511.676 188.688 512.73 188.492 513.226 189.165L551.327 240.907C551.813 241.567 551.342 242.5 550.522 242.5H498.309C497.65 242.5 497.171 241.873 497.344 241.237Z" fill="#BE837F"/>
<path d="M559.697 236.932L512.304 173.904C512.113 173.65 512.054 173.32 512.145 173.016L562.967 3.44597C563.258 2.47537 564.642 2.50314 564.894 3.48462L608.381 173.038C608.456 173.33 608.395 173.641 608.215 173.883L561.298 236.928C560.899 237.463 560.098 237.465 559.697 236.932Z" fill="#BE837F"/>
<path d="M626.247 242.5H574.051C573.218 242.5 572.75 241.541 573.263 240.884L613.704 189.158C614.223 188.494 615.28 188.731 615.466 189.553L627.222 241.278C627.365 241.904 626.889 242.5 626.247 242.5Z" fill="#BE837F"/>
<path d="M636.999 233.7L621.627 178.456C621.547 178.167 621.6 177.858 621.773 177.613L668.036 111.869C668.472 111.25 669.41 111.321 669.749 111.997L696.702 165.904C696.883 166.265 696.828 166.699 696.565 167.004L638.72 234.085C638.198 234.69 637.213 234.47 636.999 233.7Z" fill="#BE837F"/>
<path d="M648.616 242.5H731.842C732.595 242.5 733.078 241.7 732.727 241.034L700.202 179.331C699.868 178.699 698.998 178.61 698.545 179.163L647.843 240.865C647.307 241.518 647.771 242.5 648.616 242.5Z" fill="#BE837F"/>
<path d="M707.344 171.109L740.751 230.287C741.197 231.078 742.382 230.912 742.594 230.029L775.524 93.0596C775.77 92.037 774.473 91.3767 773.791 92.177L707.454 169.968C707.181 170.288 707.137 170.743 707.344 171.109Z" fill="#BE837F"/>
<path d="M37.5 386.4V354.3H36.5V357.8C36.5 367.4 30.8 368.4 24.6 368.4H20.2V342.2C20.2 340 19.1 338.2 17.8 337V336.9H33.3C43.9 336.9 49.6 340.6 50.3 351.4L50.7 358.4H52.7L50.7 331.3L49.7 331.4L50.1 336H49.9C49.2 335.3 47.6 335.1 45.9 335.1H2V336H5.8C11.1 336 11.7 336.5 11.7 341.3V400.8C11.7 405.6 11.1 406.1 5.8 406.1H2V407H51.8C53.6 407 55.1 406.8 55.9 406.1H56L55.7 410.7L56.6 410.8L58.5 383.7H56.8L56.1 391.7C55.3 401.3 50.3 405.2 39.7 405.2H17.8V405.1C19.1 403.9 20.2 402.1 20.2 399.9V370.2H24.6C30.8 370.2 36.5 371.3 36.5 380.9V386.4H37.5ZM72.7422 407H100.742V406.1H96.9422C91.6422 406.1 90.9422 405.6 90.9422 400.8V359.1C90.9422 345.2 97.6422 336 107.742 336C112.742 336 116.542 340.4 116.542 348.5V403.3C116.542 404.9 116.742 405.2 117.542 405.9V406.1H110.142V407H133.842V406.1H131.042C125.742 406.1 125.042 405.6 125.042 400.8V359.1C125.042 345.2 131.742 336 141.842 336C146.842 336 150.642 340.4 150.642 348.5V403.3C150.642 404.9 150.842 405.2 151.642 405.9V406.1H143.242V407H167.942V406.1H165.142C159.842 406.1 159.142 405.6 159.142 400.8V347.6C159.142 338.9 152.242 334.3 142.842 334.3C134.742 334.3 130.042 338.1 126.542 344.2C126.042 345 123.942 350.2 123.742 353.5H123.342V347.5C123.342 340.1 120.242 334.3 108.742 334.3C100.042 334.3 94.6422 338.8 91.3422 346.6C90.5422 348.5 89.8422 351.4 89.5422 353.5H88.5422C88.6422 352.5 88.7422 345.9 88.7422 344.3V331.2H87.9422V331.6C87.9422 335.7 84.6422 338.1 80.2422 338.9L71.7422 340.5L71.8422 341.1L78.3422 340.6H78.6422C80.8422 340.6 82.3422 342 82.3422 343.8V400.8C82.3422 405.6 81.7422 406.1 76.4422 406.1H72.6422L72.7422 407ZM197.287 337H205.287C219.187 337 226.587 344 226.587 357.1C226.587 370.2 219.187 377.2 205.287 377.2H199.087V343.7C199.087 341.4 198.587 339.1 197.287 337.5V337ZM180.887 407H207.787V406.1H205.087C199.787 406.1 199.087 405.6 199.087 400.8V379H208.587C225.187 379 236.187 370.2 236.187 357.1C236.187 343.9 225.187 335.1 208.587 335.1H180.887V336H184.687C189.987 336 190.587 336.5 190.587 341.3V400.8C190.587 405.6 189.987 406.1 184.687 406.1H180.887V407ZM251.043 407H279.043V406.1H275.243C269.943 406.1 269.243 405.7 269.243 400.9V341.4C269.243 336.6 269.943 336.2 275.243 336.2H279.043V335.1H251.043V336H254.843C260.143 336 260.743 336.4 260.743 341.2V400.9C260.743 405.7 260.143 406.1 254.843 406.1H251.043V407ZM368.898 361.6H418.698C420.698 361.6 422.098 360.3 422.098 358.7V358.2C422.098 343.9 410.698 334.4 393.498 334.4C373.198 334.4 359.498 346.4 359.498 364.4C359.498 382.7 372.698 394.9 392.598 394.9C406.398 394.9 416.898 389 422.098 379.3L420.398 378.3C415.598 387.5 405.598 393 392.498 393C376.998 393 368.798 382.4 368.798 362.7V361.5L368.898 361.6ZM292.098 407H322.698V406.1H316.298C310.998 406.1 310.298 405.6 310.298 400.8V342.2C310.298 339.9 309.798 338.2 308.498 337V336.9H319.898C332.198 336.9 340.498 345.1 340.498 357.3C340.498 369.6 332.198 377.8 319.898 377.8H314.898V379.5H316.198C320.698 379.5 324.298 384.3 329.698 389.9C344.898 405.8 363.898 411.7 380.498 411.7C396.898 411.7 411.998 405.9 421.798 398.2L421.198 397.5C417.398 400.5 403.798 408.8 385.898 408.8C371.698 408.8 353.698 403.6 336.498 386.5C332.898 382.8 329.398 380.1 324.698 379.7V379.1L326.998 379C340.198 377.9 350.298 369.6 350.298 357.4C350.298 344.1 338.598 335.2 320.998 335.2H292.298V336.1H296.198C301.398 336.1 301.998 336.6 301.998 341.4V400.9C301.998 405.7 301.398 406.2 296.198 406.2H292.298L292.098 407ZM368.898 359.7C369.898 344.3 378.298 336.1 392.898 336.1C404.898 336.1 412.898 344.9 412.898 358.1C412.898 358.7 412.598 359 411.998 359L368.898 359.7ZM519.141 407.8C543.441 407.8 559.741 393.1 559.741 371C559.741 349 543.441 334.3 519.141 334.3C494.641 334.3 478.341 349 478.341 371C478.341 393.1 494.641 407.8 519.141 407.8ZM519.541 406C498.941 406 487.941 393.1 487.941 369.2C487.941 347.7 498.741 336.1 518.741 336.1C539.141 336.1 550.141 349 550.141 372.9C550.141 394.4 539.441 406 519.541 406ZM575.125 407H606.425V406.1H599.325C594.025 406.1 593.325 405.6 593.325 400.8V373.8H597.725C606.625 373.8 611.425 377.5 611.425 384.4V388.5H612.425V355.4H611.425V361.4C611.425 371 603.925 372 597.725 372H593.325V342.2C593.325 340 592.225 338.2 590.925 337V336.9H604.225C614.825 336.9 623.525 340.6 624.125 351.4L624.625 358.4H626.625L624.525 329.1L623.525 329.2L623.925 336H623.825C623.025 335.3 622.625 335.1 620.825 335.1H575.125V336H578.925C584.225 336 584.825 336.5 584.825 341.3V400.8C584.825 405.6 584.225 406.1 578.925 406.1H575.125V407ZM696.486 405.2V405C697.786 403.8 698.286 402.2 698.286 399.9V342.2C698.286 339.9 697.786 338.2 696.486 337V336.9H705.386C716.386 336.9 723.586 342.3 723.586 350.4C723.586 358.3 716.586 363.9 706.886 363.9H702.486V365.6H708.286C721.986 365.6 731.786 374.2 731.786 386.2C731.786 397.6 722.686 405.2 708.986 405.2H696.486ZM680.086 407H710.986C727.986 407 741.286 398.7 741.286 386.2C741.286 376 731.386 365.5 717.186 364.6V364.2C727.286 362.9 732.986 355.9 732.986 350.2C732.986 341.1 722.486 335.1 706.886 335.1H680.086V336H683.886C689.186 336 689.786 336.5 689.786 341.3V400.7C689.786 405.5 689.186 406 683.886 406H680.086V407ZM829.023 368C830.923 368 832.423 366.7 832.423 365.1V364.6C832.423 346.4 816.323 334.3 797.223 334.3C772.923 334.3 756.623 348.9 756.623 370.8C756.623 393 773.923 407.8 797.023 407.8C812.623 407.8 824.923 401.8 831.723 391.6L830.223 390.5C823.823 400.2 812.323 406 797.523 406C778.723 406 766.623 393.1 766.623 369.2V368H829.023ZM766.723 366.2C767.723 346.6 778.323 336.1 797.123 336.1C812.623 336.1 822.923 347.5 822.923 364.6C822.923 365.2 822.623 365.5 822.123 365.5L766.723 366.2ZM886.835 370.6H878.235C860.535 370.6 848.835 378.9 848.835 391.4C848.835 401.2 857.735 407.8 869.535 407.8C877.535 407.8 884.735 403.6 888.035 391.6H889.135C889.235 395.1 891.235 402.6 891.235 407.1V407.9C894.335 407 898.035 406.2 903.435 405.7L903.335 404.8L901.435 404.9C900.635 404.9 899.935 405 899.235 405C895.935 405 895.635 403.9 895.635 399.9V350.5C895.635 340 887.935 334.3 873.735 334.3C867.135 334.3 861.935 336.4 858.535 338.7C857.835 339.2 856.935 340.7 856.835 341L856.035 340.8C856.235 340.1 856.335 339 856.535 337.6L856.835 332.3H855.735L854.535 355.9H856.535L856.835 349.7C857.235 341.9 862.935 336.1 873.835 336.1C882.335 336.1 886.835 340.6 886.835 349.2V370.6ZM886.835 372.4V384.4C886.835 398.7 878.635 405.1 870.935 405.1C863.435 405.1 858.335 399.6 858.335 391.4C858.335 380 866.535 372.4 878.835 372.4H886.835ZM978.864 405.2H976.964C971.664 405.2 971.064 404.7 971.064 399.9V340.8C971.064 339 971.264 337.5 971.464 335.5V334.7L954.464 335.1V336H956.264C961.564 336 962.264 336.5 962.264 341.3V380.5C962.264 395.8 954.264 406 942.564 406C936.164 406 931.764 401.1 931.764 391.8V332.3H930.864V332.7C930.864 336.8 925.264 338 920.764 338H914.464V338.9H919.664C921.764 338.9 922.864 340 922.864 341.9V392.7C922.864 402.5 930.664 407.8 941.464 407.8C951.764 407.8 961.064 401.8 963.364 387.4H964.164V387.8C964.164 389.7 964.364 397.3 964.364 399.8V401.4C964.364 403.2 964.064 405.1 963.864 407.1V407.9C968.164 407 973.464 406.3 978.764 406.1L978.864 405.2ZM1001.36 407H1038.16V406.1H1029.96C1024.66 406.1 1024.16 405.6 1024.16 400.8V336.9H1030.56C1041.06 336.9 1044.56 338.8 1045.36 348.4L1045.66 352.5L1047.66 352.4L1046.06 329.3L1044.86 329.4L1045.36 335.1H994.156L994.656 329.3L993.456 329.2L991.756 352.4L993.756 352.5L994.156 348.4C994.656 338.8 998.356 336.9 1008.96 336.9H1015.56V400.8C1015.56 405.6 1015.06 406.1 1009.76 406.1H1001.36V407ZM1072.04 407H1109.94V406.2H1101.84C1096.54 406.2 1095.94 405.7 1095.94 400.9V371.6L1112.24 343C1115.14 337.9 1116.24 335.9 1119.64 335.9H1121.44V335.1H1100.24V335.9H1106.84C1110.34 335.9 1111.54 337 1111.54 338.7C1111.54 339.9 1110.94 341.4 1109.94 343L1096.74 366.2C1096.24 367.2 1095.44 368.8 1095.34 369.4H1094.54C1094.44 368.8 1093.64 367.1 1093.14 366.2L1078.94 341.6C1077.14 338.6 1075.94 336.5 1074.44 336V335.8H1081.24V335H1060.44V335.8H1062.74C1066.74 335.8 1067.34 338.2 1070.04 342.8L1087.24 373V400.8C1087.24 405.6 1086.74 406.1 1081.44 406.1H1072.04V407Z" fill="#303030"/>
</svg>
