<svg viewBox="0 0 104.25244 96.089466" xmlns="http://www.w3.org/2000/svg" xmlns:xlink="http://www.w3.org/1999/xlink"><linearGradient id="a"><stop offset="0" stop-color="#ff9d51"/><stop offset="1" stop-color="#ff7102" stop-opacity=".318681"/></linearGradient><linearGradient id="b" gradientUnits="userSpaceOnUse" x1="530.52079665338" x2="564.88774246917" xlink:href="#a" y1="1416.34517143151" y2="1372.09564379037"/><linearGradient id="c" gradientUnits="userSpaceOnUse" x1="631.889496" x2="654.953526" xlink:href="#a" y1="1478.243994" y2="1455.180094"/><g fill-rule="evenodd" transform="translate(-522.54818 -1328.1167)"><path d="m576.83799 1328.9667c-2.29104.01-4.61544 1.1678-6.15971 3.47l-46.01537 69.4833c-4.04418 8.5191 1.81586 16.6619 9.75954 18.9709 14.92108 3.3232 28.58662-5.5602 28.58662-5.5602 20.1294-12.8804 33.12972-20.151 33.12972-20.151 16.04247-8.1323 30.07592 1.8462 30.10565 1.8673l-43.43276-64.6103c-1.42321-2.3225-3.68263-3.475-5.97369-3.47zm.0189 7.1397c1.80281-.01 3.5811.9038 4.70107 2.7314 10.60745 15.7455 22.66308 31.9787 32.81365 48.0083 0 0-9.68728-5.0406-22.32487 1.3656 0 0-10.23359 5.7232-26.07364 15.859-1.54218.987-10.68897 7.1095-22.49208 4.371-6.25128-1.8169-10.8655-8.2257-7.68328-14.9296l36.21419-54.6743c1.21513-1.8117 3.04191-2.7274 4.84496-2.7314z" fill="#ff6f00"/><path d="m576.82179 1329.7798c-2.29103.01-4.14481-.1419-5.68909 2.1605l-43.65578 65.8082c-4.04417 8.5193 1.95993 16.3721 9.9036 18.6812 14.92108 3.3231 28.58663-5.5603 28.58663-5.5603 20.12941-12.8804 33.12972-20.1509 33.12972-20.1509 16.04247-8.1324 24.58127 4.0493 24.611 4.0706l-41.72311-61.0722c-1.4232-2.3226-2.87191-3.9422-5.16297-3.9371zm2.99311 1.8654c1.80282-.01 2.59411 2.0141 3.71408 3.8418 10.60746 15.7454 25.04251 37.5307 35.19308 53.5602 0 0-10.1615-4.0001-15.98138-3.6758-16.47387.5597-40.73543 23.927-55.40123 19.4494-5.56243-1.4461-14.07386-9.9991-4.78208-21.7842l32.41259-48.66c1.21513-1.8116 3.04191-2.7274 4.84494-2.7314z" fill="url(#b)"/><path d="m656.96257 1425.1851c-27.21725.6728-50.83427 26.1028-70.07064 33.6183 29.24493 35.1482 116.80123-6.5496 84.01477-29.8445-4.15975-2.8358-8.87076-3.8992-13.94413-3.7738zm9.65863 10.0775c15.43427 15.4186-42.52973 42.2407-67.17745 24.6031 9.4443-.7293 49.19182-38.9725 67.17745-24.6031z" fill="#ff7102" transform="matrix(.58156707 0 0 .58156707 231.37855 567.53751)"/><path d="m655.32669 1426.0689c-25.50111 5.2007-49.34905 29.2693-62.21115 33.1006 32.28581 26.1248 99.38695-10.3301 80.39062-25.7026-4.15975-2.8358-13.20691-8.4121-18.17947-7.398zm7.8469 7.435c17.83819 7.8909-32.19004 34.2876-62.34621 26.3082 29.0207-17.0841 45.38146-33.7295 62.34621-26.3082z" fill="url(#c)" transform="matrix(.58156707 0 0 .58156707 231.80438 567.53751)"/></g></svg>