<?xml version="1.0" encoding="UTF-8" standalone="no"?>
<svg
   xmlns:dc="http://purl.org/dc/elements/1.1/"
   xmlns:cc="http://creativecommons.org/ns#"
   xmlns:rdf="http://www.w3.org/1999/02/22-rdf-syntax-ns#"
   xmlns:svg="http://www.w3.org/2000/svg"
   xmlns="http://www.w3.org/2000/svg"
   viewBox="0 0 843.96002 518.44"
   height="518.44"
   width="843.96002"
   xml:space="preserve"
   id="svg2"
   version="1.1"><metadata
     id="metadata8"><rdf:RDF><cc:Work
         rdf:about=""><dc:format>image/svg+xml</dc:format><dc:type
           rdf:resource="http://purl.org/dc/dcmitype/StillImage" /></cc:Work></rdf:RDF></metadata><defs
     id="defs6" /><g
     transform="matrix(1.3333333,0,0,-1.3333333,0,518.44)"
     id="g10"><g
       transform="scale(0.1)"
       id="g12"><path
         id="path14"
         style="fill:#e7e8e5;fill-opacity:1;fill-rule:nonzero;stroke:none"
         d="m 5970.95,1990.9 c 0,0 -75.28,31.22 -125.75,-144.17 -50.48,-175.38 -63.49,-273.4 -63.49,-273.4 0,0 -15.04,-37.61 -42.24,-20.2 -27.21,17.42 -70.68,73.35 -107.57,54.63 -38.25,-19.41 -42.85,-67.2 -22.28,-132.13 20.58,-64.93 60.43,-208.84 63.99,-221.85 3.48,-12.8 -0.25,-33.35 -20.68,-24.46 -20.44,8.9 -146.56,104.39 -188.29,41.83 -41.73,-62.57 45.31,-234.02 54.47,-252.95 9.15,-18.93 6.9,-28.2 -1.63,-34.981 -8.52,-6.77 -47.89,29.331 -84.88,55.011 -36.98,25.69 -84.37,48.99 -105.42,10.88 -21.05,-38.11 -3.46,-176.001 168.95,-372.13 l 85.83,-85.66 118.12,29.731 c 248.9,79.019 335.12,188.051 336.76,231.551 1.63,43.519 -50.99,48.007 -95.92,45.097 -44.94,-2.918 -97.28,-13.508 -101.09,-3.32 -3.81,10.203 -0.95,19.312 16.66,30.793 17.61,11.5 180.65,113.438 177.2,188.558 -3.46,75.12 -160.77,58.42 -182.87,61.35 -22.09,2.92 -14.67,22.47 -5.08,31.62 9.76,9.31 118.16,112.01 169.29,157.01 51.14,44.99 71.86,88.29 49.11,124.67 -21.94,35.07 -88.03,9.6 -120.33,8.72 -32.29,-0.88 -25.76,39.09 -25.76,39.09 0,0 39.45,90.68 86.73,266.95 47.28,176.28 -35.4,188.29 -35.4,188.29" /><path
         id="path16"
         style="fill:#dadbd8;fill-opacity:1;fill-rule:nonzero;stroke:none"
         d="m 5925.48,1833.91 c 0,0 -0.2,-1.29 -0.79,-3.75 -0.65,-2.62 -1.55,-6.24 -2.71,-10.89 -2.52,-9.73 -6.17,-23.79 -10.82,-41.77 -9.46,-36.28 -23.51,-88.67 -41.14,-153.31 -35.19,-129.33 -85.34,-307.57 -141.37,-504.22 C 5672.59,923.238 5622,745.129 5586.08,616.012 c -17.87,-64.442 -32.34,-116.641 -42.4,-152.942 -4.98,-17.91 -8.88,-31.871 -11.58,-41.57 -1.32,-4.602 -2.36,-8.18 -3.11,-10.781 -0.72,-2.418 -1.19,-3.629 -1.19,-3.629 0,0 0.19,1.281 0.78,3.742 0.65,2.617 1.56,6.238 2.71,10.887 2.52,9.742 6.17,23.769 10.83,41.769 9.45,36.274 23.5,88.653 41.13,153.301 35.19,129.332 85.34,307.582 141.4,504.311 56.04,196.66 106.62,374.75 142.54,503.87 17.86,64.43 32.34,116.65 42.4,152.95 4.99,17.91 8.88,31.87 11.58,41.57 1.32,4.6 2.36,8.18 3.11,10.78 0.72,2.43 1.2,3.64 1.2,3.64" /><path
         id="path18"
         style="fill:#dadbd8;fill-opacity:1;fill-rule:nonzero;stroke:none"
         d="m 5689.56,1527.07 c 0.26,0.12 1.89,-2.53 4.63,-7.46 2.77,-4.92 6.54,-12.15 11.12,-21.13 9.1,-17.98 21.02,-43.14 33.65,-71.15 12.3,-27.59 23.42,-52.54 32.02,-71.84 3.84,-8.52 7.11,-15.77 9.8,-21.71 2.32,-5.13 3.49,-8.03 3.24,-8.16 -0.26,-0.14 -1.92,2.52 -4.69,7.42 -2.75,4.94 -6.53,12.17 -11.01,21.2 -8.93,18.07 -20.52,43.37 -33.14,71.38 -12.49,27.49 -23.79,52.36 -32.52,71.58 -3.89,8.51 -7.2,15.74 -9.91,21.68 -2.3,5.15 -3.45,8.06 -3.19,8.19" /><path
         id="path20"
         style="fill:#dadbd8;fill-opacity:1;fill-rule:nonzero;stroke:none"
         d="m 5795.36,1325.62 c -0.52,1.03 50.25,27.92 113.37,60.07 63.16,32.16 114.76,57.39 115.28,56.38 0.52,-1.03 -50.24,-27.92 -113.39,-60.08 -63.13,-32.15 -114.74,-57.39 -115.26,-56.37" /><path
         id="path22"
         style="fill:#dadbd8;fill-opacity:1;fill-rule:nonzero;stroke:none"
         d="m 5695.67,1027.45 c -0.04,0.28 3.05,1.04 8.7,2.18 6.51,1.26 14.49,2.79 23.89,4.6 20.16,3.89 48,9.36 78.49,16.5 30.52,7.07 57.92,14.41 77.73,19.86 9.23,2.53 17.06,4.68 23.46,6.43 5.56,1.47 8.68,2.17 8.76,1.89 0.09,-0.27 -2.86,-1.48 -8.27,-3.43 -5.42,-1.96 -13.31,-4.62 -23.12,-7.7 -19.63,-6.19 -47,-14 -77.62,-21.09 -30.59,-7.16 -58.59,-12.19 -78.93,-15.36 -10.17,-1.54 -18.42,-2.68 -24.15,-3.3 -5.72,-0.64 -8.9,-0.87 -8.94,-0.58" /><path
         id="path24"
         style="fill:#dadbd8;fill-opacity:1;fill-rule:nonzero;stroke:none"
         d="m 5559.87,1188.6 c 0.21,0.19 2.34,-1.86 6,-5.71 3.67,-3.86 8.87,-9.52 15.22,-16.58 12.71,-14.13 30.05,-33.81 49,-55.74 18.97,-21.92 35.96,-41.92 48.1,-56.53 6.06,-7.31 10.93,-13.27 14.21,-17.45 3.29,-4.18 5,-6.57 4.78,-6.77 -0.21,-0.18 -2.34,1.86 -6,5.71 -3.67,3.86 -8.86,9.53 -15.22,16.59 -12.7,14.12 -30.05,33.81 -49.01,55.74 -18.96,21.91 -35.94,41.91 -48.08,56.52 -6.07,7.31 -10.93,13.27 -14.22,17.45 -3.28,4.18 -5,6.57 -4.78,6.77" /><path
         id="path26"
         style="fill:#dadbd8;fill-opacity:1;fill-rule:nonzero;stroke:none"
         d="m 5438.42,936.551 c 0.22,0.179 2.91,-2.449 7.6,-7.391 5.18,-5.621 11.74,-12.719 19.56,-21.191 16.38,-18.008 38.8,-43.09 63.36,-70.938 24.57,-27.871 46.64,-53.25 62.45,-71.761 7.43,-8.829 13.65,-16.219 18.58,-22.059 4.31,-5.27 6.6,-8.281 6.37,-8.473 -0.2,-0.179 -2.9,2.453 -7.59,7.403 -5.18,5.601 -11.73,12.711 -19.56,21.191 -16.38,17.996 -38.8,43.078 -63.37,70.938 -24.57,27.871 -46.63,53.25 -62.45,71.75 -7.43,8.832 -13.65,16.218 -18.56,22.062 -4.32,5.277 -6.6,8.277 -6.39,8.469" /><path
         id="path28"
         style="fill:#dadbd8;fill-opacity:1;fill-rule:nonzero;stroke:none"
         d="m 5613.45,740.77 c -0.06,0.281 3.85,1.339 10.95,3.019 7.87,1.801 17.98,4.121 30.09,6.902 25.4,5.848 60.46,14.02 98.9,24.118 38.48,10.05 73.06,20.031 98.06,27.421 11.92,3.508 21.86,6.43 29.62,8.7 7.01,2.031 10.93,3.019 11.01,2.75 0.09,-0.282 -3.66,-1.789 -10.51,-4.282 -6.86,-2.5 -16.85,-5.937 -29.25,-9.976 -24.81,-8.113 -59.33,-18.563 -97.88,-28.621 -38.52,-10.121 -73.75,-17.86 -99.34,-22.981 -12.8,-2.531 -23.18,-4.449 -30.39,-5.629 -7.2,-1.179 -11.2,-1.711 -11.26,-1.421" /><path
         id="path30"
         style="fill:#dadbd8;fill-opacity:1;fill-rule:nonzero;stroke:none"
         d="m 5667.97,317.09 c 22.18,26.851 60.34,37.969 94.5,31.148 34.16,-6.816 63.85,-29.918 82.64,-59.246 8.69,-13.551 15.39,-30.23 10.37,-45.543 -4.68,-14.289 -19.04,-23.91 -33.89,-26.367 -14.86,-2.461 -30.09,1.168 -44.15,6.527 -48.25,18.403 -91.56,45.063 -109.47,93.481" /><path
         id="path32"
         style="fill:#dadbd8;fill-opacity:1;fill-rule:nonzero;stroke:none"
         d="m 5586.07,364.809 c 51.15,52.691 74.32,131.113 59.98,203.132 -3.64,18.34 -12.63,39.129 -30.99,42.7 -18.38,3.578 -34.56,-12.442 -44.45,-28.34 -41.16,-66.172 -36.66,-157.68 10.8,-219.492" /><path
         id="path34"
         style="fill:#dadbd8;fill-opacity:1;fill-rule:nonzero;stroke:none"
         d="m 5979.86,614.051 c 7.31,-30.313 -1.14,-63.02 -18.21,-89.11 -17.07,-26.101 -42.08,-46.14 -68.93,-61.992 -51.94,-30.668 -120.76,-39.898 -181.08,-39.461 4.78,66.832 59.15,122.371 88.49,148.801 46.4,41.789 155.61,89.152 179.73,41.762" /><path
         id="path36"
         style="fill:#fafaf9;fill-opacity:1;fill-rule:nonzero;stroke:none"
         d="m 5491.91,266.449 c 7.23,3.699 12.46,9.93 25.74,15.91 26.49,11.75 64.15,27.512 108.59,34.34 44.53,6.789 86.12,-0.039 113.06,-11.879 13.56,-5.789 23.73,-12.109 30.21,-17.14 6.5,-5 9.65,-8.27 9.4,-8.571 -0.78,-1.129 -14.45,11.141 -41.38,21.27 -26.63,10.371 -66.91,16.242 -110.29,9.641 -43.39,-6.649 -80.86,-21.469 -107.73,-32.059" /><path
         id="path38"
         style="fill:#fafaf9;fill-opacity:1;fill-rule:nonzero;stroke:none"
         d="m 5491.08,265.852 c 11.82,8.589 27.32,19.847 46.01,33.429 38.93,28.149 92.59,67.141 151.31,111.008 58.67,43.859 111.28,84.27 149.3,113.621 18.33,14.07 33.52,25.738 45.12,34.649 10.7,8.132 16.76,12.441 17.06,12.082 0.29,-0.36 -5.21,-5.371 -15.41,-14.121 -10.2,-8.77 -25.16,-21.2 -43.8,-36.36 -37.29,-30.328 -89.48,-71.379 -148.22,-115.289 -58.78,-43.91 -112.95,-82.332 -152.6,-109.492 -19.83,-13.59 -35.98,-24.41 -47.28,-31.699" /><path
         id="path40"
         style="fill:#fafaf9;fill-opacity:1;fill-rule:nonzero;stroke:none"
         d="m 5605.17,527.398 c 0.45,0.09 1.56,-4.058 3.18,-11.718 0.89,-3.821 1.78,-8.532 2.24,-14.059 0.54,-5.531 1.51,-11.832 1.43,-18.84 0.66,-14.011 -0.44,-30.761 -3.39,-49.09 -3.34,-18.261 -8.75,-38.062 -17.02,-57.859 -8.54,-19.711 -19.04,-37.352 -29.88,-52.434 -11.16,-14.839 -22.46,-27.25 -33.01,-36.5 -5,-4.918 -10.21,-8.578 -14.56,-12.039 -4.31,-3.507 -8.32,-6.129 -11.68,-8.14 -6.64,-4.149 -9.65,-3.43 -9.91,-3.039 -0.74,1.101 13.18,7.492 32.87,26.699 9.94,9.512 20.61,21.98 31.23,36.672 10.32,14.918 20.39,32.187 28.72,51.41 8.05,19.328 13.51,38.57 17.1,56.34 3.22,17.84 4.79,34.179 4.75,47.929 0.17,27.52 -3.38,44.442 -2.07,44.668" /><path
         id="path42"
         style="fill:#e7e8e5;fill-opacity:1;fill-rule:nonzero;stroke:none"
         d="m 1012.3,406.23 c 122.27,152.258 98.89,361.719 40.45,539.04 -9.74,29.609 -15.68,62.09 -37.56,84.16 -21.897,22.07 -60.323,30.3 -83.409,9.87 -19.148,-16.93 -21.273,-45.589 -27.449,-70.581 -8.219,-33.25 -25.969,-63.969 -50.543,-87.469 -16.152,-15.441 -37.941,-28.371 -59.766,-23.5 -29.945,6.691 -43.402,41.43 -51.91,71.23 -15.855,55.52 -31.715,111.05 -47.562,166.56 -8.504,29.79 -17.297,60.17 -34.789,85.7 -17.496,25.51 -45.598,45.76 -76.199,45.41 -30.61,-0.34 -60.821,-26.88 -58.286,-57.74 1.055,-12.83 7.2,-24.68 9.977,-37.26 2.781,-12.59 1.023,-27.93 -9.691,-34.8 -10.852,-6.95 -25.215,-2 -36.645,4.1 -39.469,21.06 -71.605,53.65 -102.313,86.42 -30.707,32.77 -61.109,66.63 -98.531,91.24 -37.422,24.6 -83.523,39.3 -126.816,29.26 -43.293,-10.04 -80.9807,-49.59 -79.5197,-94.54 1.4609,-45.07 38.3517,-80.46 74.8827,-106.61 54.203,-38.81 113.93,-69.68 176.707,-91.34 11.32,-3.92 23.582,-8.13 30.383,-18.099 12.254,-17.941 -0.777,-43.109 -18.441,-55.351 -20.008,-13.871 -44.735,-18.59 -67.118,-28.102 -22.386,-9.508 -44.515,-27.078 -46.882,-51.558 -3.297,-33.938 31.433,-58.379 62.546,-71.93 62.297,-27.141 129.133,-43.43 196.676,-47.949 24.215,-1.61 49.289,-1.911 71.418,-12.11 22.133,-10.222 40.59,-33.832 36.059,-57.89 -4.535,-24.082 -29.934,-38.782 -54.086,-41.219 -24.149,-2.453 -48.297,3.988 -72.539,5.848 -45.371,3.468 -97.321,-14.77 -113.176,-57.739 -10.414,-28.242 -2.48,-61.011 14.312,-86.14 16.782,-25.129 41.399,-43.809 66.559,-60.313 87.957,-57.699 189.887,-95.047 294.297,-100.207 104.394,-5.16 194.832,11.617 278.964,73.609" /><path
         id="path44"
         style="fill:#dadbd8;fill-opacity:1;fill-rule:nonzero;stroke:none"
         d="m 112.773,1266.68 c -0.043,-0.1 1.215,-0.77 3.711,-1.99 2.77,-1.31 6.454,-3.06 11.133,-5.29 9.801,-4.61 24.254,-11.41 42.625,-20.66 36.75,-18.42 89.156,-46.99 149.41,-89.4 30.184,-21.09 62.297,-45.57 96.293,-72.48 33.961,-26.98 70.071,-56.03 106.883,-88.008 36.801,-31.954 74.461,-66.723 110.512,-105.641 18.105,-19.383 35.273,-40.18 52.797,-61.391 17.461,-21.211 35.172,-42.73 53.105,-64.511 71.399,-87.36 136.738,-172.899 189.613,-255.168 53.008,-82.161 93.275,-160.891 120.885,-229.52 27.79,-68.59 43.19,-126.711 51.88,-167.133 4.23,-20.2458 7.21,-36.0583 8.83,-46.8278 0.89,-5.1407 1.58,-9.1914 2.09,-12.2188 0.5,-2.75 0.81,-4.1601 0.9,-4.1601 0.1,0.0195 -0.01,1.4492 -0.32,4.2304 -0.39,3.0586 -0.88,7.1367 -1.52,12.3086 -1.27,10.8516 -3.9,26.7383 -7.81,47.1207 -8.04,40.649 -22.9,99.137 -50.32,168.188 C 1026.24,343.191 986.188,422.441 933.246,505 880.465,587.68 815.09,673.52 743.629,760.949 c -17.945,21.793 -35.68,43.321 -53.156,64.531 -17.489,21.149 -34.84,42.11 -53.071,61.579 -36.308,39.082 -74.195,73.89 -111.187,105.812 -36.992,31.949 -73.262,60.919 -107.367,87.749 -34.184,26.78 -66.52,51.13 -96.93,72.07 -60.723,42.12 -113.621,70.24 -150.723,88.05 -18.543,8.97 -33.152,15.46 -43.121,19.72 -4.777,2.01 -8.535,3.59 -11.355,4.77 -2.574,1.05 -3.906,1.53 -3.946,1.45" /><path
         id="path46"
         style="fill:#dadbd8;fill-opacity:1;fill-rule:nonzero;stroke:none"
         d="m 635.777,886.809 c 0.383,0.05 0.071,4.871 -0.808,13.543 -0.84,8.668 -2.469,21.168 -4.707,36.597 -4.453,30.832 -12.047,73.201 -20.606,119.891 -8.558,46.71 -15.535,89.07 -19.504,119.89 -2.023,15.4 -3.547,27.89 -4.48,36.53 -0.984,8.64 -1.719,13.41 -2.109,13.39 -0.395,-0.02 -0.411,-4.84 -0.098,-13.56 0.262,-8.71 1.164,-21.3 2.695,-36.8 2.949,-31.05 9.324,-73.7 17.899,-120.44 8.554,-46.06 16.3,-87.709 22.218,-119.541 2.59,-14.399 4.754,-26.528 6.496,-36.27 1.563,-8.559 2.602,-13.289 3.004,-13.23" /><path
         id="path48"
         style="fill:#dadbd8;fill-opacity:1;fill-rule:nonzero;stroke:none"
         d="m 232.578,846.512 c 0.102,-0.383 5.727,0.578 15.785,2.629 10.063,1.988 24.614,4.961 42.7,8.039 36.121,6.461 86.328,13.629 142.066,19.121 55.773,5.39 106.445,8.121 143.148,9.027 18.368,0.594 33.231,0.66 43.508,0.781 10.278,0.082 15.969,0.301 15.992,0.7 0.004,0.402 -5.672,0.933 -15.964,1.55 -10.286,0.563 -25.196,1.11 -43.618,1.051 -36.832,0.121 -87.718,-1.969 -143.656,-7.371 C 376.641,876.52 326.328,868.691 290.293,861.191 272.246,857.57 257.781,854 247.84,851.309 c -9.918,-2.727 -15.356,-4.411 -15.262,-4.797" /><path
         id="path50"
         style="fill:#dadbd8;fill-opacity:1;fill-rule:nonzero;stroke:none"
         d="m 926.488,510.66 c 0.2,-0.031 0.625,1.84 1.262,5.43 0.676,4.25 1.496,9.449 2.492,15.742 2.11,13.668 4.641,33.559 7.442,58.148 5.644,49.192 11.3,117.379 16.527,192.7 5.23,75.359 10.242,143.519 14.852,192.761 2.304,23.938 4.214,43.649 5.625,58.299 0.582,6.34 1.054,11.58 1.441,15.88 0.266,3.63 0.316,5.54 0.117,5.58 -0.195,0.02 -0.621,-1.84 -1.258,-5.44 -0.675,-4.26 -1.504,-9.44 -2.5,-15.73 -2.101,-13.67 -4.633,-33.55 -7.441,-58.139 -5.637,-49.192 -11.297,-117.391 -16.516,-192.75 -5.234,-75.34 -10.25,-143.481 -14.855,-192.719 -2.321,-23.953 -4.211,-43.66 -5.625,-58.293 -0.582,-6.348 -1.055,-11.598 -1.446,-15.879 -0.261,-3.648 -0.312,-5.559 -0.117,-5.59" /><path
         id="path52"
         style="fill:#dadbd8;fill-opacity:1;fill-rule:nonzero;stroke:none"
         d="m 370.602,525.891 c 0.007,-0.2 1.953,-0.411 5.648,-0.61 4.363,-0.172 9.715,-0.371 16.199,-0.633 14.922,-0.429 35.059,-1.019 59.559,-1.718 50.293,-1.481 119.719,-4.301 196.433,-7.532 76.743,-3.238 146.27,-5.418 196.602,-5.847 25.168,-0.231 45.527,-0.199 59.602,0.097 6.492,0.192 11.843,0.34 16.199,0.454 3.707,0.168 5.656,0.359 5.644,0.558 -0.004,0.199 -1.945,0.399 -5.648,0.621 -4.352,0.149 -9.703,0.367 -16.195,0.61 -14.922,0.441 -35.051,1.019 -59.547,1.73 -50.289,1.457 -119.731,4.301 -196.469,7.527 -76.719,3.231 -146.238,5.422 -196.57,5.852 -25.164,0.219 -45.528,0.191 -59.61,-0.109 -6.492,-0.18 -11.84,-0.321 -16.199,-0.45 -3.707,-0.16 -5.645,-0.351 -5.648,-0.55" /><path
         id="path54"
         style="fill:#f3f2f1;fill-opacity:1;fill-rule:nonzero;stroke:none"
         d="m 2203.23,2497.62 28,-290.38 h 141.51 l 33.91,290.38 h -203.42" /><path
         id="path56"
         style="fill:#dadbd8;fill-opacity:1;fill-rule:nonzero;stroke:none"
         d="m 2203.23,2535.16 c 0,0 -11.79,-11.79 -13.26,-38.33 h 229.94 c 0,0 4.42,23.59 -13.26,38.33 h -203.42" /><path
         id="path58"
         style="fill:#dadbd8;fill-opacity:1;fill-rule:nonzero;stroke:none"
         d="m 2229.46,2561.76 -7.79,-28.74 173.57,-1.3 -11.46,30.37 -154.32,-0.33" /><path
         id="path60"
         style="fill:#e7e8e5;fill-opacity:1;fill-rule:nonzero;stroke:none"
         d="m 2200.33,2424.93 c 0,-2.69 16.84,-146.15 16.84,-146.15 h 173 l 16.48,146.15 h -206.32" /><path
         id="path62"
         style="fill:#17282f;fill-opacity:1;fill-rule:nonzero;stroke:none"
         d="M 6329.68,2.60156 C 6329.68,1.16016 4912.62,0 3164.99,0 1416.76,0 0,1.16016 0,2.60156 c 0,1.4375 1416.76,2.59766 3164.99,2.59766 1747.63,0 3164.69,-1.16016 3164.69,-2.59766" /><path
         id="path64"
         style="fill:#f03d5f;fill-opacity:1;fill-rule:nonzero;stroke:none"
         d="m 4838.57,3302.04 c 14.56,221.78 206.15,389.76 427.93,375.2 221.78,-14.56 389.75,-206.15 375.19,-427.93 -14.56,-221.78 -206.15,-389.76 -427.93,-375.2 -221.77,14.56 -389.75,206.15 -375.19,427.93" /><path
         id="path66"
         style="fill:#fafaf9;fill-opacity:1;fill-rule:nonzero;stroke:none"
         d="m 5422.85,3263.29 c 0,-0.33 -5.03,-0.65 -14.22,-0.94 -10.06,-0.2 -23.2,-0.46 -39.11,-0.79 -33.19,-0.45 -79.43,-0.77 -131.63,-0.85 h -2.58 v 2.58 c -0.01,8.36 -0.01,17.16 -0.02,26.1 0,58.3 0.29,111.07 0.76,149.26 0.33,18.42 0.61,33.65 0.83,45.23 0.31,10.68 0.65,16.58 1.01,16.58 0.36,0 0.7,-5.9 1.01,-16.58 0.22,-11.58 0.49,-26.81 0.83,-45.23 0.47,-38.19 0.76,-90.96 0.76,-149.26 -0.01,-8.94 -0.01,-17.74 -0.02,-26.1 l -2.58,2.59 c 52.2,-0.08 98.44,-0.4 131.63,-0.86 15.91,-0.32 29.05,-0.59 39.11,-0.79 9.19,-0.29 14.22,-0.6 14.22,-0.94" /><path
         id="path68"
         style="fill:#fafaf9;fill-opacity:1;fill-rule:nonzero;stroke:none"
         d="m 5239.13,3612 c 1.43,0 2.6,-15.14 2.6,-33.8 0,-18.68 -1.17,-33.81 -2.6,-33.81 -1.44,0 -2.61,15.13 -2.61,33.81 0,18.66 1.17,33.8 2.61,33.8" /><path
         id="path70"
         style="fill:#fafaf9;fill-opacity:1;fill-rule:nonzero;stroke:none"
         d="m 5422.48,3557.71 c 1.03,-1.02 -8.7,-12.39 -21.71,-25.41 -13.01,-13.01 -24.39,-22.73 -25.4,-21.71 -1.02,1.01 8.71,12.39 21.71,25.4 13.02,13.01 24.39,22.74 25.4,21.72" /><path
         id="path72"
         style="fill:#fafaf9;fill-opacity:1;fill-rule:nonzero;stroke:none"
         d="m 5529.7,3440.59 c 0.66,-1.32 -12.11,-8.99 -27.73,-18.51 -15.66,-9.49 -28.34,-17.29 -29.2,-16.1 -0.84,1.14 10.63,10.94 26.49,20.55 15.83,9.64 29.82,15.32 30.44,14.06" /><path
         id="path74"
         style="fill:#fafaf9;fill-opacity:1;fill-rule:nonzero;stroke:none"
         d="m 5592.53,3266.79 c 0,-1.44 -20.63,-2.61 -46.09,-2.61 -25.46,0 -46.1,1.17 -46.1,2.61 0,1.43 20.64,2.6 46.1,2.6 25.46,0 46.09,-1.17 46.09,-2.6" /><path
         id="path76"
         style="fill:#fafaf9;fill-opacity:1;fill-rule:nonzero;stroke:none"
         d="m 4953.32,3272.93 c 0,-1.44 -19.49,-2.6 -43.53,-2.6 -24.05,0 -43.54,1.16 -43.54,2.6 0,1.44 19.49,2.61 43.54,2.61 24.04,0 43.53,-1.17 43.53,-2.61" /><path
         id="path78"
         style="fill:#fafaf9;fill-opacity:1;fill-rule:nonzero;stroke:none"
         d="m 4998.53,3143.54 c 0.95,-1.09 -13.78,-14.45 -32.89,-29.85 -19.12,-15.39 -35.31,-26.94 -36.17,-25.78 -0.86,1.15 13.86,14.51 32.9,29.84 19.02,15.32 35.22,26.87 36.16,25.79" /><path
         id="path80"
         style="fill:#fafaf9;fill-opacity:1;fill-rule:nonzero;stroke:none"
         d="m 5110.05,3043.47 c 1.2,-0.88 -9.71,-17.68 -22.38,-38.81 -12.72,-21.11 -22.43,-38.64 -23.76,-37.99 -1.26,0.59 6.44,19.32 19.3,40.67 12.8,21.37 25.73,36.96 26.84,36.13" /><path
         id="path82"
         style="fill:#fafaf9;fill-opacity:1;fill-rule:nonzero;stroke:none"
         d="m 5239.13,2914.4 c -1.44,0 -2.61,20.64 -2.61,46.1 0,25.46 1.17,46.09 2.61,46.09 1.43,0 2.6,-20.63 2.6,-46.09 0,-25.46 -1.17,-46.1 -2.6,-46.1" /><path
         id="path84"
         style="fill:#fafaf9;fill-opacity:1;fill-rule:nonzero;stroke:none"
         d="m 5437.83,2975.82 c -0.74,-1.16 -18.77,9.21 -38.01,26.04 -19.3,16.77 -32.03,33.21 -30.98,34.09 1.13,1.01 15.4,-13.67 34.41,-30.17 18.92,-16.56 35.42,-28.71 34.58,-29.96" /><path
         id="path86"
         style="fill:#fafaf9;fill-opacity:1;fill-rule:nonzero;stroke:none"
         d="m 5531.07,3076.25 c -1.02,-1.02 -14.68,11 -30.52,26.84 -15.84,15.85 -27.86,29.51 -26.84,30.52 1.01,1.03 14.68,-10.99 30.52,-26.84 15.84,-15.84 27.85,-29.5 26.84,-30.52" /><path
         id="path88"
         style="fill:#fafaf9;fill-opacity:1;fill-rule:nonzero;stroke:none"
         d="m 4994.3,3396.88 c -1.01,-1.01 -13.08,9.4 -26.94,23.26 -13.86,13.86 -24.27,25.91 -23.25,26.94 1.01,1.01 13.07,-9.4 26.94,-23.26 13.86,-13.86 24.27,-25.92 23.25,-26.94" /><path
         id="path90"
         style="fill:#fafaf9;fill-opacity:1;fill-rule:nonzero;stroke:none"
         d="m 5109.38,3518.11 c -1.01,-1.01 -12.86,9.14 -26.48,22.69 -13.61,13.55 -23.81,25.35 -22.8,26.38 1.02,1.01 12.87,-9.14 26.49,-22.69 13.6,-13.54 23.8,-25.36 22.79,-26.38" /><path
         id="path92"
         style="fill:#17282f;fill-opacity:1;fill-rule:nonzero;stroke:none"
         d="M 5399.1,2.48828 4666.57,5.87109 C 4578.46,6.26172 4507.35,77.8008 4507.73,165.66 l 7.75,1831.35 c 0.38,87.9 72.17,158.85 160.31,158.45 l 732.53,-3.38 c 88.1,-0.4 159.2,-71.94 158.84,-159.79 L 5559.39,160.922 C 5559.02,73.0195 5487.23,2.07031 5399.1,2.48828" /><path
         id="path94"
         style="fill:#ffffff;fill-opacity:1;fill-rule:nonzero;stroke:none"
         d="m 5407.29,2088.88 -142.03,0.65 c -19.04,0.08 -34.55,-15.94 -34.64,-35.79 l -0.12,-25.69 c -0.07,-19.86 -15.58,-35.89 -34.63,-35.8 l -276.84,1.28 c -19.04,0.08 -34.43,16.25 -34.34,36.11 l 0.12,25.69 c 0.09,19.85 -15.29,36.02 -34.34,36.11 l -49.95,0.24 -124.3,0.57 c -61.74,0.28 -112.02,-49.41 -112.28,-110.98 l -7.57,-1787.52 c -0.26,-61.539 49.53,-111.6289 111.24,-111.918 l 731.07,-3.3711 c 61.72,-0.2812 112,49.3981 112.25,110.9691 l 7.58,1787.54 c 0.26,61.53 -49.52,111.63 -111.22,111.91" /><path
         id="path96"
         style="fill:#f03d5f;fill-opacity:1;fill-rule:nonzero;stroke:none"
         d="m 4905,612.969 7.23,-132.84 c 0.26,-4.719 4.15,-8.438 8.89,-8.469 l 239.02,-1.762 c 4.96,-0.039 9,3.954 9.04,8.911 l 0.76,103.39 c 0.03,4.973 -3.99,9.031 -8.96,9.039 l -147.01,0.121 c -2.37,0 -4.65,0.95 -6.33,2.633 l -25.37,25.348 c -1.66,1.672 -3.92,2.609 -6.27,2.629 l -61.97,0.453 c -5.18,0.039 -9.31,-4.293 -9.03,-9.453" /><path
         id="path98"
         style="fill:#f3f2f1;fill-opacity:1;fill-rule:nonzero;stroke:none"
         d="m 5168.98,450.801 -261.17,1.91 1.14,156.07 261.17,-1.922 -1.14,-156.058" /><path
         id="path100"
         style="fill:#f03d5f;fill-opacity:1;fill-rule:nonzero;stroke:none"
         d="m 4888.07,594.922 18.75,-162.891 c 0.33,-2.89 2.77,-5.082 5.68,-5.109 l 254.54,-1.863 c 3,-0.02 5.52,2.273 5.78,5.269 l 14.01,162.652 c 0.28,3.348 -2.34,6.239 -5.71,6.258 l -287.28,2.114 c -3.46,0.019 -6.16,-2.981 -5.77,-6.43" /><path
         id="path102"
         style="fill:#f03d5f;fill-opacity:1;fill-rule:nonzero;stroke:none"
         d="m 5320.1,1113.33 c -1.07,0 -2.62,10.11 -4.45,28.13 -1.9,8.9 -3.51,19.88 -6.63,32.31 -1.79,6.18 -3.68,12.76 -5.7,19.71 -2.1,6.94 -5.33,13.94 -8.12,21.47 -12.35,29.58 -32.31,62.9 -62.15,92.92 -29.89,29.79 -70.08,55.37 -116.5,69.97 -46.71,13.59 -94.31,15.21 -135.76,7.17 -41.64,-7.83 -76.72,-24.68 -103.51,-42.27 -26.91,-17.69 -45.53,-36.43 -57.88,-49.67 -6.21,-6.63 -10.78,-12.03 -13.93,-15.68 -3.22,-3.59 -5.13,-5.36 -5.58,-5.06 -0.45,0.3 0.59,2.66 3.01,6.9 2.36,4.27 6.21,10.36 11.83,17.74 11.15,14.72 29.11,35.26 56.26,54.86 27.02,19.47 63.29,38.25 106.95,47.3 43.46,9.26 93.77,8.06 143.17,-6.35 49.1,-15.4 91.36,-42.9 122.19,-74.8 30.83,-32.14 50.7,-67.72 62.18,-99.01 2.59,-7.95 5.56,-15.34 7.37,-22.64 1.66,-7.3 3.23,-14.19 4.69,-20.68 2.41,-13 3.18,-24.4 4.15,-33.58 0.01,-18.61 -0.5,-28.74 -1.59,-28.74" /><path
         id="path104"
         style="fill:#f03d5f;fill-opacity:1;fill-rule:nonzero;stroke:none"
         d="m 5184.37,1214.21 c 2.62,3.42 64.55,-39.29 138.33,-95.41 1.41,-1.07 2.81,-2.14 4.11,-3.13 l -12.1,-3.64 c 29.93,85.3 57.02,152.42 61.03,151.02 3.99,-1.39 -16.6,-70.79 -46.28,-156.17 l -3.53,-10.15 -8.57,6.51 c -1.3,0.99 -2.71,2.05 -4.11,3.12 -73.78,56.13 -131.49,104.41 -128.88,107.85" /><path
         id="path106"
         style="fill:#f03d5f;fill-opacity:1;fill-rule:nonzero;stroke:none"
         d="m 4784.35,1160.49 c 1.06,-0.13 1.39,-10.06 1.05,-27.66 0.53,-8.8 1.16,-19.57 2.34,-31.93 2.04,-12.32 3.75,-26.37 8.22,-41.38 8.06,-30.07 22.81,-64.758 47.42,-97.668 24.17,-33.141 59.14,-63.422 101.56,-84.274 l 7.86,-4.019 8.17,-3.2 c 5.42,-2.148 10.81,-4.277 16.16,-6.39 5.47,-1.778 11.01,-3.18 16.45,-4.77 5.47,-1.457 10.78,-3.418 16.33,-4.14 21.84,-4.528 43.34,-6.809 63.87,-6.348 41.08,0.609 77.63,10.078 106.27,22.34 28.92,11.961 50.09,26.429 64.35,36.719 7.13,5.199 12.56,9.41 16.23,12.308 3.75,2.832 5.91,4.141 6.29,3.75 0.38,-0.379 -1.05,-2.437 -4.13,-6.027 -3.01,-3.68 -7.86,-8.699 -14.55,-14.75 -13.36,-11.961 -34.21,-28.321 -63.68,-42.09 -29.17,-14.063 -67.21,-25.18 -110.42,-26.652 -21.6,-0.879 -44.27,1.191 -67.36,5.761 -5.85,0.739 -11.47,2.731 -17.26,4.219 -5.76,1.641 -11.62,3.121 -17.4,4.961 -5.66,2.219 -11.36,4.449 -17.11,6.68 l -8.63,3.39 -8.32,4.239 c -5.55,2.851 -11.06,5.679 -16.55,8.5 -5.26,3.203 -10.34,6.613 -15.47,9.882 -10.51,6.161 -19.37,14.348 -28.69,21.481 -4.61,3.66 -8.52,8.019 -12.75,11.937 -4.04,4.121 -8.47,7.782 -12.05,12.172 -3.65,4.309 -7.26,8.571 -10.85,12.789 l -5.27,6.321 -4.65,6.691 c -25.23,35.09 -39.58,71.958 -46.55,103.558 -3.93,15.78 -4.94,30.47 -6.19,43.23 -0.39,12.84 -0.13,23.91 0.27,32.87 2.23,17.93 3.97,27.64 5.04,27.5" /><path
         id="path108"
         style="fill:#f03d5f;fill-opacity:1;fill-rule:nonzero;stroke:none"
         d="m 4906.73,1043.78 c -3.01,-3.09 -59.26,46.88 -125.63,111.6 -1.26,1.24 -2.52,2.47 -3.69,3.61 l 12.45,2.13 c -40.14,-81 -75.24,-144.31 -79.03,-142.43 -3.79,1.87 25.12,68.23 65.02,149.34 l 4.75,9.65 7.71,-7.51 c 1.17,-1.14 2.44,-2.37 3.7,-3.6 66.36,-64.73 117.73,-119.7 114.72,-122.79" /><path
         id="path110"
         style="fill:#17282f;fill-opacity:1;fill-rule:nonzero;stroke:none"
         d="M 3985.82,31.9883 H 994.145 c -80.454,0 -145.672,65.2226 -145.672,145.6717 v 1947.85 c 0,42.81 34.699,77.51 77.507,77.51 h 3138.13 c 37.21,0 67.39,-30.17 67.39,-67.39 V 177.66 c 0,-80.4491 -65.22,-145.6717 -145.68,-145.6717" /><path
         id="path112"
         style="fill:#17282f;fill-opacity:1;fill-rule:nonzero;stroke:none"
         d="M 4130.88,2.58984 H 848.395 C 772.613,2.58984 711.18,64.0313 711.18,139.809 v 52.75 h 3556.91 v -52.75 c 0,-75.7777 -61.43,-137.21916 -137.21,-137.21916" /><path
         id="path114"
         style="fill:#33535f;fill-opacity:1;fill-rule:nonzero;stroke:none"
         d="M 4034.19,283.371 H 936.598 V 2116.77 H 4034.19 V 283.371" /><path
         id="path116"
         style="fill:#33535f;fill-opacity:1;fill-rule:nonzero;stroke:none"
         d="m 2166.35,192.559 44.13,-70.207 h 621.08 l 40.99,70.207 h -706.2" /><path
         id="path118"
         style="fill:#ffffff;fill-opacity:1;fill-rule:nonzero;stroke:none"
         d="M 3891.85,284.07 H 1039.9 V 1994.68 H 3891.85 V 284.07" /><path
         id="path120"
         style="fill:#17282f;fill-opacity:1;fill-rule:nonzero;stroke:none"
         d="m 1161.64,1910.31 c 0,-13.2 -10.71,-23.93 -23.93,-23.93 -13.22,0 -23.93,10.73 -23.93,23.93 0,13.22 10.71,23.93 23.93,23.93 13.22,0 23.93,-10.71 23.93,-23.93" /><path
         id="path122"
         style="fill:#17282f;fill-opacity:1;fill-rule:nonzero;stroke:none"
         d="m 1259.29,1910.31 c 0,-13.2 -10.72,-23.93 -23.93,-23.93 -13.22,0 -23.93,10.73 -23.93,23.93 0,13.22 10.71,23.93 23.93,23.93 13.21,0 23.93,-10.71 23.93,-23.93" /><path
         id="path124"
         style="fill:#17282f;fill-opacity:1;fill-rule:nonzero;stroke:none"
         d="m 1356.93,1910.31 c 0,-13.2 -10.71,-23.93 -23.93,-23.93 -13.21,0 -23.92,10.73 -23.92,23.93 0,13.22 10.71,23.93 23.92,23.93 13.22,0 23.93,-10.71 23.93,-23.93" /><path
         id="path126"
         style="fill:#17282f;fill-opacity:1;fill-rule:nonzero;stroke:none"
         d="m 3891.85,1805.62 c 0,-1.5 -638.49,-2.72 -1425.91,-2.72 -787.69,0 -1426.04,1.22 -1426.04,2.72 0,1.52 638.35,2.73 1426.04,2.73 787.42,0 1425.91,-1.21 1425.91,-2.73" /><path
         id="path128"
         style="fill:#33535f;fill-opacity:1;fill-rule:nonzero;stroke:none"
         d="M 4131.5,180.629 H 848.473 v 10.473 H 4131.5 v -10.473" /><path
         id="path130"
         style="fill:#f03d5f;fill-opacity:1;fill-rule:nonzero;stroke:none"
         d="m 1992.92,1423.6 28.71,-528.018 c 1.02,-18.801 16.5,-33.57 35.34,-33.711 l 950.13,-6.961 c 19.69,-0.14 35.77,15.699 35.91,35.391 l 3.01,411.009 c 0.15,19.77 -15.84,35.88 -35.62,35.9 l -584.35,0.52 c -9.43,0.01 -18.49,3.76 -25.17,10.44 l -100.82,100.77 c -6.62,6.62 -15.58,10.37 -24.94,10.44 l -246.34,1.81 c -20.55,0.14 -36.97,-17.06 -35.86,-37.59" /><path
         id="path132"
         style="fill:#f3f2f1;fill-opacity:1;fill-rule:nonzero;stroke:none"
         d="m 3042.2,778.98 -1038.14,7.61 4.54,620.34 1038.14,-7.61 -4.54,-620.34" /><path
         id="path134"
         style="fill:#f03d5f;fill-opacity:1;fill-rule:nonzero;stroke:none"
         d="m 1925.61,1351.87 74.53,-647.479 c 1.32,-11.512 11.02,-20.219 22.6,-20.301 l 1011.73,-7.41 c 11.97,-0.09 21.98,9.031 23.01,20.949 l 55.67,646.531 c 1.15,13.32 -9.3,24.79 -22.67,24.89 l -1141.93,8.37 c -13.76,0.1 -24.51,-11.88 -22.94,-25.55" /><path
         id="path136"
         style="fill:#dadbd8;fill-opacity:1;fill-rule:nonzero;stroke:none"
         d="m 2740.6,1022.83 c -3.11,-0.27 -1.44,28.35 -18.61,68.58 -8.55,19.89 -22.16,42.22 -42.33,62.34 -20.21,19.96 -47.25,37.07 -78.45,46.88 -31.4,9.13 -63.39,10.3 -91.31,5.02 -28.04,-5.14 -51.74,-16.31 -69.96,-27.99 -36.47,-24.04 -51.45,-48.34 -53.72,-46.51 -0.73,0.47 1.93,7.08 9.37,17.39 7.41,10.27 19.53,24.55 38.07,38.2 18.43,13.57 43.34,26.67 73.41,33.02 29.91,6.51 64.61,5.76 98.7,-4.19 33.87,-10.61 62.98,-29.65 84.14,-51.72 21.15,-22.23 34.67,-46.82 42.37,-68.41 8.11,-21.61 9.5,-40.36 10.36,-52.93 -0.28,-12.77 -0.97,-19.68 -2.04,-19.68" /><path
         id="path138"
         style="fill:#dadbd8;fill-opacity:1;fill-rule:nonzero;stroke:none"
         d="m 2648.13,1091.55 c 2.62,3.44 45.48,-24.78 95.74,-63.01 0.96,-0.73 1.92,-1.45 2.8,-2.14 l -12.1,-3.63 c 20.43,58.09 39.92,103.45 43.92,102.06 3.99,-1.4 -8.99,-49.03 -29.17,-107.22 l -3.52,-10.14 -8.58,6.51 c -0.89,0.67 -1.85,1.4 -2.81,2.13 -50.26,38.22 -88.89,72 -86.28,75.44" /><path
         id="path140"
         style="fill:#dadbd8;fill-opacity:1;fill-rule:nonzero;stroke:none"
         d="m 2375.63,1054.96 c 3.18,-0.12 -1.9,-27.48 9.63,-68.358 5.66,-20.25 15.77,-43.532 32.44,-65.602 16.37,-22.219 39.92,-42.512 68.43,-56.52 6.9,-3.98 14.56,-6.058 21.63,-9.16 7.43,-2.09 14.67,-4.601 22.02,-6.031 14.69,-3.07 29.15,-4.66 42.96,-4.418 27.65,0.277 52.31,6.457 71.74,14.527 19.6,7.864 34.07,17.411 43.93,24.161 9.88,6.781 15.07,11.089 15.95,10.191 0.63,-0.621 -3.12,-6.43 -12.11,-14.91 -8.96,-8.41 -23.1,-19.86 -43.27,-29.531 -19.96,-9.86 -46.11,-17.7 -75.88,-18.829 -14.88,-0.671 -30.52,0.711 -46.44,3.821 -7.97,1.461 -15.85,4.058 -23.91,6.301 -7.71,3.269 -15.99,5.578 -23.5,9.859 -30.94,15.187 -56.18,37.621 -73.15,62.027 -17.29,24.25 -27,49.703 -31.57,71.481 -2.59,10.871 -3.17,20.981 -3.9,29.751 -0.14,8.82 0.19,16.4 0.61,22.54 1.82,12.26 3.33,18.83 4.39,18.7" /><path
         id="path142"
         style="fill:#dadbd8;fill-opacity:1;fill-rule:nonzero;stroke:none"
         d="m 2459,975.461 c -3.01,-3.09 -42.11,30.149 -87.31,74.229 l -2.52,2.46 12.45,2.14 c -27.38,-55.161 -52.26,-97.798 -56.06,-95.919 -3.79,1.871 14.92,47.549 42.06,102.829 l 4.73,9.65 7.72,-7.51 2.53,-2.46 c 45.2,-44.09 79.42,-82.341 76.4,-85.419" /><path
         id="path144"
         style="fill:#c0776a;fill-opacity:1;fill-rule:nonzero;stroke:none"
         d="m 1596.5,2876.91 -48.42,-151.74 c -18.6,-62.66 -71.16,-109.75 -136.11,-121.94 l -323.87,-60.79 -88.1,2.83 88.1,109.06 243.46,83.01 c 23.9,5.27 42.85,23.25 49.12,46.64 l 96.92,210.84 122.76,-75.29 -3.86,-42.62" /><path
         id="path146"
         style="fill:#33535f;fill-opacity:1;fill-rule:nonzero;stroke:none"
         d="M 2074.04,3025.48 C 2069.5,3001.98 2001,2831 2001,2831 c 0,0 -266.58,90.28 -263.03,103.6 2.85,10.74 54.02,181.94 115.43,276.78 23.81,36.76 63.05,61.5 106.77,64.26 12.03,0.76 38.04,-11.68 45.16,-15.71 56.12,-31.73 103.81,-52.93 68.71,-234.45" /><path
         id="path148"
         style="fill:#f03d5f;fill-opacity:1;fill-rule:nonzero;stroke:none"
         d="m 1697.8,3356.77 c -120.59,-13.52 -140.13,-95.39 -196.38,-176.08 l -81.29,-150.06 149.49,-91.68 -5.18,-230.35 -71.23,-219.56 562.49,52.91 -51.92,188.39 74.97,295.81 c 5.69,40.31 21.2,115.25 10.71,154.91 -32.79,123.94 -161.65,160.16 -250.24,183.19 -18.27,4.74 -106.5,4.44 -121.78,0.7 l -19.64,-8.18" /><path
         id="path150"
         style="fill:#17282f;fill-opacity:1;fill-rule:nonzero;stroke:none"
         d="m 2069.16,3027.86 c -0.06,0.03 -0.47,-1.06 -1.21,-3.2 -0.76,-2.33 -1.8,-5.47 -3.12,-9.48 -2.72,-8.56 -6.61,-20.78 -11.54,-36.3 -9.86,-31.66 -23.91,-76.76 -40.95,-131.48 l 1.88,0.93 c -69.88,25.79 -156.59,57.81 -250.36,92.42 -2.14,0.88 -4.28,1.77 -6.25,2.58 l 1.04,-2.08 c 16.25,59.91 36.51,115.71 58.62,164.62 22.22,48.8 47.04,90.87 74.45,120.69 13.65,14.88 28,26.51 42.07,34.07 14.01,7.64 27.67,11.29 38.9,11.5 2.81,0.06 5.47,0.55 7.95,0.23 2.47,-0.25 4.79,-0.5 6.96,-0.73 2.15,-0.27 4.17,-0.33 5.95,-0.71 1.76,-0.47 3.36,-0.9 4.81,-1.29 2.74,-0.7 4.91,-1.26 6.56,-1.69 1.49,-0.37 2.26,-0.52 2.29,-0.47 0.02,0.06 -0.72,0.33 -2.17,0.81 -1.64,0.52 -3.79,1.19 -6.49,2.04 -1.46,0.45 -3.06,0.93 -4.82,1.47 -1.79,0.43 -3.82,0.55 -5.99,0.88 -2.19,0.29 -4.54,0.59 -7.04,0.91 -2.51,0.37 -5.22,-0.07 -8.07,-0.07 -11.43,-0.01 -25.43,-3.52 -39.76,-11.13 -14.41,-7.52 -29.08,-19.19 -42.99,-34.12 -27.93,-29.92 -53.11,-72.11 -75.58,-121.03 -22.38,-49.05 -42.76,-104.89 -59.1,-165.1 l -0.41,-1.49 1.45,-0.59 c 1.98,-0.82 4.12,-1.71 6.27,-2.6 93.79,-35.09 180.8,-66.29 250.72,-91.83 l 1.43,-0.53 0.44,1.46 c 16.55,54.88 30.19,100.1 39.76,131.84 4.62,15.63 8.25,27.93 10.79,36.54 1.15,4.06 2.06,7.25 2.72,9.61 0.59,2.17 0.87,3.3 0.79,3.32" /><path
         id="path152"
         style="fill:#17282f;fill-opacity:1;fill-rule:nonzero;stroke:none"
         d="m 1768.27,2975.29 c -0.31,-0.94 57.52,-20.92 129.14,-44.63 71.64,-23.73 129.95,-42.19 130.27,-41.25 0.3,0.93 -57.51,20.91 -129.15,44.63 -71.63,23.71 -129.95,42.18 -130.26,41.25" /><path
         id="path154"
         style="fill:#17282f;fill-opacity:1;fill-rule:nonzero;stroke:none"
         d="m 1737.93,2495.77 21.57,520.07 h -183.47 l -51.68,-547.98 213.58,27.91" /><path
         id="path156"
         style="fill:#ba2c42;fill-opacity:1;fill-rule:nonzero;stroke:none"
         d="m 1740.1,2548.11 1.68,40.53 147.57,83.36 56.95,197.96 0.09,-0.03 c 18.64,-6.77 36.5,-13.25 53.45,-19.42 -9.98,-41.97 -25.15,-103.65 -41.29,-143.3 -11.97,-29.43 -25.18,-58.87 -45.45,-83.33 -27.61,-33.32 -67.2,-55.5 -109.04,-66.54 -20.9,-5.51 -42.36,-8.38 -63.96,-9.23" /><path
         id="path158"
         style="fill:#0f191d;fill-opacity:1;fill-rule:nonzero;stroke:none"
         d="m 1999.84,2850.51 c -16.95,6.17 -34.81,12.65 -53.45,19.42 l 53.71,-18.35 c -0.09,-0.36 -0.17,-0.71 -0.26,-1.07" /><path
         id="path160"
         style="fill:#0f191d;fill-opacity:1;fill-rule:nonzero;stroke:none"
         d="m 1726.01,2547.84 c -16.98,0 -33.99,1.16 -50.83,3.17 l 66.6,37.63 -1.68,-40.53 c -4.69,-0.19 -9.39,-0.27 -14.09,-0.27" /><path
         id="path162"
         style="fill:#c0776a;fill-opacity:1;fill-rule:nonzero;stroke:none"
         d="m 1975.56,2862.6 -52.82,-172.74 c -18.59,-63.45 -71.16,-111.14 -136.11,-123.48 l -323.87,-61.55 -88.09,2.86 88.09,110.43 243.47,84.06 c 23.9,5.34 42.84,23.55 49.11,47.23 l 45.08,173.93 175.14,-60.74" /><path
         id="path164"
         style="fill:#17282f;fill-opacity:1;fill-rule:nonzero;stroke:none"
         d="m 1564.58,2714.92 c 0.36,-0.01 0.88,5.81 1.51,16.36 0.56,11.44 1.3,26.48 2.18,44.64 1.62,37.7 3.48,89.78 5.23,147.32 1.74,57.56 3.03,109.67 3.7,147.4 0.21,18.18 0.39,33.24 0.52,44.7 0.01,10.55 -0.16,16.4 -0.51,16.41 -0.36,0.02 -0.88,-5.79 -1.51,-16.33 -0.56,-11.44 -1.3,-26.47 -2.18,-44.63 -1.62,-37.7 -3.49,-89.8 -5.23,-147.38 -1.74,-57.55 -3.03,-109.66 -3.7,-147.4 -0.21,-18.18 -0.39,-33.24 -0.52,-44.69 -0.01,-10.55 0.15,-16.39 0.51,-16.4" /><path
         id="path166"
         style="fill:#17282f;fill-opacity:1;fill-rule:nonzero;stroke:none"
         d="m 1442.03,3070.57 c -0.73,-1.24 27.54,-19.21 63.13,-40.12 35.61,-20.92 65.05,-36.87 65.78,-35.63 0.73,1.23 -27.53,19.2 -63.14,40.12 -35.59,20.92 -65.04,36.87 -65.77,35.63" /><path
         id="path168"
         style="fill:#f03d5f;fill-opacity:1;fill-rule:nonzero;stroke:none"
         d="m 700.957,1369.38 -2.019,98.95 189.792,67.41 7.848,-137.77 -10.672,-5.15 c -47.652,-22.52 -243.894,-111.14 -280.5,-114.5 -40.832,-3.75 95.551,91.06 95.551,91.06" /><path
         id="path170"
         style="fill:#ffffff;fill-opacity:1;fill-rule:nonzero;stroke:none"
         d="m 600.762,1277.57 c -0.805,0 -1.391,0.1 -1.742,0.31 -1.391,0.82 -1.707,2.23 -1.219,4.04 -0.266,-2.36 1.367,-3.71 5.426,-3.71 0.66,0 1.386,0.04 2.179,0.11 0.563,0.05 1.16,0.12 1.797,0.21 -2.816,-0.63 -4.988,-0.96 -6.441,-0.96 m 25.222,35.12 c 4.145,3.53 7.465,6.21 8.786,7.26 -3.016,-2.44 -5.961,-4.88 -8.786,-7.26 m 103.551,10.61 c 42.297,17.85 86.617,37.55 118.938,52.24 v -0.76 c -36.168,-16.67 -79.024,-35.15 -118.938,-51.48" /><path
         id="path172"
         style="fill:#6c7a7f;fill-opacity:1;fill-rule:nonzero;stroke:none"
         d="m 848.473,1374.78 v 0.76 c 15.972,7.27 29.023,13.3 37.433,17.28 l 10.672,5.15 c -13.547,-6.94 -29.992,-14.84 -48.105,-23.19" /><path
         id="path174"
         style="fill:#f57797;fill-opacity:1;fill-rule:nonzero;stroke:none"
         d="m 603.227,1278.21 c -4.059,0 -5.692,1.35 -5.426,3.71 2.012,7.48 17.722,21.85 28.183,30.77 2.825,2.38 5.77,4.82 8.786,7.26 0.398,0.32 0.613,0.49 0.613,0.49 0.89,0.31 1.808,0.46 2.746,0.46 10.066,0 22.129,-16.86 22.129,-16.86 l 234.43,97.77 1.89,-3.84 -10.672,-5.15 c -8.41,-3.98 -21.461,-10.01 -37.433,-17.28 -32.321,-14.69 -76.641,-34.39 -118.938,-52.24 -54.316,-22.22 -103.18,-40.46 -122.332,-44.77 -0.637,-0.09 -1.234,-0.16 -1.797,-0.21 -0.793,-0.07 -1.519,-0.11 -2.179,-0.11" /><path
         id="path176"
         style="fill:#17282f;fill-opacity:1;fill-rule:nonzero;stroke:none"
         d="m 897.418,1403.04 c 0.031,-0.06 -0.969,-0.6 -2.902,-1.56 -2.551,-1.22 -5.352,-2.56 -8.504,-4.07 -8.574,-3.94 -19.114,-8.76 -31.543,-14.45 -26.727,-12.02 -63.86,-28.13 -105.246,-45.02 -41.407,-16.88 -79.215,-31.35 -106.715,-41.45 -12.871,-4.63 -23.778,-8.55 -32.649,-11.74 -3.316,-1.12 -6.246,-2.13 -8.933,-3.03 -2.047,-0.68 -3.137,-0.99 -3.164,-0.91 -0.028,0.07 1.008,0.52 3.008,1.34 2.636,1.04 5.523,2.16 8.781,3.44 8.797,3.38 19.613,7.53 32.383,12.42 27.339,10.5 65.035,25.2 106.414,42.07 41.367,16.88 78.582,32.74 105.461,44.37 12.546,5.43 23.179,10.03 31.832,13.78 3.222,1.37 6.078,2.57 8.683,3.67 2,0.82 3.063,1.22 3.094,1.14" /><path
         id="path178"
         style="fill:#17282f;fill-opacity:1;fill-rule:nonzero;stroke:none"
         d="m 661.426,1301.31 c -0.621,-0.34 -4.25,7.12 -12.238,12.89 -7.895,5.91 -16.094,7.14 -15.95,7.84 -0.09,0.58 8.836,0.33 17.317,-5.98 8.55,-6.21 11.453,-14.66 10.871,-14.75" /><path
         id="path180"
         style="fill:#17282f;fill-opacity:1;fill-rule:nonzero;stroke:none"
         d="m 702.777,1348.98 c -0.371,-0.53 -4.097,1.5 -8.324,4.5 -4.234,3.02 -7.359,5.88 -6.992,6.4 0.371,0.52 4.102,-1.5 8.332,-4.51 4.227,-3.01 7.355,-5.87 6.984,-6.39" /><path
         id="path182"
         style="fill:#17282f;fill-opacity:1;fill-rule:nonzero;stroke:none"
         d="m 714.004,1362.36 c -0.219,-0.6 -3.766,0.13 -7.918,1.62 -4.156,1.5 -7.352,3.19 -7.137,3.8 0.223,0.6 3.762,-0.13 7.922,-1.62 4.152,-1.5 7.348,-3.19 7.133,-3.8" /><path
         id="path184"
         style="fill:#17282f;fill-opacity:1;fill-rule:nonzero;stroke:none"
         d="m 716.258,1382.71 c 0.25,-0.58 -3.664,-2.79 -8.738,-4.92 -5.075,-2.13 -9.387,-3.38 -9.629,-2.79 -0.25,0.58 3.66,2.79 8.734,4.92 5.074,2.13 9.387,3.39 9.633,2.79" /><path
         id="path186"
         style="fill:#17282f;fill-opacity:1;fill-rule:nonzero;stroke:none"
         d="m 714.574,1395.74 c 0.414,-0.45 -3.258,-4.31 -9.062,-7.18 -5.801,-2.91 -11.094,-3.5 -11.196,-2.91 -0.152,0.66 4.657,2.21 10.161,4.97 5.523,2.74 9.671,5.63 10.097,5.12" /><path
         id="path188"
         style="fill:#17282f;fill-opacity:1;fill-rule:nonzero;stroke:none"
         d="m 690.516,1361.95 c 0.109,-0.23 -4.032,-2.54 -11.379,-4.55 -3.668,-1.01 -8.141,-1.86 -13.172,-2.26 -2.531,-0.11 -5.086,-0.47 -8.078,0.03 -1.426,0.3 -3.106,0.84 -4.246,2.39 -1.161,1.51 -1.028,3.79 -0.125,5.24 8.562,10.04 21.914,8.36 28.222,4.38 3.383,-1.95 5.532,-4.33 6.785,-6.06 1.243,-1.76 1.661,-2.88 1.54,-2.95 -0.34,-0.3 -2.583,4.16 -9.11,7.58 -3.215,1.67 -7.515,2.82 -12.262,2.35 -4.492,-0.44 -10.328,-2.44 -13.156,-6.42 -1.254,-2.07 0.309,-3.9 2.801,-4.28 2.355,-0.45 5.07,-0.2 7.488,-0.13 4.899,0.27 9.289,0.94 12.926,1.71 7.289,1.56 11.625,3.32 11.766,2.97" /><path
         id="path190"
         style="fill:#17282f;fill-opacity:1;fill-rule:nonzero;stroke:none"
         d="m 687.801,1360.19 c -0.11,-0.19 -2.961,2.02 -4.516,7.35 -0.746,2.61 -1.035,5.96 -0.277,9.55 0.98,3.34 2.144,7.86 7.097,9.64 2.766,0.73 5.27,-1.74 5.633,-3.82 0.602,-2.07 0.403,-4.15 0.137,-5.86 -0.539,-3.53 -1.512,-6.59 -2.57,-9.06 -2.145,-4.92 -4.414,-7.39 -4.625,-7.23 -0.313,0.19 1.433,2.96 3.101,7.83 0.824,2.42 1.586,5.39 1.977,8.74 0.586,3.04 -0.106,7.77 -3.164,7.13 -2.949,-0.88 -4.699,-4.88 -5.512,-7.86 -0.781,-3.19 -0.699,-6.23 -0.203,-8.68 1.008,-4.97 3.266,-7.49 2.922,-7.73" /><path
         id="path192"
         style="fill:#17282f;fill-opacity:1;fill-rule:nonzero;stroke:none"
         d="m 874.141,1449.91 c 0.121,-0.41 -5.258,-1.57 -12.856,-5.76 -7.555,-4.1 -17.234,-11.83 -23.695,-23.33 -6.457,-11.53 -8,-23.81 -7.563,-32.39 0.387,-8.67 2.2,-13.86 1.778,-13.98 -0.129,-0.04 -0.711,1.2 -1.453,3.56 -0.747,2.37 -1.543,5.88 -1.954,10.32 -0.875,8.78 0.446,21.61 7.172,33.62 6.743,11.99 17.004,19.8 24.953,23.64 3.993,1.96 7.411,3.12 9.817,3.7 2.402,0.61 3.765,0.76 3.801,0.62" /><path
         id="path194"
         style="fill:#17282f;fill-opacity:1;fill-rule:nonzero;stroke:none"
         d="m 825.906,1515.96 c 0.586,0.26 7.887,-15.71 16.301,-35.65 8.418,-19.94 14.762,-36.31 14.172,-36.56 -0.586,-0.25 -7.883,15.71 -16.301,35.66 -8.414,19.94 -14.758,36.31 -14.172,36.55" /><path
         id="path196"
         style="fill:#17282f;fill-opacity:1;fill-rule:nonzero;stroke:none"
         d="m 802.711,1381.5 c 0.301,-0.52 -10.441,-7.09 -24.742,-13.06 -14.293,-5.99 -26.516,-9.02 -26.676,-8.43 -0.195,0.64 11.629,4.63 25.781,10.57 14.172,5.9 25.317,11.52 25.637,10.92" /><path
         id="path198"
         style="fill:#17282f;fill-opacity:1;fill-rule:nonzero;stroke:none"
         d="m 837.309,1395.65 c 0.605,-0.25 0.054,-2.83 -0.047,-5.96 -0.145,-3.12 0.207,-5.73 -0.418,-5.94 -0.571,-0.23 -2.043,2.42 -1.895,6.03 0.133,3.62 1.809,6.14 2.36,5.87" /><path
         id="path200"
         style="fill:#17282f;fill-opacity:1;fill-rule:nonzero;stroke:none"
         d="m 843.75,1417.19 c 0.59,-0.24 0.195,-2.54 -0.879,-5.13 -1.07,-2.6 -2.418,-4.5 -3.008,-4.27 -0.59,0.24 -0.199,2.55 0.875,5.15 1.075,2.59 2.422,4.5 3.012,4.25" /><path
         id="path202"
         style="fill:#17282f;fill-opacity:1;fill-rule:nonzero;stroke:none"
         d="m 859.398,1432.21 c 0.118,-0.64 -2.234,-1.58 -4.457,-3.55 -2.269,-1.92 -3.531,-4.11 -4.16,-3.9 -0.605,0.13 -0.14,3.25 2.645,5.65 2.769,2.42 5.929,2.43 5.972,1.8" /><path
         id="path204"
         style="fill:#17282f;fill-opacity:1;fill-rule:nonzero;stroke:none"
         d="m 871.266,1441.13 c 0.433,-0.47 -0.211,-1.79 -1.442,-2.95 -1.234,-1.17 -2.594,-1.74 -3.031,-1.27 -0.438,0.46 0.203,1.78 1.437,2.95 1.239,1.16 2.594,1.73 3.036,1.27" /><path
         id="path206"
         style="fill:#17282f;fill-opacity:1;fill-rule:nonzero;stroke:none"
         d="m 1462.72,2480.36 -557.247,-10.42 c -89.086,-1.67 -163.379,-68.63 -174.258,-157.06 l -110.5,-898.03 h 302.644 l 92.421,775.64 h 439.4 l 7.54,289.87" /><path
         id="path208"
         style="fill:#33535f;fill-opacity:1;fill-rule:nonzero;stroke:none"
         d="m 624.48,1471.94 c -0.007,-1.45 66.297,-3.02 148.067,-3.53 81.805,-0.5 146.68,1.55 148.113,1.68 9.395,0.92 -66.277,3.02 -148.082,3.53 -81.773,0.51 -148.086,-0.24 -148.098,-1.68" /><path
         id="path210"
         style="fill:#17282f;fill-opacity:1;fill-rule:nonzero;stroke:none"
         d="m 1985.8,2190.49 c 222.43,73.64 69.9,367.85 69.9,367.85 l -972.12,-91.44 c -78.04,0.53 -141.592,-62.59 -141.592,-140.64 0,-77.68 62.972,-140.65 140.652,-140.65 l 903.16,4.88" /><path
         id="path212"
         style="fill:#33535f;fill-opacity:1;fill-rule:nonzero;stroke:none"
         d="m 1688.6,2502.56 -2.77,20.99 -248.81,9.78 -122.12,307.92 -465.154,-31.58 156.964,-341.81 681.89,34.7" /><path
         id="path214"
         style="fill:#ffffff;fill-opacity:1;fill-rule:nonzero;stroke:none"
         d="m 1131.86,2641.51 c 7.2,-11.38 22.26,-14.76 33.63,-7.55 11.38,7.2 14.76,22.26 7.55,33.64 -7.21,11.37 -22.26,14.75 -33.64,7.54 -11.37,-7.2 -14.75,-22.26 -7.54,-33.63" /><path
         id="path216"
         style="fill:#33535f;fill-opacity:1;fill-rule:nonzero;stroke:none"
         d="m 1769.2,2508.69 c 0,0.08 -0.94,0.12 -2.78,0.11 -2.12,-0.05 -4.81,-0.12 -8.16,-0.19 -7.53,-0.3 -18.02,-0.71 -31.34,-1.22 -27.57,-1.3 -66.84,-3.14 -115.2,-5.41 -97.56,-5.07 -231.73,-12.04 -379.95,-19.73 -18.54,-0.84 -36.9,-2.37 -54.92,-2.61 -18.14,-0.27 -35.99,-0.98 -53.51,-1.98 -17.52,-1.01 -34.72,-2.25 -51.53,-3.97 -16.67,-1.84 -33.61,-3.53 -48.97,-9.51 -15.35,-5.66 -29.395,-13.97 -40.727,-24.72 -11.359,-10.74 -19.472,-24 -24.695,-37.53 -5.293,-13.57 -8.184,-27.35 -10.055,-40.59 -1.82,-13.25 -2.789,-26.07 -2.695,-38.36 0.102,-24.52 4.629,-46.83 12.926,-64.59 8.222,-17.83 19.672,-30.83 30.453,-39.3 10.824,-8.54 20.843,-12.79 27.723,-14.83 6.92,-2.07 7.05,-1.39 0.32,0.96 -6.71,2.33 -16.395,6.79 -26.813,15.39 -10.375,8.53 -21.351,21.44 -29.125,38.94 -7.863,17.44 -12.058,39.31 -11.933,63.44 0.019,12.07 1.078,24.74 2.972,37.8 1.942,13.03 4.883,26.5 10.094,39.6 5.156,13.09 12.969,25.66 23.86,35.87 10.878,10.22 24.425,18.17 39.285,23.58 14.83,5.71 31.12,7.28 47.86,9.09 16.72,1.66 33.86,2.84 51.32,3.83 17.47,0.96 35.26,1.64 53.3,1.89 18.16,0.23 36.43,1.74 55.01,2.58 148.22,8.27 282.4,15.76 379.97,21.2 48.33,2.94 87.57,5.33 115.14,7.01 13.3,0.91 23.77,1.64 31.29,2.15 3.33,0.29 6.01,0.51 8.13,0.69 1.83,0.18 2.76,0.32 2.75,0.41" /><path
         id="path218"
         style="fill:#17282f;fill-opacity:1;fill-rule:nonzero;stroke:none"
         d="m 1731.78,3015.84 c 0,0 24.79,240.06 239.14,302.47 17.07,-6.64 31.29,-15.64 42.95,-26.75 0,0 -202.06,8.36 -254.37,-275.72 h -27.72" /><path
         id="path220"
         style="fill:#17282f;fill-opacity:1;fill-rule:nonzero;stroke:none"
         d="m 1577.72,3003.82 c 0,0 -49.28,221.97 129.51,355.66 18.32,-0.21 34.79,-3.65 49.61,-9.95 0,0 -202.51,-62.64 -151.74,-347 l -27.38,1.29" /><path
         id="path222"
         style="fill:#17282f;fill-opacity:1;fill-rule:nonzero;stroke:none"
         d="m 1944.81,3789.5 c 9.2,25.99 33.89,45.8 61.25,49.15 27.37,3.34 56.1,-9.93 71.29,-32.94 9.69,-14.68 13.86,-32.19 19.93,-48.69 6.07,-16.51 15.07,-33.22 30.54,-41.59 18.1,-9.8 41.87,-6.43 58.32,-18.79 18.28,-13.73 18.77,-43.91 3.43,-60.85 -15.36,-16.95 -42.06,-20.6 -63.3,-12.13 4.45,-13.63 8.94,-27.59 8.69,-41.93 -0.25,-14.33 -6.14,-29.39 -18.33,-36.94 -12.33,-7.65 -28.75,-6.04 -41.57,0.76 -12.82,6.79 -22.66,18.04 -31.45,29.58 -2.57,-9.97 -5.2,-20.11 -10.52,-28.92 -5.33,-8.82 -13.83,-16.29 -24,-17.86 -12.49,-1.92 -25.02,5.53 -32.25,15.89 -7.24,10.36 -10.04,23.14 -11.64,35.66 -3.94,30.99 -1.39,62.65 6,93.01 4.73,19.45 11.49,39.35 7.76,59.01 -3.73,19.66 -23.13,38.15 -42.25,32.24" /><path
         id="path224"
         style="fill:#33535f;fill-opacity:1;fill-rule:nonzero;stroke:none"
         d="m 2195.67,3655.34 c 0.06,-0.17 -1.06,-0.7 -3.24,-1.55 -2.19,-0.83 -5.5,-1.86 -9.86,-2.84 -8.68,-1.86 -21.85,-3.35 -37.74,-0.47 -15.76,2.82 -34.26,10.65 -49.75,25.55 -7.72,7.38 -14.72,16.37 -20.02,26.77 -5.45,10.38 -8.57,22.17 -11.16,33.93 -2.63,11.79 -4.96,23.25 -9.33,33.39 -4.24,10.17 -10.8,18.68 -18.99,24.52 -16.43,11.92 -36.27,13.68 -50.99,9.85 -15.02,-3.74 -25.5,-11.49 -31.93,-17.24 -6.5,-5.84 -9.29,-9.91 -9.68,-9.62 -0.14,0.1 0.45,1.18 1.73,3.15 1.33,1.93 3.4,4.73 6.54,7.93 6.17,6.34 16.68,14.91 32.41,19.34 15.45,4.52 36.78,3.16 54.71,-9.51 8.96,-6.18 16.34,-15.61 20.89,-26.4 4.7,-10.78 7.1,-22.56 9.72,-34.26 2.59,-11.74 5.54,-22.92 10.62,-32.75 4.97,-9.91 11.55,-18.52 18.82,-25.65 14.59,-14.39 32.01,-22.2 47.13,-25.38 15.22,-3.24 28.04,-2.37 36.66,-1.16 8.65,1.33 13.33,2.82 13.46,2.4" /><path
         id="path226"
         style="fill:#33535f;fill-opacity:1;fill-rule:nonzero;stroke:none"
         d="m 2027.88,3537.8 c -0.12,-0.13 -0.99,0.45 -2.56,1.68 -1.62,1.2 -3.74,3.3 -6.12,6.29 -4.78,5.96 -9.87,16.37 -11.3,30.08 -1.58,13.6 0.09,30.18 5.38,47.3 4.87,17.16 12.31,35.33 15.13,55.19 3.08,19.83 -1.45,39.12 -10.39,53.88 -8.78,14.94 -21.48,24.97 -33.24,30.63 -11.82,5.81 -22.56,7.65 -29.89,8.37 -7.39,0.65 -11.55,0.36 -11.58,0.79 -0.04,0.28 4.07,1.26 11.68,1.24 7.56,-0.12 18.78,-1.43 31.35,-7.06 12.49,-5.47 26.25,-15.8 35.78,-31.48 9.71,-15.4 14.72,-36.24 11.45,-57.07 -2.98,-20.81 -10.67,-39.03 -15.69,-55.86 -5.43,-16.69 -7.36,-32.47 -6.31,-45.58 0.91,-13.15 5.19,-23.17 9.27,-29.24 4.1,-6.11 7.39,-8.77 7.04,-9.16" /><path
         id="path228"
         style="fill:#17282f;fill-opacity:1;fill-rule:nonzero;stroke:none"
         d="m 1602.94,3658.38 c -49.88,115.34 18.52,185.61 63.08,210.83 26.52,15.02 58.04,18.17 88.52,18.9 30.08,0.72 60.49,-0.64 89.61,-8.22 29.13,-7.59 57.08,-21.75 77.62,-43.75 36.45,-39.06 44.8,-96.89 41.38,-150.21 -4.02,-62.8 -22.05,-124.76 -53.14,-179.47 -3.99,-7.03 -8.51,-14.26 -15.6,-18.15 -7.08,-3.89 -17.43,-3.02 -21.57,3.92" /><path
         id="path230"
         style="fill:#c0776a;fill-opacity:1;fill-rule:nonzero;stroke:none"
         d="m 1872,3793.08 c 16.81,-1.78 29.46,-16.12 29.13,-33.03 l -18.45,-439.76 c -0.7,-51.93 -94.93,-113.34 -150.53,-112.17 -56.15,1.18 -44.29,60.92 -40.46,110.18 4.35,55.86 -1.35,113.06 -1.35,113.06 0,0 -70.95,11.78 -85.65,104.35 -7.31,46.04 -5,121.52 -1.11,183.22 3.49,55.53 52.48,96.99 107.82,91.14 l 160.6,-16.99" /><path
         id="path232"
         style="fill:#17282f;fill-opacity:1;fill-rule:nonzero;stroke:none"
         d="m 1627.63,3659 c -0.23,-6.27 4.9,-11.62 11.44,-11.97 6.54,-0.35 12.02,4.43 12.24,10.7 0.22,6.27 -4.9,11.64 -11.43,11.99 -6.55,0.35 -12.03,-4.45 -12.25,-10.72" /><path
         id="path234"
         style="fill:#17282f;fill-opacity:1;fill-rule:nonzero;stroke:none"
         d="m 1619.95,3679.66 c 1.48,-1.54 10.47,5.11 23.24,5.08 12.77,0.14 22.14,-6.43 23.53,-4.86 0.68,0.69 -0.82,3.49 -4.9,6.46 -4.02,2.96 -10.88,5.84 -18.84,5.8 -7.95,-0.04 -14.65,-2.97 -18.49,-5.97 -3.93,-3.01 -5.26,-5.81 -4.54,-6.51" /><path
         id="path236"
         style="fill:#17282f;fill-opacity:1;fill-rule:nonzero;stroke:none"
         d="m 1752.52,3659 c -0.22,-6.27 4.91,-11.62 11.45,-11.97 6.53,-0.35 12.01,4.43 12.24,10.7 0.22,6.27 -4.91,11.64 -11.44,11.99 -6.54,0.35 -12.03,-4.45 -12.25,-10.72" /><path
         id="path238"
         style="fill:#17282f;fill-opacity:1;fill-rule:nonzero;stroke:none"
         d="m 1745.53,3677.28 c 1.47,-1.55 10.48,5.1 23.24,5.07 12.76,0.15 22.14,-6.42 23.53,-4.85 0.68,0.68 -0.81,3.48 -4.9,6.45 -4.02,2.97 -10.88,5.84 -18.84,5.81 -7.95,-0.05 -14.64,-2.97 -18.5,-5.97 -3.91,-3.02 -5.25,-5.82 -4.53,-6.51" /><path
         id="path240"
         style="fill:#17282f;fill-opacity:1;fill-rule:nonzero;stroke:none"
         d="m 1699.16,3582.54 c 0.06,0.72 -7.88,2.1 -20.75,3.74 -3.26,0.34 -6.34,0.98 -6.9,3.21 -0.76,2.36 0.6,5.87 2.18,9.67 3.07,7.89 6.28,16.17 9.65,24.84 13.4,35.37 23.1,64.45 21.67,64.98 -1.43,0.52 -13.45,-27.71 -26.85,-63.09 -3.22,-8.71 -6.3,-17.03 -9.24,-24.98 -1.23,-3.71 -3.36,-7.91 -1.69,-12.81 0.88,-2.43 3.27,-4.2 5.36,-4.76 2.09,-0.64 3.93,-0.68 5.54,-0.77 12.95,-0.7 20.99,-0.76 21.03,-0.03" /><path
         id="path242"
         style="fill:#b85549;fill-opacity:1;fill-rule:nonzero;stroke:none"
         d="m 1690.34,3431.36 c 0,0 62.28,-4.02 123.98,33.07 0,0 -30.08,-63.59 -122.73,-54.93 l -1.25,21.86" /><path
         id="path244"
         style="fill:#b85549;fill-opacity:1;fill-rule:nonzero;stroke:none"
         d="m 1704.57,3551.75 c 4.59,6.07 12.64,9.4 20.63,8.54 5.55,-0.59 11.15,-3.26 14.52,-7.78 3.37,-4.51 4.07,-10.92 1.01,-15.23 -3.45,-4.85 -10.65,-5.96 -16.75,-4.23 -6.09,1.73 -11.34,5.75 -16.33,9.74 -1.38,1.11 -2.78,2.26 -3.65,3.78 -0.86,1.52 -1.04,3.5 0.02,4.76" /><path
         id="path246"
         style="fill:#17282f;fill-opacity:1;fill-rule:nonzero;stroke:none"
         d="m 1736.76,3573.7 c -2.08,0.12 -2.1,-13.75 -13.97,-23.59 -11.85,-9.88 -26.63,-8.32 -26.74,-10.25 -0.2,-0.88 3.29,-2.7 9.53,-2.87 6.12,-0.21 15.06,1.76 22.32,7.78 7.24,6.03 10.36,14.09 10.83,19.78 0.53,5.79 -1.02,9.23 -1.97,9.15" /><path
         id="path248"
         style="fill:#17282f;fill-opacity:1;fill-rule:nonzero;stroke:none"
         d="m 1739.78,3699.64 c 1.26,-3.47 14.02,-1.82 29,-3.63 15.03,-1.5 27.12,-5.89 29.11,-2.78 0.88,1.5 -1.23,4.77 -6.11,8.13 -4.84,3.35 -12.58,6.55 -21.57,7.55 -9,0.98 -17.24,-0.45 -22.7,-2.67 -5.5,-2.22 -8.27,-4.94 -7.73,-6.6" /><path
         id="path250"
         style="fill:#17282f;fill-opacity:1;fill-rule:nonzero;stroke:none"
         d="m 1624.65,3716.64 c 2.24,-2.9 11.05,0.11 21.63,0.25 10.58,0.51 19.54,-1.95 21.61,1.09 0.9,1.47 -0.51,4.38 -4.43,7.12 -3.86,2.74 -10.31,4.97 -17.58,4.76 -7.27,-0.23 -13.58,-2.86 -17.26,-5.84 -3.73,-2.98 -4.96,-5.97 -3.97,-7.38" /><path
         id="path252"
         style="fill:#17282f;fill-opacity:1;fill-rule:nonzero;stroke:none"
         d="m 1603.58,3718.93 c 16.18,78.95 38.19,47.7 63.04,85.38 36.01,-36.47 118.95,-78.51 169.54,-86.76 5.16,-0.84 10.6,-1.62 14.8,-4.74 7.8,-5.79 8.41,-17.02 8.39,-26.73 -0.1,-27.42 0.43,-55.09 6.74,-81.77 6.31,-26.68 18.88,-52.58 39.55,-70.6 30.53,64.34 33.57,139.21 19.92,209.1 -5.58,28.55 -15.04,58.47 -37.79,76.6 -16.28,12.99 -37.31,18.2 -57.79,21.97 -50.6,9.27 -104.12,11.51 -152.28,-6.54 -48.16,-18.06 -85.56,-40.3 -92.01,-91.33" /><path
         id="path254"
         style="fill:#33535f;fill-opacity:1;fill-rule:nonzero;stroke:none"
         d="m 1953.42,3774.37 c 0.16,-0.32 -3.51,-2.3 -10.35,-5.65 -3.36,-1.83 -7.75,-3.38 -12.86,-5.16 -2.61,-0.91 -5.34,-1.86 -8.19,-2.85 -3.01,-0.76 -6.16,-1.55 -9.42,-2.37 -13.18,-3.52 -29.36,-5.54 -47.33,-6.49 -18.01,-0.68 -37.85,0.58 -58.39,3.79 -20.54,3.35 -39.59,9.1 -56.46,15.4 -8.25,3.64 -16.29,6.64 -23.25,10.66 -3.52,1.87 -6.93,3.7 -10.24,5.46 -3.09,2.01 -6.09,3.95 -8.97,5.82 -5.84,3.54 -10.6,7.48 -14.79,10.9 -2.05,1.67 -3.99,3.25 -5.84,4.75 -1.57,1.58 -3.06,3.08 -4.47,4.5 -5.31,5.46 -8.1,8.57 -7.84,8.81 0.8,0.84 12.09,-11.76 34.92,-25.85 2.89,-1.75 5.88,-3.56 8.99,-5.45 3.29,-1.64 6.68,-3.34 10.19,-5.08 6.91,-3.79 14.88,-6.58 23.02,-10.04 16.66,-5.94 35.4,-11.45 55.6,-14.74 20.19,-3.15 39.67,-4.54 57.38,-4.13 17.67,0.67 33.61,2.28 46.67,5.28 26.27,5.49 41.18,13.46 41.63,12.44" /><path
         id="path256"
         style="fill:#33535f;fill-opacity:1;fill-rule:nonzero;stroke:none"
         d="m 1927.21,3836.75 c 0.22,-0.29 -2.62,-2.58 -7.98,-6.52 -2.6,-2.12 -6.13,-4.14 -10.3,-6.38 -2.12,-1.17 -4.34,-2.39 -6.65,-3.65 -2.51,-1.07 -5.12,-2.18 -7.82,-3.32 -21.89,-9.56 -54.71,-16.02 -90.94,-16.22 -36.28,-0.2 -68.82,4.96 -91.87,10.25 -11.54,2.57 -20.76,5.22 -27.04,7.29 -6.28,2.09 -9.69,3.4 -9.59,3.74 0.24,0.82 14.3,-3.1 37.38,-7.43 23.06,-4.33 55.31,-8.83 91.08,-8.64 35.72,0.2 67.88,5.95 89.63,14.43 21.91,8.15 33.47,17.38 34.1,16.45" /><path
         id="path258"
         style="fill:#33535f;fill-opacity:1;fill-rule:nonzero;stroke:none"
         d="m 1642.7,3856.83 c 0.02,0.62 3.19,1.24 8.17,-0.01 4.95,-1.21 11.44,-4.77 16.47,-10.83 5.02,-6.08 7.3,-13.13 7.56,-18.2 0.3,-5.13 -0.9,-8.13 -1.51,-8.04 -1.47,0.04 -0.92,12.24 -10.06,22.92 -8.78,10.97 -20.87,12.71 -20.63,14.16" /><path
         id="path260"
         style="fill:#17282f;fill-opacity:1;fill-rule:nonzero;stroke:none"
         d="m 2120.98,3757.11 c -0.09,0.05 0.61,1.43 2.74,3.35 2.08,1.94 5.92,4.28 11.43,4.99 5.41,0.73 12.55,-0.03 19.3,-4.35 6.83,-4.02 12.31,-13.19 11.24,-23.42 -0.96,-10.03 -7.1,-20.6 -17.76,-26.3 -10.81,-5.72 -25.24,-3.92 -36.03,3.79 -5.43,3.8 -10.17,9 -13.24,15.33 -3.1,6.3 -4.47,13.35 -4.92,20.34 -0.97,14 1.46,28.14 -1.08,41.85 -5.2,27.72 -26.77,49.05 -49.45,57.13 -23.17,8.48 -46.53,2.2 -61.96,-7.64 -15.81,-9.93 -24.75,-22.89 -29.32,-32.17 -4.57,-9.43 -5.54,-15.31 -6.08,-15.18 -0.17,0.03 0.01,1.49 0.53,4.27 0.46,2.78 1.61,6.81 3.71,11.76 4.13,9.8 12.9,23.62 29.17,34.42 8.08,5.33 17.99,9.77 29.29,11.87 11.28,2.28 23.99,1.29 36.26,-2.8 24.27,-8.4 47.3,-30.81 52.97,-60.72 2.7,-14.95 0.14,-29.25 1.05,-42.46 0.39,-6.59 1.63,-12.97 4.3,-18.5 2.62,-5.51 6.77,-10.16 11.55,-13.58 9.51,-6.96 22.08,-8.57 31.29,-3.86 9.27,4.72 15.04,14.08 16.06,22.81 1.08,8.94 -3.24,16.76 -9.2,20.64 -5.89,4.1 -12.45,5.14 -17.46,4.75 -10.48,-0.9 -14.02,-7 -14.39,-6.32" /><path
         id="path262"
         style="fill:#17282f;fill-opacity:1;fill-rule:nonzero;stroke:none"
         d="m 1877.85,3715.38 c -0.01,-0.35 -3.45,-0.63 -9.65,-0.77 -6.21,-0.14 -15.19,-0.15 -26.3,0.25 -22.09,0.91 -53.3,3.12 -85.66,14.8 -32.39,11.75 -57.22,32.63 -69.92,51.18 -6.46,9.23 -10.4,17.51 -12.43,23.43 -2.07,5.91 -2.68,9.33 -2.4,9.41 1.01,0.42 4.42,-13.26 17.79,-30.65 13.05,-17.41 37.33,-37.06 68.76,-48.48 31.47,-11.37 62.15,-14.17 84.08,-16.01 22.03,-1.67 35.75,-2.37 35.73,-3.16" /><path
         id="path264"
         style="fill:#17282f;fill-opacity:1;fill-rule:nonzero;stroke:none"
         d="m 2009.23,3489.23 c 0.23,-0.04 -0.31,-3.73 -4.38,-8.77 -3.98,-4.86 -12.17,-10.99 -23.99,-11.71 -11.61,-0.72 -25.6,3.67 -37.09,13.97 -5.61,5.19 -10.62,12.51 -11.33,21.47 -0.65,8.54 2.88,18.76 12.05,23.26 9.1,4.03 20.51,0.45 24.54,-8.69 1.89,-4.57 1.11,-9.61 -0.96,-13.46 -2.05,-3.9 -5.31,-6.93 -9.09,-8.73 -7.57,-3.51 -15.6,-2.58 -22.01,-0.36 -6.57,2.24 -11.9,6.04 -15.9,10.2 -8.14,8.37 -11,17.76 -11.76,23.99 -0.68,6.36 0.32,9.81 0.56,9.76 0.47,-0.02 0.18,-3.49 1.44,-9.42 1.31,-5.81 4.55,-14.36 12.35,-21.71 3.83,-3.65 8.78,-6.9 14.65,-8.72 5.77,-1.85 12.74,-2.31 18.57,0.58 5.61,2.62 9.98,10 7.43,15.93 -2.33,5.88 -11.35,8.91 -17.62,5.91 -6.49,-3.07 -9.69,-11.14 -9.16,-18.19 0.47,-7.13 4.56,-13.59 9.53,-18.32 10.22,-9.53 23.16,-14.05 33.64,-13.79 10.67,0.18 18.48,5.26 22.65,9.39 4.24,4.28 5.44,7.61 5.88,7.41" /><path
         id="path266"
         style="fill:#33535f;fill-opacity:1;fill-rule:nonzero;stroke:none"
         d="m 1583.54,3005.36 c 0.36,-0.65 -0.81,-1.97 -0.58,-4.2 0.24,-2.37 1.84,-4.23 4.56,-3.1 2.7,1.15 2.5,3.59 0.96,5.42 -1.42,1.72 -3.19,1.81 -3.4,2.53 -0.39,0.55 2.06,2.38 5.62,0.41 1.61,-0.95 3.45,-2.82 3.7,-5.83 0.3,-3.09 -1.98,-6.2 -4.86,-7.33 -2.84,-1.27 -6.64,-0.72 -8.64,1.65 -1.97,2.29 -2.03,4.91 -1.59,6.72 1.09,3.92 4.11,4.4 4.23,3.73" /><path
         id="path268"
         style="fill:#33535f;fill-opacity:1;fill-rule:nonzero;stroke:none"
         d="m 1743.58,3008.5 c 0.06,-0.75 -2.17,-1.38 -3.45,-4.11 -1.45,-2.74 -0.72,-6.74 3.55,-7.17 4.25,-0.53 5.86,3.21 5.06,6.21 -0.65,2.95 -2.69,4.04 -2.46,4.77 -0.06,0.66 3.52,0.84 5.87,-3.39 1.03,-1.98 1.7,-5.01 0.16,-8.17 -1.51,-3.25 -5.57,-5.08 -9.21,-4.6 -3.66,0.34 -7.21,3.03 -7.97,6.54 -0.79,3.42 0.53,6.22 1.97,7.92 3.23,3.61 6.69,2.63 6.48,2" /><path
         id="path270"
         style="fill:#33535f;fill-opacity:1;fill-rule:nonzero;stroke:none"
         d="m 1593.81,2919.53 c 0.38,-0.06 0.01,-5.28 0.34,-14.77 0.42,-9.41 1.29,-23.27 6.53,-39.17 2.85,-7.82 7.01,-16.04 13.51,-23.12 6.43,-7.21 16.03,-11.87 26.6,-13.67 10.58,-2.11 22.46,-0.93 32.68,4.55 10.33,5.37 18.65,14.9 24.73,25.93 10.59,19.44 15.21,41.12 17.07,60.4 l 2.43,-2.6 c -35.71,0.18 -66.35,0.68 -88.34,1.14 -10.36,0.28 -18.97,0.5 -25.87,0.68 -6.09,0.21 -9.49,0.42 -9.68,0.63 -0.18,0.21 2.85,0.41 8.68,0.63 6.76,0.18 15.2,0.4 25.36,0.67 21.85,0.47 53.16,0.97 89.85,1.14 l 2.68,0.02 -0.23,-2.61 c -1.75,-20.1 -6.25,-42.06 -17.4,-62.63 -6.39,-11.61 -15.41,-22.01 -26.92,-27.93 -11.43,-6.02 -24.52,-7.14 -35.89,-4.75 -11.43,2.07 -22.05,7.46 -28.91,15.45 -6.93,7.84 -11.09,16.68 -13.84,24.91 -4.99,16.68 -5.25,30.79 -5.08,40.33 0.3,9.57 1.37,14.83 1.7,14.77" /><path
         id="path272"
         style="fill:#33535f;fill-opacity:1;fill-rule:nonzero;stroke:none"
         d="m 1983.22,2415.89 c 0.12,-0.27 -2.52,-1.85 -7.7,-3.83 -5.17,-2 -13.06,-4.02 -23.03,-4.69 -19.57,-1.54 -49.25,4.57 -71.25,26.87 -21.76,22.56 -27.11,52.4 -25.08,71.92 0.92,9.95 3.14,17.78 5.27,22.9 2.11,5.14 3.76,7.73 4.02,7.61 1.02,-0.35 -4.78,-11.44 -5.61,-30.74 -1.04,-18.85 4.72,-46.91 25.13,-68.05 20.6,-20.92 48.51,-27.39 67.38,-26.82 19.31,0.34 30.55,5.86 30.87,4.83" /><path
         id="path274"
         style="fill:#33535f;fill-opacity:1;fill-rule:nonzero;stroke:none"
         d="m 1039.87,2203.02 c 0,1.44 216.93,2.61 484.46,2.61 267.62,0 484.5,-1.17 484.5,-2.61 0,-1.43 -216.88,-2.6 -484.5,-2.6 -267.53,0 -484.46,1.17 -484.46,2.6" /><path
         id="path276"
         style="fill:#f03d5f;fill-opacity:1;fill-rule:nonzero;stroke:none"
         d="m 4334.57,2649.9 c 0,0 -3.01,-0.24 -9.16,-0.36 -6.5,-0.08 -15.6,-0.2 -27.47,-0.35 -24.66,-0.17 -60.52,-0.4 -106.92,-0.71 -93.9,-0.33 -230.11,-0.82 -401.05,-1.42 -343.35,-0.53 -825.9,-1.28 -1384.17,-2.15 l -3.73,-0.01 -1.06,3.6 c -28.65,97.82 -11.14,212.43 52.91,300.09 63.84,87.4 173.49,143.1 286.47,140.19 l -5.14,-6.62 c -8.28,28.59 -12.15,60.81 -10.71,92.93 4.27,106.99 65.1,210.35 158.5,258.19 92.17,48.67 205.95,46.87 293.27,-1.58 l -7.15,-2.54 c 49.75,121.38 154.73,209.4 268.62,250.18 114.23,41.52 240.92,36.06 340.52,-16.04 100.1,-51.29 171.34,-138.65 210.81,-230.32 40.5,-92.17 46.08,-191.13 25.93,-276.12 l -3.85,4.39 c 57.24,6.34 112.64,-3.5 160.22,-22.96 47.68,-19.54 88.15,-48.22 118.88,-81.46 15.28,-16.56 28.52,-34.53 37.43,-53.66 8.87,-19.1 15.46,-38.27 19.92,-57.03 9.22,-37.49 12.51,-72.65 13.64,-104.13 2.02,-63.11 -5.61,-111.75 -12.48,-143.95 -3.73,-16.1 -6.94,-28.19 -9.94,-36.29 -2.78,-8.06 -4.29,-11.87 -4.29,-11.87" /><path
         id="path278"
         style="fill:#ba2c42;fill-opacity:1;fill-rule:nonzero;stroke:none"
         d="m 2402.07,2644.9 -1.06,3.6 c -8.89,30.38 -13.34,62.37 -13.33,94.68 0.04,71.72 22.08,144.97 66.24,205.41 62.24,85.21 168.05,140.3 278.01,140.3 0.49,0 0.98,-0.01 1.47,-0.01 v 0 0 c -5.96,22.89 -9.16,47.84 -9.16,73.04 0.01,4.39 0.1,8.78 0.3,13.17 4.27,106.99 65.1,210.35 158.5,258.19 45.28,23.91 95.78,35.64 145.79,35.64 49.87,0 99.26,-11.66 142.51,-34.53 50.6,118.68 154.19,204.75 266.44,244.95 50.55,18.37 103.56,27.55 155.57,27.55 65.5,0 129.43,-14.55 184.95,-43.59 100.1,-51.29 171.34,-138.65 210.81,-230.32 25.63,-58.32 37.27,-119.37 37.27,-177.88 -0.01,-32.17 -3.54,-63.58 -10.21,-93.34 v 0 0 c 10.02,0.95 19.98,1.41 29.84,1.41 44.75,0 87.55,-9.39 125.4,-24.88 47.68,-19.54 88.15,-48.22 118.88,-81.46 15.28,-16.56 28.52,-34.53 37.43,-53.66 8.87,-19.1 15.46,-38.27 19.92,-57.03 9.22,-37.49 12.51,-72.65 13.64,-104.13 0.22,-6.9 0.33,-13.63 0.33,-20.18 0.03,-53.38 -6.69,-95.09 -12.81,-123.77 -3.73,-16.1 -6.94,-28.19 -9.94,-36.29 -2.78,-8.06 -4.29,-11.87 -4.29,-11.87 0,0 -3.01,-0.24 -9.16,-0.36 -6.5,-0.08 -15.6,-0.2 -27.47,-0.35 -24.66,-0.17 -60.52,-0.4 -106.92,-0.71 -93.9,-0.33 -230.11,-0.82 -401.05,-1.42 -343.35,-0.53 -825.9,-1.28 -1384.17,-2.15 l -3.73,-0.01" /><path
         id="path280"
         style="fill:#f03d5f;fill-opacity:1;fill-rule:nonzero;stroke:none"
         d="m 4181.83,2649.9 c 0,0 -3.01,-0.24 -9.15,-0.36 -6.5,-0.08 -15.61,-0.2 -27.47,-0.35 -24.67,-0.17 -60.53,-0.4 -106.92,-0.71 -93.9,-0.33 -230.11,-0.82 -401.06,-1.42 -343.35,-0.54 -825.9,-1.28 -1384.16,-2.15 l -3.74,-0.01 -1.05,3.6 c -28.66,97.81 -11.15,212.43 52.9,300.09 63.84,87.4 173.5,143.1 286.47,140.19 l -5.13,-6.62 c -8.29,28.59 -12.16,60.82 -10.72,92.93 4.28,106.99 65.1,210.35 158.5,258.19 92.17,48.67 205.95,46.87 293.28,-1.58 l -7.15,-2.54 c 49.75,121.38 154.73,209.39 268.61,250.18 114.22,41.52 240.92,36.06 340.52,-16.04 100.1,-51.29 171.35,-138.65 210.81,-230.32 40.51,-92.17 46.09,-191.13 25.94,-276.12 l -3.87,4.39 c 57.26,6.34 112.66,-3.5 160.24,-22.96 47.67,-19.54 88.14,-48.22 118.87,-81.46 15.29,-16.56 28.53,-34.53 37.43,-53.66 8.86,-19.1 15.46,-38.27 19.93,-57.03 9.22,-37.49 12.51,-72.65 13.63,-104.13 2.02,-63.11 -5.61,-111.75 -12.47,-143.95 -3.73,-16.1 -6.94,-28.19 -9.94,-36.29 -2.79,-8.06 -4.3,-11.87 -4.3,-11.87" /><path
         id="path282"
         style="fill:#fafaf9;fill-opacity:1;fill-rule:nonzero;stroke:none"
         d="m 3583.01,3096.51 c -1.07,0.01 -2.62,10.22 -4.47,28.44 -1.91,8.99 -3.54,20.1 -6.69,32.66 -1.8,6.25 -3.72,12.9 -5.74,19.94 -2.13,7.01 -5.39,14.08 -8.22,21.68 -12.48,29.92 -32.64,63.61 -62.82,93.96 -30.2,30.13 -70.83,55.99 -117.77,70.74 -47.23,13.74 -95.35,15.38 -137.26,7.25 -42.09,-7.92 -77.55,-24.96 -104.63,-42.75 -27.19,-17.9 -46.01,-36.84 -58.48,-50.22 -6.28,-6.71 -10.9,-12.17 -14.07,-15.87 -3.25,-3.64 -5.18,-5.42 -5.63,-5.12 -0.45,0.3 0.62,2.67 3.07,6.95 2.38,4.33 6.27,10.47 11.96,17.93 11.27,14.86 29.42,35.61 56.87,55.42 27.3,19.66 63.96,38.64 108.07,47.77 43.92,9.35 94.75,8.15 144.66,-6.41 49.62,-15.57 92.3,-43.34 123.47,-75.58 31.15,-32.48 51.23,-68.42 62.85,-100.03 2.62,-8.04 5.62,-15.51 7.45,-22.88 1.68,-7.37 3.26,-14.35 4.76,-20.9 2.42,-13.13 3.2,-24.66 4.19,-33.94 0.02,-18.79 -0.49,-29.04 -1.57,-29.04" /><path
         id="path284"
         style="fill:#fafaf9;fill-opacity:1;fill-rule:nonzero;stroke:none"
         d="m 3445.82,3198.47 c 2.62,3.43 65.2,-39.77 139.76,-96.49 1.43,-1.09 2.84,-2.17 4.16,-3.17 l -12.1,-3.64 c 30.25,86.22 57.6,154.06 61.59,152.67 4,-1.39 -16.84,-71.52 -46.84,-157.82 l -3.54,-10.14 -8.56,6.5 c -1.32,1 -2.74,2.08 -4.16,3.16 -74.57,56.72 -132.91,105.5 -130.31,108.93" /><path
         id="path286"
         style="fill:#fafaf9;fill-opacity:1;fill-rule:nonzero;stroke:none"
         d="m 3041.52,3144.19 c 1.07,-0.14 1.38,-10.18 1.03,-27.96 0.54,-8.9 1.17,-19.78 2.35,-32.29 2.06,-12.44 3.79,-26.65 8.31,-41.82 8.13,-30.41 23.04,-65.47 47.92,-98.75 24.43,-33.51 59.78,-64.12 102.66,-85.19 l 7.95,-4.07 8.26,-3.24 c 5.48,-2.17 10.93,-4.33 16.34,-6.46 5.53,-1.79 11.13,-3.21 16.63,-4.83 5.53,-1.47 10.9,-3.45 16.51,-4.17 22.08,-4.58 43.82,-6.89 64.58,-6.43 41.52,0.63 78.47,10.2 107.43,22.61 29.23,12.1 50.62,26.73 65.03,37.14 7.2,5.26 12.68,9.52 16.38,12.46 3.79,2.86 5.98,4.19 6.36,3.8 0.38,-0.38 -1.06,-2.46 -4.19,-6.09 -3.04,-3.71 -7.96,-8.78 -14.71,-14.88 -13.52,-12.09 -34.58,-28.61 -64.37,-42.52 -29.48,-14.2 -67.92,-25.44 -111.58,-26.91 -21.82,-0.88 -44.74,1.21 -68.06,5.83 -5.91,0.74 -11.6,2.75 -17.45,4.26 -5.8,1.66 -11.73,3.14 -17.57,5.01 -5.72,2.24 -11.48,4.49 -17.28,6.76 l -8.72,3.42 -8.41,4.28 c -5.61,2.88 -11.18,5.74 -16.72,8.59 -5.32,3.23 -10.46,6.68 -15.64,9.98 -10.62,6.23 -19.56,14.49 -28.98,21.71 -4.66,3.69 -8.62,8.1 -12.89,12.05 -4.08,4.16 -8.55,7.87 -12.17,12.3 -3.69,4.36 -7.35,8.66 -10.96,12.93 l -5.34,6.38 -4.69,6.76 c -25.51,35.46 -40.01,72.7 -47.06,104.64 -3.97,15.95 -5,30.78 -6.27,43.69 -0.39,12.96 -0.13,24.15 0.27,33.21 2.24,18.11 3.98,27.93 5.05,27.8" /><path
         id="path288"
         style="fill:#fafaf9;fill-opacity:1;fill-rule:nonzero;stroke:none"
         d="m 3165.21,3026.22 c -3.01,-3.09 -59.84,47.44 -126.91,112.85 -1.28,1.25 -2.55,2.5 -3.74,3.66 l 12.46,2.13 c -40.57,-81.87 -76,-145.87 -79.8,-144 -3.79,1.87 25.46,68.93 65.79,150.91 l 4.74,9.64 7.72,-7.51 c 1.18,-1.15 2.46,-2.39 3.74,-3.64 67.07,-65.41 119.01,-120.95 116,-124.04" /><path
         id="path290"
         style="fill:#f03d5f;fill-opacity:1;fill-rule:nonzero;stroke:none"
         d="m 5037.44,2145.72 c 0,0 -0.17,1.72 -0.25,5.11 -0.06,3.58 -0.14,8.56 -0.24,15.04 -0.11,13.44 -0.27,32.95 -0.47,58.1 -0.19,50.82 -0.46,124.35 -0.8,216.08 l 1.76,-1.76 c -200.13,-0.21 -490.86,-0.51 -813.87,-0.84 -373.63,0.45 -703.97,0.86 -903.45,1.1 h -1.51 l 0.01,1.5 c 0.3,64.66 0.53,115.83 0.7,151.04 0.17,17.34 0.3,30.75 0.39,40.03 0.09,4.41 0.16,7.8 0.21,10.3 0.06,2.31 0.13,3.48 0.2,3.48 0.07,0 0.14,-1.17 0.21,-3.48 0.05,-2.5 0.11,-5.89 0.2,-10.3 0.09,-9.28 0.23,-22.69 0.39,-40.03 0.17,-35.21 0.4,-86.38 0.71,-151.04 l -1.51,1.5 c 199.48,0.25 529.82,0.65 903.45,1.1 323.01,-0.33 613.74,-0.63 813.87,-0.84 h 1.76 v -1.76 c -0.34,-91.73 -0.61,-165.26 -0.8,-216.08 -0.2,-25.15 -0.36,-44.66 -0.47,-58.1 -0.09,-6.48 -0.18,-11.46 -0.24,-15.04 -0.08,-3.39 -0.25,-5.11 -0.25,-5.11" /><path
         id="path292"
         style="fill:#f03d5f;fill-opacity:1;fill-rule:nonzero;stroke:none"
         d="m 2519.35,2203.02 c -1.44,0 -2.6,99.24 -2.6,221.62 0,122.42 1.16,221.63 2.6,221.63 1.44,0 2.6,-99.21 2.6,-221.63 0,-122.38 -1.16,-221.62 -2.6,-221.62" /></g></g></svg>