<?xml version="1.0" encoding="UTF-8" standalone="no"?>
<svg
   xmlns:dc="http://purl.org/dc/elements/1.1/"
   xmlns:cc="http://creativecommons.org/ns#"
   xmlns:rdf="http://www.w3.org/1999/02/22-rdf-syntax-ns#"
   xmlns:svg="http://www.w3.org/2000/svg"
   xmlns="http://www.w3.org/2000/svg"
   viewBox="0 0 538.65332 521.44"
   height="521.44"
   width="538.65332"
   xml:space="preserve"
   id="svg2"
   version="1.1"><metadata
     id="metadata8"><rdf:RDF><cc:Work
         rdf:about=""><dc:format>image/svg+xml</dc:format><dc:type
           rdf:resource="http://purl.org/dc/dcmitype/StillImage" /></cc:Work></rdf:RDF></metadata><defs
     id="defs6"><clipPath
       id="clipPath58"
       clipPathUnits="userSpaceOnUse"><path
         id="path56"
         d="m 1823.09,3450.1 v 0 0 m 0,0 -90.55,71.89 48.57,41.29 c 0.14,-4.4 41.98,-113.18 41.98,-113.18 v 0" /></clipPath></defs><g
     transform="matrix(1.3333333,0,0,-1.3333333,0,521.44)"
     id="g10"><g
       transform="scale(0.1)"
       id="g12"><path
         id="path14"
         style="fill:#e7e8e5;fill-opacity:1;fill-rule:nonzero;stroke:none"
         d="M 1576.37,3815.63 624.406,2579.05 3184.5,3215.45 1758.59,3861.48 c -64.01,29 -139.56,9.99 -182.22,-45.85" /><path
         id="path16"
         style="fill:#dadbd8;fill-opacity:1;fill-rule:nonzero;stroke:none"
         d="m 1696,3869.8 c -44.18,0 -87.06,-20.23 -115.44,-57.37 l -0.01,-0.02 -942.73,-1224.59 2530.68,629.09 -1412.08,639.76 c -19.56,8.86 -40.13,13.13 -60.42,13.13 M 611,2570.28 1572.19,3818.85 c 44.4,58.12 121.94,77.6 188.58,47.44 L 3200.51,3213.99 611,2570.28" /><path
         id="path18"
         style="fill:#ededeb;fill-opacity:1;fill-rule:nonzero;stroke:none"
         d="M 3461.45,1695.62 1100.24,1108.66 c -57.38,-14.27 -115.455,20.68 -129.717,78.06 L 624.406,2579.05 3193.39,3217.66 3539.5,1825.34 c 14.27,-57.38 -20.68,-115.46 -78.05,-129.72" /><path
         id="path20"
         style="fill:#ffffff;fill-opacity:1;fill-rule:nonzero;stroke:none"
         d="m 3035.23,3141.42 -890,-909.33 -1345.57,302.78 -153.914,713.52 c -17.723,76.56 29.242,153.19 105.512,172.16 L 2697.26,3904.3 c 77.16,19.18 155.25,-27.82 174.43,-104.98 l 163.54,-657.9" /><path
         id="path22"
         style="fill:#dadbd8;fill-opacity:1;fill-rule:nonzero;stroke:none"
         d="M 2023.04,2303.63 966.211,1199.13 c 15.699,-63.12 79.599,-101.56 142.719,-85.86 L 3451.96,1696 c 63.13,15.7 101.57,79.6 85.87,142.72 l -2.19,8.8 -1381.95,487.28 c -45.9,16.18 -97.01,3.99 -130.65,-31.17" /><path
         id="path24"
         style="fill:#dadbd8;fill-opacity:1;fill-rule:nonzero;stroke:none"
         d="m 1704.75,3237.27 -761.352,-189.36 -19.347,77.77 761.359,189.36 19.34,-77.77" /><path
         id="path26"
         style="fill:#dadbd8;fill-opacity:1;fill-rule:nonzero;stroke:none"
         d="m 2684.06,3261.03 -1689.177,-420.12 -21.836,87.8 1689.183,420.12 21.83,-87.8" /><path
         id="path28"
         style="fill:#dadbd8;fill-opacity:1;fill-rule:nonzero;stroke:none"
         d="m 2737.44,3046.41 -1689.18,-420.12 -21.83,87.8 1689.17,420.12 21.84,-87.8" /><path
         id="path30"
         style="fill:#dadbd8;fill-opacity:1;fill-rule:nonzero;stroke:none"
         d="m 2751.2,2850.1 -52.89,-52.92 -1418.02,-370.73 -185.3,43.36 -7,20.1 1683.71,418.75 7.23,-29.1 -27.73,-29.46" /><path
         id="path32"
         style="fill:#dadbd8;fill-opacity:1;fill-rule:nonzero;stroke:none"
         d="m 2388.49,2480.62 -638.85,-158.88 -195.28,44.66 954.73,237.45 -120.6,-123.23" /><path
         id="path34"
         style="fill:#fafaf9;fill-opacity:1;fill-rule:nonzero;stroke:none"
         d="m 1984.48,2263.33 c 0.07,-0.06 -0.76,-1.06 -2.43,-2.95 -1.89,-2.08 -4.39,-4.81 -7.56,-8.3 -6.95,-7.44 -16.82,-18.02 -29.43,-31.51 -25.95,-27.47 -63.12,-66.78 -108.95,-115.27 -92.18,-97.15 -219.61,-231.27 -361.41,-378.41 -141.82,-147.2 -271.58,-279.14 -366.39,-373.74 -47.38,-47.32 -85.91,-85.42 -112.74,-111.55 -13.257,-12.87 -23.636,-22.94 -30.945,-30.03 -3.422,-3.24 -6.109,-5.78 -8.152,-7.71 -1.856,-1.72 -2.84,-2.56 -2.903,-2.49 -0.07,0.06 0.785,1.04 2.508,2.89 1.945,2.02 4.512,4.7 7.766,8.09 7.136,7.27 17.277,17.59 30.222,30.76 26.554,26.86 64.584,65.34 111.494,112.78 94.09,95.29 223.38,227.63 365.18,374.82 141.49,147.22 269.58,280.51 362.56,377.28 46.36,47.98 83.96,86.88 110.21,114.05 12.93,13.2 23.05,23.53 30.18,30.81 3.34,3.32 5.96,5.94 7.95,7.92 1.82,1.76 2.78,2.63 2.84,2.56" /><path
         id="path36"
         style="fill:#fafaf9;fill-opacity:1;fill-rule:nonzero;stroke:none"
         d="m 3535.63,1847.52 c -0.5,-1.43 -295.2,100.86 -658.15,228.44 -363.08,127.62 -656.9,232.21 -656.4,233.64 0.5,1.43 295.15,-100.83 658.22,-228.46 362.95,-127.58 656.83,-232.19 656.33,-233.62" /><path
         id="path38"
         style="fill:#fafaf9;fill-opacity:1;fill-rule:nonzero;stroke:none"
         d="m 3077.59,3185.2 c 0.07,-0.07 -0.59,-0.91 -1.94,-2.5 -1.56,-1.79 -3.56,-4.08 -6.06,-6.93 -5.68,-6.31 -13.63,-15.12 -23.73,-26.32 -21.1,-22.94 -51.19,-55.62 -88.25,-95.89 -74.86,-80.66 -179.1,-191.32 -295.87,-311.97 -116.82,-120.68 -224.07,-228.44 -302.33,-305.82 -39.08,-38.29 -70.81,-69.38 -93.07,-91.19 -10.89,-10.44 -19.45,-18.65 -25.58,-24.53 -2.77,-2.59 -5,-4.65 -6.74,-6.28 -1.54,-1.39 -2.37,-2.07 -2.43,-2 -0.07,0.06 0.63,0.88 2.03,2.4 1.65,1.73 3.74,3.92 6.37,6.67 5.95,6.05 14.27,14.51 24.84,25.26 21.97,22.11 53.27,53.61 91.84,92.43 77.54,78.06 184.34,186.23 301.12,306.88 116.74,120.62 221.41,230.84 296.98,310.8 37.59,39.77 68.11,72.04 89.53,94.69 10.42,10.9 18.61,19.48 24.48,25.62 2.66,2.7 4.79,4.87 6.46,6.57 1.49,1.46 2.28,2.17 2.35,2.11" /><path
         id="path40"
         style="fill:#fafaf9;fill-opacity:1;fill-rule:nonzero;stroke:none"
         d="m 1984.48,2263.33 c -0.02,-0.08 -1.22,0.13 -3.56,0.63 -2.6,0.61 -6.01,1.4 -10.31,2.39 -9.37,2.29 -22.62,5.54 -39.52,9.67 -34.26,8.6 -83.95,20.62 -145.43,35.09 -122.93,29.1 -293.37,66.58 -481.76,107.39 -188.47,40.82 -358.853,78.92 -481.591,109 -61.383,14.96 -110.942,27.56 -145.047,36.8 -16.789,4.56 -29.953,8.14 -39.258,10.67 -4.25,1.22 -7.609,2.17 -10.176,2.91 -2.285,0.68 -3.445,1.08 -3.418,1.17 0.024,0.09 1.231,-0.12 3.563,-0.63 2.601,-0.6 6.007,-1.39 10.308,-2.38 9.371,-2.3 22.617,-5.54 39.512,-9.67 34.258,-8.6 83.941,-20.62 145.426,-35.09 122.922,-29.1 293.381,-66.58 481.841,-107.41 188.4,-40.81 358.77,-78.9 481.51,-108.98 61.38,-14.96 110.94,-27.56 145.06,-36.8 16.79,-4.56 29.95,-8.14 39.26,-10.67 4.25,-1.22 7.61,-2.18 10.18,-2.91 2.28,-0.69 3.44,-1.08 3.41,-1.18" /><path
         id="path42"
         style="fill:#dadbd8;fill-opacity:1;fill-rule:nonzero;stroke:none"
         d="m 3035.23,3141.42 c 0,0 -0.99,3.24 -2.67,9.62 -1.69,6.51 -4.13,15.97 -7.33,28.34 -6.35,25.07 -15.67,61.81 -27.65,109.09 -23.81,94.93 -58.21,232.07 -100.71,401.49 -5.3,21.2 -10.72,42.9 -16.27,65.08 -2.77,11.09 -5.57,22.3 -8.4,33.63 -1.4,5.69 -2.8,11.4 -4.59,16.9 -1.48,5.64 -3.71,11.04 -6.07,16.43 -9.18,21.67 -24.9,40.77 -44.16,55.68 -19.6,14.37 -43.16,24.77 -68.36,27.44 -12.53,1.88 -25.38,1.03 -38.09,-0.51 -12.59,-2.18 -25.39,-5.7 -38.27,-8.86 -25.76,-6.42 -51.92,-12.95 -78.47,-19.57 -53.12,-13.24 -107.76,-26.87 -163.82,-40.84 -224.23,-55.81 -470.72,-117.16 -729.46,-181.56 -258.86,-64.27 -505.45,-125.49 -729.742,-181.18 -56.074,-13.9 -110.758,-27.46 -163.887,-40.62 -13.289,-3.29 -26.472,-6.56 -39.558,-9.8 -13.098,-3.39 -26.11,-6.02 -37.969,-11.53 -12,-5.11 -23.242,-11.83 -33.098,-20.07 -10.125,-7.94 -18.699,-17.55 -26.07,-27.78 -7.625,-10.14 -12.934,-21.63 -17.582,-33.11 -4.098,-11.72 -7.059,-23.76 -8.098,-35.94 -2.929,-24.48 3.809,-48.03 8.625,-71.39 9.992,-46.63 19.594,-91.4 28.75,-134.12 36.473,-170.82 65.989,-309.08 86.422,-404.79 10.07,-47.72 17.895,-84.8 23.231,-110.11 2.574,-12.51 4.546,-22.07 5.902,-28.66 1.301,-6.47 1.824,-9.81 1.824,-9.81 0,0 -0.89,3.26 -2.375,9.69 -1.48,6.56 -3.629,16.09 -6.437,28.54 -5.571,25.26 -13.731,62.27 -24.231,109.9 -20.836,95.61 -50.937,233.74 -88.133,404.4 -9.265,42.7 -18.976,87.43 -29.093,134.03 -4.805,23.07 -11.832,47.44 -8.868,72.72 1.043,12.56 4.067,24.99 8.27,37.09 4.766,11.86 10.234,23.72 18.078,34.19 7.586,10.58 16.426,20.52 26.859,28.74 10.172,8.53 21.766,15.49 34.161,20.79 12.285,5.73 25.75,8.48 38.679,11.84 13.082,3.27 26.266,6.56 39.543,9.87 53.114,13.24 107.774,26.87 163.832,40.85 224.265,55.81 470.815,117.18 729.645,181.59 258.77,64.25 505.3,125.46 729.56,181.14 56.07,13.9 110.74,27.45 163.87,40.62 26.56,6.58 52.73,13.06 78.5,19.45 12.91,3.14 25.53,6.6 38.71,8.87 13.14,1.58 26.4,2.4 39.34,0.45 26,-2.81 50.29,-13.57 70.47,-28.45 19.82,-15.4 35.97,-35.14 45.39,-57.48 2.4,-5.56 4.69,-11.12 6.19,-16.93 1.86,-5.74 3.23,-11.44 4.61,-17.1 2.8,-11.34 5.58,-22.56 8.32,-33.66 5.49,-22.2 10.85,-43.91 16.09,-65.12 41.78,-169.6 75.6,-306.88 99.02,-401.91 11.54,-47.39 20.51,-84.22 26.65,-109.35 2.96,-12.42 5.23,-21.92 6.79,-28.47 1.5,-6.42 2.13,-9.75 2.13,-9.75" /><path
         id="path44"
         style="fill:#17282f;fill-opacity:1;fill-rule:nonzero;stroke:none"
         d="M 0,5.69922 H 4039.89" /><path
         id="path46"
         style="fill:#17282f;fill-opacity:1;fill-rule:nonzero;stroke:none"
         d="m 4039.89,5.69922 c 0,-1.51953 -904.43,-2.75 -2019.85,-2.75 C 904.238,2.94922 0,4.17969 0,5.69922 c 0,1.51953 904.238,2.75 2020.04,2.75 1115.42,0 2019.85,-1.23047 2019.85,-2.75" /><path
         id="path48"
         style="fill:#f03d5f;fill-opacity:1;fill-rule:nonzero;stroke:none"
         d="m 1917.12,3669.19 -98.84,-75.29 4.81,-143.8 -90.55,71.89 -49.98,-42.8 -190.01,234.56 424.57,-44.56" /><path
         id="path50"
         style="fill:#f03d5f;fill-opacity:1;fill-rule:nonzero;stroke:none"
         d="m 1781.11,3563.28 c 0.14,-4.4 41.98,-113.18 41.98,-113.18 l -90.55,71.89 48.57,41.29" /><g
         id="g52"><g
           clip-path="url(#clipPath58)"
           id="g54"><path
             id="path60"
             style="fill:#ba2c42;fill-opacity:1;fill-rule:nonzero;stroke:none"
             d="m 1732.54,3450.1 h 90.5508 v 113.18 H 1732.54 Z" /></g></g><path
         id="path62"
         style="fill:#f03d5f;fill-opacity:1;fill-rule:nonzero;stroke:none"
         d="m 1492.55,3713.75 288.56,-150.47 41.98,-113.18 -4.81,143.8 -325.73,119.85" /><path
         id="path64"
         style="fill:#f03654;fill-opacity:1;fill-rule:nonzero;stroke:none"
         d="m 1823.09,3450.1 -41.98,113.18 -288.56,150.47 325.73,-119.85 4.81,-143.8" /><path
         id="path66"
         style="fill:#17282f;fill-opacity:1;fill-rule:nonzero;stroke:none"
         d="m 2292.53,1773.56 c -0.35,-1.47 -12.12,0.14 -26.27,3.6 -14.16,3.45 -25.34,7.45 -24.98,8.93 0.36,1.47 12.13,-0.14 26.28,-3.6 14.15,-3.46 25.33,-7.46 24.97,-8.93" /><path
         id="path68"
         style="fill:#17282f;fill-opacity:1;fill-rule:nonzero;stroke:none"
         d="m 2374.36,1753.56 c -0.36,-1.47 -7.5,-0.99 -15.94,1.07 -8.44,2.06 -14.99,4.93 -14.63,6.4 0.36,1.48 7.49,1 15.94,-1.07 8.43,-2.06 14.99,-4.93 14.63,-6.4" /><path
         id="path70"
         style="fill:#17282f;fill-opacity:1;fill-rule:nonzero;stroke:none"
         d="m 2036.8,3468.93 c -0.45,-1.48 -12.03,0.78 -26.13,4.04 -14.09,3.29 -25.49,6.35 -25.25,7.87 0.24,1.48 12.19,0.82 26.49,-2.52 14.31,-3.3 25.33,-7.97 24.89,-9.39" /><path
         id="path72"
         style="fill:#17282f;fill-opacity:1;fill-rule:nonzero;stroke:none"
         d="m 2133.56,3427.41 c -0.79,-1.33 -11.51,3.59 -24.45,10.05 -12.94,6.49 -23.3,12.15 -22.7,13.57 0.57,1.38 12.04,-2.07 25.16,-8.66 13.13,-6.56 22.76,-13.68 21.99,-14.96" /><path
         id="path74"
         style="fill:#17282f;fill-opacity:1;fill-rule:nonzero;stroke:none"
         d="m 2217.47,3363.77 c -1.09,-1.08 -10.24,6.37 -21.21,15.82 -10.96,9.46 -19.67,17.43 -18.75,18.67 0.89,1.2 11.2,-4.9 22.33,-14.51 11.16,-9.6 18.69,-18.93 17.63,-19.98" /><path
         id="path76"
         style="fill:#17282f;fill-opacity:1;fill-rule:nonzero;stroke:none"
         d="m 2281.44,3280.28 c -1.34,-0.74 -8.02,8.98 -15.99,21.03 -7.94,12.07 -14.23,22.04 -13.02,22.99 1.17,0.93 9.52,-7.68 17.61,-19.97 8.11,-12.27 12.72,-23.35 11.4,-24.05" /><path
         id="path78"
         style="fill:#17282f;fill-opacity:1;fill-rule:nonzero;stroke:none"
         d="m 2317.78,3181.62 c -1.52,-0.29 -4.92,11 -8.87,24.89 -3.92,13.9 -6.94,25.29 -5.49,25.84 1.38,0.54 6.78,-10.18 10.78,-24.35 4.01,-14.15 5.05,-26.11 3.58,-26.38" /><path
         id="path80"
         style="fill:#17282f;fill-opacity:1;fill-rule:nonzero;stroke:none"
         d="m 2323.15,3076.61 c -1.54,0.17 -1.43,11.95 -1.11,26.39 0.36,14.44 0.84,26.22 2.38,26.32 1.49,0.1 3.48,-11.74 3.12,-26.45 -0.33,-14.71 -2.91,-26.44 -4.39,-26.26" /><path
         id="path82"
         style="fill:#17282f;fill-opacity:1;fill-rule:nonzero;stroke:none"
         d="m 2295.81,2975.16 c -1.4,0.66 2.56,11.75 7.42,25.33 4.91,13.58 8.97,24.64 10.47,24.25 1.44,-0.36 -0.29,-12.24 -5.29,-26.11 -4.98,-13.86 -11.26,-24.12 -12.6,-23.47" /><path
         id="path84"
         style="fill:#17282f;fill-opacity:1;fill-rule:nonzero;stroke:none"
         d="m 2234.78,2889.82 c -1.05,1.14 6.77,9.94 16.24,20.8 9.5,10.84 17.13,19.79 18.4,18.91 1.23,-0.83 -4.53,-11.42 -14.26,-22.52 -9.7,-11.13 -19.38,-18.3 -20.38,-17.19" /><path
         id="path86"
         style="fill:#17282f;fill-opacity:1;fill-rule:nonzero;stroke:none"
         d="m 2146.53,2832.95 c -0.57,1.44 9.86,6.91 22.63,13.62 12.79,6.66 23.22,12.11 24.08,10.82 0.83,-1.23 -8.47,-8.88 -21.54,-15.7 -13.05,-6.84 -24.62,-10.12 -25.17,-8.74" /><path
         id="path88"
         style="fill:#17282f;fill-opacity:1;fill-rule:nonzero;stroke:none"
         d="m 2043.92,2810.9 c -0.02,1.55 11.67,2.87 25.97,4.63 14.32,1.71 26.01,3.16 26.35,1.65 0.34,-1.44 -11.04,-5.36 -25.68,-7.11 -14.65,-1.79 -26.64,-0.65 -26.64,0.83" /><path
         id="path90"
         style="fill:#17282f;fill-opacity:1;fill-rule:nonzero;stroke:none"
         d="m 1940.97,2830.36 c 0.63,1.4 11.79,-2.29 25.57,-6.44 13.77,-4.2 25.11,-7.33 24.85,-8.87 -0.24,-1.45 -12.29,-0.71 -26.44,3.61 -14.17,4.27 -24.62,10.34 -23.98,11.7" /><path
         id="path92"
         style="fill:#17282f;fill-opacity:1;fill-rule:nonzero;stroke:none"
         d="m 1867.95,2902.77 c 1.49,0.47 6.08,-10.22 14.32,-21.82 8.1,-11.68 16.06,-20.33 14.97,-21.51 -0.93,-1.08 -10.91,6.04 -19.49,18.38 -8.72,12.31 -11.25,24.61 -9.8,24.95" /><path
         id="path94"
         style="fill:#17282f;fill-opacity:1;fill-rule:nonzero;stroke:none"
         d="m 1912.32,2984.67 c 0.43,-1.6 -10.88,-5.04 -22.23,-13.24 -11.48,-8.05 -17.5,-18.14 -18.93,-17.39 -1.38,0.41 3,12.85 15.72,21.85 12.57,8.99 25.28,10.13 25.44,8.78" /><path
         id="path96"
         style="fill:#17282f;fill-opacity:1;fill-rule:nonzero;stroke:none"
         d="m 2002.74,2947.14 c -1.39,-0.78 -7.77,9.08 -18.15,18.63 -10.24,9.57 -21.03,14.37 -20.43,15.89 0.33,1.36 12.84,-1.35 24.16,-11.85 11.2,-10.35 15.74,-22.1 14.42,-22.67" /><path
         id="path98"
         style="fill:#17282f;fill-opacity:1;fill-rule:nonzero;stroke:none"
         d="m 2006.15,2845.05 c -1.45,0.64 2.26,11.74 4.87,25.77 2.72,14.01 3.36,25.7 4.94,25.76 1.45,0.12 3.31,-12.06 0.46,-26.79 -2.76,-14.74 -8.97,-25.39 -10.27,-24.74" /><path
         id="path100"
         style="fill:#17282f;fill-opacity:1;fill-rule:nonzero;stroke:none"
         d="m 1937.67,2766.54 c -0.88,1.29 8.19,8.81 19.1,18.18 10.95,9.32 19.54,17.3 20.71,16.28 1.14,-0.96 -5.86,-10.85 -17.13,-20.45 -11.21,-9.63 -21.86,-15.23 -22.68,-14.01" /><path
         id="path102"
         style="fill:#17282f;fill-opacity:1;fill-rule:nonzero;stroke:none"
         d="m 1844.14,2717.99 c -0.61,1.39 9.61,7.43 22.82,13.49 13.21,6.06 24.46,9.87 25.14,8.51 0.69,-1.35 -9.53,-7.39 -22.81,-13.49 -13.29,-6.09 -24.55,-9.9 -25.15,-8.51" /><path
         id="path104"
         style="fill:#17282f;fill-opacity:1;fill-rule:nonzero;stroke:none"
         d="m 1750.16,2670.18 c -0.85,1.25 8.69,8.4 21.3,15.96 12.7,7.37 24.06,11.23 24.64,10.01 0.74,-1.51 -9.44,-7.54 -21.95,-14.8 -12.4,-7.44 -23.14,-12.43 -23.99,-11.17" /><path
         id="path106"
         style="fill:#17282f;fill-opacity:1;fill-rule:nonzero;stroke:none"
         d="m 1670.48,2601.4 c -1.12,0.99 5.82,10.75 16.31,21.04 10.47,10.3 20.35,17.07 21.31,15.92 1,-1.17 -7.16,-9.69 -17.46,-19.84 -10.32,-10.13 -19,-18.13 -20.16,-17.12" /><path
         id="path108"
         style="fill:#17282f;fill-opacity:1;fill-rule:nonzero;stroke:none"
         d="m 1610.09,2515.16 c -1.33,0.69 3.1,11.81 10.8,24.31 7.68,12.52 15.6,21.5 16.81,20.63 1.25,-0.9 -4.56,-11.17 -12.13,-23.5 -7.58,-12.32 -14.12,-22.15 -15.48,-21.44" /><path
         id="path110"
         style="fill:#17282f;fill-opacity:1;fill-rule:nonzero;stroke:none"
         d="m 1571.64,2417.14 c -1.46,0.36 0.24,12.21 4.79,26.17 4.54,13.97 10.14,24.55 11.53,23.98 1.42,-0.57 -1.83,-11.92 -6.3,-25.68 -4.49,-13.75 -8.54,-24.84 -10.02,-24.47" /><path
         id="path112"
         style="fill:#17282f;fill-opacity:1;fill-rule:nonzero;stroke:none"
         d="m 1557.89,2312.81 c -1.5,-0.02 -2.81,11.89 -1.79,26.52 0.99,14.65 3.9,26.26 5.38,26.04 1.52,-0.21 1.08,-11.99 0.1,-26.41 -1,-14.41 -2.15,-26.14 -3.69,-26.15" /><path
         id="path114"
         style="fill:#17282f;fill-opacity:1;fill-rule:nonzero;stroke:none"
         d="m 1571.66,2208.49 c -1.46,-0.42 -5.18,10.88 -8.3,25.24 -3.46,14.31 -3.64,26.3 -2.15,26.47 1.52,0.18 4.13,-11.32 7.53,-25.38 3.08,-14.12 4.38,-25.92 2.92,-26.33" /><path
         id="path116"
         style="fill:#17282f;fill-opacity:1;fill-rule:nonzero;stroke:none"
         d="m 1612.39,2111.43 c -1.29,-0.76 -8.41,8.87 -14.93,22.02 -6.56,13.15 -9.93,24.64 -8.54,25.21 1.42,0.58 7,-9.81 13.46,-22.76 6.43,-12.96 11.34,-23.69 10.01,-24.47" /><path
         id="path118"
         style="fill:#17282f;fill-opacity:1;fill-rule:nonzero;stroke:none"
         d="m 1675.59,2027.2 c -1.07,-1.05 -10.26,6.62 -19.75,17.83 -9.5,11.19 -15.57,21.51 -14.36,22.39 1.23,0.91 9.18,-7.81 18.55,-18.84 9.35,-11.04 16.66,-20.31 15.56,-21.38" /><path
         id="path120"
         style="fill:#17282f;fill-opacity:1;fill-rule:nonzero;stroke:none"
         d="m 1756.77,1960.15 c -0.79,-1.27 -11.54,4.02 -23.38,12.7 -11.86,8.65 -20.17,17.27 -19.21,18.41 1,1.18 10.76,-5.45 22.46,-13.98 11.67,-8.54 20.95,-15.83 20.13,-17.13" /><path
         id="path122"
         style="fill:#17282f;fill-opacity:1;fill-rule:nonzero;stroke:none"
         d="m 1851.73,1914.74 c -0.44,-1.43 -12.18,1 -25.8,6.5 -13.63,5.49 -23.78,11.85 -23.11,13.2 0.68,1.38 11.74,-2.7 25.16,-8.1 13.41,-5.42 24.22,-10.14 23.75,-11.6" /><path
         id="path124"
         style="fill:#17282f;fill-opacity:1;fill-rule:nonzero;stroke:none"
         d="m 1904.69,1901.33 c -0.28,-1.5 -0.91,-2.63 -1.43,-2.54 -0.51,0.1 -0.71,1.38 -0.44,2.87 0.28,1.5 0.91,2.63 1.42,2.54 0.52,-0.09 0.72,-1.38 0.45,-2.87" /><path
         id="path126"
         style="fill:#f03d5f;fill-opacity:1;fill-rule:nonzero;stroke:none"
         d="m 1805.6,2095.02 -109.32,35.91 22.34,68 109.31,-35.9 -22.33,-68.01" /><path
         id="path128"
         style="fill:#ba2c42;fill-opacity:1;fill-rule:nonzero;stroke:none"
         d="m 1805.6,2095.02 -108.62,35.67 c 2.94,0.02 14.31,4.51 27.46,10.93 11.06,5.4 20.27,10.65 24,13.55 3.53,-4.76 7.27,-9.75 11.16,-14.88 l 1.82,-2.4 1.23,-1.62 1.9,0.7 c 6.94,2.54 13.58,5.03 19.79,7.39 0.94,-4.56 4.51,-14.06 9.23,-24.67 4.94,-11.1 9.7,-20.37 12.29,-23.86 l -0.26,-0.81 m 1.45,4.42 c -1.39,5.03 -4.46,13.29 -8.44,22.44 -4.74,10.9 -9.37,19.59 -12.04,23.33 23.42,8.96 40.06,16.01 41.3,17.61 l -20.82,-63.38 m -110.56,32.14 22.07,67.18 c 0.05,-2 11.8,-19.13 28.5,-41.73 -4.74,-1.28 -14.29,-5.23 -25.03,-10.47 -13.24,-6.47 -23.83,-12.72 -25.54,-14.98 m 68.09,11.24 -0.6,0.79 c -22.21,29.31 -41.35,52.8 -44.85,55.16 l 108.39,-35.61 c -0.02,0 -0.04,0 -0.06,0 -3.83,0 -30.3,-8.55 -62.88,-20.34" /><path
         id="path130"
         style="fill:#f03d5f;fill-opacity:1;fill-rule:nonzero;stroke:none"
         d="m 1827.93,2163.03 c 0.51,-1.39 -27.59,-12.93 -63.38,-26.06 l -1.9,-0.7 -1.23,1.62 -1.82,2.4 c -23.85,31.48 -42.19,57.73 -40.98,58.64 1.2,0.92 21.51,-23.84 45.36,-55.32 l 1.82,-2.4 -3.13,0.92 c 35.83,13.01 64.76,22.28 65.26,20.9" /><path
         id="path132"
         style="fill:#f03654;fill-opacity:1;fill-rule:nonzero;stroke:none"
         d="m 1762.65,2136.27 -1.23,1.62 -1.82,2.4 c -3.89,5.13 -7.63,10.12 -11.16,14.88 1.16,0.9 1.79,1.57 1.79,1.96 0,0.04 -0.01,0.08 -0.03,0.12 -0.08,0.16 -0.31,0.23 -0.69,0.23 -0.54,0 -1.37,-0.15 -2.45,-0.45 -16.74,22.65 -28.5,39.8 -28.5,41.74 0,0.08 0.02,0.14 0.06,0.16 0.02,0.02 0.05,0.03 0.08,0.03 1.85,0 21.86,-24.44 45.28,-55.35 l 0.6,-0.79 c 32.58,11.79 59.05,20.34 62.88,20.34 0.28,0 0.44,-0.04 0.47,-0.13 0.01,-0.02 0.01,-0.03 0.01,-0.05 -0.04,-1.22 -17.05,-8.47 -41.37,-17.77 -0.91,1.27 -1.59,1.97 -1.97,2 -0.01,0 -0.02,0 -0.03,0 -0.32,0 -0.48,-0.34 -0.48,-0.98 0,-0.47 0.09,-1.1 0.25,-1.87 -6.21,-2.36 -12.85,-4.85 -19.79,-7.39 l -1.9,-0.7 m 3.15,4.94 v 0 m 0,0 v 0" /><path
         id="path134"
         style="fill:#f03d5f;fill-opacity:1;fill-rule:nonzero;stroke:none"
         d="m 1750.2,2157.25 c 0.66,-1.36 -10.86,-8.36 -25.76,-15.63 -14.89,-7.27 -27.5,-12.06 -28.16,-10.69 -0.67,1.36 10.86,8.36 25.75,15.63 14.89,7.27 27.5,12.05 28.17,10.69" /><path
         id="path136"
         style="fill:#f03654;fill-opacity:1;fill-rule:nonzero;stroke:none"
         d="m 1696.96,2130.69 c -0.37,0 -0.6,0.08 -0.68,0.24 -0.02,0.03 -0.03,0.08 -0.03,0.12 -0.01,1.62 11.3,8.43 25.78,15.51 13.18,6.43 24.58,10.92 27.48,10.92 0.38,0 0.61,-0.07 0.69,-0.23 0.02,-0.04 0.03,-0.08 0.03,-0.12 0,-0.39 -0.63,-1.06 -1.79,-1.96 v 0 c -3.73,-2.9 -12.94,-8.15 -24,-13.55 -13.15,-6.42 -24.52,-10.91 -27.46,-10.93 0,0 -0.01,0 -0.02,0" /><path
         id="path138"
         style="fill:#f03d5f;fill-opacity:1;fill-rule:nonzero;stroke:none"
         d="m 1807.59,2094.36 c -1.39,-0.6 -7.55,10.79 -14.02,25.33 -6.63,14.92 -11.01,27.65 -8.97,27.52 1.51,-0.1 7.66,-10.73 14.01,-25.33 6.35,-14.59 10.37,-26.91 8.98,-27.52" /><path
         id="path140"
         style="fill:#f03654;fill-opacity:1;fill-rule:nonzero;stroke:none"
         d="m 1807.47,2094.34 c -1.59,0 -7.59,11.18 -13.9,25.35 -4.72,10.61 -8.29,20.11 -9.23,24.67 -0.16,0.77 -0.25,1.4 -0.25,1.87 0,0.64 0.16,0.98 0.48,0.98 0.01,0 0.02,0 0.03,0 1.51,-0.1 7.66,-10.73 14.01,-25.33 5.51,-12.65 9.26,-23.6 9.25,-26.68 0,-0.47 -0.09,-0.76 -0.27,-0.84 -0.04,-0.02 -0.08,-0.02 -0.12,-0.02" /><path
         id="path142"
         style="fill:#f03d5f;fill-opacity:1;fill-rule:nonzero;stroke:none"
         d="m 2216.37,1721.52 -281.24,92.39 57.47,174.96 281.24,-92.39 -57.47,-174.96" /><path
         id="path144"
         style="fill:#f03d5f;fill-opacity:1;fill-rule:nonzero;stroke:none"
         d="m 2273.84,1896.48 c 0.12,-0.35 -4.34,-2.35 -12.54,-5.69 -9.24,-3.61 -20.97,-8.2 -35,-13.69 -29.69,-11.36 -70.96,-26.75 -117,-43.59 l -1.91,-0.7 -1.23,1.62 c -1.47,1.96 -3.07,4.06 -4.68,6.17 -30.67,40.49 -58.2,77.33 -77.9,104.16 -9.27,12.82 -17.02,23.53 -23.1,31.94 -5.36,7.61 -8.18,11.94 -7.88,12.17 0.3,0.23 3.7,-3.66 9.58,-10.88 6.45,-8.13 14.67,-18.49 24.5,-30.89 20.5,-26.22 48.5,-62.69 79.19,-103.18 1.6,-2.11 3.19,-4.22 4.68,-6.18 l -3.14,0.93 c 46.08,16.78 87.55,31.58 117.58,42.01 14.28,4.84 26.2,8.89 35.59,12.07 8.42,2.74 13.13,4.08 13.26,3.73" /><path
         id="path146"
         style="fill:#da314b;fill-opacity:1;fill-rule:nonzero;stroke:none"
         d="m 2107.39,1832.81 -1.23,1.62 c -1.47,1.96 -3.07,4.06 -4.68,6.17 -10.28,13.58 -20.22,26.75 -29.62,39.27 1.3,0.87 1.99,1.45 2,1.71 0,0.02 0,0.03 -0.01,0.05 -0.03,0.06 -0.12,0.09 -0.28,0.09 -0.42,0 -1.3,-0.23 -2.6,-0.67 -18.27,24.33 -34.5,46.16 -47.39,63.71 -9.27,12.82 -17.02,23.53 -23.1,31.94 -5.09,7.23 -7.89,11.49 -7.9,12.1 0,0.03 0.01,0.05 0.02,0.07 0.01,0 0.02,0.01 0.03,0.01 0.47,0 3.83,-3.87 9.55,-10.89 6.45,-8.13 14.67,-18.49 24.5,-30.89 20.5,-26.22 48.5,-62.69 79.19,-103.18 1.17,-1.54 2.33,-3.08 3.45,-4.56 45.31,16.5 86.06,31.03 115.67,41.32 14.28,4.84 26.2,8.89 35.59,12.07 7.55,2.45 12.12,3.79 13.07,3.79 0.11,0 0.17,-0.02 0.19,-0.06 v -0.01 c -0.02,-0.4 -4.47,-2.39 -12.54,-5.68 -9.24,-3.61 -20.97,-8.2 -35,-13.69 -17.28,-6.61 -38.47,-14.59 -62.25,-23.42 -0.84,1.38 -1.4,2.12 -1.66,2.12 -0.02,0 -0.03,0 -0.05,-0.01 -0.07,-0.03 -0.11,-0.15 -0.1,-0.35 0,-0.41 0.16,-1.17 0.46,-2.26 -16.7,-6.2 -34.66,-12.82 -53.4,-19.67 l -1.91,-0.7 m 3.16,4.93 v 0 m 0,0 v 0" /><path
         id="path148"
         style="fill:#f03d5f;fill-opacity:1;fill-rule:nonzero;stroke:none"
         d="m 2073.85,1881.63 c 0.67,-1.37 -29.85,-17.63 -68.15,-36.33 -38.32,-18.7 -69.91,-32.76 -70.57,-31.39 -0.67,1.36 29.85,17.62 68.16,36.33 38.3,18.69 69.89,32.75 70.56,31.39" /><path
         id="path150"
         style="fill:#da314b;fill-opacity:1;fill-rule:nonzero;stroke:none"
         d="m 1935.4,1813.81 c -0.15,0 -0.24,0.03 -0.27,0.1 -0.01,0.01 -0.01,0.02 -0.01,0.04 -0.06,1.64 30.23,17.76 68.17,36.29 36.58,17.85 67.04,31.48 70.28,31.48 0.16,0 0.25,-0.03 0.28,-0.09 0.01,-0.02 0.01,-0.03 0.01,-0.05 -0.01,-0.26 -0.7,-0.84 -2,-1.71 v 0 c -7.34,-4.89 -34.01,-18.87 -66.16,-34.57 -36.58,-17.86 -67.03,-31.48 -70.3,-31.49 v 0" /><path
         id="path152"
         style="fill:#f03d5f;fill-opacity:1;fill-rule:nonzero;stroke:none"
         d="m 2221.49,1719.84 c -1.38,-0.61 -15.76,29.34 -32.09,66.87 -16.33,37.56 -28.44,68.47 -27.06,69.08 1.4,0.6 15.77,-29.34 32.1,-66.89 16.33,-37.53 28.45,-68.46 27.05,-69.06" /><path
         id="path154"
         style="fill:#da314b;fill-opacity:1;fill-rule:nonzero;stroke:none"
         d="m 2221.45,1719.83 c -1.63,0 -15.88,29.72 -32.05,66.88 -13.67,31.44 -24.38,58.22 -26.7,66.47 -0.3,1.09 -0.46,1.85 -0.46,2.26 -0.01,0.2 0.03,0.32 0.1,0.35 0.02,0.01 0.03,0.01 0.05,0.01 1.63,0 15.88,-29.72 32.05,-66.9 15.47,-35.55 27.16,-65.18 27.16,-68.72 0,-0.19 -0.03,-0.31 -0.11,-0.34 -0.01,-0.01 -0.03,-0.01 -0.04,-0.01" /><path
         id="path156"
         style="fill:#17282f;fill-opacity:1;fill-rule:nonzero;stroke:none"
         d="m 2008.09,1945.88 c -19.56,-14.37 -47.05,-10.16 -61.42,9.4 -14.36,19.55 -10.16,47.05 9.4,61.41 19.55,14.37 47.05,10.16 61.41,-9.39 14.37,-19.56 10.17,-47.05 -9.39,-61.42" /><path
         id="path158"
         style="fill:#ffffff;fill-opacity:1;fill-rule:nonzero;stroke:none"
         d="m 2009.79,1989.32 c 0.4,-0.72 -12.8,-8.9 -29.49,-18.27 -2.43,-1.34 -4.78,-2.65 -7.06,-3.91 l -1.26,-0.7 -0.7,1.24 c -7.5,13.3 -12.66,23.39 -12.05,23.74 0.6,0.36 6.78,-9.15 14.56,-22.3 l -1.96,0.54 c 2.26,1.29 4.6,2.61 7.01,3.99 16.69,9.37 30.55,16.38 30.95,15.67" /><path
         id="path160"
         style="fill:#f03d5f;fill-opacity:1;fill-rule:nonzero;stroke:none"
         d="m 2063.09,2040.71 -147.33,48.41 30.11,91.66 147.33,-48.4 -30.11,-91.67" /><path
         id="path162"
         style="fill:#da314b;fill-opacity:1;fill-rule:nonzero;stroke:none"
         d="m 2063.09,2040.71 -147.19,48.36 c 1.72,0 17.67,7.14 36.83,16.49 16.84,8.22 30.82,15.55 34.66,18.11 4.93,-6.55 10.13,-13.46 15.52,-20.57 0.84,-1.11 1.68,-2.21 2.45,-3.23 l 0.65,-0.85 1,0.36 c 9.82,3.6 19.22,7.06 27.97,10.31 1.22,-4.32 6.82,-18.36 13.99,-34.82 6.24,-14.33 11.93,-26.55 14.83,-32 l -0.71,-2.16 m 1.33,4.04 c -2.26,6.29 -7.03,17.99 -12.81,31.27 -7.14,16.41 -13.56,30.05 -15.92,33.93 12.46,4.63 23.56,8.81 32.61,12.28 7.35,2.87 13.5,5.27 18.33,7.16 4.05,1.65 6.35,2.67 6.56,2.94 l -28.77,-87.58 m -148.62,44.5 30.06,91.49 c 0,-0.33 1.47,-2.55 4.13,-6.34 3.19,-4.41 7.25,-10.02 12.11,-16.74 6.75,-9.19 15.26,-20.62 24.83,-33.37 -4.54,-1.54 -18.79,-8 -35.47,-16.14 -19.21,-9.38 -34.68,-17.59 -35.66,-18.9 m 91.22,13.2 c -0.59,0.77 -1.2,1.58 -1.82,2.39 -16.06,21.21 -30.74,40.31 -41.48,54.06 -5.15,6.49 -9.45,11.92 -12.83,16.18 -2.76,3.38 -4.47,5.36 -4.92,5.66 l 147.15,-48.34 c -0.01,0 -0.01,0 -0.01,0 -0.5,0 -2.89,-0.69 -6.85,-1.98 -4.92,-1.67 -11.17,-3.79 -18.64,-6.32 -15.52,-5.39 -36.86,-13.01 -60.6,-21.65" /><path
         id="path164"
         style="fill:#f03d5f;fill-opacity:1;fill-rule:nonzero;stroke:none"
         d="m 2093.2,2132.38 c 0.07,-0.19 -2.26,-1.24 -6.57,-2.99 -4.83,-1.89 -10.98,-4.29 -18.33,-7.16 -15.56,-5.96 -37.17,-14.02 -61.29,-22.85 l -1,-0.36 -0.65,0.85 c -0.77,1.02 -1.61,2.12 -2.45,3.23 -16.07,21.22 -30.49,40.51 -40.81,54.56 -4.86,6.72 -8.92,12.33 -12.11,16.74 -2.8,3.99 -4.28,6.25 -4.12,6.38 0.15,0.12 1.93,-1.92 5.02,-5.7 3.38,-4.26 7.68,-9.69 12.83,-16.18 10.74,-13.75 25.42,-32.85 41.48,-54.06 0.84,-1.11 1.68,-2.21 2.46,-3.23 l -1.65,0.47 c 24.15,8.8 45.87,16.55 61.61,22.02 7.47,2.53 13.72,4.65 18.64,6.32 4.41,1.43 6.88,2.14 6.94,1.96" /><path
         id="path166"
         style="fill:#f03d5f;fill-opacity:1;fill-rule:nonzero;stroke:none"
         d="m 2006.01,2099.02 -0.65,0.85 c -0.77,1.02 -1.61,2.12 -2.45,3.23 -5.39,7.11 -10.59,14.02 -15.52,20.57 0.68,0.46 1.04,0.76 1.05,0.9 0,0.01 0,0.02 -0.01,0.02 -0.01,0.04 -0.06,0.05 -0.14,0.05 -0.22,0 -0.68,-0.12 -1.36,-0.35 -9.57,12.75 -18.08,24.18 -24.83,33.37 -4.86,6.72 -8.92,12.33 -12.11,16.74 -2.67,3.8 -4.14,6.04 -4.13,6.34 0,0.02 0,0.03 0.01,0.04 0,0 0.01,0 0.02,0 0.24,0 2,-2.03 5,-5.7 3.38,-4.26 7.68,-9.69 12.83,-16.18 10.74,-13.75 25.42,-32.85 41.48,-54.06 0.62,-0.81 1.23,-1.62 1.82,-2.39 23.74,8.64 45.08,16.26 60.6,21.65 7.47,2.53 13.72,4.65 18.64,6.32 3.96,1.29 6.35,1.98 6.85,1.98 0.05,0 0.09,0 0.09,-0.02 0,-0.01 0,-0.01 0,-0.01 0,-0.21 -2.33,-1.26 -6.57,-2.98 -4.83,-1.89 -10.98,-4.29 -18.33,-7.16 -9.05,-3.47 -20.15,-7.65 -32.61,-12.28 -0.44,0.73 -0.74,1.11 -0.87,1.11 -0.01,0 -0.02,0 -0.03,0 -0.03,-0.02 -0.05,-0.08 -0.05,-0.18 0,-0.22 0.08,-0.62 0.24,-1.19 -8.75,-3.25 -18.15,-6.71 -27.97,-10.31 l -1,-0.36 m 1.65,2.59 v 0 m 0,0 v 0" /><path
         id="path168"
         style="fill:#f03d5f;fill-opacity:1;fill-rule:nonzero;stroke:none"
         d="m 1988.43,2124.59 c 0.35,-0.71 -15.64,-9.23 -35.7,-19.03 -20.07,-9.8 -36.62,-17.16 -36.97,-16.44 -0.35,0.71 15.63,9.23 35.7,19.03 20.07,9.79 36.63,17.16 36.97,16.44" /><path
         id="path170"
         style="fill:#f03d5f;fill-opacity:1;fill-rule:nonzero;stroke:none"
         d="m 1915.9,2089.07 c -0.08,0 -0.13,0.01 -0.14,0.05 -0.01,0 -0.01,0.01 -0.01,0.02 -0.03,0.85 15.84,9.3 35.71,19.01 19.17,9.35 35.13,16.49 36.83,16.49 0.08,0 0.13,-0.01 0.14,-0.05 0.01,0 0.01,-0.01 0.01,-0.02 -0.01,-0.14 -0.37,-0.44 -1.05,-0.9 v 0 c -3.84,-2.56 -17.82,-9.89 -34.66,-18.11 -19.16,-9.35 -35.11,-16.49 -36.83,-16.49 v 0" /><path
         id="path172"
         style="fill:#f03d5f;fill-opacity:1;fill-rule:nonzero;stroke:none"
         d="m 2065.78,2039.83 c -0.72,-0.31 -8.25,15.37 -16.81,35.04 -8.56,19.67 -14.9,35.87 -14.18,36.19 0.74,0.32 8.27,-15.37 16.82,-35.04 8.55,-19.67 14.9,-35.87 14.17,-36.19" /><path
         id="path174"
         style="fill:#f03d5f;fill-opacity:1;fill-rule:nonzero;stroke:none"
         d="m 2065.76,2039.83 c -0.85,0 -8.32,15.57 -16.79,35.04 -7.17,16.46 -12.77,30.5 -13.99,34.82 -0.16,0.57 -0.24,0.97 -0.24,1.19 0,0.1 0.02,0.16 0.05,0.18 0.01,0 0.02,0 0.03,0 0.86,0 8.32,-15.57 16.79,-35.04 8.1,-18.63 14.23,-34.15 14.23,-36.01 0,-0.1 -0.02,-0.16 -0.06,-0.18 -0.01,0 -0.01,0 -0.02,0" /><path
         id="path176"
         style="fill:#17282f;fill-opacity:1;fill-rule:nonzero;stroke:none"
         d="M 909.793,3280.09 C 881.43,3168.28 767.797,3100.64 655.992,3129.01 c -111.804,28.37 -179.441,142 -151.074,253.8 28.367,111.81 142,179.44 253.801,151.08 111.808,-28.37 179.441,-142 151.074,-253.8" /><path
         id="path178"
         style="fill:#ffffff;fill-opacity:1;fill-rule:nonzero;stroke:none"
         d="m 784.805,3444.64 c 3.64,-1.42 -20.121,-71.33 -53.067,-156.14 -4.84,-12.28 -9.527,-24.15 -14.062,-35.67 l -2.52,-6.38 -6.308,2.43 c -67.731,26.13 -117.16,47.61 -115.993,50.74 1.168,3.12 52.559,-13.12 120.817,-37.86 l -8.82,-3.95 c 4.425,11.57 8.992,23.49 13.703,35.81 32.945,84.81 62.613,152.43 66.25,151.02" /><path
         id="path180"
         style="fill:#f03d5f;fill-opacity:1;fill-rule:nonzero;stroke:none"
         d="m 3476.58,324.93 c 36.53,18.851 79.55,21.3 120.11,14.59 21.79,-3.598 44.5,-10.122 59.33,-26.481 14.83,-16.367 17.64,-45.18 0.61,-59.238 -10.13,-8.371 -24.27,-9.641 -37.4,-9.492 -31.76,0.371 -66.98,5.961 -92.36,-13.137 -14.47,-10.902 -24.1,-29.024 -41.4,-34.383 -16.93,-5.25 -36.03,4.742 -45.01,20.02 -8.98,15.281 -9.27,34.382 -5.09,51.601 0,0 4.4,37.531 41.21,56.52" /><path
         id="path182"
         style="fill:#f2577a;fill-opacity:1;fill-rule:nonzero;stroke:none"
         d="m 3476.03,195.379 c -14.14,0 -28.23,8.953 -35.57,21.43 -5.44,9.25 -7.69,19.902 -7.69,30.691 0,7.031 0.95,14.109 2.6,20.91 0,0 4.4,37.531 41.21,56.52 24.68,12.73 52.31,17.98 80.15,17.98 13.37,0 26.79,-1.211 39.96,-3.39 21.79,-3.598 44.5,-10.122 59.33,-26.481 7.82,-8.641 12.3,-20.719 12.29,-32.289 -0.01,-10.359 -3.63,-20.301 -11.68,-26.949 -9.63,-7.961 -22.9,-9.5 -35.48,-9.5 -0.64,0 -1.28,0 -1.92,0.008 -12.12,0.14 -24.74,1.043 -37.12,1.043 -20.08,0 -39.54,-2.372 -55.24,-14.18 -14.47,-10.902 -24.1,-29.024 -41.4,-34.383 -3.1,-0.957 -6.27,-1.41 -9.44,-1.41" /><path
         id="path184"
         style="fill:#f03d5f;fill-opacity:1;fill-rule:nonzero;stroke:none"
         d="m 3392.88,486.5 c 22.33,-31.898 65.75,-21.34 85.89,-1.859 20.13,19.468 28.64,47.691 36.39,74.609 17.69,61.5 35.53,126.02 22.38,188.641 -3.94,18.73 -10.94,37.398 -24.09,51.289 -13.17,13.89 -33.4,22.16 -51.9,17.269 -21.88,-5.789 -35.5,-27.23 -45.32,-47.621 -28.91,-59.957 -44.22,-126.418 -44.44,-192.976 -0.11,-31.09 3.55,-63.68 21.09,-89.352" /><path
         id="path186"
         style="fill:#f03d5f;fill-opacity:1;fill-rule:nonzero;stroke:none"
         d="m 3331.53,440.719 c 24.26,28.793 28.86,70.773 18.07,106.84 -10.79,36.062 -35.18,66.742 -63.28,91.781 -32.94,29.371 -71.67,52.219 -113.31,66.859 -16.38,5.762 -33.67,10.313 -50.96,8.66 -17.29,-1.648 -34.7,-10.488 -42.76,-25.879 -11.93,-22.742 -0.49,-50.32 11.87,-72.832 21.79,-39.648 46.7,-77.578 74.43,-113.328 22.3,-28.761 47.86,-57.129 81.85,-70.129 33.99,-12.992 69.31,-11.461 87.34,12.11 l -3.25,-4.082" /><path
         id="path188"
         style="fill:#f03654;fill-opacity:1;fill-rule:nonzero;stroke:none"
         d="m 3288.15,424.551 c -12.96,0 -26.95,2.879 -40.71,8.14 -33.99,13 -59.55,41.368 -81.85,70.129 -27.73,35.75 -52.64,73.68 -74.43,113.328 -8.69,15.821 -16.93,34.161 -16.9,51.563 0.01,7.34 1.49,14.519 5.03,21.269 8.06,15.391 25.47,24.231 42.76,25.879 2.44,0.231 4.88,0.34 7.32,0.34 14.84,0 29.57,-4.051 43.64,-9 41.64,-14.64 80.37,-37.488 113.31,-66.859 28.1,-25.039 52.49,-55.719 63.28,-91.781 3.62,-12.118 5.51,-24.899 5.5,-37.629 -0.02,-25.16 -7.46,-50.09 -23.57,-69.211 l 2.14,2.691 v 0 c -10.77,-13.051 -27.12,-18.859 -45.52,-18.859" /><path
         id="path190"
         style="fill:#17282f;fill-opacity:1;fill-rule:nonzero;stroke:none"
         d="m 3391.37,5.21094 c 0.42,-0.03125 1.09,5.14846 2.02,14.49996 1.02,10.5508 2.31,23.8008 3.85,39.5586 1.84,16.6524 4.27,36.461 8.9,58.0395 4.61,21.519 11.83,44.839 21.1,68.492 9.59,23.519 21.29,44.89 34.97,61.98 13.58,17.168 29.37,29.598 44.22,36.758 14.8,7.313 28.07,10.281 37.24,11.602 9.25,0.949 14.43,1.679 14.43,2.089 0,0.411 -5.18,0.481 -14.68,0.231 -9.42,-0.633 -23.24,-3.02 -38.84,-10.109 -15.65,-6.942 -32.39,-19.563 -46.64,-37.082 -14.37,-17.45 -26.5,-39.29 -36.26,-63.219 -9.42,-24.082 -16.53,-47.641 -20.94,-69.621 -4.39,-21.9495 -6.4,-41.9886 -7.71,-58.7698 -1.26,-16.8008 -1.74,-30.4102 -1.97,-39.8086 -0.21,-9.4102 -0.1,-14.62113 0.31,-14.64066" /><path
         id="path192"
         style="fill:#17282f;fill-opacity:1;fill-rule:nonzero;stroke:none"
         d="m 3394.09,35.6484 c 0.21,0.0118 0.33,2.3321 0.39,6.7305 -0.01,5.0625 -0.03,11.4219 -0.05,19.2422 -0.05,16.6875 -0.04,40.8479 0.86,70.6879 1.48,59.66 6.61,142.031 16.54,232.562 10,90.559 23.24,172.02 35.32,230.469 2.85,14.64 5.72,27.832 8.43,39.371 2.58,11.57 4.78,21.551 6.91,29.621 1.83,7.598 3.31,13.777 4.49,18.699 0.97,4.289 1.38,6.578 1.18,6.641 -0.2,0.058 -0.99,-2.121 -2.34,-6.313 -1.47,-4.847 -3.31,-10.937 -5.59,-18.429 -2.47,-8 -5.01,-17.91 -7.91,-29.442 -3.01,-11.488 -6.19,-24.648 -9.31,-39.269 -13.18,-58.367 -27.11,-139.938 -37.13,-230.688 -9.95,-90.722 -14.43,-173.32 -14.83,-233.14 -0.35,-29.911 0.29,-54.1215 1.05,-70.8324 0.48,-7.8086 0.87,-14.168 1.18,-19.2266 0.33,-4.3906 0.61,-6.6914 0.81,-6.6836" /><path
         id="path194"
         style="fill:#17282f;fill-opacity:1;fill-rule:nonzero;stroke:none"
         d="m 3394.49,194.969 c 0.42,0.019 0.34,7.16 -0.14,20.101 -0.74,12.91 -2.51,31.578 -6.15,54.45 -3.85,22.8 -9.25,49.89 -17.71,79.32 -8.05,29.531 -19.1,61.43 -33.17,93.859 -27.52,65.27 -64.9,118.629 -97.41,151.68 -7.63,8.769 -16.12,15.109 -22.92,21.312 -3.51,2.969 -6.62,5.93 -9.78,8.278 -3.19,2.203 -6.16,4.242 -8.9,6.133 -10.7,7.32 -16.7,11.179 -16.91,10.828 -0.97,-1.309 23.96,-15.981 55.45,-49.469 31.35,-33.422 67.69,-86.422 94.98,-151.141 13.94,-32.148 25.07,-63.742 33.35,-93 8.71,-29.14 14.49,-55.949 18.85,-78.531 4.14,-22.629 6.56,-41.117 8,-53.91 1.19,-12.82 2.05,-19.918 2.46,-19.91" /><path
         id="path196"
         style="fill:#33535f;fill-opacity:1;fill-rule:nonzero;stroke:none"
         d="m 1873.6,1513.26 h 418.64 l 165.85,463.25 h -23.26 l -164.4,-440.64 -396.83,-2.25 v -20.36" /><path
         id="path198"
         style="fill:#17282f;fill-opacity:1;fill-rule:nonzero;stroke:none"
         d="M 1688.53,1454.78 1704.06,3.91016 h 42.56 l -17.31,1461.59984 -40.78,-10.73" /><path
         id="path200"
         style="fill:#17282f;fill-opacity:1;fill-rule:nonzero;stroke:none"
         d="m 2584.76,1468.89 c -5.75,-27.7 38.38,-1468.350937 38.38,-1468.350937 h 40.2 L 2630.82,1468.89 h -46.06" /><path
         id="path202"
         style="fill:#17282f;fill-opacity:1;fill-rule:nonzero;stroke:none"
         d="M 3074.26,1513.26 H 1293.94 v -73.34 h 146.92 L 1345.28,8.58984 1387.09,6.32031 1482.8,1439.92 H 2924.44 L 2994.32,5.69922 h 41.92 L 2966.37,1439.92 h 107.89 v 73.34" /><path
         id="path204"
         style="fill:#f03d5f;fill-opacity:1;fill-rule:nonzero;stroke:none"
         d="m 2069.53,58.4297 0.42,110.0113 -206.06,2.098 -2.31,-160.92962 12.77,-0.94922 c 56.82,-3.73828 289.2,-15 327.33,-3.8711 42.52,12.42974 -132.15,53.64064 -132.15,53.64064" /><path
         id="path206"
         style="fill:#f3f2f1;fill-opacity:1;fill-rule:nonzero;stroke:none"
         d="m 1936.3,10.4609 c -2.76,17.25 -12.16,33.3399 -25.84,44.1993 -13.68,10.8711 -30.59,16.6914 -48.01,15.4687 l -0.63,-57.5898 74.48,-2.0782" /><path
         id="path208"
         style="fill:#f3f2f1;fill-opacity:1;fill-rule:nonzero;stroke:none"
         d="m 2154.84,35.25 c 0,0 61.18,-18.3281 53.43,-28.35937 -7.76,-10.03126 -243.02,-7.492193 -346.69,2.71875 l 0.38,4.60152 274.39,-5.31246 c 0,0 6.49,25.97266 18.49,26.35156" /><path
         id="path210"
         style="fill:#17282f;fill-opacity:1;fill-rule:nonzero;stroke:none"
         d="m 1858.72,14.3711 c 0,-0.0898 1.22,-0.2305 3.54,-0.4297 3.05,-0.2109 6.39,-0.4531 10.17,-0.7226 10.17,-0.5469 22.67,-1.2188 37.43,-2.0196 31.61,-1.46873 75.33,-2.93748 123.63,-3.49998 48.31,-0.55078 92.05,-0.09766 123.69,0.65234 14.77,0.44922 27.28,0.83985 37.47,1.14844 3.78,0.17969 7.12,0.33984 10.17,0.48828 2.34,0.14062 3.56,0.25392 3.55,0.33982 0,0.0821 -1.22,0.1407 -3.56,0.1602 -3.05,0 -6.4,-0.0078 -10.19,-0.0195 -10.18,-0.0977 -22.7,-0.2188 -37.47,-0.3477 -31.64,-0.30079 -75.35,-0.47266 -123.63,0.0703 -48.28,0.5703 -91.97,1.75 -123.59,2.7774 -14.77,0.4804 -27.28,0.8906 -37.46,1.2226 -3.78,0.0977 -7.13,0.1797 -10.19,0.2578 -2.33,0.0313 -3.56,0 -3.56,-0.0781" /><path
         id="path212"
         style="fill:#17282f;fill-opacity:1;fill-rule:nonzero;stroke:none"
         d="m 2136.25,5.69922 c 0.76,-0.09766 1.44,8.83208 7.19,17.80078 5.59,9.0703 13.35,13.5586 12.93,14.1992 -0.15,0.6328 -9.03,-3.1601 -15.04,-12.8672 -6.14,-9.6328 -5.7,-19.27341 -5.08,-19.13278" /><path
         id="path214"
         style="fill:#17282f;fill-opacity:1;fill-rule:nonzero;stroke:none"
         d="m 2075.79,37.2109 c 0.58,-0.3789 3.53,3.1289 6.58,7.8282 3.06,4.6992 5.07,8.8203 4.48,9.1992 -0.57,0.3711 -3.52,-3.1289 -6.58,-7.8399 -3.05,-4.6992 -5.06,-8.8203 -4.48,-9.1875" /><path
         id="path216"
         style="fill:#17282f;fill-opacity:1;fill-rule:nonzero;stroke:none"
         d="m 2059.2,46.2109 c 0.46,-0.5195 3.73,1.6172 7.31,4.7696 3.59,3.1406 6.13,6.1211 5.67,6.6406 -0.45,0.5195 -3.73,-1.6211 -7.32,-4.7695 -3.58,-3.1524 -6.11,-6.1211 -5.66,-6.6407" /><path
         id="path218"
         style="fill:#17282f;fill-opacity:1;fill-rule:nonzero;stroke:none"
         d="m 2048.87,65.7695 c -0.02,-0.6914 4.78,-1.3593 10.73,-1.4882 5.95,-0.1329 10.77,0.3203 10.79,1.0195 0.01,0.6875 -4.79,1.3476 -10.73,1.4805 -5.95,0.1289 -10.78,-0.3204 -10.79,-1.0118" /><path
         id="path220"
         style="fill:#17282f;fill-opacity:1;fill-rule:nonzero;stroke:none"
         d="m 2045.39,79.5313 c -0.23,-0.6211 4.98,-3.0391 11.95,-3.6329 6.99,-0.6171 12.54,0.8829 12.42,1.5235 -0.11,0.707 -5.57,0.3789 -12.19,0.9687 -6.63,0.5508 -11.96,1.8203 -12.18,1.1407" /><path
         id="path222"
         style="fill:#17282f;fill-opacity:1;fill-rule:nonzero;stroke:none"
         d="m 2082.97,55.1094 c -0.02,-0.2891 5.06,-0.961 13.24,-0.0703 4.08,0.4492 8.93,1.3593 14.13,2.9609 2.6,0.8906 5.3,1.5508 8.11,3.2383 1.32,0.8633 2.79,2.0703 3.32,4.082 0.57,1.9688 -0.47,4.211 -1.95,5.3086 -12.58,6.6914 -25.34,-0.2891 -30.1,-6.7773 -2.63,-3.3125 -3.84,-6.5508 -4.42,-8.793 -0.55,-2.25 -0.53,-3.5469 -0.38,-3.5664 0.47,-0.1719 0.95,5.1992 6.15,11.2266 2.57,2.9531 6.44,5.8125 11.39,7.2304 4.7,1.3321 11.36,1.6406 15.77,-1.25 2.09,-1.5781 1.24,-4.039 -1.11,-5.4101 -2.2,-1.3789 -5.02,-2.2071 -7.48,-3.0977 -5.03,-1.6719 -9.71,-2.7422 -13.67,-3.4023 -7.94,-1.3203 -13,-1.2774 -13,-1.6797" /><path
         id="path224"
         style="fill:#17282f;fill-opacity:1;fill-rule:nonzero;stroke:none"
         d="m 2086.4,54.4102 c 0.18,-0.1407 2.17,3.2187 1.62,9.1796 -0.29,2.9219 -1.32,6.3985 -3.51,9.711 -2.3,2.9609 -5.27,7.0508 -10.95,6.8711 -3.07,-0.3633 -4.61,-3.8438 -4.15,-6.0703 0.22,-2.3203 1.24,-4.3321 2.19,-5.9414 1.93,-3.3282 4.13,-6.0313 6.16,-8.0821 4.11,-4.0976 7.38,-5.6875 7.52,-5.4375 0.24,0.3203 -2.6,2.3985 -6.21,6.6289 -1.8,2.1211 -3.74,4.8008 -5.46,8.0118 -1.78,2.8203 -2.98,7.8593 0.35,8.4179 3.31,0.2891 6.66,-3.0508 8.66,-5.7109 2.05,-2.8867 3.17,-5.9883 3.65,-8.6485 0.96,-5.3984 -0.31,-8.8203 0.13,-8.9296" /><path
         id="path226"
         style="fill:#17282f;fill-opacity:1;fill-rule:nonzero;stroke:none"
         d="m 1863.53,70.6992 c 0.04,-0.4687 5.91,0.5 15.21,-0.6992 9.22,-1.1211 22.01,-5.0508 33.07,-14.0508 11.05,-9.0195 17.48,-20.7578 20.44,-29.5508 3.05,-8.8671 3.29,-14.7968 3.76,-14.7578 0.15,0.0078 0.24,1.4883 0.04,4.1602 -0.18,2.668 -0.77,6.5195 -2.12,11.1406 -2.6,9.168 -9.02,21.5469 -20.54,30.9492 -11.54,9.3789 -24.95,13.168 -34.46,13.8711 -4.79,0.3789 -8.68,0.1875 -11.33,-0.1719 -2.65,-0.3515 -4.08,-0.7382 -4.07,-0.8906" /><path
         id="path228"
         style="fill:#17282f;fill-opacity:1;fill-rule:nonzero;stroke:none"
         d="m 1885.81,156.219 c -0.68,0.011 -1.68,-18.93 -2.24,-42.309 -0.54,-23.3787 -0.43,-42.3397 0.26,-42.3592 0.69,-0.0117 1.69,18.918 2.24,42.3082 0.55,23.379 0.44,42.34 -0.26,42.36" /><path
         id="path230"
         style="fill:#17282f;fill-opacity:1;fill-rule:nonzero;stroke:none"
         d="m 1962.45,30.2695 c -0.1,-0.6406 13.31,-2.9882 30.05,-3.3086 16.74,-0.3593 30.22,1.4375 30.16,2.0899 -0.06,0.7187 -13.52,0.0508 -30.11,0.4101 -16.58,0.3086 -30.01,1.5274 -30.1,0.8086" /><path
         id="path232"
         style="fill:#17282f;fill-opacity:1;fill-rule:nonzero;stroke:none"
         d="m 1922.07,30.7695 c -0.51,-0.5 1.07,-2.8711 2.41,-5.9687 1.38,-3.0899 2.06,-5.8516 2.77,-5.8086 0.67,0 1.1,3.2461 -0.49,6.8164 -1.56,3.582 -4.25,5.4531 -4.69,4.9609" /><path
         id="path234"
         style="fill:#17282f;fill-opacity:1;fill-rule:nonzero;stroke:none"
         d="m 1907.05,49.8711 c -0.49,-0.4805 0.81,-2.6328 2.92,-4.8203 2.11,-2.1914 4.22,-3.5703 4.72,-3.0899 0.49,0.4805 -0.81,2.6407 -2.92,4.8282 -2.11,2.1797 -4.22,3.5625 -4.72,3.082" /><path
         id="path236"
         style="fill:#17282f;fill-opacity:1;fill-rule:nonzero;stroke:none"
         d="m 1885.37,58.7617 c 0.14,-0.7031 2.87,-0.7031 5.89,-1.8008 3.04,-1.0312 5.17,-2.7421 5.72,-2.2695 0.56,0.3672 -1.14,3.3203 -4.9,4.6289 -3.74,1.3203 -6.91,0.0781 -6.71,-0.5586" /><path
         id="path238"
         style="fill:#17282f;fill-opacity:1;fill-rule:nonzero;stroke:none"
         d="m 1869.91,63.0117 c -0.26,-0.6406 0.91,-1.7109 2.62,-2.3906 1.7,-0.6797 3.29,-0.7109 3.54,-0.0703 0.26,0.6406 -0.91,1.6992 -2.61,2.3906 -1.71,0.6797 -3.29,0.707 -3.55,0.0703" /><path
         id="path240"
         style="fill:#f03d5f;fill-opacity:1;fill-rule:nonzero;stroke:none"
         d="m 2475.21,169.52 -44.88,100.429 -188.67,-82.859 64.1,-147.6291 12.03,4.3907 C 2371.12,63.8203 2587.56,149.16 2617.72,175 c 33.65,28.82 -142.51,-5.48 -142.51,-5.48" /><path
         id="path242"
         style="fill:#f3f2f1;fill-opacity:1;fill-rule:nonzero;stroke:none"
         d="m 2373.52,70.9883 c -9.6,14.582 -24.81,25.3711 -41.74,29.6527 -16.94,4.269 -34.75,2.621 -50.12,-5.6605 l 23.11,-52.7422 68.75,28.75" /><path
         id="path244"
         style="fill:#f3f2f1;fill-opacity:1;fill-rule:nonzero;stroke:none"
         d="m 2562.51,183.488 c 0,0 63.31,8.473 60.36,-3.867 -2.95,-12.332 -218.42,-106.8007 -317.11,-140.1601 l -1.54,4.3477 252.26,108.0504 c 0,0 -4.75,26.34 6.03,31.629" /><path
         id="path246"
         style="fill:#17282f;fill-opacity:1;fill-rule:nonzero;stroke:none"
         d="m 2301.2,42.6211 c 0.04,-0.082 1.2,0.2891 3.4,1.0781 2.87,1.0508 6.01,2.211 9.57,3.5196 9.49,3.6796 21.17,8.2109 34.94,13.5625 29.43,11.6601 69.87,28.3085 114.12,47.6677 44.26,19.371 83.95,37.781 112.47,51.481 13.28,6.492 24.53,11.992 33.68,16.468 3.37,1.723 6.35,3.243 9.08,4.633 2.07,1.078 3.13,1.688 3.09,1.77 -0.04,0.07 -1.18,-0.379 -3.31,-1.321 -2.79,-1.261 -5.84,-2.64 -9.28,-4.21 -9.24,-4.27 -20.6,-9.54 -34.01,-15.739 -28.71,-13.293 -68.49,-31.429 -112.71,-50.793 -44.23,-19.3474 -84.55,-36.2497 -113.79,-48.3161 -13.66,-5.6406 -25.23,-10.4102 -34.64,-14.3008 -3.49,-1.4727 -6.57,-2.7695 -9.4,-3.9609 -2.14,-0.9297 -3.24,-1.461 -3.21,-1.5391" /><path
         id="path248"
         style="fill:#17282f;fill-opacity:1;fill-rule:nonzero;stroke:none"
         d="m 2557.72,148.91 c 0.74,0.219 -2.32,8.649 -0.77,19.18 1.36,10.57 6.58,17.851 5.93,18.262 -0.38,0.507 -6.91,-6.602 -8.41,-17.911 -1.62,-11.312 2.75,-19.921 3.25,-19.531" /><path
         id="path250"
         style="fill:#17282f;fill-opacity:1;fill-rule:nonzero;stroke:none"
         d="m 2489.65,152.75 c 0.68,-0.102 1.92,4.301 2.77,9.852 0.86,5.539 1,10.117 0.31,10.226 -0.68,0.102 -1.92,-4.308 -2.77,-9.848 -0.85,-5.55 -1,-10.128 -0.31,-10.23" /><path
         id="path252"
         style="fill:#17282f;fill-opacity:1;fill-rule:nonzero;stroke:none"
         d="m 2470.83,154.121 c 0.62,-0.281 2.73,3.02 4.71,7.359 1.96,4.352 3.05,8.102 2.43,8.391 -0.64,0.277 -2.74,-3.012 -4.71,-7.359 -1.97,-4.34 -3.06,-8.102 -2.43,-8.391" /><path
         id="path254"
         style="fill:#17282f;fill-opacity:1;fill-rule:nonzero;stroke:none"
         d="m 2453.36,167.699 c 0.26,-0.64 4.92,0.742 10.39,3.071 5.48,2.32 9.7,4.718 9.42,5.359 -0.27,0.633 -4.92,-0.738 -10.4,-3.059 -5.47,-2.332 -9.68,-4.73 -9.41,-5.371" /><path
         id="path256"
         style="fill:#17282f;fill-opacity:1;fill-rule:nonzero;stroke:none"
         d="m 2444.53,178.809 c 0.04,-0.661 5.79,-0.719 12.39,1.621 6.61,2.312 11.07,5.961 10.69,6.492 -0.39,0.598 -5.23,-1.953 -11.52,-4.133 -6.27,-2.23 -11.63,-3.258 -11.56,-3.98" /><path
         id="path258"
         style="fill:#17282f;fill-opacity:1;fill-rule:nonzero;stroke:none"
         d="m 2488.84,172.02 c 0.09,-0.27 5,1.21 12.09,5.39 3.53,2.09 7.57,4.91 11.66,8.512 2,1.879 4.19,3.59 6.05,6.277 0.85,1.332 1.69,3.043 1.36,5.09 -0.3,2.031 -2.17,3.652 -3.97,4.039 -14.22,0.922 -22.97,-10.687 -24.64,-18.566 -1.04,-4.09 -0.81,-7.551 -0.41,-9.821 0.42,-2.293 0.97,-3.461 1.12,-3.41 0.5,0.02 -1.28,5.129 0.99,12.758 1.12,3.75 3.46,7.953 7.4,11.27 3.73,3.152 9.68,6.171 14.89,5.363 2.55,-0.582 2.79,-3.184 1.21,-5.391 -1.43,-2.16 -3.67,-4.082 -5.55,-5.902 -3.89,-3.598 -7.71,-6.488 -11.05,-8.731 -6.7,-4.468 -11.32,-6.507 -11.15,-6.878" /><path
         id="path260"
         style="fill:#17282f;fill-opacity:1;fill-rule:nonzero;stroke:none"
         d="m 2492.24,172.789 c 0.23,-0.047 0.66,3.82 -2.3,9.031 -1.46,2.551 -3.84,5.301 -7.19,7.41 -3.32,1.758 -7.7,4.258 -12.81,1.758 -2.65,-1.59 -2.62,-5.398 -1.28,-7.238 1.15,-2.031 2.91,-3.43 4.44,-4.512 3.13,-2.238 6.25,-3.797 8.94,-4.828 5.43,-2.051 9.06,-2.16 9.09,-1.871 0.09,0.391 -3.37,1.121 -8.4,3.492 -2.5,1.199 -5.37,2.84 -8.26,5.051 -2.79,1.84 -5.95,5.938 -3.15,7.816 2.91,1.633 7.33,-0.027 10.25,-1.636 3.06,-1.793 5.35,-4.153 6.89,-6.383 3.08,-4.527 3.34,-8.18 3.78,-8.09" /><path
         id="path262"
         style="fill:#17282f;fill-opacity:1;fill-rule:nonzero;stroke:none"
         d="m 2282.41,95.9492 c 0.24,-0.4101 5.19,2.8789 14.15,5.6208 8.86,2.762 22.14,4.45 35.92,0.801 13.79,-3.6718 24.47,-11.7304 30.79,-18.5312 6.43,-6.8203 9.09,-12.1406 9.49,-11.8984 0.14,0.0703 -0.39,1.457 -1.67,3.8086 -1.26,2.3516 -3.39,5.6211 -6.51,9.2695 -6.14,7.2891 -17.08,15.9295 -31.46,19.7615 -14.37,3.809 -28.15,1.739 -37.1,-1.531 -4.54,-1.629 -8,-3.3984 -10.27,-4.8203 -2.27,-1.4102 -3.42,-2.3477 -3.34,-2.4805" /><path
         id="path264"
         style="fill:#17282f;fill-opacity:1;fill-rule:nonzero;stroke:none"
         d="m 2267.54,183.059 c -0.64,-0.27 6.24,-17.95 15.36,-39.477 9.12,-21.543 17.02,-38.781 17.67,-38.512 0.62,0.27 -6.25,17.95 -15.38,39.481 -9.11,21.539 -17.02,38.781 -17.65,38.508" /><path
         id="path266"
         style="fill:#17282f;fill-opacity:1;fill-rule:nonzero;stroke:none"
         d="m 2389.2,99.7891 c 0.18,-0.6172 13.37,2.7499 28.75,9.3519 15.41,6.558 26.96,13.75 26.63,14.308 -0.35,0.641 -12.34,-5.519 -27.61,-12.019 -15.24,-6.532 -27.99,-10.942 -27.77,-11.6409" /><path
         id="path268"
         style="fill:#17282f;fill-opacity:1;fill-rule:nonzero;stroke:none"
         d="m 2352.2,83.6289 c -0.27,-0.6601 2.15,-2.168 4.65,-4.4375 2.52,-2.25 4.28,-4.4805 4.91,-4.1601 0.61,0.2773 -0.33,3.4101 -3.24,6.0078 -2.91,2.6211 -6.12,3.2304 -6.32,2.5898" /><path
         id="path270"
         style="fill:#17282f;fill-opacity:1;fill-rule:nonzero;stroke:none"
         d="m 2330.64,94.8711 c -0.25,-0.6406 1.83,-2.0703 4.65,-3.1992 2.82,-1.1211 5.31,-1.5117 5.57,-0.8711 0.25,0.6406 -1.83,2.0703 -4.65,3.1914 -2.81,1.1289 -5.31,1.5195 -5.57,0.8789" /><path
         id="path272"
         style="fill:#17282f;fill-opacity:1;fill-rule:nonzero;stroke:none"
         d="m 2307.23,94.0508 c 0.41,-0.582 2.91,0.539 6.1,0.7812 3.2,0.3086 5.85,-0.3632 6.16,0.2774 0.35,0.5703 -2.41,2.5625 -6.38,2.1992 -3.95,-0.3203 -6.33,-2.7578 -5.88,-3.2578" /><path
         id="path274"
         style="fill:#17282f;fill-opacity:1;fill-rule:nonzero;stroke:none"
         d="m 2291.39,91.5586 c 0.03,-0.6875 1.54,-1.1797 3.37,-1.0977 1.83,0.0782 3.29,0.6993 3.26,1.3907 -0.03,0.6875 -1.54,1.1797 -3.37,1.0976 -1.83,-0.0781 -3.29,-0.6992 -3.26,-1.3906" /><path
         id="path276"
         style="fill:#f03d5f;fill-opacity:1;fill-rule:nonzero;stroke:none"
         d="M 605.113,904.559 456.328,2016.5 c -3.98,29.73 20.574,55.51 50.469,52.99 l 358.617,-30.29 c 33.043,-2.79 59.238,-29.03 61.984,-62.08 L 1014.72,924.352 605.113,904.559" /><path
         id="path278"
         style="fill:#da314b;fill-opacity:1;fill-rule:nonzero;stroke:none"
         d="M 605.113,904.559 456.328,2016.5 c -0.289,2.16 -0.43,4.3 -0.426,6.41 0.043,25.6 20.961,46.75 46.852,46.75 1.336,0 2.68,-0.06 4.043,-0.17 l 358.617,-30.29 c 33.043,-2.79 59.238,-29.03 61.984,-62.08 l 50.903,-613.67 -183.332,-39.38 c 0.179,3.92 0.187,5.75 0.148,5.75 -0.496,0 -8.082,-266.04 195.246,-310.43 l -398.093,-6.4 13.687,-108.388 -0.844,-0.043" /><path
         id="path280"
         style="fill:#17282f;fill-opacity:1;fill-rule:nonzero;stroke:none"
         d="m 951.141,2538.72 c -3,42.33 -14.114,83.63 -20.274,125.62 -6.156,41.99 -7.058,86.27 9.52,125.34 18.742,44.17 58.648,77.24 103.373,94.61 44.73,17.38 93.97,20.31 141.78,16.19 8.6,-0.74 17.41,-1.78 25.08,-5.72 7.69,-3.95 14.1,-11.45 14.37,-20.08 0.27,-8.63 -7.43,-17.37 -15.98,-16.19 18.18,-2.52 36.53,-5.08 53.72,-11.51 6.84,-2.56 13.91,-6.11 17.38,-12.54 3.95,-7.3 2.13,-16.63 -2.4,-23.58 -4.52,-6.96 -11.34,-12.04 -18.02,-16.96 8.4,2.66 17.54,-4.55 19.45,-13.14 1.9,-8.6 -1.73,-17.54 -6.86,-24.69 -5.13,-7.15 -11.75,-13.12 -17.04,-20.16 -21.62,-28.76 -17.38,-68.67 -12.14,-104.28" /><path
         id="path282"
         style="fill:#c0776a;fill-opacity:1;fill-rule:nonzero;stroke:none"
         d="m 955.094,2290.27 202.086,3.65 c 2.7,23.4 6.63,114.34 6.63,114.34 0,0 84.47,7.85 90.66,91.44 6.2,83.59 3.55,276.58 3.55,276.58 -94.27,47.59 -206.92,40.44 -294.407,-18.7 l -12.984,-8.78 4.465,-458.53" /><path
         id="path284"
         style="fill:#17282f;fill-opacity:1;fill-rule:nonzero;stroke:none"
         d="m 1229.9,2631.23 c -4.7,4.82 -4.6,12.52 0.22,17.22 4.81,4.69 12.52,4.59 17.21,-0.22 4.69,-4.82 4.59,-12.52 -0.22,-17.22 -4.82,-4.69 -12.52,-4.59 -17.21,0.22" /><path
         id="path286"
         style="fill:#17282f;fill-opacity:1;fill-rule:nonzero;stroke:none"
         d="m 1251.36,2651.54 c -1.4,-1.37 -9.23,5.46 -20.75,6.23 -11.5,0.93 -20.24,-4.68 -21.43,-3.12 -0.58,0.7 0.89,3.23 4.71,5.78 3.75,2.54 10.06,4.82 17.24,4.29 7.18,-0.53 13.08,-3.71 16.42,-6.77 3.41,-3.09 4.48,-5.81 3.81,-6.41" /><path
         id="path288"
         style="fill:#17282f;fill-opacity:1;fill-rule:nonzero;stroke:none"
         d="m 1117.99,2649.69 c 5.5,-3.87 6.82,-11.46 2.96,-16.96 -3.87,-5.5 -11.46,-6.82 -16.96,-2.96 -5.5,3.87 -6.82,11.46 -2.96,16.96 3.87,5.5 11.46,6.82 16.96,2.96" /><path
         id="path290"
         style="fill:#17282f;fill-opacity:1;fill-rule:nonzero;stroke:none"
         d="m 1125.59,2649.11 c -1.41,-1.36 -9.23,5.46 -20.75,6.23 -11.51,0.94 -20.25,-4.67 -21.43,-3.11 -0.58,0.7 0.89,3.23 4.7,5.78 3.76,2.53 10.07,4.82 17.25,4.28 7.17,-0.53 13.08,-3.71 16.41,-6.77 3.41,-3.08 4.49,-5.8 3.82,-6.41" /><path
         id="path292"
         style="fill:#17282f;fill-opacity:1;fill-rule:nonzero;stroke:none"
         d="m 1165.92,2551.21 c -0.02,0.91 7.19,1.91 18.87,2.8 3.04,0.14 5.44,0.68 5.76,2.28 0.66,1.79 -0.31,5.09 -1.62,8.77 -2.5,7.8 -5.02,15.7 -7.67,23.97 -10.53,34.13 -17.66,62.23 -15.92,62.76 1.73,0.54 11.67,-26.69 22.19,-60.82 2.48,-8.33 4.85,-16.27 7.18,-24.13 0.89,-3.55 2.74,-7.75 0.88,-12.63 -0.99,-2.43 -3.48,-4.09 -5.5,-4.49 -2.03,-0.48 -3.73,-0.38 -5.18,-0.35 -11.71,0.3 -18.97,0.94 -18.99,1.84" /><path
         id="path294"
         style="fill:#ffffff;fill-opacity:1;fill-rule:nonzero;stroke:none"
         d="m 1127.7,2540.79 c -11.56,7.89 31.97,-19.6 55.49,-19.9 0,0 -14.78,-20.67 -38.35,-10.35 -24.47,10.7 -17.14,30.25 -17.14,30.25" /><path
         id="path296"
         style="fill:#ac584f;fill-opacity:1;fill-rule:nonzero;stroke:none"
         d="m 1164.02,2409.46 c 0,0 -53.14,-1.04 -107.15,37.72 0,0 22.06,-61.8 106.01,-59.41 l 1.14,21.69" /><path
         id="path298"
         style="fill:#17282f;fill-opacity:1;fill-rule:nonzero;stroke:none"
         d="m 947.934,2685.4 4.371,-108.5 c 0,0 38.043,11.57 40.601,12.67 2.563,1.11 -0.718,132.88 -0.718,132.88 0,0 -5.333,49.7 27.092,61.49 34.06,12.39 48.92,-12.35 97.2,-20.48 159.32,-26.84 148.33,22.04 148.33,22.04 0,0 20.1,21.47 -20.81,45.1 -42.26,24.42 -143.25,31.59 -199.28,12.3 -110.279,-37.96 -116.599,-75.6 -116.599,-108.91 0,-46.58 19.813,-48.59 19.813,-48.59" /><path
         id="path300"
         style="fill:#c0776a;fill-opacity:1;fill-rule:nonzero;stroke:none"
         d="m 966.688,2674.58 c -1.817,0.69 -62.063,8.52 -56.375,-62.62 5.691,-71.15 75.664,-41.87 75.625,-39.82 -0.04,2.04 -19.25,102.44 -19.25,102.44" /><path
         id="path302"
         style="fill:#ac584f;fill-opacity:1;fill-rule:nonzero;stroke:none"
         d="m 962.145,2595.36 c -0.332,0.2 -1.172,-0.97 -3.192,-2.09 -1.965,-1.1 -5.43,-2.03 -9.246,-0.94 -7.738,2.16 -15.019,13.59 -16.391,26.38 -0.699,6.46 0.161,12.74 2.051,18.03 1.758,5.38 4.828,9.28 8.559,10.26 3.695,1.17 6.558,-0.88 7.586,-2.82 1.113,-1.91 0.777,-3.37 1.164,-3.45 0.211,-0.17 1.429,1.3 0.625,4.2 -0.41,1.39 -1.379,3 -3.16,4.23 -1.817,1.25 -4.383,1.76 -6.996,1.27 -5.461,-0.82 -9.993,-6.27 -12.067,-12.07 -2.375,-5.86 -3.496,-12.92 -2.711,-20.17 1.602,-14.3 10.016,-27.13 20.539,-29.29 5.106,-0.9 9.16,0.94 11.18,2.8 2.066,1.93 2.316,3.55 2.059,3.66" /><path
         id="path304"
         style="fill:#c0776a;fill-opacity:1;fill-rule:nonzero;stroke:none"
         d="m 1760.9,1715.47 c 0,0 99.56,4.76 120.31,-4.28 34.67,-15.12 137.61,-176.58 132.42,-176.61 -15.53,-0.08 -47.63,0.14 -47.63,0.14 l -160.25,60.66 -37.66,-9.53 -7.19,129.62" /><path
         id="path306"
         style="fill:#17282f;fill-opacity:1;fill-rule:nonzero;stroke:none"
         d="m 2190.83,1252.04 c 0,0 299.5,-1036.458 299.93,-1031.142 0.44,5.321 -268.18,-129.2886 -268.18,-129.2886 l -181.41,749.4216 149.66,411.009" /><path
         id="path308"
         style="fill:#33535f;fill-opacity:1;fill-rule:nonzero;stroke:none"
         d="m 2216.65,85.2695 283.46,138.3205 -12.31,37.851 -285.65,-138.48 14.5,-37.6915" /><path
         id="path310"
         style="fill:#33535f;fill-opacity:1;fill-rule:nonzero;stroke:none"
         d="m 2179.45,466.531 c -1.45,-0.441 -4.63,6.008 -7.09,14.391 -2.47,8.387 -3.28,15.519 -1.82,15.949 1.45,0.418 4.64,-6.031 7.09,-14.402 2.46,-8.367 3.28,-15.508 1.82,-15.938" /><path
         id="path312"
         style="fill:#33535f;fill-opacity:1;fill-rule:nonzero;stroke:none"
         d="m 2197.92,406.031 c -1.45,-0.461 -4.72,5.949 -7.3,14.289 -2.57,8.36 -3.49,15.481 -2.05,15.918 1.46,0.453 4.73,-5.949 7.31,-14.289 2.58,-8.34 3.48,-15.469 2.04,-15.918" /><path
         id="path314"
         style="fill:#33535f;fill-opacity:1;fill-rule:nonzero;stroke:none"
         d="m 2217.25,345.781 c -1.45,-0.472 -4.8,5.879 -7.5,14.199 -2.7,8.309 -3.73,15.43 -2.27,15.891 1.44,0.469 4.79,-5.891 7.49,-14.199 2.7,-8.301 3.72,-15.422 2.28,-15.891" /><path
         id="path316"
         style="fill:#33535f;fill-opacity:1;fill-rule:nonzero;stroke:none"
         d="m 2237.42,285.801 c -1.43,-0.492 -4.88,5.808 -7.69,14.09 -2.83,8.281 -3.94,15.379 -2.5,15.871 1.43,0.476 4.88,-5.832 7.7,-14.102 2.81,-8.262 3.93,-15.359 2.49,-15.859" /><path
         id="path318"
         style="fill:#33535f;fill-opacity:1;fill-rule:nonzero;stroke:none"
         d="m 2258.45,226.102 c -1.43,-0.52 -4.96,5.75 -7.9,13.988 -2.93,8.23 -4.15,15.32 -2.72,15.832 1.43,0.5 4.96,-5.762 7.9,-13.992 2.93,-8.231 4.14,-15.321 2.72,-15.828" /><path
         id="path320"
         style="fill:#33535f;fill-opacity:1;fill-rule:nonzero;stroke:none"
         d="m 2280.31,166.691 c -1.41,-0.531 -5.04,5.68 -8.09,13.879 -3.05,8.192 -4.37,15.262 -2.94,15.789 1.42,0.52 5.05,-5.687 8.09,-13.879 3.05,-8.179 4.37,-15.25 2.94,-15.789" /><path
         id="path322"
         style="fill:#33535f;fill-opacity:1;fill-rule:nonzero;stroke:none"
         d="m 2264.35,141.77 c -0.35,-0.161 -2.46,3.71 -5.99,10.851 -3.51,7.149 -8.32,17.621 -13.81,30.758 -11.12,26.211 -24.83,63.082 -38.6,104.242 -13.8,41.16 -25.35,78.688 -33.62,105.891 -3.76,12.758 -6.93,23.547 -9.51,32.289 -2.15,7.66 -3.16,11.949 -2.8,12.058 0.36,0.121 2.06,-3.949 4.83,-11.398 2.79,-7.461 6.59,-18.313 11.18,-31.762 9.39,-28.14 21.61,-64.789 35.12,-105.34 13.75,-41.078 26.84,-78.039 37,-104.539 4.81,-12.379 8.88,-22.859 12.17,-31.34 2.92,-7.39 4.38,-11.558 4.03,-11.71" /><path
         id="path324"
         style="fill:#17282f;fill-opacity:1;fill-rule:nonzero;stroke:none"
         d="m 794.969,1324.07 c 2.519,54.94 -28.703,-301.26 245.081,-310.73 274.08,-9.46 833.22,-5.27 833.22,-5.27 l -65.51,-903.281 h 328.46 l 68.63,960.561 c 0,0 34.97,278.39 -155.49,313.93 -119.22,22.25 -860.51,29.41 -860.51,29.41 l -393.881,-84.62" /><path
         id="path326"
         style="fill:#33535f;fill-opacity:1;fill-rule:nonzero;stroke:none"
         d="m 1800.26,102.852 h 345.89 v 53.789 l -345.89,-0.422 v -53.367" /><path
         id="path328"
         style="fill:#33535f;fill-opacity:1;fill-rule:nonzero;stroke:none"
         d="m 1259.11,1056.05 c 0,0.09 1.19,0.22 3.52,0.37 2.58,0.15 6.01,0.35 10.36,0.6 9.42,0.41 22.82,1.01 40.01,1.77 35.13,1.34 85.64,3.26 148.45,5.66 126.33,4.33 302.05,10.37 500.91,17.2 l 3.18,0.11 -0.39,-3.17 c -4.52,-36.84 -8.3,-75.68 -11.5,-115.238 -4.35,-56.43 -8.6,-111.532 -12.7,-164.743 -4.31,-53.238 -10.09,-104.418 -15.07,-153.187 -10.23,-97.481 -19.45,-185.281 -27.2,-259.141 -7.92,-73.519 -14.33,-133.109 -18.81,-174.652 -2.31,-20.367 -4.12,-36.301 -5.39,-47.449 -0.65,-5.211 -1.16,-9.289 -1.54,-12.328 -0.38,-2.774 -0.62,-4.192 -0.71,-4.18 -0.1,0.008 -0.04,1.437 0.15,4.238 0.25,3.051 0.58,7.149 1,12.379 1.02,11.172 2.49,27.141 4.36,47.563 4.06,41.578 9.89,101.23 17.07,174.828 7.42,73.89 16.24,161.73 26.03,259.261 4.84,48.809 10.52,99.957 14.75,153.118 4.06,53.211 8.27,108.312 12.58,164.742 3.21,39.609 7.01,78.519 11.58,115.469 l 2.79,-3.06 c -198.89,-6.1 -374.63,-11.5 -500.97,-15.38 -62.83,-1.69 -113.36,-3.05 -148.51,-4.01 -17.19,-0.35 -30.61,-0.62 -40.04,-0.82 -4.36,-0.03 -7.79,-0.06 -10.37,-0.09 -2.34,0.01 -3.54,0.06 -3.54,0.14" /><path
         id="path330"
         style="fill:#33535f;fill-opacity:1;fill-rule:nonzero;stroke:none"
         d="m 1290.76,1094.87 c 0.04,-1.52 -7.03,-2.91 -15.76,-3.12 -8.74,-0.21 -15.86,0.86 -15.89,2.37 -0.03,1.52 7.02,2.92 15.76,3.12 8.74,0.21 15.85,-0.85 15.89,-2.37" /><path
         id="path332"
         style="fill:#33535f;fill-opacity:1;fill-rule:nonzero;stroke:none"
         d="m 1354.06,1096.36 c 0.03,-1.52 -7.02,-2.92 -15.76,-3.12 -8.74,-0.21 -15.86,0.86 -15.89,2.37 -0.04,1.52 7.02,2.91 15.76,3.12 8.73,0.21 15.85,-0.86 15.89,-2.37" /><path
         id="path334"
         style="fill:#33535f;fill-opacity:1;fill-rule:nonzero;stroke:none"
         d="m 1417.35,1097.85 c 0.04,-1.52 -7.02,-2.92 -15.76,-3.12 -8.74,-0.21 -15.85,0.85 -15.89,2.37 -0.03,1.52 7.02,2.91 15.76,3.12 8.74,0.2 15.85,-0.86 15.89,-2.37" /><path
         id="path336"
         style="fill:#33535f;fill-opacity:1;fill-rule:nonzero;stroke:none"
         d="m 1480.65,1099.33 c 0.03,-1.51 -7.02,-2.91 -15.76,-3.12 -8.74,-0.2 -15.86,0.86 -15.89,2.38 -0.04,1.52 7.02,2.91 15.76,3.12 8.74,0.2 15.85,-0.86 15.89,-2.38" /><path
         id="path338"
         style="fill:#33535f;fill-opacity:1;fill-rule:nonzero;stroke:none"
         d="m 1543.94,1100.82 c 0.04,-1.51 -7.02,-2.91 -15.76,-3.12 -8.74,-0.21 -15.85,0.86 -15.89,2.38 -0.03,1.52 7.03,2.91 15.77,3.12 8.74,0.2 15.85,-0.86 15.88,-2.38" /><path
         id="path340"
         style="fill:#33535f;fill-opacity:1;fill-rule:nonzero;stroke:none"
         d="m 1607.24,1102.31 c 0.03,-1.52 -7.02,-2.92 -15.76,-3.12 -8.74,-0.21 -15.85,0.86 -15.89,2.38 -0.03,1.51 7.02,2.91 15.76,3.12 8.74,0.2 15.86,-0.86 15.89,-2.38" /><path
         id="path342"
         style="fill:#33535f;fill-opacity:1;fill-rule:nonzero;stroke:none"
         d="m 1670.54,1103.8 c 0.03,-1.52 -7.02,-2.92 -15.76,-3.12 -8.75,-0.21 -15.85,0.86 -15.89,2.38 -0.04,1.51 7.02,2.91 15.76,3.11 8.74,0.21 15.85,-0.85 15.89,-2.37" /><path
         id="path344"
         style="fill:#33535f;fill-opacity:1;fill-rule:nonzero;stroke:none"
         d="m 1733.83,1105.29 c 0.04,-1.52 -7.02,-2.92 -15.75,-3.12 -8.74,-0.21 -15.86,0.86 -15.89,2.37 -0.04,1.52 7.01,2.91 15.75,3.12 8.74,0.2 15.86,-0.86 15.89,-2.37" /><path
         id="path346"
         style="fill:#33535f;fill-opacity:1;fill-rule:nonzero;stroke:none"
         d="m 1797.13,1106.77 c 0.04,-1.51 -7.02,-2.91 -15.76,-3.11 -8.74,-0.21 -15.85,0.85 -15.89,2.37 -0.04,1.52 7.02,2.91 15.76,3.12 8.74,0.2 15.85,-0.86 15.89,-2.38" /><path
         id="path348"
         style="fill:#33535f;fill-opacity:1;fill-rule:nonzero;stroke:none"
         d="m 1860.42,1108.26 c 0.04,-1.52 -7.02,-2.91 -15.75,-3.11 -8.74,-0.21 -15.86,0.85 -15.89,2.37 -0.04,1.51 7.02,2.91 15.76,3.12 8.74,0.2 15.85,-0.86 15.88,-2.38" /><path
         id="path350"
         style="fill:#33535f;fill-opacity:1;fill-rule:nonzero;stroke:none"
         d="m 1923.72,1109.75 c 0.04,-1.52 -7.02,-2.92 -15.76,-3.12 -8.74,-0.21 -15.85,0.86 -15.89,2.37 -0.03,1.52 7.02,2.92 15.77,3.12 8.73,0.21 15.85,-0.85 15.88,-2.37" /><path
         id="path352"
         style="fill:#33535f;fill-opacity:1;fill-rule:nonzero;stroke:none"
         d="m 1987.02,1111.24 c 0.04,-1.52 -7.02,-2.92 -15.76,-3.12 -8.74,-0.21 -15.86,0.85 -15.89,2.37 -0.03,1.52 7.02,2.92 15.76,3.12 8.74,0.21 15.85,-0.86 15.89,-2.37" /><path
         id="path354"
         style="fill:#33535f;fill-opacity:1;fill-rule:nonzero;stroke:none"
         d="m 1986.91,1053.87 c -1.51,0.15 -2.04,7.32 -1.19,16.02 0.86,8.7 2.77,15.63 4.28,15.48 1.51,-0.15 2.05,-7.32 1.19,-16.02 -0.85,-8.7 -2.77,-15.63 -4.28,-15.48" /><path
         id="path356"
         style="fill:#33535f;fill-opacity:1;fill-rule:nonzero;stroke:none"
         d="m 1980.73,990.852 c -1.51,0.148 -2.04,7.328 -1.19,16.018 0.85,8.7 2.77,15.64 4.28,15.49 1.51,-0.15 2.04,-7.32 1.19,-16.02 -0.86,-8.699 -2.77,-15.629 -4.28,-15.488" /><path
         id="path358"
         style="fill:#33535f;fill-opacity:1;fill-rule:nonzero;stroke:none"
         d="m 1974.55,927.852 c -1.51,0.136 -2.05,7.308 -1.19,16.019 0.85,8.699 2.77,15.629 4.28,15.481 1.51,-0.153 2.04,-7.321 1.19,-16.02 -0.86,-8.703 -2.77,-15.641 -4.28,-15.48" /><path
         id="path360"
         style="fill:#33535f;fill-opacity:1;fill-rule:nonzero;stroke:none"
         d="m 1968.36,864.832 c -1.51,0.148 -2.04,7.316 -1.18,16.02 0.85,8.699 2.77,15.64 4.28,15.488 1.51,-0.149 2.04,-7.32 1.19,-16.02 -0.86,-8.699 -2.77,-15.629 -4.29,-15.488" /><path
         id="path362"
         style="fill:#33535f;fill-opacity:1;fill-rule:nonzero;stroke:none"
         d="m 1962.18,801.82 c -1.51,0.149 -2.04,7.321 -1.18,16.02 0.85,8.699 2.76,15.64 4.27,15.492 1.51,-0.152 2.05,-7.332 1.19,-16.031 -0.85,-8.692 -2.77,-15.629 -4.28,-15.481" /><path
         id="path364"
         style="fill:#33535f;fill-opacity:1;fill-rule:nonzero;stroke:none"
         d="m 1956,738.809 c -1.51,0.152 -2.04,7.32 -1.19,16.023 0.85,8.699 2.77,15.629 4.28,15.488 1.51,-0.16 2.04,-7.32 1.19,-16.031 -0.85,-8.699 -2.77,-15.629 -4.28,-15.48" /><path
         id="path366"
         style="fill:#33535f;fill-opacity:1;fill-rule:nonzero;stroke:none"
         d="m 1949.82,675.801 c -1.51,0.148 -2.04,7.32 -1.19,16.019 0.85,8.7 2.77,15.629 4.28,15.481 1.51,-0.141 2.04,-7.321 1.19,-16.02 -0.85,-8.703 -2.77,-15.633 -4.28,-15.48" /><path
         id="path368"
         style="fill:#33535f;fill-opacity:1;fill-rule:nonzero;stroke:none"
         d="m 1943.64,612.789 c -1.51,0.152 -2.04,7.32 -1.19,16.02 0.85,8.703 2.77,15.632 4.28,15.48 1.51,-0.148 2.04,-7.32 1.19,-16.019 -0.86,-8.7 -2.77,-15.629 -4.28,-15.481" /><path
         id="path370"
         style="fill:#33535f;fill-opacity:1;fill-rule:nonzero;stroke:none"
         d="m 1937.46,549.77 c -1.52,0.16 -2.05,7.332 -1.2,16.019 0.86,8.711 2.77,15.641 4.29,15.492 1.51,-0.152 2.04,-7.32 1.18,-16.019 -0.85,-8.703 -2.77,-15.633 -4.27,-15.492" /><path
         id="path372"
         style="fill:#33535f;fill-opacity:1;fill-rule:nonzero;stroke:none"
         d="m 1931.27,486.77 c -1.51,0.14 -2.04,7.32 -1.19,16.011 0.86,8.711 2.77,15.641 4.28,15.489 1.51,-0.149 2.05,-7.321 1.19,-16.02 -0.85,-8.699 -2.77,-15.641 -4.28,-15.48" /><path
         id="path374"
         style="fill:#33535f;fill-opacity:1;fill-rule:nonzero;stroke:none"
         d="m 1925.09,423.75 c -1.51,0.148 -2.04,7.32 -1.19,16.02 0.86,8.71 2.77,15.64 4.28,15.492 1.51,-0.153 2.04,-7.321 1.19,-16.024 -0.85,-8.699 -2.77,-15.629 -4.28,-15.488" /><path
         id="path376"
         style="fill:#33535f;fill-opacity:1;fill-rule:nonzero;stroke:none"
         d="m 1918.91,360.738 c -1.51,0.153 -2.05,7.332 -1.19,16.024 0.85,8.699 2.77,15.636 4.28,15.488 1.51,-0.148 2.04,-7.32 1.19,-16.031 -0.86,-8.688 -2.77,-15.629 -4.28,-15.481" /><path
         id="path378"
         style="fill:#33535f;fill-opacity:1;fill-rule:nonzero;stroke:none"
         d="m 1912.72,297.73 c -1.5,0.149 -2.04,7.321 -1.18,16.02 0.85,8.699 2.77,15.629 4.27,15.488 1.51,-0.148 2.05,-7.316 1.2,-16.027 -0.86,-8.691 -2.77,-15.633 -4.29,-15.481" /><path
         id="path380"
         style="fill:#33535f;fill-opacity:1;fill-rule:nonzero;stroke:none"
         d="m 1906.54,234.719 c -1.51,0.152 -2.04,7.32 -1.18,16.019 0.85,8.703 2.76,15.641 4.27,15.481 1.51,-0.137 2.05,-7.321 1.19,-16.02 -0.85,-8.699 -2.77,-15.629 -4.28,-15.48" /><path
         id="path382"
         style="fill:#33535f;fill-opacity:1;fill-rule:nonzero;stroke:none"
         d="m 1900.36,171.711 c -1.51,0.148 -2.04,7.32 -1.19,16.019 0.85,8.7 2.77,15.629 4.28,15.481 1.51,-0.141 2.04,-7.32 1.19,-16.02 -0.85,-8.703 -2.77,-15.632 -4.28,-15.48" /><path
         id="path384"
         style="fill:#33535f;fill-opacity:1;fill-rule:nonzero;stroke:none"
         d="m 1897.08,138.32 c -1.5,0.149 -2.69,0.692 -2.64,1.211 0.05,0.52 1.32,0.821 2.83,0.668 1.51,-0.148 2.7,-0.679 2.64,-1.207 -0.05,-0.512 -1.32,-0.82 -2.83,-0.672" /><path
         id="path386"
         style="fill:#17282f;fill-opacity:1;fill-rule:nonzero;stroke:none"
         d="m 1918.09,1050.15 c 0.98,-1.16 -8.67,-11.66 -21.55,-23.44 -12.88,-11.79 -24.18,-20.47 -25.26,-19.39 -1.06,1.07 8.58,11.57 21.55,23.45 12.97,11.87 24.28,20.55 25.26,19.38" /><path
         id="path388"
         style="fill:#17282f;fill-opacity:1;fill-rule:nonzero;stroke:none"
         d="m 1940.78,1037.99 c 0.62,-1.38 -15.2,-9.83 -35.33,-18.87 -20.13,-9.04 -36.95,-15.24 -37.57,-13.86 -0.62,1.38 15.19,9.83 35.32,18.87 20.13,9.04 36.95,15.24 37.58,13.86" /><path
         id="path390"
         style="fill:#33535f;fill-opacity:1;fill-rule:nonzero;stroke:none"
         d="m 1272.76,1754.79 c 0,0 -33.49,358.9 -93.01,516.02 l 11.86,8.92 -17.73,61.84 -222.603,27 3.426,-48.29 c -33.359,-16.16 -61.34,-40.93 -76.129,-72.36 -79.738,-169.44 -40.433,-367.19 -82.949,-733.76 0,0 -49.766,-171.91 1.68,-225.69 l 485.635,113.19 -23.17,110.81 c 212,4.05 560.59,43.02 560.59,43.02 l -9.72,200.56 c 0,0 -520.84,-3.12 -537.88,-1.26" /><path
         id="path392"
         style="fill:#dadbd8;fill-opacity:1;fill-rule:nonzero;stroke:none"
         d="m 1173.48,2341.87 c 1.44,0.47 8.64,-17.54 16.08,-40.23 1.65,-5.77 4.05,-10.71 4.42,-16.92 0.14,-3.05 -1,-6.29 -2.84,-8.37 -1.81,-2.12 -3.99,-3.4 -6.02,-4.21 -8.4,-2.59 -13.18,-0.74 -13.21,-0.35 -0.19,1.02 5.24,0.9 11.59,3.88 3.05,1.67 5.9,4.68 5.43,8.85 -0.38,4.18 -2.91,9.76 -4.59,15.41 -7.44,22.69 -12.3,41.47 -10.86,41.94" /><path
         id="path394"
         style="fill:#17282f;fill-opacity:1;fill-rule:nonzero;stroke:none"
         d="m 1226.58,2074.63 c 0,-1.52 -89.52,-2.75 -199.91,-2.75 -110.424,0 -199.916,1.23 -199.916,2.75 0,1.52 89.492,2.75 199.916,2.75 110.39,0 199.91,-1.23 199.91,-2.75" /><path
         id="path396"
         style="fill:#17282f;fill-opacity:1;fill-rule:nonzero;stroke:none"
         d="m 1205.63,2175.77 c 0,-1.52 -79.34,-2.75 -177.19,-2.75 -97.889,0 -177.213,1.23 -177.213,2.75 0,1.51 79.324,2.74 177.213,2.74 97.85,0 177.19,-1.23 177.19,-2.74" /><path
         id="path398"
         style="fill:#17282f;fill-opacity:1;fill-rule:nonzero;stroke:none"
         d="m 1176.46,2264.73 c 0,-1.52 -65.63,-2.75 -146.57,-2.75 -80.964,0 -146.581,1.23 -146.581,2.75 0,1.51 65.617,2.74 146.581,2.74 80.94,0 146.57,-1.23 146.57,-2.74" /><path
         id="path400"
         style="fill:#17282f;fill-opacity:1;fill-rule:nonzero;stroke:none"
         d="m 1173.54,2327.44 c 0,-1.52 -50.28,-2.74 -112.29,-2.74 -62.035,0 -112.309,1.22 -112.309,2.74 0,1.52 50.274,2.75 112.309,2.75 62.01,0 112.29,-1.23 112.29,-2.75" /><path
         id="path402"
         style="fill:#17282f;fill-opacity:1;fill-rule:nonzero;stroke:none"
         d="m 1240.63,1977.42 c 0,-1.52 -94.69,-2.75 -211.46,-2.75 -116.822,0 -211.49,1.23 -211.49,2.75 0,1.51 94.668,2.74 211.49,2.74 116.77,0 211.46,-1.23 211.46,-2.74" /><path
         id="path404"
         style="fill:#17282f;fill-opacity:1;fill-rule:nonzero;stroke:none"
         d="m 1257.85,1879.7 c 0,-1.52 -98.54,-2.75 -220.07,-2.75 -121.577,0 -220.1,1.23 -220.1,2.75 0,1.51 98.523,2.75 220.1,2.75 121.53,0 220.07,-1.24 220.07,-2.75" /><path
         id="path406"
         style="fill:#17282f;fill-opacity:1;fill-rule:nonzero;stroke:none"
         d="m 1268.66,1789.64 c 0,-1.52 -100.97,-2.75 -225.48,-2.75 -124.559,0 -225.5,1.23 -225.5,2.75 0,1.51 100.941,2.74 225.5,2.74 124.51,0 225.48,-1.23 225.48,-2.74" /><path
         id="path408"
         style="fill:#17282f;fill-opacity:1;fill-rule:nonzero;stroke:none"
         d="m 1760.9,1691.21 c 0,-1.52 -213.02,-2.75 -475.74,-2.75 -262.8,0 -475.777,1.23 -475.777,2.75 0,1.52 212.977,2.75 475.777,2.75 262.72,0 475.74,-1.23 475.74,-2.75" /><path
         id="path410"
         style="fill:#17282f;fill-opacity:1;fill-rule:nonzero;stroke:none"
         d="m 1764.55,1612.34 c 0,-1.52 -214.63,-2.75 -479.34,-2.75 -264.8,0 -479.386,1.23 -479.386,2.75 0,1.52 214.586,2.75 479.386,2.75 264.71,0 479.34,-1.23 479.34,-2.75" /><path
         id="path412"
         style="fill:#17282f;fill-opacity:1;fill-rule:nonzero;stroke:none"
         d="m 1252.48,1515.14 c 0,-1.52 -102.56,-2.75 -229.04,-2.75 -126.53,0 -229.069,1.23 -229.069,2.75 0,1.51 102.539,2.74 229.069,2.74 126.48,0 229.04,-1.23 229.04,-2.74" /><path
         id="path414"
         style="fill:#17282f;fill-opacity:1;fill-rule:nonzero;stroke:none"
         d="m 1275.78,1424.98 c 0,-1.52 -111.49,-2.75 -248.99,-2.75 -137.552,0 -249.02,1.23 -249.02,2.75 0,1.51 111.468,2.74 249.02,2.74 137.5,0 248.99,-1.23 248.99,-2.74" /><path
         id="path416"
         style="fill:#17282f;fill-opacity:1;fill-rule:nonzero;stroke:none"
         d="m 851.719,1401.07 c -1.52,0 -2.75,174.89 -2.75,390.57 0,215.77 1.23,390.62 2.75,390.62 1.511,0 2.75,-174.85 2.75,-390.62 0,-215.68 -1.239,-390.57 -2.75,-390.57" /><path
         id="path418"
         style="fill:#17282f;fill-opacity:1;fill-rule:nonzero;stroke:none"
         d="m 971.902,1410.72 c -1.515,0 -2.746,213.8 -2.746,477.46 0,263.77 1.231,477.52 2.746,477.52 1.52,0 2.75,-213.75 2.75,-477.52 0,-263.66 -1.23,-477.46 -2.75,-477.46" /><path
         id="path420"
         style="fill:#17282f;fill-opacity:1;fill-rule:nonzero;stroke:none"
         d="m 1104.6,1424.98 c -1.51,0 -2.75,206.11 -2.75,460.31 0,254.28 1.24,460.35 2.75,460.35 1.52,0 2.75,-206.07 2.75,-460.35 0,-254.2 -1.23,-460.31 -2.75,-460.31" /><path
         id="path422"
         style="fill:#17282f;fill-opacity:1;fill-rule:nonzero;stroke:none"
         d="m 1216.06,1401.39 c -1.51,0 -2.75,161.78 -2.75,361.31 0,199.6 1.24,361.35 2.75,361.35 1.52,0 2.75,-161.75 2.75,-361.35 0,-199.53 -1.23,-361.31 -2.75,-361.31" /><path
         id="path424"
         style="fill:#17282f;fill-opacity:1;fill-rule:nonzero;stroke:none"
         d="m 1334.15,1755.24 c 0.77,-0.03 1.13,-13.46 1.11,-35.14 -0.02,-21.68 -0.43,-51.6 -1.22,-84.63 -0.79,-33.04 -1.81,-62.95 -2.82,-84.6 -1.02,-21.66 -2.03,-35.05 -2.79,-35.05 -0.75,-0.01 -1.12,13.39 -1.1,35.07 0.02,21.68 0.43,51.63 1.22,84.71 0.79,33.08 1.81,63.01 2.83,84.66 1.01,21.65 2.02,35.02 2.77,34.98" /><path
         id="path426"
         style="fill:#17282f;fill-opacity:1;fill-rule:nonzero;stroke:none"
         d="m 1459.64,1751.05 c 0.76,-0.04 1.15,-12.62 1.16,-32.93 0.01,-20.3 -0.35,-48.33 -1.09,-79.27 -0.74,-30.96 -1.72,-58.97 -2.7,-79.25 -0.99,-20.28 -1.97,-32.83 -2.73,-32.83 -0.76,-0.01 -1.14,12.55 -1.16,32.85 -0.01,20.31 0.36,48.37 1.09,79.36 0.75,30.98 1.72,59.03 2.71,79.3 0.98,20.29 1.97,32.81 2.72,32.77" /><path
         id="path428"
         style="fill:#17282f;fill-opacity:1;fill-rule:nonzero;stroke:none"
         d="m 1585.28,1753.26 c 0.76,-0.03 1.15,-12.24 1.18,-31.92 0.03,-19.69 -0.31,-46.85 -1.03,-76.85 -0.71,-30.01 -1.68,-57.16 -2.64,-76.83 -0.97,-19.66 -1.95,-31.82 -2.71,-31.82 -0.75,-0.01 -1.15,12.16 -1.18,31.85 -0.02,19.68 0.32,46.88 1.04,76.93 0.71,30.04 1.67,57.22 2.64,76.88 0.96,19.66 1.94,31.8 2.7,31.76" /><path
         id="path430"
         style="fill:#17282f;fill-opacity:1;fill-rule:nonzero;stroke:none"
         d="m 1710.95,1756.82 c 0.76,-0.03 1.16,-11.87 1.21,-30.97 0.04,-19.1 -0.29,-45.46 -0.98,-74.57 -0.7,-29.11 -1.63,-55.46 -2.59,-74.54 -0.95,-19.07 -1.92,-30.88 -2.68,-30.88 -0.76,0 -1.16,11.81 -1.2,30.91 -0.04,19.1 0.28,45.49 0.97,74.64 0.7,29.15 1.64,55.53 2.59,74.6 0.96,19.08 1.92,30.85 2.68,30.81" /><path
         id="path432"
         style="fill:#17282f;fill-opacity:1;fill-rule:nonzero;stroke:none"
         d="m 1229.18,1710.07 c -1.28,0.67 5.56,15.35 18.8,30.08 13.16,14.81 26.99,23.24 27.8,22.05 0.95,-1.28 -11,-11.4 -23.71,-25.71 -12.79,-14.22 -21.51,-27.23 -22.89,-26.42" /><path
         id="path434"
         style="fill:#17282f;fill-opacity:1;fill-rule:nonzero;stroke:none"
         d="m 1257.89,1707.64 c -1.39,-0.27 -3.83,13.95 2.19,30.14 5.88,16.26 16.93,25.53 17.81,24.42 1.21,-1.09 -7.27,-11.3 -12.66,-26.31 -5.58,-14.92 -5.71,-28.2 -7.34,-28.25" /><path
         id="path436"
         style="fill:#17282f;fill-opacity:1;fill-rule:nonzero;stroke:none"
         d="m 1769.59,1556.55 c -1.51,-0.14 -6.63,42.84 -11.43,95.98 -4.8,53.15 -7.47,96.35 -5.95,96.48 1.51,0.14 6.62,-42.83 11.42,-95.99 4.8,-53.14 7.47,-96.34 5.96,-96.47" /><path
         id="path438"
         style="fill:#17282f;fill-opacity:1;fill-rule:nonzero;stroke:none"
         d="m 1776.37,1711.15 c 0.43,-0.71 -2.8,-2.67 -3.17,-7.69 -0.17,-2.37 0.45,-5.4 2.41,-7.3 1.85,-1.94 5.25,-2.39 8.42,-1.04 3.17,1.4 5.16,4.19 5.01,6.86 -0.04,2.73 -1.83,5.26 -3.68,6.75 -3.92,3.16 -7.56,2.14 -7.78,2.95 -0.55,0.45 3.67,3.58 9.89,0.31 2.82,-1.58 6.05,-4.72 6.62,-9.66 0.67,-5.04 -3,-10.26 -7.87,-12.25 -4.78,-2.19 -11.09,-1.3 -14.32,2.63 -3.21,3.79 -3.3,8.29 -2.53,11.43 1.87,6.78 7.04,7.73 7,7.01" /><path
         id="path440"
         style="fill:#17282f;fill-opacity:1;fill-rule:nonzero;stroke:none"
         d="m 1272.11,1755.78 c 0.01,0.05 0.86,0.03 2.51,-0.08 1.85,-0.14 4.26,-0.33 7.36,-0.57 6.48,-0.71 16.12,-1.31 28.72,-1.73 25.18,-1.07 62.17,-1.55 109.24,-1.16 94.13,0.65 228.59,4.1 389.79,10.49 l 2.35,0.09 0.12,-2.36 c 3.12,-62.3 6.53,-130.38 10.11,-201.78 l 0.12,-2.27 -2.09,-0.4 c -25.62,-4.85 -51.44,-6.82 -77.96,-9.53 -26.49,-2.3 -53.47,-4.65 -80.87,-7.02 -54.8,-4.47 -111.31,-8.66 -168.88,-12.75 -72.4,-4.88 -143.1,-9.66 -211.34,-14.26 l -0.17,-0.01 -0.18,0.01 c -61.26,3.95 -120.81,25.93 -162.37,66.31 -21,19.73 -36.71,43.99 -47.16,69.31 -10.71,25.29 -17.46,51.18 -23.68,76.23 -24.7,100.41 -40.25,191.07 -52.437,266.67 -6.035,37.81 -11.113,71.9 -15.48,101.75 -4.165,29.83 -8.833,55.4 -8.829,76.67 -0.3,21.22 4.274,37.58 9.825,47.19 5.504,9.69 10.187,13.34 10.187,13.34 0.313,-0.24 -4.191,-4.11 -9.32,-13.8 -5.192,-9.61 -9.383,-25.72 -8.797,-46.71 0.281,-20.99 5.207,-46.46 9.644,-76.28 4.762,-29.82 10.196,-63.83 16.227,-101.6 12.65,-75.47 28.59,-165.97 53.54,-266.09 6.29,-24.98 13.07,-50.63 23.66,-75.44 10.35,-24.86 25.62,-48.29 46.16,-67.54 40.59,-39.3 98.91,-60.81 159.18,-64.63 h -0.34 c 68.22,4.63 138.91,9.44 211.29,14.37 57.54,4.31 114.02,8.55 168.83,12.67 27.38,2.35 54.34,4.66 80.8,6.94 26.33,2.63 52.64,4.67 77.2,9.27 l -1.98,-2.66 c -3.41,71.41 -6.67,139.5 -9.64,201.81 l 2.47,-2.26 c -161.27,-5.92 -295.78,-8.68 -389.98,-8.52 -47.09,0.02 -84.12,0.95 -109.32,2.48 -12.61,0.66 -22.25,1.49 -28.72,2.45 -3.09,0.4 -5.49,0.71 -7.33,0.95 -1.64,0.23 -2.47,0.38 -2.46,0.45" /><path
         id="path442"
         style="fill:#17282f;fill-opacity:1;fill-rule:nonzero;stroke:none"
         d="m 1272.11,1755.78 c -0.36,-0.1 -2.17,5.49 -5.12,15.69 -2.98,10.19 -6.98,25.02 -11.72,43.39 -9.52,36.75 -21.52,87.79 -34.28,144.23 -12.77,56.47 -24.56,107.5 -33.35,144.38 -4.2,17.72 -7.68,32.43 -10.36,43.71 -2.38,10.33 -3.53,16.1 -3.16,16.19 0.37,0.11 2.21,-5.48 5.23,-15.65 3.06,-10.17 7.16,-24.97 12.06,-43.3 9.76,-36.68 22.16,-87.64 34.93,-144.11 12.67,-55.97 24.12,-106.61 32.7,-144.53 4.06,-17.75 7.43,-32.49 10.02,-43.78 2.31,-10.36 3.42,-16.13 3.05,-16.22" /><path
         id="path444"
         style="fill:#17282f;fill-opacity:1;fill-rule:nonzero;stroke:none"
         d="m 1174.12,2337.7 c 0.37,-0.07 -0.01,-4 -1.03,-11.05 -1.02,-7.05 -2.66,-17.21 -4.81,-29.75 -1.3,-6.31 -1.74,-12.99 -4.21,-20.74 -1.28,-3.72 -4.1,-8.14 -8.97,-9.71 -4.75,-1.5 -9.34,-0.4 -13.39,0.41 -16.53,3.39 -34.55,7.79 -53.3,12.92 -37.52,10.31 -70.94,21.14 -95.238,28.61 -11.203,3.5 -20.785,6.51 -28.734,8.99 -6.778,2.15 -10.485,3.52 -10.391,3.88 0.098,0.37 3.988,-0.29 10.953,-1.81 6.953,-1.55 16.961,-4.02 29.254,-7.33 24.616,-6.53 58.246,-16.77 95.596,-27.04 18.68,-5.11 36.56,-9.64 52.91,-13.27 4.06,-0.94 7.88,-1.69 10.86,-0.76 2.95,0.87 4.97,3.54 6.19,6.73 2.28,6.45 3.17,13.78 4.65,19.86 2.64,12.44 4.87,22.49 6.53,29.41 1.66,6.93 2.76,10.72 3.13,10.65" /><path
         id="path446"
         style="fill:#17282f;fill-opacity:1;fill-rule:nonzero;stroke:none"
         d="M 999.145,953.289 1069.01,4.55859 1098.26,11.3789 1087.4,933.27 999.145,953.289" /><path
         id="path448"
         style="fill:#17282f;fill-opacity:1;fill-rule:nonzero;stroke:none"
         d="M 702.93,920.301 490.652,5.69922 h 38.391 L 832.934,920.301 H 702.93" /><path
         id="path450"
         style="fill:#17282f;fill-opacity:1;fill-rule:nonzero;stroke:none"
         d="M 1264.47,920.301 1554.07,5.69922 h 31.03 L 1354.97,920.301 h -90.5" /><path
         id="path452"
         style="fill:#17282f;fill-opacity:1;fill-rule:nonzero;stroke:none"
         d="M 1303.26,858.859 654.246,434.809 v -23.27 l 667.114,447.32 h -18.1" /><path
         id="path454"
         style="fill:#17282f;fill-opacity:1;fill-rule:nonzero;stroke:none"
         d="M 752.504,858.859 1455.81,385.68 v 36.199 l -682.619,457.66 -20.687,-20.68" /><path
         id="path456"
         style="fill:#f03d5f;fill-opacity:1;fill-rule:nonzero;stroke:none"
         d="m 605.961,904.559 836.209,15.16 c 31.6,0.582 55.81,28.301 52.12,59.679 -3.2,27.262 -26.51,47.662 -53.95,47.232 l -848.07,-13.64 13.691,-108.431" /><path
         id="path458"
         style="fill:#da314b;fill-opacity:1;fill-rule:nonzero;stroke:none"
         d="m 605.961,904.559 -0.004,0.043 -13.687,108.388 848.07,13.64 c 0.29,0 0.58,0 0.87,0 27.06,0 49.92,-20.26 53.08,-47.232 0.25,-2.136 0.37,-4.269 0.37,-6.367 -0.02,-26.722 -20.01,-49.461 -46.56,-52.883 -1.94,-0.25 -3.92,-0.386 -5.93,-0.429 l -36.09,-0.649 -50.57,-0.922 -89.84,-1.628 -178.03,-3.231 -85.44,-1.551 -173.153,-3.136 -129.375,-2.34 -93.711,-1.703" /><path
         id="path460"
         style="fill:#f03d5f;fill-opacity:1;fill-rule:nonzero;stroke:none"
         d="m 520.777,1550.96 84.336,-646.401 659.357,15.742 -1.69,392.589 c 0.9,65.3 -54.91,117.02 -119.96,111.16 l -502.8,-45.35 -66.172,685.12 -66.813,5.65 c -29.965,2.53 -54.551,-23.39 -50.437,-53.18 l 64.179,-465.33" /></g></g></svg>