<?xml version="1.0" encoding="UTF-8" standalone="no"?>
<svg
   xmlns:dc="http://purl.org/dc/elements/1.1/"
   xmlns:cc="http://creativecommons.org/ns#"
   xmlns:rdf="http://www.w3.org/1999/02/22-rdf-syntax-ns#"
   xmlns:svg="http://www.w3.org/2000/svg"
   xmlns="http://www.w3.org/2000/svg"
   viewBox="0 0 769.84003 554.79999"
   height="554.79999"
   width="769.84003"
   xml:space="preserve"
   id="svg2"
   version="1.1"><metadata
     id="metadata8"><rdf:RDF><cc:Work
         rdf:about=""><dc:format>image/svg+xml</dc:format><dc:type
           rdf:resource="http://purl.org/dc/dcmitype/StillImage" /></cc:Work></rdf:RDF></metadata><defs
     id="defs6" /><g
     transform="matrix(1.3333333,0,0,-1.3333333,0,554.8)"
     id="g10"><g
       transform="scale(0.1)"
       id="g12"><path
         id="path14"
         style="fill:#dadbd8;fill-opacity:1;fill-rule:nonzero;stroke:none"
         d="m 471.055,119.172 h 948.227 v 1792.45 H 471.055 Z" /><path
         id="path16"
         style="fill:#f3f2f1;fill-opacity:1;fill-rule:nonzero;stroke:none"
         d="M 1137.87,119.172 H 189.645 V 1911.62 H 1137.87 V 119.172" /><path
         id="path18"
         style="fill:#dadbd8;fill-opacity:1;fill-rule:nonzero;stroke:none"
         d="M 264.156,1552.67 H 1058.07 V 1816.8 H 264.156 Z m 803.914,-10 H 254.156 v 284.13 h 813.914 v -284.13" /><path
         id="path20"
         style="fill:#e7e8e5;fill-opacity:1;fill-rule:nonzero;stroke:none"
         d="M 771.59,1765.19 H 561.668 c -27.324,0 -49.48,22.15 -49.48,49.48 v 7.14 H 821.07 v -7.14 c 0,-27.33 -22.152,-49.48 -49.48,-49.48" /><path
         id="path22"
         style="fill:#dadbd8;fill-opacity:1;fill-rule:nonzero;stroke:none"
         d="m 264.156,1191.75 h 793.914 v 264.13 H 264.156 Z m 803.914,-10 H 254.156 v 284.13 h 813.914 v -284.13" /><path
         id="path24"
         style="fill:#e7e8e5;fill-opacity:1;fill-rule:nonzero;stroke:none"
         d="M 771.59,1404.27 H 561.668 c -27.324,0 -49.48,22.15 -49.48,49.47 v 7.14 H 821.07 v -7.14 c 0,-27.32 -22.152,-49.47 -49.48,-49.47" /><path
         id="path26"
         style="fill:#dadbd8;fill-opacity:1;fill-rule:nonzero;stroke:none"
         d="m 264.156,830.82 h 793.914 v 264.13 H 264.156 Z m 803.914,-10 H 254.156 v 284.13 H 1068.07 V 820.82" /><path
         id="path28"
         style="fill:#e7e8e5;fill-opacity:1;fill-rule:nonzero;stroke:none"
         d="M 771.59,1043.34 H 561.668 c -27.324,0 -49.48,22.16 -49.48,49.48 v 7.14 H 821.07 v -7.14 c 0,-27.32 -22.152,-49.48 -49.48,-49.48" /><path
         id="path30"
         style="fill:#dadbd8;fill-opacity:1;fill-rule:nonzero;stroke:none"
         d="M 264.156,469.902 H 1058.07 V 734.031 H 264.156 Z m 803.914,-10 H 254.156 V 744.031 H 1068.07 V 459.902" /><path
         id="path32"
         style="fill:#e7e8e5;fill-opacity:1;fill-rule:nonzero;stroke:none"
         d="M 771.59,682.422 H 561.668 c -27.324,0 -49.48,22.148 -49.48,49.476 v 7.141 H 821.07 v -7.141 c 0,-27.328 -22.152,-49.476 -49.48,-49.476" /><path
         id="path34"
         style="fill:#e7e8e5;fill-opacity:1;fill-rule:nonzero;stroke:none"
         d="M 1177.54,1889.42 H 147.586 v 89.29 H 1177.54 v -89.29" /><path
         id="path36"
         style="fill:#dadbd8;fill-opacity:1;fill-rule:nonzero;stroke:none"
         d="m 1487.26,1889.42 h -309.72 v 89.29 h 309.72 v -89.29" /><path
         id="path38"
         style="fill:#dadbd8;fill-opacity:1;fill-rule:nonzero;stroke:none"
         d="m 239.473,27.6094 h -49.828 v 91.5626 h 49.828 V 27.6094" /><path
         id="path40"
         style="fill:#dadbd8;fill-opacity:1;fill-rule:nonzero;stroke:none"
         d="m 547.363,27.6094 h -49.828 v 91.5626 h 49.828 V 27.6094" /><path
         id="path42"
         style="fill:#dadbd8;fill-opacity:1;fill-rule:nonzero;stroke:none"
         d="m 1109.76,27.6094 h -49.83 v 91.5626 h 49.83 V 27.6094" /><path
         id="path44"
         style="fill:#dadbd8;fill-opacity:1;fill-rule:nonzero;stroke:none"
         d="m 1341.12,27.6094 h 49.8281 v 91.5625 H 1341.12 Z" /><path
         id="path46"
         style="fill:#e7e8e5;fill-opacity:1;fill-rule:nonzero;stroke:none"
         d="m 5337.86,2227.1 c -47.55,-1.03 -76.28,-55.3 -78.72,-102.79 -2.45,-47.5 10.48,-96.07 -1.18,-142.17 -14.8,-58.56 -66.71,-102.58 -80.21,-161.45 -15.93,-69.43 25.11,-138.66 30.39,-209.69 2.56,-34.56 -3.37,-69.92 4.68,-103.62 13.6,-56.83 70.58,-100.02 128.97,-97.75 58.4,2.27 111.84,49.76 120.97,107.48 8.52,53.82 -17.72,109.27 -6.21,162.53 8.51,39.37 37.05,73.84 37.56,114.11 0.59,47.91 -38.41,87.41 -47.58,134.45 -9.17,47.05 12.49,94.5 13.73,142.43 2.2,85.96 -36.55,151.48 -122.4,156.47" /><path
         id="path48"
         style="fill:#dadbd8;fill-opacity:1;fill-rule:nonzero;stroke:none"
         d="m 5361.42,2002.67 c 0.15,-0.02 0.09,-2.65 -0.2,-7.65 -0.35,-5.37 -0.83,-12.65 -1.42,-21.82 -1.44,-19.35 -3.45,-46.64 -5.92,-80.18 -5.08,-67.7 -11.98,-161.22 -18.99,-264.56 -6.99,-103.38 -12.75,-196.99 -16.85,-264.75 -2.06,-33.57 -3.75,-60.88 -4.94,-80.25 -0.65,-9.16 -1.15,-16.44 -1.53,-21.81 -0.4,-4.98 -0.68,-7.6 -0.84,-7.59 -0.15,0.01 -0.17,2.64 -0.06,7.63 0.16,5.39 0.4,12.69 0.68,21.86 0.85,19.39 2.05,46.72 3.51,80.33 3.29,67.82 8.55,161.48 15.54,264.88 7,103.36 14.42,196.87 20.3,264.52 3.08,33.5 5.58,60.74 7.35,80.08 0.96,9.13 1.72,16.39 2.26,21.74 0.58,4.97 0.95,7.58 1.11,7.57" /><path
         id="path50"
         style="fill:#dadbd8;fill-opacity:1;fill-rule:nonzero;stroke:none"
         d="m 5327.96,1077.21 v 0 c 83.78,0 151.7,67.93 151.7,151.71 v 151.71 h -303.41 v -151.71 c 0,-83.78 67.92,-151.71 151.71,-151.71" /><path
         id="path52"
         style="fill:#ffffff;fill-opacity:1;fill-rule:nonzero;stroke:none"
         d="m 5176.25,1306 c 0.15,0.17 1.87,-0.98 4.98,-3.3 3.66,-2.86 8.06,-6.27 13.29,-10.35 12.08,-9.79 28.03,-22.71 46.93,-38.02 l -2.52,0.19 c 25.33,15.52 55.28,33.87 87.5,53.6 l 0.17,0.1 1.42,0.86 1.36,-0.9 c 29.84,-19.67 57.68,-38.03 81.4,-53.67 l -2.55,-0.09 c 20.72,15.3 38.21,28.22 51.43,37.97 5.75,4.08 10.58,7.49 14.57,10.33 3.41,2.32 5.29,3.47 5.43,3.28 0.15,-0.19 -1.47,-1.69 -4.61,-4.36 -3.8,-3.09 -8.37,-6.84 -13.84,-11.3 -12.93,-10.13 -30.04,-23.54 -50.3,-39.44 l -1.22,-0.95 -1.33,0.86 c -23.84,15.44 -51.84,33.58 -81.83,53.01 l 2.78,-0.04 -0.19,-0.12 c -32.37,-19.45 -62.48,-37.55 -87.94,-52.85 l -1.35,-0.82 -1.17,1.01 c -18.42,15.88 -33.96,29.28 -45.74,39.44 -4.94,4.42 -9.08,8.14 -12.54,11.25 -2.84,2.65 -4.28,4.14 -4.13,4.31" /><path
         id="path54"
         style="fill:#ffffff;fill-opacity:1;fill-rule:nonzero;stroke:none"
         d="m 5176.25,1336.34 c 0.15,0.17 1.87,-0.98 4.98,-3.31 3.66,-2.84 8.06,-6.26 13.29,-10.33 12.08,-9.8 28.03,-22.72 46.93,-38.03 l -2.52,0.18 c 25.33,15.52 55.28,33.87 87.5,53.61 l 0.17,0.1 1.42,0.86 1.36,-0.9 c 29.84,-19.67 57.68,-38.03 81.4,-53.67 l -2.55,-0.08 c 20.72,15.29 38.21,28.2 51.43,37.95 5.75,4.09 10.58,7.5 14.57,10.34 3.41,2.32 5.29,3.46 5.43,3.28 0.15,-0.19 -1.47,-1.69 -4.61,-4.36 -3.8,-3.09 -8.37,-6.83 -13.84,-11.3 -12.93,-10.13 -30.04,-23.55 -50.3,-39.44 l -1.22,-0.96 -1.33,0.87 c -23.84,15.44 -51.84,33.58 -81.83,53.01 l 2.78,-0.05 -0.19,-0.11 c -32.37,-19.46 -62.48,-37.55 -87.94,-52.86 l -1.35,-0.81 -1.17,1.01 c -18.42,15.88 -33.96,29.28 -45.74,39.43 -4.94,4.44 -9.08,8.16 -12.54,11.25 -2.84,2.66 -4.28,4.14 -4.13,4.32" /><path
         id="path56"
         style="fill:#ffffff;fill-opacity:1;fill-rule:nonzero;stroke:none"
         d="m 5176.25,1275.15 c 0.15,0.17 1.87,-0.98 4.98,-3.3 3.66,-2.86 8.06,-6.27 13.29,-10.35 12.08,-9.79 28.03,-22.71 46.93,-38.02 l -2.52,0.19 c 25.33,15.51 55.28,33.86 87.5,53.6 l 0.17,0.1 1.42,0.86 1.36,-0.91 c 29.84,-19.66 57.68,-38.02 81.4,-53.66 l -2.55,-0.09 c 20.72,15.3 38.21,28.21 51.43,37.96 5.75,4.09 10.58,7.5 14.57,10.34 3.41,2.32 5.29,3.46 5.43,3.28 0.15,-0.19 -1.47,-1.69 -4.61,-4.36 -3.8,-3.09 -8.37,-6.83 -13.84,-11.3 -12.93,-10.13 -30.04,-23.55 -50.3,-39.44 l -1.22,-0.96 -1.33,0.87 c -23.84,15.44 -51.84,33.58 -81.83,53.01 l 2.78,-0.05 -0.19,-0.11 c -32.37,-19.45 -62.48,-37.56 -87.94,-52.85 l -1.35,-0.82 -1.17,1.01 c -18.42,15.88 -33.96,29.27 -45.74,39.43 -4.94,4.43 -9.08,8.15 -12.54,11.25 -2.84,2.66 -4.28,4.14 -4.13,4.32" /><path
         id="path58"
         style="fill:#e7e8e5;fill-opacity:1;fill-rule:nonzero;stroke:none"
         d="m 5543.45,310.992 96.86,-277.7811 h -48.43 L 5422.36,310.992 h 121.09" /><path
         id="path60"
         style="fill:#e7e8e5;fill-opacity:1;fill-rule:nonzero;stroke:none"
         d="M 4987.8,310.992 4890.94,33.2109 h 48.44 L 5108.89,310.992 H 4987.8" /><path
         id="path62"
         style="fill:#e7e8e5;fill-opacity:1;fill-rule:nonzero;stroke:none"
         d="m 4757.45,303.98 h 773.89 v 773.89 H 4757.45 V 303.98" /><path
         id="path64"
         style="fill:#f3f2f1;fill-opacity:1;fill-rule:nonzero;stroke:none"
         d="m 4999.91,303.98 h 773.89 v 773.89 H 4999.91 V 303.98" /><path
         id="path66"
         style="fill:#dadbd8;fill-opacity:1;fill-rule:nonzero;stroke:none"
         d="m 5061.04,361.691 h 651.65 v 651.649 h -651.65 z m 661.65,-10 h -671.65 v 671.649 h 671.65 V 351.691" /><path
         id="path68"
         style="fill:#dadbd8;fill-opacity:1;fill-rule:nonzero;stroke:none"
         d="m 5713.83,814.809 c -218.45,6.382 -439.29,4.73 -657.79,0.293 -3.38,-0.071 -3.39,-5.18 0,-5.25 218.5,-4.442 439.33,-6.09 657.79,0.277 3.02,0.09 3.02,4.601 0,4.68" /><path
         id="path70"
         style="fill:#e7e8e5;fill-opacity:1;fill-rule:nonzero;stroke:none"
         d="m 5368.02,909.832 c 0,-10.402 8.44,-18.832 18.84,-18.832 10.4,0 18.83,8.43 18.83,18.832 0,10.398 -8.43,18.84 -18.83,18.84 -10.4,0 -18.84,-8.442 -18.84,-18.84" /><path
         id="path72"
         style="fill:#e7e8e5;fill-opacity:1;fill-rule:nonzero;stroke:none"
         d="m 5639.36,607.559 c 0,-10.399 8.43,-18.829 18.83,-18.829 10.4,0 18.84,8.43 18.84,18.829 0,10.41 -8.44,18.843 -18.84,18.843 -10.4,0 -18.83,-8.433 -18.83,-18.843" /><path
         id="path74"
         style="fill:#dadbd8;fill-opacity:1;fill-rule:nonzero;stroke:none"
         d="m 759.602,2219.31 95.98,-245.54 -59.664,0.26 -47.824,150.91 11.508,94.37" /><path
         id="path76"
         style="fill:#e7e8e5;fill-opacity:1;fill-rule:nonzero;stroke:none"
         d="m 431.836,2446.2 -32.992,-470.49 340.629,-7.11 38.328,477.6 H 431.836" /><path
         id="path78"
         style="fill:#fafaf9;fill-opacity:1;fill-rule:nonzero;stroke:none"
         d="m 465.914,2408.31 -27.465,-391.61 253.223,-11.87 35.375,405.8 -261.133,-2.32" /><path
         id="path80"
         style="fill:#dadbd8;fill-opacity:1;fill-rule:nonzero;stroke:none"
         d="m 521.48,2352.93 -20.542,-275.27 h 139.687 l 24.645,275.27 H 521.48" /><path
         id="path82"
         style="fill:#dadbd8;fill-opacity:1;fill-rule:nonzero;stroke:none"
         d="M 5254.81,2707.59 H 4155.43 V 3787.77 H 5254.81 V 2707.59" /><path
         id="path84"
         style="fill:#fafaf9;fill-opacity:1;fill-rule:nonzero;stroke:none"
         d="M 5215.99,2735.9 H 4193.67 V 3758.22 H 5215.99 V 2735.9" /><path
         id="path86"
         style="fill:#dadbd8;fill-opacity:1;fill-rule:nonzero;stroke:none"
         d="m 4871.58,3080.31 h -333.5 v 333.5 h 333.5 v -333.5" /><path
         id="path88"
         style="fill:#17282f;fill-opacity:1;fill-rule:nonzero;stroke:none"
         d="M 5704.39,27.6094 C 5704.39,26.1719 4427.32,25 2852.33,25 1276.8,25 0,26.1719 0,27.6094 c 0,1.4297 1276.8,2.6015 2852.33,2.6015 1574.99,0 2852.06,-1.1718 2852.06,-2.6015" /><path
         id="path90"
         style="fill:#f03d5f;fill-opacity:1;fill-rule:nonzero;stroke:none"
         d="m 5029.16,1313.89 -1465.67,106.76 c -41.55,3.02 -72.77,39.16 -69.74,80.7 l 65.6,900.48 c 3.02,41.54 39.16,72.76 80.7,69.74 l 1465.67,-106.78 c 41.55,-3.03 72.77,-39.15 69.74,-80.69 l -65.6,-900.48 c -3.02,-41.54 -39.16,-72.76 -80.7,-69.73" /><path
         id="path92"
         style="fill:#ffffff;fill-opacity:1;fill-rule:nonzero;stroke:none"
         d="m 4925.04,2132.19 c -4.48,-61.6 -58.07,-107.9 -119.68,-103.42 -61.6,4.48 -107.9,58.07 -103.41,119.67 4.5,61.61 58.08,107.91 119.67,103.43 61.6,-4.5 107.9,-58.07 103.42,-119.68" /><path
         id="path94"
         style="fill:#ffffff;fill-opacity:1;fill-rule:nonzero;stroke:none"
         d="m 4947.83,2237.37 c -55.4,0 -102.38,-42.95 -106.47,-99.08 -4.3,-58.75 40.02,-110.04 98.78,-114.33 58.73,-4.4 110.05,40.03 114.32,98.8 4.28,58.75 -40.04,110.03 -98.79,114.33 -2.63,0.19 -5.24,0.28 -7.84,0.28 z m 0.14,-223.7 c -2.83,0 -5.68,0.11 -8.55,0.31 -64.27,4.7 -112.73,60.8 -108.04,125.03 4.69,64.25 60.71,112.7 125.01,108.05 64.26,-4.69 112.72,-60.78 108.05,-125.02 -4.48,-61.39 -55.86,-108.37 -116.47,-108.37" /><path
         id="path96"
         style="fill:#ffffff;fill-opacity:1;fill-rule:nonzero;stroke:none"
         d="m 3659.45,1794.33 -6.53,-89.7 -9.23,0.67 5.94,81.5 -21.14,1.54 0.59,8.19 30.37,-2.2" /><path
         id="path98"
         style="fill:#ffffff;fill-opacity:1;fill-rule:nonzero;stroke:none"
         d="m 3745.78,1706.11 -0.6,-8.2 -62.92,4.58 0.48,6.53 39.95,33.81 c 10.85,9.25 13.21,15.14 13.65,21.29 0.76,10.37 -6.08,17.32 -19.79,18.31 -10.5,0.77 -18.8,-1.84 -25.19,-8.21 l -6.13,6.11 c 7.52,7.7 19,11.51 32.71,10.51 18.19,-1.33 29.05,-11.4 27.97,-26.39 -0.63,-8.58 -3.89,-16.07 -16.79,-26.99 l -32.68,-27.75 49.34,-3.6" /><path
         id="path100"
         style="fill:#ffffff;fill-opacity:1;fill-rule:nonzero;stroke:none"
         d="m 3841.33,1714.6 -17.94,1.31 -1.72,-23.58 -9.23,0.68 1.72,23.57 -50.6,3.68 0.48,6.67 51.87,56 10.24,-0.75 -50.08,-54.58 38.95,-2.83 1.51,20.76 8.97,-0.66 -1.51,-20.76 17.94,-1.31 -0.6,-8.2" /><path
         id="path102"
         style="fill:#ffffff;fill-opacity:1;fill-rule:nonzero;stroke:none"
         d="m 3978.82,1704.59 -17.94,1.3 -1.72,-23.58 -9.23,0.68 1.72,23.57 -50.61,3.69 0.48,6.67 51.87,55.99 10.25,-0.74 -50.08,-54.58 38.95,-2.84 1.51,20.76 8.97,-0.66 -1.51,-20.76 17.94,-1.3 -0.6,-8.2" /><path
         id="path104"
         style="fill:#ffffff;fill-opacity:1;fill-rule:nonzero;stroke:none"
         d="m 4057.44,1701.7 c -1.11,-15.25 -12.61,-26.4 -34.53,-24.8 -12.94,0.94 -24.91,6.32 -31.32,13.87 l 5.02,6.98 c 5.32,-6.44 15.26,-11.54 26.79,-12.38 15.25,-1.11 23.87,5.73 24.66,16.62 0.85,11.54 -5.81,19.24 -28.62,20.9 l -19.1,1.39 7.89,44.64 49.09,-3.58 -0.61,-8.2 -41.01,2.99 -5.14,-28.35 11.53,-0.84 c 27.03,-1.98 36.5,-13.35 35.35,-29.24" /><path
         id="path106"
         style="fill:#ffffff;fill-opacity:1;fill-rule:nonzero;stroke:none"
         d="m 4137.02,1696.04 c 0.86,11.77 -7.3,19.98 -21.14,20.98 -13.71,1 -23.68,-6.78 -24.49,-17.93 -0.72,-9.86 6.8,-19.81 22.3,-20.95 12.95,-0.93 22.46,5.97 23.33,17.9 z m 9.12,-0.42 c -1.22,-16.78 -15.2,-26.59 -32.63,-25.32 -23.83,1.74 -35.57,19.21 -33.51,47.53 2.22,30.5 20.04,45.18 44.39,43.4 8.06,-0.59 15.52,-2.55 20.9,-6.42 l -4.24,-7.15 c -4.4,3.4 -10.46,5.01 -17.12,5.48 -19.36,1.42 -32.69,-10.1 -34.47,-34.46 -0.14,-2.05 -0.2,-4.62 -0.14,-7.33 5.2,9.54 16.11,14.29 28.54,13.39 17.81,-1.3 29.48,-12.72 28.28,-29.12" /><path
         id="path108"
         style="fill:#ffffff;fill-opacity:1;fill-rule:nonzero;stroke:none"
         d="m 4268.82,1685.65 c -1.09,-14.99 -12.82,-25.73 -34.47,-24.16 -12.95,0.95 -25.05,6.34 -31.46,13.89 l 5.02,6.98 c 5.32,-6.44 15.38,-11.55 27.05,-12.4 14.86,-1.08 23.57,5.24 24.38,16.39 0.78,10.76 -6.27,18.36 -22.92,19.57 l -6.41,0.47 0.5,6.79 27.12,29.33 -45.87,3.34 0.59,8.2 57.67,-4.2 -0.48,-6.54 -27.69,-30.06 c 19.14,-2.42 28.01,-13.24 26.97,-27.6" /><path
         id="path110"
         style="fill:#ffffff;fill-opacity:1;fill-rule:nonzero;stroke:none"
         d="m 4349.73,1680.54 c 0.86,11.78 -7.31,19.98 -21.14,20.98 -13.72,1.01 -23.69,-6.77 -24.5,-17.92 -0.72,-9.87 6.8,-19.82 22.31,-20.94 12.95,-0.95 22.46,5.96 23.33,17.88 z m 9.12,-0.41 c -1.22,-16.79 -15.22,-26.59 -32.64,-25.33 -23.83,1.74 -35.56,19.21 -33.5,47.53 2.21,30.51 20.04,45.18 44.37,43.41 8.08,-0.59 15.54,-2.55 20.92,-6.41 l -4.25,-7.17 c -4.39,3.41 -10.46,5.01 -17.12,5.5 -19.35,1.4 -32.68,-10.12 -34.46,-34.47 -0.15,-2.05 -0.21,-4.62 -0.15,-7.33 5.21,9.54 16.12,14.29 28.55,13.38 17.8,-1.3 29.47,-12.71 28.28,-29.11" /><path
         id="path112"
         style="fill:#ffffff;fill-opacity:1;fill-rule:nonzero;stroke:none"
         d="m 4445.95,1737.03 -0.48,-6.53 -43.6,-80.43 -9.99,0.73 42.84,78.81 -46.13,3.36 -1.23,-16.79 -9.1,0.67 1.83,24.98 65.86,-4.8" /><path
         id="path114"
         style="fill:#ffffff;fill-opacity:1;fill-rule:nonzero;stroke:none"
         d="m 4574.21,1727.69 -0.48,-6.53 -43.6,-80.43 -9.99,0.73 42.84,78.8 -46.13,3.36 -1.22,-16.78 -9.11,0.66 1.83,24.99 65.86,-4.8" /><path
         id="path116"
         style="fill:#ffffff;fill-opacity:1;fill-rule:nonzero;stroke:none"
         d="m 4624.78,1684.46 c 13.96,-1.01 22.75,4.65 23.46,14.4 0.74,10.12 -7.66,16.91 -21.12,17.89 -13.58,0.99 -22.61,-4.53 -23.34,-14.53 -0.72,-9.87 7.02,-16.74 21,-17.76 z m 23.52,-27.1 c 0.81,11.03 -8.17,18.65 -24.06,19.8 -15.88,1.15 -25.74,-5.09 -26.54,-16.11 -0.81,-11.15 8.03,-18.75 23.92,-19.91 15.89,-1.15 25.87,5.08 26.68,16.22 z m 9.47,-0.81 c -1.15,-15.9 -15.32,-24.78 -36.72,-23.22 -21.53,1.57 -33.88,12.39 -32.72,28.28 0.78,10.76 7.48,17.88 18.9,20.78 -8.83,4.25 -13.33,11.41 -12.66,20.76 1.07,14.6 14.16,22.8 33.13,21.42 18.96,-1.38 30.98,-11.41 29.92,-26.02 -0.68,-9.35 -6.3,-15.77 -15.78,-18.69 10.99,-4.53 16.72,-12.67 15.93,-23.31" /><path
         id="path118"
         style="fill:#ffffff;fill-opacity:1;fill-rule:nonzero;stroke:none"
         d="m 4735.03,1689.57 c 0.71,9.86 -6.81,19.81 -22.31,20.95 -12.94,0.94 -22.46,-5.97 -23.33,-17.88 -0.86,-11.79 7.3,-19.99 21.14,-21 13.71,-1 23.68,6.78 24.5,17.93 z m 11.39,-18.74 c -2.23,-30.49 -20.04,-45.18 -44.39,-43.4 -8.07,0.59 -15.53,2.56 -20.92,6.43 l 4.26,7.16 c 4.4,-3.42 10.45,-5.01 17.12,-5.5 19.35,-1.41 32.69,10.11 34.45,34.45 0.16,2.06 0.22,4.63 0.15,7.33 -5.2,-9.54 -16.1,-14.27 -28.53,-13.37 -17.82,1.29 -29.49,12.71 -28.29,29.11 1.23,16.78 15.21,26.59 32.63,25.32 23.84,-1.73 35.58,-19.21 33.52,-47.53" /><path
         id="path120"
         style="fill:#ffffff;fill-opacity:1;fill-rule:nonzero;stroke:none"
         d="m 4840.6,1708.29 -6.54,-89.71 -9.22,0.68 5.93,81.5 -21.14,1.54 0.61,8.2 30.36,-2.21" /><path
         id="path122"
         style="fill:#ffffff;fill-opacity:1;fill-rule:nonzero;stroke:none"
         d="m 4926.92,1620.07 -0.6,-8.2 -62.92,4.59 0.48,6.53 39.95,33.81 c 10.85,9.24 13.21,15.13 13.65,21.29 0.76,10.37 -6.07,17.31 -19.78,18.31 -10.51,0.77 -18.82,-1.85 -25.21,-8.21 l -6.12,6.11 c 7.51,7.69 19,11.5 32.71,10.5 18.2,-1.32 29.06,-11.39 27.97,-26.38 -0.62,-8.59 -3.88,-16.08 -16.79,-26.99 l -32.68,-27.77 49.34,-3.59" /><path
         id="path124"
         style="fill:#ffffff;fill-opacity:1;fill-rule:nonzero;stroke:none"
         d="m 5008.67,1631.77 c -1.09,-15 -12.83,-25.74 -34.48,-24.16 -12.95,0.93 -25.05,6.34 -31.45,13.88 l 5.02,6.98 c 5.32,-6.45 15.39,-11.56 27.05,-12.41 14.86,-1.07 23.56,5.25 24.38,16.39 0.78,10.76 -6.27,18.36 -22.93,19.57 l -6.41,0.47 0.5,6.8 27.13,29.32 -45.88,3.35 0.61,8.2 57.66,-4.2 -0.47,-6.54 -27.71,-30.05 c 19.15,-2.43 28.03,-13.26 26.98,-27.6" /><path
         id="path126"
         style="fill:#ffffff;fill-opacity:1;fill-rule:nonzero;stroke:none"
         d="m 4312.53,1589.71 -2.83,-38.96 718.59,-52.35 2.83,38.95 -718.59,52.36" /><path
         id="path128"
         style="fill:#ffffff;fill-opacity:1;fill-rule:nonzero;stroke:none"
         d="m 4656.91,1486.42 -2.84,-38.96 368.56,-26.85 2.85,38.96 -368.57,26.85" /><path
         id="path130"
         style="fill:#7e1c2c;fill-opacity:1;fill-rule:nonzero;stroke:none"
         d="m 3865.58,1857.07 c -1.21,0 -2.43,0.05 -3.66,0.14 l -61.2,4.46 0.96,226.37 76.65,-5.59 c 27.34,-1.99 47.88,-25.77 45.89,-53.1 l -9.18,-126.23 c -1.89,-26.12 -23.68,-46.05 -49.46,-46.05" /><path
         id="path132"
         style="fill:#f03d5f;fill-opacity:1;fill-rule:nonzero;stroke:none"
         d="m 3614.43,1937.92 1.07,14.45 155.24,-11.32 c 17.9,-1.28 33.55,12.22 34.87,30.15 1.3,17.91 -12.42,33.76 -30.13,34.84 l -155.25,11.32 1.06,14.45 155.23,-11.32 c 25.88,-1.89 45.41,-24.46 43.54,-50.34 -1.89,-25.89 -24.49,-45.42 -50.37,-43.54 l -155.26,11.31" /><path
         id="path134"
         style="fill:#f03d5f;fill-opacity:1;fill-rule:nonzero;stroke:none"
         d="m 3812.3,1963.44 1.06,14.45 106.56,-7.76 -1.06,-14.46 -106.56,7.77" /><path
         id="path136"
         style="fill:#ffffff;fill-opacity:1;fill-rule:nonzero;stroke:none"
         d="m 4446.01,2160.49 -775.43,56.52 4.84,66.55 775.44,-56.52 -4.85,-66.55" /><path
         id="path138"
         style="fill:#fafaf9;fill-opacity:1;fill-rule:nonzero;stroke:none"
         d="m 2498.99,3163.34 v 991.98 l 68,-54.93 55.53,54.93 58.79,-48.39 55.53,48.39 55.52,-51.66 66.96,51.66 48.99,-48.39 53.9,48.39 53.88,-53.29 65.33,53.29 55.52,-51.66 58.8,51.66 62.05,-53.29 55.53,53.29 53.9,-46.75 58.79,46.75 62.06,-46.75 53.88,46.75 V 3163.34 H 2498.99" /><path
         id="path140"
         style="fill:#17282f;fill-opacity:1;fill-rule:nonzero;stroke:none"
         d="m 2498.99,3163.34 c 0,0 6.63,0.17 19.25,0.25 12.71,0.06 31.38,0.14 55.72,0.26 48.8,0.13 120.25,0.33 211.35,0.57 182.05,0.27 442.51,0.66 756.64,1.14 l -2.2,-2.21 c -0.11,287.95 -0.25,627.39 -0.39,991.97 l 4.29,-1.96 c -16.97,-14.73 -35.39,-30.71 -53.88,-46.76 l -1.59,-1.38 -1.68,1.26 c -19.61,14.79 -40.8,30.74 -62.06,46.76 l 3.19,0.04 c -5.45,-4.33 -11.37,-9.04 -17.3,-13.75 -13.93,-11.08 -27.82,-22.13 -41.49,-33 l -1.7,-1.35 -1.63,1.42 c -18.17,15.76 -36.08,31.29 -53.89,46.76 l 3.5,0.08 c -18.62,-17.86 -37.12,-35.62 -55.53,-53.28 l -1.7,-1.63 -1.79,1.53 c -20.81,17.88 -41.49,35.64 -62.05,53.3 l 3.39,0.02 c -19.73,-17.33 -39.32,-34.54 -58.8,-51.65 l -1.74,-1.53 -1.7,1.58 c -18.66,17.36 -37.14,34.57 -55.52,51.67 l 3.36,-0.11 c -21.99,-17.93 -43.75,-35.67 -65.34,-53.27 l -1.76,-1.44 -1.62,1.6 c -18.11,17.91 -36.07,35.68 -53.88,53.31 l 3.44,-0.09 c -18.14,-16.27 -36.1,-32.38 -53.91,-48.37 l -1.74,-1.56 -1.67,1.65 c -16.51,16.33 -32.81,32.43 -48.97,48.4 l 3.23,-0.19 c -22.63,-17.44 -44.93,-34.63 -66.98,-51.63 l -1.63,-1.25 -1.5,1.39 c -18.82,17.54 -37.25,34.7 -55.49,51.69 l 3.17,-0.05 c -18.9,-16.46 -37.32,-32.5 -55.54,-48.36 l -1.5,-1.3 -1.52,1.26 c -20.07,16.53 -39.54,32.58 -58.76,48.42 l 3.06,0.14 c -19.05,-18.81 -37.43,-36.97 -55.56,-54.88 l -1.43,-1.41 -1.55,1.26 c -23.39,18.91 -45.86,37.09 -67.97,54.97 l 3.54,1.69 c -0.47,-298.75 -0.85,-546.47 -1.12,-719.62 -0.24,-86.65 -0.43,-154.61 -0.57,-201.04 -0.1,-23.14 -0.19,-40.89 -0.24,-52.99 -0.08,-12.01 -0.24,-18.33 -0.24,-18.33 0,0 -0.16,6 -0.24,17.86 -0.06,12 -0.14,29.62 -0.25,52.59 -0.13,46.31 -0.32,114.1 -0.56,200.54 -0.27,173.48 -0.66,421.67 -1.13,720.99 v 4.55 l 3.54,-2.86 c 22.14,-17.85 44.64,-35.99 68.05,-54.87 l -2.98,-0.15 c 18.11,17.94 36.47,36.12 55.49,54.96 l 1.46,1.45 1.61,-1.31 c 19.24,-15.82 38.73,-31.84 58.81,-48.36 l -3.01,-0.04 c 18.2,15.88 36.6,31.94 55.49,48.42 l 1.62,1.41 1.57,-1.46 c 18.25,-16.97 36.7,-34.11 55.54,-51.63 l -3.12,0.15 c 22.05,17.02 44.33,34.22 66.94,51.68 l 1.7,1.31 1.53,-1.5 c 16.17,-15.96 32.47,-32.05 49.01,-48.37 l -3.41,0.08 c 17.8,15.99 35.75,32.12 53.88,48.4 l 1.76,1.59 1.68,-1.67 c 17.82,-17.61 35.79,-35.37 53.9,-53.27 l -3.38,0.17 c 21.59,17.61 43.34,35.36 65.32,53.3 l 1.72,1.41 1.63,-1.52 c 18.37,-17.09 36.88,-34.3 55.53,-51.64 l -3.44,0.05 c 19.47,17.1 39.06,34.32 58.78,51.66 l 1.69,1.48 1.7,-1.46 c 20.56,-17.65 41.24,-35.41 62.06,-53.28 l -3.47,-0.1 c 18.4,17.66 36.89,35.42 55.51,53.3 l 1.71,1.64 1.8,-1.55 c 17.82,-15.47 35.73,-31 53.89,-46.76 l -3.32,0.07 c 13.67,10.88 27.56,21.92 41.49,33.01 5.93,4.71 11.85,9.41 17.3,13.75 l 1.58,1.25 1.6,-1.21 c 21.27,-16.02 42.44,-31.98 62.06,-46.76 l -3.27,-0.11 c 18.49,16.04 36.91,32.02 53.89,46.75 l 4.3,3.73 v -5.69 c -0.14,-364.58 -0.27,-704.02 -0.39,-991.97 v -2.21 h -2.21 c -314.71,0.47 -575.65,0.86 -758.04,1.14 -90.88,0.24 -162.17,0.43 -210.86,0.57 -24.15,0.11 -42.67,0.19 -55.29,0.25 -12.47,0.08 -18.77,0.24 -18.77,0.24" /><path
         id="path142"
         style="fill:#17282f;fill-opacity:1;fill-rule:nonzero;stroke:none"
         d="m 3041.55,3752.69 c 0,-1.44 -97.21,-2.6 -217.11,-2.6 -119.94,0 -217.13,1.16 -217.13,2.6 0,1.44 97.19,2.6 217.13,2.6 119.9,0 217.11,-1.16 217.11,-2.6" /><path
         id="path144"
         style="fill:#17282f;fill-opacity:1;fill-rule:nonzero;stroke:none"
         d="m 3041.55,3639.51 c 0,-1.44 -97.21,-2.6 -217.11,-2.6 -119.94,0 -217.13,1.16 -217.13,2.6 0,1.44 97.19,2.6 217.13,2.6 119.9,0 217.11,-1.16 217.11,-2.6" /><path
         id="path146"
         style="fill:#17282f;fill-opacity:1;fill-rule:nonzero;stroke:none"
         d="m 3041.55,3526.33 c 0,-1.44 -97.21,-2.6 -217.11,-2.6 -119.94,0 -217.13,1.16 -217.13,2.6 0,1.44 97.19,2.61 217.13,2.61 119.9,0 217.11,-1.17 217.11,-2.61" /><path
         id="path148"
         style="fill:#17282f;fill-opacity:1;fill-rule:nonzero;stroke:none"
         d="m 3041.55,3413.15 c 0,-1.44 -97.21,-2.6 -217.11,-2.6 -119.94,0 -217.13,1.16 -217.13,2.6 0,1.44 97.19,2.61 217.13,2.61 119.9,0 217.11,-1.17 217.11,-2.61" /><path
         id="path150"
         style="fill:#17282f;fill-opacity:1;fill-rule:nonzero;stroke:none"
         d="m 3399.57,3755 c 0,-1.44 -33.61,-2.6 -75.07,-2.6 -41.46,0 -75.07,1.16 -75.07,2.6 0,1.44 33.61,2.6 75.07,2.6 41.46,0 75.07,-1.16 75.07,-2.6" /><path
         id="path152"
         style="fill:#17282f;fill-opacity:1;fill-rule:nonzero;stroke:none"
         d="m 3399.57,3639.51 c 0,-1.44 -33.61,-2.6 -75.07,-2.6 -41.46,0 -75.07,1.16 -75.07,2.6 0,1.44 33.61,2.6 75.07,2.6 41.46,0 75.07,-1.16 75.07,-2.6" /><path
         id="path154"
         style="fill:#17282f;fill-opacity:1;fill-rule:nonzero;stroke:none"
         d="m 3399.57,3524.02 c 0,-1.44 -33.61,-2.6 -75.07,-2.6 -41.46,0 -75.07,1.16 -75.07,2.6 0,1.44 33.61,2.61 75.07,2.61 41.46,0 75.07,-1.17 75.07,-2.61" /><path
         id="path156"
         style="fill:#17282f;fill-opacity:1;fill-rule:nonzero;stroke:none"
         d="m 3399.57,3408.53 c 0,-1.44 -33.61,-2.6 -75.07,-2.6 -41.46,0 -75.07,1.16 -75.07,2.6 0,1.44 33.61,2.6 75.07,2.6 41.46,0 75.07,-1.16 75.07,-2.6" /><path
         id="path158"
         style="fill:#e7e8e5;fill-opacity:1;fill-rule:nonzero;stroke:none"
         d="m 2499.73,3296.69 v 31.33 l 1039.89,47.27 v -83.41 l -1039.89,4.81" /><path
         id="path160"
         style="fill:#17282f;fill-opacity:1;fill-rule:nonzero;stroke:none"
         d="M 3549.83,0 2434.6,5.16016 C 2300.46,5.76953 2192.22,114.98 2192.78,249.109 l 11.83,2795.901 c 0.56,134.21 109.84,242.53 244.05,241.92 l 1115.23,-5.16 c 134.13,-0.62 242.37,-109.83 241.8,-243.96 L 3793.88,241.91 C 3793.31,107.699 3684.02,-0.621094 3549.83,0" /><path
         id="path162"
         style="fill:#fafaf9;fill-opacity:1;fill-rule:nonzero;stroke:none"
         d="m 3562.29,3185.28 -216.22,0.99 c -28.99,0.14 -52.61,-24.34 -52.73,-54.64 l -0.17,-39.22 c -0.12,-30.32 -23.75,-54.78 -52.73,-54.65 l -421.47,1.95 c -28.99,0.13 -52.4,24.82 -52.28,55.13 l 0.18,39.22 c 0.12,30.32 -23.29,55 -52.28,55.13 l -76.05,0.36 -189.25,0.86 c -93.98,0.44 -170.52,-75.42 -170.92,-169.41 L 2266.84,291.992 c -0.4,-93.941 75.41,-170.433 169.35,-170.863 l 1113,-5.129 c 93.98,-0.441 170.52,75.422 170.92,169.41 l 11.53,2729.01 c 0.4,93.94 -75.41,170.42 -169.35,170.86" /><path
         id="path164"
         style="fill:#33535f;fill-opacity:1;fill-rule:nonzero;stroke:none"
         d="m 2932.4,377.27 c -0.05,-10.899 -10.37,-19.68 -23.04,-19.618 -12.69,0.059 -22.92,8.93 -22.88,19.828 0.04,10.891 10.36,19.692 23.04,19.622 12.68,-0.051 22.92,-8.942 22.88,-19.832" /><path
         id="path166"
         style="fill:#33535f;fill-opacity:1;fill-rule:nonzero;stroke:none"
         d="m 3003.57,376.941 c -0.05,-10.89 -10.38,-19.671 -23.05,-19.632 -12.69,0.062 -22.93,8.941 -22.88,19.851 0.04,10.891 10.36,19.68 23.04,19.621 12.68,-0.062 22.92,-8.941 22.89,-19.84" /><path
         id="path168"
         style="fill:#33535f;fill-opacity:1;fill-rule:nonzero;stroke:none"
         d="m 3074.72,376.609 c -0.05,-10.89 -10.37,-19.679 -23.05,-19.617 -12.68,0.059 -22.93,8.938 -22.88,19.84 0.05,10.887 10.36,19.668 23.05,19.629 12.67,-0.059 22.93,-8.941 22.88,-19.852" /><path
         id="path170"
         style="fill:#33535f;fill-opacity:1;fill-rule:nonzero;stroke:none"
         d="m 3454.4,1530.64 h -911.19 c -48.36,0 -87.56,39.2 -87.56,87.56 v 945.68 c 0,48.36 39.2,87.57 87.56,87.57 h 911.19 c 48.35,0 87.55,-39.21 87.55,-87.57 V 1618.2 c 0,-48.36 -39.2,-87.56 -87.55,-87.56" /><path
         id="path172"
         style="fill:#33535f;fill-opacity:1;fill-rule:nonzero;stroke:none"
         d="m 3454.4,1530.64 v 5 h -911.19 c -22.82,0.01 -43.43,9.24 -58.38,24.19 -14.95,14.95 -24.18,35.56 -24.18,58.37 v 945.68 c 0,22.82 9.23,43.43 24.18,58.38 14.95,14.95 35.56,24.18 58.38,24.19 h 911.19 c 22.81,-0.01 43.42,-9.24 58.37,-24.19 14.95,-14.95 24.18,-35.56 24.18,-58.38 V 1618.2 c 0,-22.81 -9.23,-43.42 -24.18,-58.37 -14.95,-14.95 -35.56,-24.18 -58.37,-24.19 v -5 -4.99 c 51.12,0 92.55,41.43 92.55,92.55 v 945.68 c 0,51.12 -41.43,92.56 -92.55,92.57 h -911.19 c -51.12,-0.01 -92.56,-41.45 -92.56,-92.57 V 1618.2 c 0,-51.12 41.44,-92.55 92.56,-92.55 h 911.19 v 4.99" /><g
         transform="scale(10)"
         id="g174"><text
           id="text178"
           style="font-variant:normal;font-weight:bold;font-size:15.51879978px;font-family:Montserrat;-inkscape-font-specification:Montserrat-Bold;writing-mode:lr-tb;fill:#040606;fill-opacity:1;fill-rule:nonzero;stroke:none"
           transform="matrix(1,0,0,-1,318.904,126.333)"><tspan
             id="tspan176"
             y="0"
             x="0 6.4247832">10</tspan></text>
</g><g
         transform="scale(10)"
         id="g180"><text
           id="text184"
           style="font-variant:normal;font-weight:bold;font-size:6.31230021px;font-family:Montserrat;-inkscape-font-specification:Montserrat-Bold;writing-mode:lr-tb;fill:#17282f;fill-opacity:1;fill-rule:nonzero;stroke:none"
           transform="matrix(1,0,0,-1,338.059,132.511)"><tspan
             id="tspan182"
             y="0"
             x="0 4.0146227">99</tspan></text>
</g><path
         id="path186"
         style="fill:#17282f;fill-opacity:1;fill-rule:nonzero;stroke:none"
         d="m 3458.19,1299.4 h -77.6 v 9.85 h 77.6 v -9.85" /><path
         id="path188"
         style="fill:#17282f;fill-opacity:1;fill-rule:nonzero;stroke:none"
         d="m 2921.31,1327.71 h -400.5 v 12.42 h 400.5 v -12.42" /><path
         id="path190"
         style="fill:#17282f;fill-opacity:1;fill-rule:nonzero;stroke:none"
         d="m 2763.91,1288.01 h -243.1 v 12.43 h 243.1 v -12.43" /><path
         id="path192"
         style="fill:#f03d5f;fill-opacity:1;fill-rule:nonzero;stroke:none"
         d="m 3382.45,720.449 -800.64,3.692 c -8.28,0.039 -14.97,9.058 -14.92,20.16 l 0.89,209.449 c 0.04,11.09 6.8,20.051 15.09,20.02 l 800.64,-3.7 c 8.28,-0.039 14.97,-9.058 14.92,-20.16 l -0.89,-209.441 c -0.04,-11.098 -6.8,-20.071 -15.09,-20.02" /><path
         id="path194"
         style="fill:#7e1c2c;fill-opacity:1;fill-rule:nonzero;stroke:none"
         d="m 3382.52,720.449 c -0.03,0 -0.05,0 -0.07,0 l -800.64,3.692 c -8.25,0.039 -14.92,8.988 -14.92,20.031 0,0.039 0,0.078 0,0.129 l 0.89,209.449 c 0.04,11.082 6.78,20.02 15.05,20.02 0.02,0 0.03,0 0.04,0 l 800.64,-3.7 c 8.24,-0.039 14.92,-8.988 14.92,-20.031 0,-0.039 0,-0.078 0,-0.129 l -0.89,-209.441 c -0.04,-11.071 -6.76,-20.02 -15.02,-20.02" /><path
         id="path196"
         style="fill:#f03d5f;fill-opacity:1;fill-rule:nonzero;stroke:none"
         d="m 3382.45,787.57 -800.64,3.692 c -8.28,0.039 -14.97,9.058 -14.92,20.16 l 0.89,209.448 c 0.04,11.1 6.8,20.06 15.09,20.02 l 800.64,-3.7 c 8.28,-0.04 14.97,-9.06 14.92,-20.16 l -0.89,-209.44 c -0.04,-11.098 -6.8,-20.059 -15.09,-20.02" /><path
         id="path198"
         style="fill:#ffffff;fill-opacity:1;fill-rule:nonzero;stroke:none"
         d="m 2940.11,929.352 c 0.04,10.027 -6.29,15.789 -18.29,15.847 l -15.95,0.063 -0.14,-31.34 15.96,-0.07 c 12,-0.063 18.38,5.64 18.42,15.5 z m 6.35,-0.032 c -0.06,-13.351 -9.36,-21.371 -24.62,-21.3 l -16.13,0.082 -0.07,-19.801 -6.35,0.031 0.25,62.699 22.48,-0.109 c 15.26,-0.07 24.48,-8.172 24.44,-21.602" /><path
         id="path200"
         style="fill:#ffffff;fill-opacity:1;fill-rule:nonzero;stroke:none"
         d="m 2992.41,910.02 -14.25,33.75 -14.56,-33.61 z m 2.3,-5.379 -33.45,0.16 -7.26,-16.719 -6.61,0.027 27.7,62.563 6.27,-0.031 27.17,-62.821 -6.68,0.039 -7.14,16.782" /><path
         id="path202"
         style="fill:#ffffff;fill-opacity:1;fill-rule:nonzero;stroke:none"
         d="m 3035.64,909.379 -0.1,-21.668 -6.25,0.019 0.09,21.68 -23.84,41.129 6.78,-0.027 20.43,-35.293 20.72,35.09 6.35,-0.028 -24.18,-40.902" /><path
         id="path204"
         style="fill:#ffffff;fill-opacity:1;fill-rule:nonzero;stroke:none"
         d="m 3167.25,1910.4 c 0,-0.17 -2.42,-0.33 -7.03,-0.49 -5.09,-0.11 -11.82,-0.27 -20.25,-0.46 -18.14,-0.19 -43.57,-0.47 -74.95,-0.8 -64.04,-0.21 -152.29,-0.51 -251.6,-0.84 l -2.25,-0.01 -0.31,2.25 c -1.86,13.3 -3.84,27.4 -5.84,41.68 -17.08,122.28 -31.97,231.54 -41.25,302.16 l 1.63,-1.42 c -28.28,0.32 -50.9,0.58 -67.01,0.76 -7.41,0.18 -13.32,0.32 -17.83,0.43 -4.05,0.15 -6.15,0.31 -6.15,0.46 0,0.16 2.1,0.31 6.15,0.46 4.51,0.11 10.42,0.25 17.83,0.43 16.11,0.19 38.73,0.44 67.01,0.76 l 1.42,0.02 0.22,-1.44 c 10.43,-70.46 26.05,-179.61 43.14,-301.91 1.99,-14.28 3.95,-28.37 5.81,-41.68 l -2.57,2.23 c 99.31,-0.33 187.56,-0.63 251.6,-0.84 31.38,-0.33 56.81,-0.61 74.95,-0.79 8.43,-0.2 15.16,-0.35 20.25,-0.46 4.61,-0.17 7.03,-0.33 7.03,-0.5" /><path
         id="path206"
         style="fill:#ffffff;fill-opacity:1;fill-rule:nonzero;stroke:none"
         d="m 2803.18,1983.69 c 0,0.16 2.4,0.29 7,0.44 4.99,0.1 11.72,0.24 20.24,0.41 18.08,0.18 43.71,0.42 75.72,0.72 65.05,0.24 155.93,0.56 261.11,0.93 l -2.45,-2.06 c 7.73,43.96 16.09,91.48 24.74,140.67 4.48,25.3 8.89,50.15 13.09,73.85 l 2.53,-3.02 c -122.15,0.34 -229.97,0.64 -307.76,0.86 -38.37,0.33 -69.31,0.6 -91.11,0.78 -10.38,0.19 -18.56,0.34 -24.56,0.45 -2.55,0.1 -4.64,0.18 -6.35,0.24 -1.43,0.08 -2.17,0.16 -2.17,0.24 0,0.08 0.74,0.16 2.17,0.24 1.71,0.07 3.8,0.14 6.35,0.24 6,0.11 14.18,0.26 24.56,0.45 21.8,0.18 52.74,0.45 91.11,0.78 77.79,0.22 185.61,0.52 307.76,0.87 l 3.07,0.01 -0.53,-3.04 c -4.18,-23.7 -8.57,-48.56 -13.03,-73.85 -8.72,-49.18 -17.16,-96.69 -24.96,-140.64 l -0.36,-2.07 -2.1,0.01 c -105.18,0.37 -196.06,0.69 -261.11,0.92 -32.01,0.31 -57.64,0.56 -75.72,0.73 -8.52,0.18 -15.25,0.31 -20.24,0.41 -4.6,0.14 -7,0.29 -7,0.43" /><path
         id="path208"
         style="fill:#ffffff;fill-opacity:1;fill-rule:nonzero;stroke:none"
         d="m 2901.88,1814.37 c -0.47,-0.02 -0.51,3.14 -2.09,8.38 -1.56,5.15 -5.21,12.61 -13,18.28 -7.53,5.68 -19.78,8.77 -31.53,4.31 -11.66,-4.1 -21.67,-16.51 -21.54,-30.97 -0.14,-14.47 9.88,-26.89 21.54,-30.98 11.76,-4.45 24,-1.37 31.53,4.32 7.79,5.66 11.44,13.11 13,18.27 1.58,5.23 1.62,8.4 2.09,8.39 0.24,0.01 0.91,-3.18 -0.12,-8.89 -1.04,-5.6 -4.41,-14.01 -12.74,-20.7 -8.04,-6.7 -21.8,-10.75 -35.4,-5.9 -13.46,4.39 -25.27,18.7 -25.11,35.49 -0.16,16.78 11.65,31.08 25.11,35.48 13.6,4.84 27.36,0.79 35.4,-5.89 8.33,-6.69 11.7,-15.11 12.74,-20.71 1.03,-5.72 0.36,-8.9 0.12,-8.88" /><path
         id="path210"
         style="fill:#ffffff;fill-opacity:1;fill-rule:nonzero;stroke:none"
         d="m 3129.59,1814.37 c -0.46,-0.02 -0.51,3.14 -2.08,8.38 -1.56,5.15 -5.21,12.61 -13.01,18.28 -7.53,5.68 -19.76,8.77 -31.52,4.31 -11.66,-4.1 -21.67,-16.51 -21.54,-30.97 -0.14,-14.47 9.88,-26.89 21.54,-30.98 11.76,-4.45 23.99,-1.37 31.52,4.32 7.8,5.66 11.45,13.11 13.01,18.27 1.57,5.23 1.62,8.4 2.08,8.39 0.24,0.01 0.92,-3.18 -0.12,-8.89 -1.03,-5.6 -4.39,-14.01 -12.73,-20.7 -8.05,-6.7 -21.81,-10.75 -35.4,-5.9 -13.47,4.39 -25.27,18.7 -25.12,35.49 -0.15,16.78 11.65,31.08 25.12,35.48 13.59,4.84 27.35,0.79 35.4,-5.89 8.33,-6.69 11.7,-15.11 12.73,-20.71 1.04,-5.72 0.36,-8.9 0.12,-8.88" /><path
         id="path212"
         style="fill:#f03d5f;fill-opacity:1;fill-rule:nonzero;stroke:none"
         d="m 3286.78,2233.99 c 0,-55.76 -45.21,-100.96 -100.97,-100.96 -55.76,0 -100.97,45.2 -100.97,100.96 0,55.77 45.21,100.97 100.97,100.97 55.76,0 100.97,-45.2 100.97,-100.97" /><path
         id="path214"
         style="fill:#17282f;fill-opacity:1;fill-rule:nonzero;stroke:none"
         d="m 3236.37,2260.58 c 1.04,-0.99 -19.98,-24.92 -46.96,-53.45 -5.03,-5.26 -9.89,-10.33 -14.47,-15.13 l -1.67,-1.75 -1.77,1.58 c -21.77,19.34 -37.01,33.89 -36.25,34.77 0.78,0.88 17.31,-12.17 39.51,-31.01 l -3.44,-0.17 c 4.54,4.85 9.34,9.98 14.31,15.29 26.97,28.53 49.69,50.86 50.74,49.87" /><path
         id="path216"
         style="fill:#33535f;fill-opacity:1;fill-rule:nonzero;stroke:none"
         d="m 2140.57,2993.23 c -1.25,-3.49 -31.59,-281.07 -31.59,-281.07 l 117.13,20.59 30.24,229.34 -115.78,31.14" /><path
         id="path218"
         style="fill:#17282f;fill-opacity:1;fill-rule:nonzero;stroke:none"
         d="m 2108.98,2712.16 -8.76,5.18 26.57,279.73 13.38,-3.79 -31.19,-281.12" /><path
         id="path220"
         style="fill:#17282f;fill-opacity:1;fill-rule:nonzero;stroke:none"
         d="m 2191.17,2950.56 c 0,-2.98 2.41,-5.38 5.38,-5.38 2.97,0 5.38,2.4 5.38,5.38 0,2.97 -2.41,5.37 -5.38,5.37 -2.97,0 -5.38,-2.4 -5.38,-5.37" /><path
         id="path222"
         style="fill:#dd6558;fill-opacity:1;fill-rule:nonzero;stroke:none"
         d="m 2038.67,2562.4 224.62,-58.34 -34.3,279.08 -4.56,12.7 -82.34,12.71 9.85,60.75 c 5.08,28.44 33.38,46.47 61.31,39.05 8.99,-2.38 18.46,-4.89 27.01,-7.17 19.25,-5.12 35.48,-18.09 44.54,-35.83 15.62,-30.6 30.85,-64.03 29.4,-61.16 h -0.01 0.01 l 120.46,-326.71 c 0,0 37.21,-66.1 -13.33,-131.72 -38.84,-50.42 -132.58,-15.33 -176.7,-6.8 l -287.73,63.36 81.77,160.08" /><path
         id="path224"
         style="fill:#dd6558;fill-opacity:1;fill-rule:nonzero;stroke:none"
         d="m 1186.02,2077.65 c -50.56,58.12 -50.26,144.72 0.69,202.5 l 245.57,278.45 65.72,-183.73 c -4.48,-2.99 -191.19,-203.14 -191.19,-203.14 l 160.45,-199.96 c 24.71,-30.8 31.91,-72.13 19.05,-109.47 l -7.24,-29.42 c -10.55,-42.91 -57.4,-65.76 -97.71,-47.67 l -45.11,20.23 c -5.35,2.4 -7.29,9 -4.1,13.93 1.77,2.7 4.78,4.33 8.01,4.33 h 61.17 c 12.78,0 23.92,8.72 26.99,21.12 l -242.3,232.83" /><path
         id="path226"
         style="fill:#ab413a;fill-opacity:1;fill-rule:nonzero;stroke:none"
         d="m 1272.34,2207.4 c 1.04,0.89 10.41,-7.36 21.49,-18.31 11.11,-10.97 18.34,-21.67 17.15,-22.56 -1.12,-0.84 -9.84,8.02 -20.85,18.9 -11.02,10.89 -18.93,20.98 -17.79,21.97" /><path
         id="path228"
         style="fill:#dd6558;fill-opacity:1;fill-rule:nonzero;stroke:none"
         d="m 1330.64,162.539 c 0,0 252.2,801 257.54,827 4.84,23.501 -91.52,599.921 -103.66,749.101 l 340.76,-12.69 c 0,0 0.01,-0.92 0.03,-2.49 l 144.85,-8.04 L 1840.43,77.2617 H 1683.61 L 1699.17,620.75 C 1602.47,361.152 1463.9,96.6016 1463.9,96.6016 l -133.26,65.9374" /><path
         id="path230"
         style="fill:#ab413a;fill-opacity:1;fill-rule:nonzero;stroke:none"
         d="m 1692.76,425.961 c -0.14,4.969 1.9,182.098 1.9,182.098 0,0 69.23,197 70.6,191.961 1.38,-5.04 -72.5,-374.059 -72.5,-374.059" /><path
         id="path232"
         style="fill:#17282f;fill-opacity:1;fill-rule:nonzero;stroke:none"
         d="m 1567.92,2973.03 c -18.09,25.05 -59.1,23.35 -82.18,2.81 -23.08,-20.54 -31.18,-53.33 -32.03,-84.22 -0.79,-28.7 1.21,-62.89 -21.96,-79.83 -9.34,-6.83 -21.18,-9.23 -31.33,-14.79 -17.8,-9.75 -29.43,-29.82 -29.05,-50.12 0.29,-15.29 6.18,-32.84 -3.84,-44.4 -5.05,-5.82 -12.88,-8.22 -19.48,-12.2 -18.44,-11.13 -26.3,-34.7 -24.7,-56.18 1.6,-21.47 5.05,-28.77 14.25,-48.25 0,0 161.81,1.63 235.42,0 0,0 -1.31,259.37 -5.1,387.18" /><path
         id="path234"
         style="fill:#dd6558;fill-opacity:1;fill-rule:nonzero;stroke:none"
         d="m 1830.29,2639.84 c -0.52,18.23 4.93,90.57 4.93,90.57 0,0 67.43,6.61 72.23,75.11 4.81,68.52 2.37,226.65 2.37,226.65 l -122.04,62.83 -136.05,-103.51 13.53,-352.34 165.03,0.69" /><path
         id="path236"
         style="fill:#17282f;fill-opacity:1;fill-rule:nonzero;stroke:none"
         d="m 1895.22,2917.08 c -0.05,-4.85 -3.93,-8.74 -8.65,-8.69 -4.71,0.06 -8.51,4.02 -8.45,8.87 0.04,4.84 3.92,8.73 8.63,8.68 4.73,-0.05 8.51,-4.02 8.47,-8.86" /><path
         id="path238"
         style="fill:#17282f;fill-opacity:1;fill-rule:nonzero;stroke:none"
         d="m 1903.59,2926.55 c -1.11,-1.12 -7.37,4.46 -16.57,5.06 -9.19,0.74 -16.16,-3.87 -17.11,-2.6 -0.46,0.57 0.71,2.66 3.75,4.74 3,2.09 8.03,3.97 13.76,3.56 5.73,-0.43 10.45,-3.01 13.12,-5.51 2.73,-2.52 3.59,-4.75 3.05,-5.25" /><path
         id="path240"
         style="fill:#17282f;fill-opacity:1;fill-rule:nonzero;stroke:none"
         d="m 1796.14,2918.11 c -0.05,-4.85 -3.92,-8.73 -8.64,-8.68 -4.72,0.05 -8.5,4.01 -8.46,8.86 0.06,4.84 3.92,8.74 8.64,8.69 4.73,-0.05 8.52,-4.02 8.46,-8.87" /><path
         id="path242"
         style="fill:#17282f;fill-opacity:1;fill-rule:nonzero;stroke:none"
         d="m 1801.56,2927.62 c -1.11,-1.13 -7.38,4.45 -16.57,5.05 -9.19,0.74 -16.16,-3.87 -17.11,-2.59 -0.46,0.56 0.7,2.65 3.75,4.74 2.99,2.09 8.02,3.97 13.76,3.56 5.72,-0.43 10.45,-3.01 13.12,-5.52 2.72,-2.52 3.59,-4.74 3.05,-5.24" /><path
         id="path244"
         style="fill:#17282f;fill-opacity:1;fill-rule:nonzero;stroke:none"
         d="m 1833.93,2847.49 c -0.02,0.56 5.75,1.23 15.07,1.87 2.36,0.09 4.6,0.44 5.08,2.13 0.63,1.79 -0.24,4.56 -1.25,7.57 -1.94,6.24 -3.98,12.79 -6.11,19.64 -8.46,27.95 -14.47,50.87 -13.43,51.2 1.05,0.34 8.76,-22.04 17.22,-49.99 2.03,-6.89 3.97,-13.45 5.82,-19.73 0.76,-2.92 2.15,-6.27 0.79,-9.96 -0.72,-1.85 -2.5,-3.09 -4.02,-3.42 -1.53,-0.39 -2.85,-0.33 -4.02,-0.33 -9.35,0.1 -15.14,0.45 -15.15,1.02" /><path
         id="path246"
         style="fill:#ab413a;fill-opacity:1;fill-rule:nonzero;stroke:none"
         d="m 1835.22,2730.41 c 0,0 -44.99,-0.05 -88.18,31.6 0,0 19.53,-50.55 86.54,-48.41 l 1.64,16.81" /><path
         id="path248"
         style="fill:#17282f;fill-opacity:1;fill-rule:nonzero;stroke:none"
         d="m 1555.58,2927.04 c 0.74,4.85 -0.67,-5.28 0.29,2.34 v 0.03 c 1.33,10.59 2.82,21.75 4.42,27.76 37.94,142.59 160.65,167.96 184.87,167.71 25.96,-0.28 100.28,1.91 141.62,-49.88 54.58,-68.36 23.66,-136.06 23.66,-136.06 l -108.26,19.16 c 8.02,26.96 -3,60.65 -9.29,76.37 l -0.62,0.61 c -20.55,-102.42 -130.83,-111.94 -130.83,-111.94 l -1.4,-163.59 c -80.42,11.63 -106.35,108.12 -104.46,167.49" /><path
         id="path250"
         style="fill:#17282f;fill-opacity:1;fill-rule:nonzero;stroke:none"
         d="m 1629.34,2913.22 c 0.08,0.4 3.52,-0.08 9.7,-0.69 6.17,-0.63 15.16,-1.06 26.15,-0.23 10.99,0.81 23.99,3.24 37.64,8.24 13.63,4.97 27.8,12.76 40.58,23.54 12.66,10.93 22.57,23.71 29.62,36.39 7.08,12.7 11.52,25.16 14.04,35.89 5.11,21.54 3.67,35.56 4.71,35.55 0.31,0.02 0.93,-3.41 1.18,-9.72 0.28,-6.3 -0.15,-15.49 -2.3,-26.62 -2.12,-11.12 -6.32,-24.12 -13.42,-37.4 -7.06,-13.26 -17.25,-26.66 -30.45,-38.05 -13.32,-11.24 -28.14,-19.2 -42.35,-24.09 -14.22,-4.94 -27.72,-7.05 -39.03,-7.4 -11.33,-0.38 -20.48,0.63 -26.66,1.9 -6.18,1.24 -9.48,2.39 -9.41,2.69" /><path
         id="path252"
         style="fill:#dd6558;fill-opacity:1;fill-rule:nonzero;stroke:none"
         d="m 1662.7,2847.31 c 0.65,10.28 5.42,34.93 1.98,44.63 -3.44,9.71 -14.22,11.9 -26.1,11.79 -11.84,-0.11 -26.08,-11.02 -25.66,-25.62 0.35,-11.85 4.28,-24.02 14.45,-30.11 10.16,-6.11 23.25,-6.3 34.27,-1.92" /><path
         id="path254"
         style="fill:#ab413a;fill-opacity:1;fill-rule:nonzero;stroke:none"
         d="m 1649.89,2860.82 c -0.36,0.69 -3.37,-0.74 -7.68,0.71 -4.36,1.19 -8.72,6.3 -8.89,13.38 -0.16,3.47 0.68,6.66 2.43,8.17 1.78,1.6 4.58,2 6.79,1.82 4.61,-0.54 7.83,-1.86 8.12,-1.08 0.21,0.51 -2,2.93 -7.48,4.66 -2.73,0.69 -6.71,0.97 -10.42,-1.72 -3.72,-2.87 -4.77,-7.78 -4.59,-12.05 0.16,-4.42 1.71,-8.63 4.29,-11.66 2.53,-3.09 6.07,-4.71 8.95,-5.08 6.08,-0.76 8.97,2.46 8.48,2.85" /><path
         id="path256"
         style="fill:#33535f;fill-opacity:1;fill-rule:nonzero;stroke:none"
         d="m 1621.25,2849.04 c 0.74,-0.4 -2.04,-4.42 -1.23,-11.14 0.42,-3.28 1.89,-7.03 5.08,-9.79 3.1,-2.78 7.84,-4.59 12.52,-3.97 4.68,0.65 8.76,3.65 11.01,7.16 2.34,3.51 2.75,7.52 2.28,10.79 -1.02,6.7 -4.76,9.83 -4.16,10.42 0.17,0.55 5.39,-1.68 7.76,-9.65 1.1,-3.82 1.07,-9.21 -1.77,-14.05 -2.72,-4.76 -7.91,-8.9 -14.42,-9.83 -6.53,-0.85 -12.63,1.77 -16.51,5.63 -4.03,3.91 -5.5,9.09 -5.46,13.07 0.16,8.31 4.59,11.86 4.9,11.36" /><path
         id="path258"
         style="fill:#33535f;fill-opacity:1;fill-rule:nonzero;stroke:none"
         d="m 1571.71,2885.98 c -0.47,-0.37 -4.72,3.71 -9.42,11.93 -4.71,8.15 -9.33,20.71 -10.44,35.2 -1.06,14.49 1.65,27.61 5.08,36.38 3.43,8.82 7.03,13.49 7.54,13.19 1.54,-0.57 -9.78,-21.37 -7.43,-49.18 1.81,-27.84 16.1,-46.74 14.67,-47.52" /><path
         id="path260"
         style="fill:#17282f;fill-opacity:1;fill-rule:nonzero;stroke:none"
         d="m 1299.7,2614.58 c -0.14,-0.08 -1.09,1.43 -2.66,4.47 -1.34,3.13 -3.22,7.9 -4.03,14.41 -0.81,6.48 -0.53,14.66 2.09,23.64 2.67,8.91 7.93,18.72 17.05,26.48 9.01,7.92 22.07,11.46 30.4,21.05 4.07,4.76 5.8,11.21 5.65,18.04 -0.17,6.88 -1.79,14.03 -2.98,21.64 -1.27,7.52 -1.78,16 0.66,24.16 2.43,8.11 7.24,15.42 13.13,21.58 11.79,12.51 27.68,20.58 42.71,29.04 14.94,8.53 29.23,18.61 35.78,33.09 6.57,14.43 5.06,30.73 5.44,45.9 0.16,30.98 12.69,58.45 30.11,74.27 17.6,16.04 37.54,20.25 50.36,20.06 6.53,-0.06 11.51,-1.1 14.8,-1.98 3.27,-0.99 4.91,-1.69 4.86,-1.84 -0.11,-0.58 -6.93,2.18 -19.63,1.79 -12.41,-0.41 -31.44,-5.1 -47.85,-20.71 -16.31,-15.44 -27.94,-41.76 -27.85,-71.67 -0.32,-14.84 1.6,-31.72 -5.6,-47.94 -7.31,-16.21 -22.72,-26.83 -37.81,-35.48 -15.38,-8.62 -30.52,-16.35 -41.63,-28.05 -5.53,-5.73 -9.86,-12.33 -12.05,-19.48 -2.18,-7.17 -1.86,-14.63 -0.68,-22.03 1.08,-7.38 2.7,-14.75 2.81,-22.29 0.13,-7.49 -2.03,-15.37 -6.92,-20.88 -9.98,-10.85 -23.03,-13.85 -31.36,-21.1 -8.6,-7.02 -13.83,-16.13 -16.63,-24.52 -2.75,-8.47 -3.32,-16.29 -2.84,-22.57 1.14,-12.65 5.25,-18.86 4.67,-19.08" /><path
         id="path262"
         style="fill:#ab413a;fill-opacity:1;fill-rule:nonzero;stroke:none"
         d="m 1806.36,2841.81 c 4.66,1.85 10.08,1.96 14.63,-0.14 4.54,-2.11 8.05,-6.55 8.58,-11.54 0.52,-4.98 -2.22,-10.27 -6.79,-12.32 -4.41,-1.98 -9.7,-0.83 -13.89,1.59 -3.97,2.31 -7.43,5.97 -8.31,10.48 -0.88,4.51 1.49,9.77 5.89,11.13" /><path
         id="path264"
         style="fill:#17282f;fill-opacity:1;fill-rule:nonzero;stroke:none"
         d="m 1799.83,2854.62 c 1.43,0.45 4.47,-12.34 16.41,-21.19 11.88,-8.93 25.01,-8.21 24.98,-9.71 0.07,-0.65 -3.1,-1.82 -8.49,-1.6 -5.32,0.18 -12.89,2.12 -19.61,7.14 -6.72,5.01 -10.72,11.72 -12.41,16.77 -1.74,5.1 -1.53,8.48 -0.88,8.59" /><path
         id="path266"
         style="fill:#f03d5f;fill-opacity:1;fill-rule:nonzero;stroke:none"
         d="m 1512.09,2623.99 c -38.91,-9.41 -60.71,-21.9 -118.71,-84.83 l -155.43,-174.55 213.58,-155.28 87.41,118.74 18.54,-260.14 c 0,0 -48.36,-59.38 -91.27,-224.69 -34.71,-133.66 -37.97,-269.63 -47.81,-373.72 l -26.45,-652.829 608.09,-16.57 c 0,0 -22.85,193.32 -11.95,605.219 6.2,234.25 -31.66,468.37 -52.18,533.18 l -31.29,169.54 c 0,0 -2.09,47.17 26.52,87.4 49.39,69.41 14.25,151.38 14.25,151.38 l 162.29,-60.13 107.14,241.67 -221.53,83.5 c -80.24,33.06 -175.34,28.26 -175.34,28.26 l -168.64,1.95 c 0,0 -79.19,6.14 -137.22,-18.1" /><path
         id="path268"
         style="fill:#f03d5f;fill-opacity:1;fill-rule:nonzero;stroke:none"
         d="m 1843.37,69.1719 0.07,14.7304 -160.63,7 -0.44,-60.7421 9.91,-0.6797 c 44.09,-2.5821 224.36,-10.0196 253.86,-1.168 32.91,9.8672 -102.77,40.8594 -102.77,40.8594" /><path
         id="path270"
         style="fill:#f68aa6;fill-opacity:1;fill-rule:nonzero;stroke:none"
         d="m 1682.54,32.4297 v 0 l 0.17,44.6719 c 1.3,0.0976 2.6,0.1484 3.89,0.1484 12.12,0 23.79,-4.3398 33.43,-11.8906 10.19,-7.9571 17.39,-19.6602 19.96,-32.3399 l -57.35,0.6993 -0.09,-1.2891" /><path
         id="path272"
         style="fill:#ffffff;fill-opacity:1;fill-rule:nonzero;stroke:none"
         d="m 1835.44,24.4219 c -17.05,0.0898 -34.75,0.3476 -52.2,0.7695 5.71,0 11.34,0 17.07,-0.0117 11.66,-0.3086 23.5,-0.5703 35.13,-0.7578 m -151.16,5.5703 c -0.64,0.0469 -1.28,0.1094 -1.91,0.168 v 0 l 2.51,-0.168 c -0.17,0 -0.44,0 -0.6,0" /><path
         id="path274"
         style="fill:#849193;fill-opacity:1;fill-rule:nonzero;stroke:none"
         d="m 1800.31,25.1797 c -5.73,0.0117 -11.36,0.0117 -17.07,0.0117 -37.09,0.8906 -73.02,2.5078 -98.96,4.8008 0.16,0 0.43,0 0.6,0 l 7.4,-0.5117 c 18.74,-1.0899 62.11,-3.0703 108.03,-4.3008" /><path
         id="path276"
         style="fill:#ffffff;fill-opacity:1;fill-rule:nonzero;stroke:none"
         d="m 1950.04,30.082 c 1.34,1.0274 1.56,2.1875 0.86,3.4493 0.94,-1.2305 1.16,-2.3907 0.43,-3.4493 -0.44,0 -0.86,0 -1.29,0" /><path
         id="path278"
         style="fill:#849193;fill-opacity:1;fill-rule:nonzero;stroke:none"
         d="m 1944.71,27.9219 c 0.51,0.1289 0.99,0.2578 1.43,0.3906 1.78,0.5273 3.06,1.1289 3.9,1.7695 0.43,0 0.85,0 1.29,0 -0.03,-0.0429 -0.06,-0.0703 -0.08,-0.1132 -0.59,-0.7579 -2.85,-1.4375 -6.54,-2.0469" /><path
         id="path280"
         style="fill:#ffffff;fill-opacity:1;fill-rule:nonzero;stroke:none"
         d="m 1921.55,47.8594 c -3.8,1.2812 -7.8,2.5508 -11.91,3.8125 0.01,0 0.01,0 0.02,0 0,0 5.17,-1.5117 11.89,-3.8125" /><path
         id="path282"
         style="fill:#f68aa6;fill-opacity:1;fill-rule:nonzero;stroke:none"
         d="m 1849.47,24.3789 c -4.61,0 -9.3,0.0117 -14.03,0.043 -11.63,0.1875 -23.47,0.4492 -35.13,0.7578 -45.92,1.2305 -89.29,3.2109 -108.03,4.3008 l -7.4,0.5117 -2.51,0.168 0.18,2.2695 57.77,-1.1992 c -0.1,0.6015 -0.21,1.1992 -0.33,1.789 l 155.47,-1.8906 c 0,0 4.89,20.1524 14.18,20.543 4.11,-1.2617 8.11,-2.5313 11.91,-3.8125 10.82,-3.7071 25.66,-9.4883 29.35,-14.3281 0.7,-1.2618 0.48,-2.4219 -0.86,-3.4493 -0.84,-0.6406 -2.12,-1.2422 -3.9,-1.7695 -0.44,-0.1328 -0.92,-0.2617 -1.43,-0.3906 -14.67,-2.3906 -51.85,-3.543 -95.24,-3.543" /><path
         id="path284"
         style="fill:#fabfcd;fill-opacity:1;fill-rule:nonzero;stroke:none"
         d="m 1740.32,31.2305 -57.78,1.1992 0.1,1.2891 57.35,-0.6993 c 0.12,-0.5898 0.23,-1.1875 0.33,-1.789" /><path
         id="path286"
         style="fill:#17282f;fill-opacity:1;fill-rule:nonzero;stroke:none"
         d="m 1680.13,33.832 c 0,-0.0703 0.95,-0.1718 2.75,-0.3007 2.37,-0.1602 4.96,-0.3321 7.89,-0.5118 7.89,-0.3672 17.59,-0.8203 29.04,-1.3593 24.53,-0.9688 58.43,-1.8594 95.89,-2.0313 37.47,-0.1601 71.39,0.4414 95.92,1.1914 11.45,0.4414 21.15,0.8008 29.05,1.1016 2.92,0.1601 5.52,0.3086 7.89,0.4297 1.81,0.1289 2.75,0.2304 2.75,0.289 -0.01,0.0703 -0.95,0.1016 -2.76,0.1016 -2.38,-0.0234 -4.97,-0.0313 -7.9,-0.0625 -7.9,-0.1406 -17.61,-0.3008 -29.06,-0.4883 -24.54,-0.4023 -58.43,-0.7812 -95.88,-0.6328 -37.44,0.1836 -71.33,0.8516 -95.86,1.4727 -11.45,0.289 -21.16,0.5273 -29.05,0.7382 -2.93,0.0508 -5.53,0.1016 -7.9,0.1407 -1.81,0.0195 -2.76,-0.0079 -2.77,-0.0782" /><path
         id="path288"
         style="fill:#17282f;fill-opacity:1;fill-rule:nonzero;stroke:none"
         d="m 1895.41,28.6523 c 0.59,-0.082 1.07,6.8594 5.47,13.8477 4.29,7.0625 10.27,10.5898 9.95,11.082 -0.12,0.4766 -6.98,-2.5117 -11.6,-10.0625 -4.7,-7.5 -4.31,-14.9804 -3.82,-14.8672" /><path
         id="path290"
         style="fill:#17282f;fill-opacity:1;fill-rule:nonzero;stroke:none"
         d="m 1848.34,52.7422 c 0.45,-0.2813 2.72,2.457 5.06,6.1172 2.35,3.6601 3.88,6.8711 3.43,7.1601 -0.45,0.2891 -2.71,-2.4609 -5.06,-6.1172 -2.35,-3.6601 -3.88,-6.8632 -3.43,-7.1601" /><path
         id="path292"
         style="fill:#17282f;fill-opacity:1;fill-rule:nonzero;stroke:none"
         d="m 1835.43,59.6406 c 0.35,-0.3984 2.88,1.2696 5.65,3.7305 2.75,2.4687 4.71,4.7773 4.35,5.1797 -0.36,0.4101 -2.89,-1.2617 -5.64,-3.7422 -2.77,-2.457 -4.72,-4.7695 -4.36,-5.168" /><path
         id="path294"
         style="fill:#17282f;fill-opacity:1;fill-rule:nonzero;stroke:none"
         d="m 1827.3,74.75 c 0,-0.5391 3.73,-1.0312 8.34,-1.0977 4.61,-0.0703 8.35,0.3165 8.36,0.8477 0,0.5313 -3.73,1.0195 -8.34,1.1016 -4.6,0.0586 -8.35,-0.3203 -8.36,-0.8516" /><path
         id="path296"
         style="fill:#17282f;fill-opacity:1;fill-rule:nonzero;stroke:none"
         d="m 1824.53,85.3906 c -0.18,-0.4804 3.88,-2.3203 9.29,-2.7304 5.42,-0.4493 9.72,0.7421 9.62,1.2421 -0.09,0.5469 -4.32,0.2579 -9.46,0.6797 -5.15,0.3868 -9.28,1.3477 -9.45,0.8086" /><path
         id="path298"
         style="fill:#17282f;fill-opacity:1;fill-rule:nonzero;stroke:none"
         d="m 1853.81,66.6719 c -0.01,-0.211 3.93,-0.711 10.27,0.0195 3.17,0.3672 6.91,1.1094 10.94,2.3672 2.01,0.7227 4.1,1.2305 6.27,2.5625 1.02,0.6797 2.15,1.6211 2.55,3.1797 0.43,1.539 -0.38,3.2695 -1.54,4.1211 -9.79,5.1094 -19.64,-0.3711 -23.3,-5.4297 -2.02,-2.582 -2.95,-5.1016 -3.38,-6.8438 -0.42,-1.7578 -0.39,-2.7578 -0.28,-2.7695 0.36,-0.1367 0.71,4.0313 4.71,8.7422 1.98,2.3008 4.96,4.5391 8.79,5.6602 3.63,1.0703 8.8,1.3398 12.24,-0.8711 1.63,-1.2188 0.99,-3.1289 -0.83,-4.211 -1.69,-1.0781 -3.89,-1.7304 -5.78,-2.4375 -3.89,-1.332 -7.52,-2.1797 -10.59,-2.7109 -6.15,-1.0703 -10.07,-1.0703 -10.07,-1.3789" /><path
         id="path300"
         style="fill:#17282f;fill-opacity:1;fill-rule:nonzero;stroke:none"
         d="m 1856.47,66.1523 c 0.15,-0.1132 1.67,2.5 1.21,7.1172 -0.24,2.2696 -1.06,4.961 -2.78,7.5196 -1.8,2.2812 -4.12,5.4297 -8.53,5.2617 -2.37,-0.3008 -3.55,-3 -3.18,-4.7305 0.18,-1.8008 0.99,-3.3398 1.73,-4.5898 1.52,-2.5703 3.24,-4.6602 4.83,-6.2305 3.21,-3.1602 5.74,-4.3789 5.86,-4.1797 0.18,0.25 -2.04,1.8399 -4.86,5.1094 -1.4,1.6289 -2.92,3.6992 -4.28,6.1797 -1.4,2.1797 -2.35,6.0703 0.23,6.5312 2.57,0.2383 5.19,-2.3203 6.75,-4.3789 1.6,-2.2304 2.49,-4.6211 2.88,-6.6914 0.77,-4.1797 -0.2,-6.8398 0.14,-6.918" /><path
         id="path302"
         style="fill:#17282f;fill-opacity:1;fill-rule:nonzero;stroke:none"
         d="m 1683.56,77.5391 c 0.03,-0.3594 4.57,0.4218 11.79,-0.4571 7.16,-0.8203 17.1,-3.7929 25.73,-10.7031 8.61,-6.9375 13.66,-16.0078 16.01,-22.8203 2.41,-6.8477 2.63,-11.4492 2.99,-11.4063 0.12,0.0079 0.18,1.1485 0.02,3.2188 -0.16,2.0703 -0.64,5.0586 -1.71,8.6211 -2.07,7.0976 -7.11,16.6562 -16.1,23.8867 -9,7.2227 -19.42,10.082 -26.8,10.5703 -3.72,0.2696 -6.74,0.1016 -8.79,-0.1992 -2.06,-0.2812 -3.16,-0.5898 -3.14,-0.7109" /><path
         id="path304"
         style="fill:#17282f;fill-opacity:1;fill-rule:nonzero;stroke:none"
         d="m 1760.48,46.5586 c -0.07,-0.5078 10.35,-2.168 23.33,-2.2188 12.99,-0.0898 23.43,1.461 23.37,1.9688 -0.06,0.5625 -10.48,-0.1289 -23.36,-0.0273 -12.86,0.0507 -23.28,0.8398 -23.34,0.2773" /><path
         id="path306"
         style="fill:#17282f;fill-opacity:1;fill-rule:nonzero;stroke:none"
         d="m 1729.17,46.8906 c -0.39,-0.3789 0.85,-2.1992 1.9,-4.6015 1.09,-2.3868 1.63,-4.5274 2.18,-4.5 0.52,0.0117 0.83,2.5312 -0.41,5.2929 -1.24,2.7696 -3.33,4.2071 -3.67,3.8086" /><path
         id="path308"
         style="fill:#17282f;fill-opacity:1;fill-rule:nonzero;stroke:none"
         d="m 1717.42,61.6289 c -0.38,-0.3672 0.64,-2.0391 2.29,-3.7187 1.64,-1.6797 3.29,-2.7383 3.67,-2.3711 0.38,0.3828 -0.64,2.0429 -2.29,3.7304 -1.65,1.6797 -3.29,2.7305 -3.67,2.3594" /><path
         id="path310"
         style="fill:#17282f;fill-opacity:1;fill-rule:nonzero;stroke:none"
         d="m 1700.55,68.4102 c 0.11,-0.5508 2.23,-0.5391 4.58,-1.3711 2.36,-0.7774 4.03,-2.0899 4.45,-1.7305 0.43,0.293 -0.91,2.5703 -3.82,3.5625 -2.91,1 -5.37,0.0312 -5.21,-0.4609" /><path
         id="path312"
         style="fill:#17282f;fill-opacity:1;fill-rule:nonzero;stroke:none"
         d="m 1688.54,71.6094 c -0.19,-0.5 0.72,-1.3203 2.04,-1.8281 1.33,-0.5196 2.56,-0.5391 2.76,-0.0391 0.19,0.4883 -0.73,1.3086 -2.05,1.8281 -1.32,0.5313 -2.55,0.5391 -2.75,0.0391" /><path
         id="path314"
         style="fill:#f03d5f;fill-opacity:1;fill-rule:nonzero;stroke:none"
         d="m 1467.05,83.3398 6.09,13.4102 -143.66,72.18 -25.28,-55.239 8.76,-4.671 C 1352.13,88.6094 1513.53,7.99219 1544.07,3.96875 1578.14,-0.5 1467.05,83.3398 1467.05,83.3398" /><path
         id="path316"
         style="fill:#ededeb;fill-opacity:1;fill-rule:nonzero;stroke:none"
         d="m 1323.43,155.711 0.3,0.668 v 0 l -0.3,-0.668" /><path
         id="path318"
         style="fill:#f68aa6;fill-opacity:1;fill-rule:nonzero;stroke:none"
         d="m 1357.93,92.7109 -52.03,24.1291 -0.61,-1.141 h -0.01 l 18.15,40.012 0.3,0.668 c 12.75,-4.578 22.93,-14.008 29.24,-25.988 6.03,-11.45 7.8,-25.071 4.96,-37.6801" /><path
         id="path320"
         style="fill:#ffffff;fill-opacity:1;fill-rule:nonzero;stroke:none"
         d="m 1548.21,3.19141 c -1.22,0 -3.13,0.34765 -5.65,1.02734 0.53,-0.09766 1.03,-0.17969 1.51,-0.25 0.88,-0.10937 1.67,-0.16797 2.36,-0.16797 3.01,0 4.26,1.0586 4.12,2.94141 0.35,-1.53125 0.04,-2.70313 -1.15,-3.33985 -0.26,-0.14062 -0.66,-0.21093 -1.19,-0.21093 m -19.92,29.92969 c -2.47,2.2695 -5.05,4.5781 -7.71,6.9102 0.84,-0.7305 3.87,-3.3516 7.71,-6.9102 m -86.09,12.3086 c -16.79,7.6523 -34.24,15.8008 -51.25,23.9609 v 0.5703 c 16.58,-8.082 34.13,-16.5117 51.25,-24.5312 m -101.08,48.582 c -13.87,7.0973 -26.45,13.7773 -36.92,19.6793 v 0 l 8.76,-4.671 c 6.45,-3.36 16.22,-8.348 28.16,-14.3677 v -0.6406" /><path
         id="path322"
         style="fill:#ededeb;fill-opacity:1;fill-rule:nonzero;stroke:none"
         d="m 1390.95,69.3906 c -17.43,8.3594 -34.42,16.75 -49.83,24.6211 v 0.6406 c 14.17,-7.1328 31.41,-15.7031 49.83,-24.6914 v -0.5703" /><path
         id="path324"
         style="fill:#f68aa6;fill-opacity:1;fill-rule:nonzero;stroke:none"
         d="m 1546.43,3.80078 c -0.69,0 -1.48,0.0586 -2.36,0.16797 -0.48,0.07031 -0.98,0.15234 -1.51,0.25 -15.84,4.22266 -55.86,20.96095 -100.36,41.21095 -17.12,8.0195 -34.67,16.4492 -51.25,24.5312 -18.42,8.9883 -35.66,17.5586 -49.83,24.6914 -11.94,6.0197 -21.71,11.0077 -28.16,14.3677 l -8.76,4.671 1.09,2.008 52.21,-24.7498 c 0.15,0.5821 0.29,1.1719 0.43,1.7617 l 141.05,-65.4023 c 0,0 10.41,13.4023 18.79,13.4023 0.88,0 1.75,-0.1523 2.58,-0.4921 0,0 0.08,-0.0586 0.23,-0.1875 2.66,-2.3321 5.24,-4.6407 7.71,-6.9102 8.46,-7.8203 20.84,-20.1289 22.26,-26.37891 0.14,-1.88281 -1.11,-2.94141 -4.12,-2.94141" /><path
         id="path326"
         style="fill:#fabfcd;fill-opacity:1;fill-rule:nonzero;stroke:none"
         d="m 1357.5,90.9492 -52.22,24.7498 0.62,1.141 52.03,-24.1291 c -0.14,-0.5898 -0.28,-1.1796 -0.43,-1.7617" /><path
         id="path328"
         style="fill:#17282f;fill-opacity:1;fill-rule:nonzero;stroke:none"
         d="m 1303.66,117.969 c -0.03,-0.071 0.79,-0.547 2.38,-1.41 2.09,-1.11 4.39,-2.317 6.98,-3.688 7.05,-3.57 15.72,-7.961 25.94,-13.1288 21.98,-10.9414 52.54,-25.6406 86.65,-41.1406 34.11,-15.4805 65.29,-28.8399 87.99,-38.1993 10.62,-4.3007 19.63,-7.9335 26.95,-10.89058 2.74,-1.05078 5.16,-1.99219 7.38,-2.83984 1.69,-0.6211 2.59,-0.92969 2.62,-0.8711 0.03,0.07031 -0.83,0.48828 -2.47,1.23047 -2.18,0.96094 -4.55,1.98828 -7.24,3.17965 -7.26,3.1094 -16.18,6.9414 -26.71,11.4493 -22.55,9.6796 -53.63,23.2187 -87.72,38.6992 -34.08,15.5 -64.72,29.9922 -86.85,40.6096 -10.33,4.961 -19.08,9.16 -26.2,12.582 -2.65,1.25 -5,2.351 -7.15,3.347 -1.65,0.762 -2.52,1.133 -2.55,1.071" /><path
         id="path330"
         style="fill:#17282f;fill-opacity:1;fill-rule:nonzero;stroke:none"
         d="m 1497.92,25.0703 c 0.51,-0.3086 3.79,5.8086 10.66,10.3789 6.81,4.6914 13.72,5.4531 13.62,6.043 0.09,0.4766 -7.39,0.5703 -14.7,-4.4414 -7.36,-4.9102 -10.07,-11.8906 -9.58,-11.9805" /><path
         id="path332"
         style="fill:#17282f;fill-opacity:1;fill-rule:nonzero;stroke:none"
         d="m 1464.85,66.3203 c 0.3,-0.4414 3.49,1.1211 7.12,3.5 3.65,2.3906 6.36,4.6797 6.06,5.1289 -0.29,0.4492 -3.48,-1.1172 -7.12,-3.5 -3.63,-2.3906 -6.35,-4.6797 -6.06,-5.1289" /><path
         id="path334"
         style="fill:#17282f;fill-opacity:1;fill-rule:nonzero;stroke:none"
         d="m 1455.89,77.8984 c 0.17,-0.5195 3.16,-0.0195 6.68,1.0938 3.53,1.1172 6.26,2.4375 6.1,2.9375 -0.16,0.5195 -3.15,0.0195 -6.68,-1.0899 -3.53,-1.1093 -6.26,-2.4296 -6.1,-2.9414" /><path
         id="path336"
         style="fill:#17282f;fill-opacity:1;fill-rule:nonzero;stroke:none"
         d="m 1454.67,95.0117 c -0.23,-0.4922 2.98,-2.4609 7.16,-4.4023 4.18,-1.9571 7.75,-3.1485 7.97,-2.6602 0.23,0.4805 -2.98,2.4492 -7.15,4.4024 -4.18,1.957 -7.75,3.1484 -7.98,2.6601" /><path
         id="path338"
         style="fill:#17282f;fill-opacity:1;fill-rule:nonzero;stroke:none"
         d="m 1456.5,105.859 c -0.36,-0.359 2.59,-3.707 7.36,-6.3082 4.76,-2.6211 9.17,-3.3008 9.28,-2.8008 0.15,0.5508 -3.83,2.0117 -8.34,4.5 -4.54,2.461 -7.92,5.02 -8.3,4.609" /><path
         id="path340"
         style="fill:#17282f;fill-opacity:1;fill-rule:nonzero;stroke:none"
         d="m 1475.55,76.7813 c -0.1,-0.1915 3.29,-2.2618 9.38,-4.1797 3.03,-0.961 6.75,-1.8203 10.95,-2.3203 2.11,-0.1719 4.24,-0.5508 6.76,-0.2422 1.21,0.2031 2.63,0.6015 3.64,1.8593 1.02,1.2305 0.98,3.1407 0.27,4.3829 -6.84,8.6875 -18.07,7.7109 -23.48,4.5976 -2.9,-1.5195 -4.78,-3.4492 -5.88,-4.8476 -1.1,-1.4415 -1.49,-2.3594 -1.39,-2.4297 0.28,-0.2618 2.3,3.3984 7.88,6.0586 2.74,1.289 6.38,2.1093 10.34,1.5586 3.74,-0.5196 8.57,-2.379 10.81,-5.8086 0.98,-1.7813 -0.39,-3.2579 -2.49,-3.5 -1.99,-0.2891 -4.25,0.0117 -6.27,0.1406 -4.1,0.3906 -7.75,1.0898 -10.77,1.8711 -6.05,1.539 -9.63,3.1484 -9.75,2.8594" /><path
         id="path342"
         style="fill:#17282f;fill-opacity:1;fill-rule:nonzero;stroke:none"
         d="m 1477.76,75.2188 c 0.09,-0.1602 2.55,1.6015 4.02,6 0.71,2.1718 1.06,4.9609 0.55,8 -0.71,2.8203 -1.54,6.6406 -5.63,8.2929 -2.29,0.6992 -7.65,-3.9101 -8.02,-5.6328 -0.57,-1.7187 2.71,-0.8281 2.87,-2.2773 0.34,-2.9727 1.05,-5.5703 1.86,-7.6602 1.63,-4.1992 3.45,-6.3398 3.63,-6.2226 0.27,0.1601 -1.1,2.5312 -2.34,6.6601 -0.61,2.0625 -1.15,4.5703 -1.37,7.3906 -0.38,2.5508 0.35,6.5 2.89,5.8594 2.44,-0.8281 3.77,-4.2383 4.36,-6.75 0.55,-2.6992 0.38,-5.25 -0.12,-7.2891 -1.01,-4.1289 -2.98,-6.1601 -2.7,-6.371" /><path
         id="path344"
         style="fill:#17282f;fill-opacity:1;fill-rule:nonzero;stroke:none"
         d="m 1324.68,156.449 c -0.11,-0.359 4.35,-1.5 10.57,-5.258 6.2,-3.679 14.05,-10.461 19.08,-20.3 5.03,-9.86 5.92,-20.2 5.27,-27.36 -0.6,-7.2615 -2.29,-11.5505 -1.94,-11.6521 0.1,-0.0391 0.63,0.9805 1.33,2.9297 0.7,1.9531 1.48,4.8828 1.97,8.5704 1.02,7.32 0.34,18.101 -4.9,28.391 -5.25,10.261 -13.59,17.14 -20.12,20.601 -3.28,1.777 -6.1,2.848 -8.1,3.43 -1.99,0.59 -3.13,0.75 -3.16,0.648" /><path
         id="path346"
         style="fill:#17282f;fill-opacity:1;fill-rule:nonzero;stroke:none"
         d="m 1382.16,96.6719 c -0.26,-0.4297 8.56,-6.2227 20.39,-11.5899 11.81,-5.4023 21.96,-8.25 22.11,-7.7812 0.18,0.539 -9.61,4.1914 -21.31,9.5508 -11.71,5.3086 -20.9,10.3086 -21.19,9.8203" /><path
         id="path348"
         style="fill:#17282f;fill-opacity:1;fill-rule:nonzero;stroke:none"
         d="m 1353.74,109.801 c -0.52,-0.192 -0.14,-2.36 -0.15,-4.992 0.01,-2.61 -0.37,-4.789 0.15,-4.9887 0.47,-0.1992 1.79,1.9687 1.78,4.9887 0.01,3.031 -1.31,5.203 -1.78,4.992" /><path
         id="path350"
         style="fill:#17282f;fill-opacity:1;fill-rule:nonzero;stroke:none"
         d="m 1349.05,128.059 c -0.49,-0.188 -0.25,-2.129 0.57,-4.34 0.82,-2.207 1.88,-3.848 2.38,-3.66 0.51,0.183 0.25,2.121 -0.56,4.332 -0.81,2.211 -1.88,3.851 -2.39,3.668" /><path
         id="path352"
         style="fill:#17282f;fill-opacity:1;fill-rule:nonzero;stroke:none"
         d="m 1336.45,141.141 c -0.13,-0.532 1.81,-1.391 3.61,-3.121 1.84,-1.668 2.82,-3.559 3.35,-3.399 0.52,0.09 0.23,2.711 -2.03,4.809 -2.24,2.121 -4.88,2.23 -4.93,1.711" /><path
         id="path354"
         style="fill:#17282f;fill-opacity:1;fill-rule:nonzero;stroke:none"
         d="m 1326.8,148.992 c -0.38,-0.383 0.12,-1.5 1.11,-2.523 1,-1.008 2.12,-1.528 2.5,-1.16 0.38,0.371 -0.12,1.511 -1.11,2.523 -1,1.02 -2.12,1.539 -2.5,1.16" /><path
         id="path356"
         style="fill:#ab413a;fill-opacity:1;fill-rule:nonzero;stroke:none"
         d="m 2306,2461.91 c -1.07,-0.96 -11.19,8.5 -22.61,21.14 -11.41,12.64 -19.81,23.67 -18.74,24.63 1.07,0.96 11.19,-8.5 22.61,-21.14 11.42,-12.64 19.81,-23.66 18.74,-24.63" /><path
         id="path358"
         style="fill:#17282f;fill-opacity:1;fill-rule:nonzero;stroke:none"
         d="m 2060.39,2585.86 c 0,-0.18 -2.16,-0.36 -6.27,-0.53 -4.67,-0.12 -10.63,-0.29 -18,-0.49 -16.29,-0.2 -38.73,-0.48 -66.17,-0.83 -56.48,-0.19 -133.37,-0.46 -218.33,-0.76 -84.99,0.3 -161.9,0.57 -218.37,0.76 -27.44,0.35 -49.88,0.63 -66.17,0.83 -7.37,0.2 -13.33,0.37 -17.99,0.49 -4.12,0.17 -6.28,0.35 -6.28,0.53 0,0.18 2.16,0.35 6.28,0.52 4.66,0.13 10.62,0.29 17.99,0.49 16.29,0.21 38.73,0.48 66.17,0.83 56.47,0.2 133.38,0.46 218.37,0.76 84.96,-0.3 161.85,-0.56 218.33,-0.76 27.44,-0.35 49.88,-0.62 66.17,-0.83 7.37,-0.2 13.33,-0.36 18,-0.49 4.11,-0.17 6.27,-0.34 6.27,-0.52" /><path
         id="path360"
         style="fill:#17282f;fill-opacity:1;fill-rule:nonzero;stroke:none"
         d="m 2196.77,2489.55 c 0,-0.17 -2.96,-0.35 -8.6,-0.52 -6.1,-0.12 -14.32,-0.28 -24.66,-0.49 -21.93,-0.2 -52.79,-0.48 -90.71,-0.83 -77.03,-0.2 -182.61,-0.46 -299.26,-0.76 -116.68,0.3 -222.28,0.56 -299.31,0.76 -37.92,0.35 -68.77,0.63 -90.69,0.83 -10.35,0.21 -18.56,0.37 -24.67,0.49 -5.63,0.17 -8.6,0.35 -8.6,0.52 0,0.18 2.97,0.36 8.6,0.53 6.1,0.12 14.32,0.28 24.67,0.49 21.92,0.2 52.77,0.48 90.69,0.82 77.03,0.2 182.63,0.47 299.31,0.77 116.65,-0.3 222.23,-0.57 299.26,-0.77 37.92,-0.34 68.78,-0.62 90.71,-0.82 10.34,-0.21 18.56,-0.37 24.66,-0.49 5.64,-0.17 8.6,-0.35 8.6,-0.53" /><path
         id="path362"
         style="fill:#17282f;fill-opacity:1;fill-rule:nonzero;stroke:none"
         d="m 2130.02,2374.26 c 0,-0.18 -3.07,-0.35 -8.92,-0.52 -6.3,-0.13 -14.84,-0.29 -25.59,-0.49 -22.72,-0.2 -54.75,-0.49 -94.12,-0.83 -79.89,-0.2 -189.48,-0.47 -310.52,-0.76 -121.09,0.29 -230.68,0.56 -310.58,0.76 -39.37,0.34 -71.4,0.63 -94.11,0.83 -10.75,0.2 -19.29,0.36 -25.59,0.49 -5.85,0.17 -8.92,0.34 -8.92,0.52 0,0.18 3.07,0.35 8.92,0.53 6.3,0.12 14.84,0.28 25.59,0.48 22.71,0.2 54.74,0.48 94.11,0.83 79.9,0.19 189.49,0.47 310.58,0.77 121.04,-0.3 230.63,-0.58 310.52,-0.77 39.37,-0.35 71.4,-0.63 94.12,-0.83 10.75,-0.2 19.29,-0.36 25.59,-0.48 5.85,-0.18 8.92,-0.35 8.92,-0.53" /><path
         id="path364"
         style="fill:#17282f;fill-opacity:1;fill-rule:nonzero;stroke:none"
         d="m 1949.97,2255.93 c 0,-0.36 -5.69,-0.7 -15.98,-1.01 -11.21,-0.21 -25.87,-0.49 -43.56,-0.83 -36.79,-0.47 -87.61,-0.76 -143.73,-0.76 -56.15,0 -106.97,0.29 -143.75,0.76 -17.7,0.34 -32.36,0.62 -43.57,0.83 -10.29,0.31 -15.97,0.65 -15.97,1.01 0,0.36 5.68,0.71 15.97,1.02 11.21,0.21 25.87,0.49 43.57,0.82 36.78,0.47 87.6,0.77 143.75,0.77 56.12,0 106.94,-0.3 143.73,-0.77 17.69,-0.33 32.35,-0.61 43.56,-0.82 10.29,-0.31 15.98,-0.66 15.98,-1.02" /><path
         id="path366"
         style="fill:#17282f;fill-opacity:1;fill-rule:nonzero;stroke:none"
         d="m 1907.84,2140.15 c 0,-0.36 -4.96,-0.71 -13.93,-1.02 -9.97,-0.21 -22.71,-0.5 -37.97,-0.83 -32.07,-0.47 -76.36,-0.76 -125.28,-0.76 -48.95,0 -93.25,0.29 -125.31,0.76 -15.26,0.33 -28.01,0.62 -37.98,0.83 -8.96,0.31 -13.92,0.66 -13.92,1.02 0,0.36 4.96,0.7 13.92,1.01 9.97,0.22 22.72,0.49 37.98,0.82 32.06,0.48 76.36,0.76 125.31,0.76 48.92,0 93.21,-0.28 125.28,-0.76 15.26,-0.33 28.01,-0.6 37.97,-0.82 8.97,-0.31 13.93,-0.65 13.93,-1.01" /><path
         id="path368"
         style="fill:#17282f;fill-opacity:1;fill-rule:nonzero;stroke:none"
         d="m 1930.08,2194.81 c 0,-0.36 -5.32,-0.7 -14.94,-1.01 -10.58,-0.22 -24.28,-0.49 -40.74,-0.83 -34.41,-0.47 -81.94,-0.76 -134.43,-0.76 -52.5,0 -100.04,0.29 -134.44,0.76 -16.46,0.34 -30.16,0.61 -40.74,0.83 -9.62,0.31 -14.94,0.65 -14.94,1.01 0,0.36 5.32,0.7 14.94,1.02 10.58,0.21 24.27,0.49 40.74,0.83 34.4,0.46 81.94,0.76 134.44,0.76 52.49,0 100.02,-0.3 134.43,-0.76 16.46,-0.34 30.16,-0.62 40.74,-0.83 9.62,-0.32 14.94,-0.66 14.94,-1.02" /><path
         id="path370"
         style="fill:#17282f;fill-opacity:1;fill-rule:nonzero;stroke:none"
         d="m 1954.59,2313.57 c 0,-0.36 -5.8,-0.7 -16.3,-1.01 -11.39,-0.22 -26.37,-0.49 -44.44,-0.83 -37.52,-0.47 -89.35,-0.76 -146.6,-0.76 -57.27,0 -109.11,0.29 -146.63,0.76 -18.08,0.34 -33.04,0.61 -44.44,0.83 -10.5,0.31 -16.3,0.65 -16.3,1.01 0,0.36 5.8,0.7 16.3,1.02 11.39,0.21 26.36,0.48 44.44,0.82 37.52,0.47 89.36,0.76 146.63,0.76 57.25,0 109.08,-0.29 146.6,-0.76 18.07,-0.34 33.05,-0.61 44.44,-0.82 10.5,-0.32 16.3,-0.66 16.3,-1.02" /><path
         id="path372"
         style="fill:#17282f;fill-opacity:1;fill-rule:nonzero;stroke:none"
         d="m 1528.19,2313.69 c 0,-0.72 -12.34,-1.37 -32.3,-1.84 -19.95,-0.47 -47.51,-0.76 -77.96,-0.76 -30.46,0 -58.03,0.29 -77.98,0.76 -19.95,0.47 -32.3,1.12 -32.3,1.84 0,0.72 12.35,1.37 32.3,1.84 19.95,0.48 47.52,0.76 77.98,0.76 30.45,0 58.01,-0.28 77.96,-0.76 19.96,-0.47 32.3,-1.12 32.3,-1.84" /><path
         id="path374"
         style="fill:#17282f;fill-opacity:1;fill-rule:nonzero;stroke:none"
         d="m 2123.08,2319.92 c 0,-1.44 -24.44,-2.61 -54.56,-2.61 -30.14,0 -54.56,1.17 -54.56,2.61 0,1.43 24.42,2.6 54.56,2.6 30.12,0 54.56,-1.17 54.56,-2.6" /><path
         id="path376"
         style="fill:#17282f;fill-opacity:1;fill-rule:nonzero;stroke:none"
         d="m 2163.78,2434.08 c 0,-0.18 -3.02,-0.36 -8.78,-0.53 -6.21,-0.12 -14.61,-0.28 -25.18,-0.49 -22.37,-0.19 -53.89,-0.48 -92.62,-0.82 -78.63,-0.2 -186.45,-0.47 -305.56,-0.77 -119.15,0.3 -226.98,0.57 -305.61,0.77 -38.74,0.34 -70.25,0.63 -92.62,0.82 -10.57,0.21 -18.96,0.37 -25.18,0.49 -5.75,0.17 -8.78,0.35 -8.78,0.53 0,0.18 3.03,0.35 8.78,0.52 6.22,0.12 14.61,0.29 25.18,0.49 22.37,0.2 53.88,0.48 92.62,0.83 78.63,0.19 186.46,0.46 305.61,0.76 119.11,-0.3 226.93,-0.57 305.56,-0.76 38.73,-0.35 70.25,-0.63 92.62,-0.83 10.57,-0.2 18.97,-0.37 25.18,-0.49 5.76,-0.17 8.78,-0.34 8.78,-0.52" /><path
         id="path378"
         style="fill:#17282f;fill-opacity:1;fill-rule:nonzero;stroke:none"
         d="m 2180.47,2541.66 c 0,-0.19 -2.75,-0.36 -7.99,-0.53 -5.72,-0.12 -13.35,-0.29 -22.91,-0.49 -20.44,-0.2 -49.09,-0.48 -84.27,-0.83 -71.62,-0.19 -169.69,-0.46 -278.02,-0.76 -108.37,0.3 -206.44,0.57 -278.07,0.76 -35.18,0.35 -63.83,0.63 -84.26,0.83 -9.56,0.2 -17.19,0.37 -22.91,0.49 -5.24,0.17 -7.99,0.34 -7.99,0.53 0,0.18 2.75,0.35 7.99,0.52 5.72,0.12 13.35,0.29 22.91,0.49 20.43,0.2 49.08,0.48 84.26,0.83 71.63,0.19 169.7,0.46 278.07,0.76 108.33,-0.3 206.4,-0.57 278.02,-0.76 35.18,-0.35 63.83,-0.63 84.27,-0.83 9.56,-0.2 17.19,-0.37 22.91,-0.49 5.24,-0.17 7.99,-0.34 7.99,-0.52" /><path
         id="path380"
         style="fill:#17282f;fill-opacity:1;fill-rule:nonzero;stroke:none"
         d="m 632.676,3257.6 c 0,0 -0.446,2.17 -1.055,6.45 -0.609,4.47 -1.465,10.8 -2.582,19.04 -0.449,4.2 -1.402,8.86 -1.605,14.07 -0.149,5.22 -0.305,10.92 -0.473,17.09 -0.055,6.18 -0.59,12.84 -0.281,19.95 0.535,7.1 1.093,14.67 1.695,22.67 3.293,31.81 10.465,71.08 29.172,112.94 18.312,41.79 47.621,86.28 90.633,124.72 5.414,4.74 10.894,9.54 16.433,14.4 5.84,4.48 12,8.7 18.094,13.13 11.879,9.36 25.719,16.29 39.219,24.34 28.019,14.05 58.476,26.9 91.762,33.56 16.39,4.5 33.632,5.83 50.992,8.09 8.699,0.97 17.562,0.6 26.445,0.96 4.445,0.1 8.915,0.19 13.385,0.29 4.48,-0.14 8.95,-0.65 13.45,-0.96 36.12,-1.56 72.8,-10.2 108.36,-23.67 71.58,-26.37 137.1,-79.32 181.41,-149.48 22.42,-34.98 37.97,-75.03 46.99,-116.84 9.97,-41.71 11.21,-85.97 5.25,-129.54 -0.8,-5.61 -1.73,-11.19 -2.74,-16.73 l -0.45,2 c 40.17,-55.87 79.54,-110.62 117.66,-163.64 l 3.58,-4.97 -6.05,0.94 c -59.93,9.33 -118.01,18.37 -173.79,27.05 l 2.44,1.06 c -35.77,-53.04 -83.79,-94.54 -136.07,-121.7 -26.2,-13.49 -53.37,-23.56 -80.59,-30.33 -13.59,-3.46 -27.22,-6.09 -40.81,-7.45 -6.78,-0.81 -13.52,-1.62 -20.2,-2.43 -6.68,-0.79 -13.4,-0.44 -20.03,-0.71 -53.1,-1.3 -102.986,9.15 -145.889,26.56 -43.035,17.39 -79.105,41.55 -108.086,67.25 -7.035,6.69 -13.886,13.2 -20.554,19.54 -6.028,6.94 -11.887,13.7 -17.575,20.25 -5.964,6.34 -10.488,13.47 -15.269,20.06 -4.551,6.75 -9.633,12.83 -13.289,19.5 -15.684,26.03 -26.504,49.77 -33.391,69.7 -3.25,10 -6.137,18.88 -8.64,26.59 -1.692,7.84 -3.125,14.49 -4.293,19.91 -1.094,5.24 -1.934,9.28 -2.539,12.19 -0.547,2.74 -0.719,4.15 -0.719,4.15 0,0 0.457,-1.36 1.137,-4.07 0.707,-2.89 1.679,-6.89 2.945,-12.09 1.273,-5.38 2.84,-11.98 4.68,-19.76 2.601,-7.64 5.597,-16.44 8.98,-26.36 7.098,-19.75 18.094,-43.25 33.871,-68.99 3.68,-6.59 8.781,-12.59 13.348,-19.26 4.797,-6.51 9.324,-13.56 15.293,-19.81 5.687,-6.47 11.543,-13.13 17.562,-19.99 6.653,-6.24 13.488,-12.67 20.504,-19.25 28.887,-25.34 64.738,-49.09 107.414,-66.14 42.543,-17.06 91.918,-27.21 144.41,-25.77 6.55,0.29 13.19,-0.05 19.79,0.76 6.61,0.81 13.26,1.63 19.96,2.46 13.43,1.37 26.89,4.01 40.32,7.46 26.87,6.76 53.68,16.76 79.52,30.14 51.56,26.93 98.88,67.96 134.1,120.35 l 0.88,1.3 1.56,-0.24 c 55.77,-8.62 113.87,-17.6 173.8,-26.86 l -2.47,-4.03 c -38.14,53 -77.53,107.74 -117.73,163.59 l -0.64,0.9 0.2,1.1 c 1,5.47 1.92,10.96 2.7,16.5 5.87,42.94 4.67,86.59 -5.15,127.72 -8.88,41.23 -24.18,80.73 -46.27,115.24 -43.63,69.2 -108.18,121.55 -178.79,147.69 -35.08,13.36 -71.27,21.97 -106.93,23.58 -4.44,0.32 -8.87,0.83 -13.28,0.98 l -13.226,-0.26 c -8.769,-0.34 -17.531,0.06 -26.125,-0.88 -17.156,-2.19 -34.199,-3.45 -50.41,-7.86 -32.926,-6.49 -63.063,-19.11 -90.828,-32.91 -13.375,-7.92 -27.102,-14.71 -38.883,-23.93 -6.039,-4.37 -12.152,-8.52 -17.953,-12.93 -5.504,-4.78 -10.945,-9.52 -16.324,-14.19 -42.739,-37.87 -72.016,-81.82 -90.434,-123.16 -18.812,-41.42 -26.23,-80.36 -29.816,-111.96 -0.676,-7.96 -1.317,-15.47 -1.922,-22.54 -0.387,-7.06 0.062,-13.7 0.039,-19.85 0.082,-6.15 0.156,-11.83 0.222,-17.04 0.118,-5.19 0.989,-9.85 1.348,-14.04 0.895,-8.25 1.582,-14.59 2.067,-19.07 0.441,-4.3 0.531,-6.53 0.531,-6.53" /><path
         id="path382"
         style="fill:#33535f;fill-opacity:1;fill-rule:nonzero;stroke:none"
         d="m 874.652,3460.59 -43.859,-332.52 h 325.127 l -47.37,332.52 H 874.652" /><path
         id="path384"
         style="fill:#ffffff;fill-opacity:1;fill-rule:nonzero;stroke:none"
         d="m 1082.15,3412.33 c 0.35,-0.06 -0.01,-3.57 -1.89,-9.58 -1.9,-5.97 -5.33,-14.53 -11.67,-23.95 -6.3,-9.35 -15.78,-19.58 -28.99,-27.09 -13.11,-7.59 -29.78,-11.85 -47.104,-11.83 -17.308,-0.17 -34.047,3.49 -47.348,10.87 -13.445,7.22 -22.714,17.88 -28.699,27.43 -6.011,9.66 -8.988,18.41 -10.558,24.48 -1.547,6.11 -1.676,9.63 -1.325,9.67 0.864,0.3 2.797,-13.87 14.965,-32.13 6.133,-8.91 15.157,-18.68 27.903,-25.23 12.613,-6.7 28.398,-10.04 45.004,-9.89 16.622,0 32.332,3.89 44.832,10.83 12.58,6.86 21.86,16.27 28.31,25.01 12.85,17.81 15.74,31.74 16.57,31.41" /></g></g></svg>