<?xml version="1.0" encoding="UTF-8"?>
<!DOCTYPE svg PUBLIC "-//W3C//DTD SVG 1.1//EN" "http://www.w3.org/Graphics/SVG/1.1/DTD/svg11.dtd">
<!-- Creator: CorelDRAW X6 -->
<svg xmlns="http://www.w3.org/2000/svg" xml:space="preserve" width="9.47222in" height="5.97222in" version="1.1" style="shape-rendering:geometricPrecision; text-rendering:geometricPrecision; image-rendering:optimizeQuality; fill-rule:evenodd; clip-rule:evenodd"
viewBox="0 0 9472 5972"
 xmlns:xlink="http://www.w3.org/1999/xlink">
 <defs>
  <style type="text/css">
   <![CDATA[
    .fil20 {fill:#252C31;fill-rule:nonzero}
    .fil15 {fill:#273035;fill-rule:nonzero}
    .fil3 {fill:#2C3C43;fill-rule:nonzero}
    .fil12 {fill:#42616A;fill-rule:nonzero}
    .fil21 {fill:#622C33;fill-rule:nonzero}
    .fil10 {fill:#8C989B;fill-rule:nonzero}
    .fil18 {fill:#919697;fill-rule:nonzero}
    .fil5 {fill:#9F5648;fill-rule:nonzero}
    .fil19 {fill:#A13F48;fill-rule:nonzero}
    .fil13 {fill:#ABAEAF;fill-rule:nonzero}
    .fil4 {fill:#B16F60;fill-rule:nonzero}
    .fil14 {fill:#BD4951;fill-rule:nonzero}
    .fil22 {fill:#C87964;fill-rule:nonzero}
    .fil1 {fill:#D9DAD9;fill-rule:nonzero}
    .fil0 {fill:#E5E6E5;fill-rule:nonzero}
    .fil17 {fill:#EE967B;fill-rule:nonzero}
    .fil6 {fill:#F1626C;fill-rule:nonzero}
    .fil16 {fill:#F69775;fill-rule:nonzero}
    .fil7 {fill:#F6A0AA;fill-rule:nonzero}
    .fil2 {fill:#F7F7F6;fill-rule:nonzero}
    .fil24 {fill:#F8A176;fill-rule:nonzero}
    .fil11 {fill:#F9B39B;fill-rule:nonzero}
    .fil9 {fill:#FACACD;fill-rule:nonzero}
    .fil23 {fill:#FBC3AD;fill-rule:nonzero}
    .fil8 {fill:#FEFEFE;fill-rule:nonzero}
   ]]>
  </style>
 </defs>
 <g id="Layer_x0020_1">
  <metadata id="CorelCorpID_0Corel-Layer"/>
  <polygon class="fil0" points="6213,2119 6771,2119 6771,1012 6213,1012 "/>
  <polygon class="fil0" points="6793,2119 7396,2119 7396,1012 6793,1012 "/>
  <polygon class="fil0" points="6793,3265 7396,3265 7396,2196 6793,2196 "/>
  <polygon class="fil0" points="7473,993 8109,993 8109,11 8130,11 8130,993 8647,993 8647,-11 7473,-11 "/>
  <polygon class="fil0" points="8130,2119 8647,2119 8647,1012 8130,1012 "/>
  <polygon class="fil0" points="8130,3265 8647,3265 8647,2196 8130,2196 "/>
  <polygon class="fil0" points="6213,3265 6771,3265 6771,2196 6213,2196 "/>
  <polygon class="fil0" points="7473,3265 8109,3265 8109,2196 7473,2196 "/>
  <polygon class="fil0" points="6213,4248 6771,4248 6771,3285 6213,3285 "/>
  <polygon class="fil0" points="8130,4248 8647,4248 8647,3285 8130,3285 "/>
  <polygon class="fil0" points="6771,993 6771,11 6793,11 6793,993 7396,993 7396,-11 6213,-11 6213,993 "/>
  <polygon class="fil0" points="7473,4248 8109,4248 8109,3285 7473,3285 "/>
  <polygon class="fil0" points="6793,4248 7396,4248 7396,3285 6793,3285 "/>
  <polygon class="fil0" points="7473,2119 8109,2119 8109,1012 7473,1012 "/>
  <polygon class="fil1" points="3028,2380 1983,2380 1983,513 3016,513 "/>
  <polygon class="fil1" points="1983,664 3017,656 3016,513 1983,513 "/>
  <polygon class="fil1" points="1983,724 3018,717 3017,656 1983,664 "/>
  <polygon class="fil1" points="1983,784 3018,777 3018,717 1983,724 "/>
  <polygon class="fil1" points="1983,844 3018,837 3018,777 1983,784 "/>
  <polygon class="fil1" points="1983,905 3019,898 3018,837 1983,844 "/>
  <polygon class="fil1" points="1983,965 3019,958 3019,898 1983,905 "/>
  <polygon class="fil1" points="1983,1025 3019,1018 3019,958 1983,965 "/>
  <polygon class="fil1" points="1983,1086 3020,1079 3019,1018 1983,1025 "/>
  <polygon class="fil1" points="1983,1146 3020,1139 3020,1079 1983,1086 "/>
  <polygon class="fil1" points="1983,1206 3021,1199 3020,1139 1983,1146 "/>
  <polygon class="fil1" points="1983,1267 3021,1260 3021,1199 1983,1206 "/>
  <polygon class="fil1" points="1983,1327 3021,1320 3021,1260 1983,1267 "/>
  <polygon class="fil1" points="1983,1387 3022,1380 3021,1320 1983,1327 "/>
  <polygon class="fil1" points="1983,1448 3022,1441 3022,1380 1983,1387 "/>
  <polygon class="fil1" points="1983,1508 3023,1501 3022,1441 1983,1448 "/>
  <polygon class="fil1" points="1983,1568 3023,1561 3023,1501 1983,1508 "/>
  <polygon class="fil1" points="1983,1629 3023,1622 3023,1561 1983,1568 "/>
  <polygon class="fil1" points="1983,1689 3024,1682 3023,1622 1983,1629 "/>
  <polygon class="fil1" points="1983,1749 3024,1742 3024,1682 1983,1689 "/>
  <polygon class="fil1" points="1983,1810 3024,1803 3024,1742 1983,1749 "/>
  <polygon class="fil1" points="1983,1870 3025,1863 3024,1803 1983,1810 "/>
  <polygon class="fil1" points="1983,1930 3025,1923 3025,1863 1983,1870 "/>
  <polygon class="fil1" points="1983,1991 3026,1984 3025,1923 1983,1930 "/>
  <polygon class="fil1" points="1983,2051 3026,2044 3026,1984 1983,1991 "/>
  <polygon class="fil1" points="1983,2111 3026,2104 3026,2044 1983,2051 "/>
  <polygon class="fil1" points="1983,2172 3027,2165 3026,2104 1983,2111 "/>
  <polygon class="fil1" points="1983,2232 3027,2225 3027,2165 1983,2172 "/>
  <polygon class="fil1" points="1983,2292 3028,2285 3027,2225 1983,2232 "/>
  <polygon class="fil1" points="1983,2353 3028,2346 3028,2285 1983,2292 "/>
  <polygon class="fil1" points="3028,2346 1983,2353 1983,2380 3028,2380 "/>
  <polygon class="fil2" points="2036,2337 2979,2337 2979,548 2036,548 "/>
  <path class="fil1" d="M2241 1995c0,5 -3,3 -3,4 1,-8 4,-4 3,-4z"/>
  <polygon class="fil1" points="2249,1918 2247,1919 2251,1908 "/>
  <path class="fil1" d="M2249 1846c5,7 -1,26 1,39l1 2 -4 6c1,-16 4,-36 2,-47z"/>
  <path class="fil1" d="M2237 1808c2,2 2,-8 1,9l-1 -2c0,-2 0,-4 0,-7z"/>
  <path class="fil1" d="M2237 1815c0,8 -2,-5 0,0z"/>
  <path class="fil1" d="M2238 1780l-2 10c-1,-2 -2,-11 -2,-8 1,-10 2,-8 4,-2z"/>
  <path class="fil1" d="M2242 1770l-1 5c-1,-1 -1,-2 1,-5z"/>
  <path class="fil1" d="M2240 1786l2 -11c1,1 3,2 -1,5 2,-1 0,1 -1,6z"/>
  <path class="fil1" d="M2241 1793c1,6 2,13 4,3 -1,19 -5,16 -4,-3z"/>
  <path class="fil1" d="M2254 1842l2 8 -2 6c1,-3 -1,-14 0,-14z"/>
  <path class="fil1" d="M2235 1717c1,-1 3,3 5,4l-1 7c-1,-4 -2,-11 -3,-11z"/>
  <path class="fil1" d="M2240 1722l2 -11c0,10 -1,12 -2,11z"/>
  <polygon class="fil1" points="2248,1769 2244,1787 2248,1765 "/>
  <polygon class="fil1" points="2235,1675 2233,1682 2237,1670 "/>
  <path class="fil1" d="M2235 1626c-1,6 -1,13 1,21 -2,5 -4,-6 -5,-1 0,-8 2,-14 4,-20z"/>
  <path class="fil1" d="M2238 1683l3 4c0,1 0,3 0,4 -1,-1 -3,-3 -3,-9z"/>
  <path class="fil1" d="M2241 1687l0 0c0,-5 0,-8 0,-9 0,1 0,4 0,10z"/>
  <path class="fil1" d="M2245 1740c2,-7 4,-20 7,-7 -2,5 -4,-3 -7,7z"/>
  <path class="fil1" d="M2243 1711l2 -13 1 12c-1,0 -2,-2 -3,1z"/>
  <polygon class="fil1" points="2247,1692 2245,1698 2245,1694 "/>
  <path class="fil1" d="M2240 1636c1,-5 2,-11 2,-17 1,7 1,14 1,20 -1,1 -3,4 -3,-3z"/>
  <polygon class="fil1" points="2241,1661 2241,1660 "/>
  <polygon class="fil1" points="2242,1558 2243,1559 2242,1559 "/>
  <path class="fil1" d="M2244 1641c1,5 0,8 -1,11 0,-4 1,-8 1,-12 0,0 1,-1 1,1z"/>
  <path class="fil1" d="M2239 1599c1,3 1,6 2,9 -1,-3 -3,-8 -2,-9z"/>
  <path class="fil1" d="M2240 1658l0 1c-1,-2 0,-1 0,-1z"/>
  <path class="fil1" d="M2240 1658c0,-3 1,-5 2,-7 0,3 -1,6 -1,8l-1 -2z"/>
  <path class="fil1" d="M2243 1581l0 5c-1,-5 -2,-9 -4,-17 1,-8 3,-10 4,-10l0 24 0 -2z"/>
  <path class="fil1" d="M2242 1607c3,-4 5,-15 8,-8 0,14 -3,10 -4,18 1,-23 -2,7 -4,-10 -1,4 -1,8 -1,12 0,-4 -1,-8 -2,-12l0 1 0 0 0 0 0 0 0 0 1 -1c-1,-7 -1,-1 -1,1l0 0 0 0 2 -23c0,5 0,11 0,21z"/>
  <path class="fil1" d="M2259 1721l-1 -1c0,-1 1,-2 1,1z"/>
  <polygon class="fil1" points="2250,1701 2249,1700 "/>
  <path class="fil1" d="M2254 1721l0 -2c-1,-7 -4,-16 -5,-19 3,2 5,5 7,10 0,2 -2,3 -1,8 1,5 2,0 3,0 -1,3 -2,11 -4,1z"/>
  <path class="fil1" d="M2251 1658l2 -19 3 10 -2 0c1,11 -1,8 -3,10z"/>
  <polygon class="fil1" points="2240,1555 2237,1558 2242,1547 "/>
  <polygon class="fil1" points="2241,1531 2238,1532 2240,1525 "/>
  <path class="fil1" d="M2240 923c0,2 0,4 1,6 -1,-2 -2,-4 -2,-6 -1,-2 -1,-6 -2,-9 -1,-6 -1,-10 0,-8l3 5c0,4 0,10 0,12z"/>
  <path class="fil1" d="M2242 1280c-1,-7 -2,-13 -2,-17 2,8 5,15 2,17z"/>
  <path class="fil1" d="M2752 1146c-1,3 -1,5 -2,5 1,-3 1,-5 2,-5z"/>
  <path class="fil1" d="M2240 1242c0,1 1,2 1,4 -1,5 -1,10 -1,16 -1,-6 -2,-13 0,-20z"/>
  <path class="fil1" d="M2327 2013c2,0 6,0 10,0 -2,0 -5,0 -10,0z"/>
  <path class="fil1" d="M2239 1432c0,5 0,1 0,0z"/>
  <polygon class="fil1" points="2254,1455 2252,1458 "/>
  <path class="fil1" d="M2241 1440c0,-2 -1,-4 -1,-7 0,1 1,3 1,7z"/>
  <path class="fil1" d="M2239 1439c0,2 0,3 0,5 -1,1 -1,0 0,-5z"/>
  <path class="fil1" d="M2239 1432c0,-2 0,-4 0,-7 0,3 0,6 0,8l-1 -1z"/>
  <path class="fil1" d="M2239 1475c0,5 1,7 1,10 -1,0 -2,-2 -2,1l1 -11z"/>
  <path class="fil1" d="M2646 889c-2,1 -5,2 -8,3l-5 0c-2,0 -4,-1 -5,-1l2 1 -10 0c0,-1 1,-2 4,-3 1,0 2,1 4,1 -3,-2 -6,-4 -3,-5l21 3zm-284 3l-13 0c1,-3 1,-5 0,-7l13 7zm-102 72l0 28c-4,9 -8,17 -11,21l3 -17 -3 -4c2,-10 6,-20 11,-28zm-10 121c2,-2 6,-3 10,-3l0 18 -6 2 6 0 0 19 -2 -2c-3,-6 -8,-32 -8,-34zm10 105c-1,-1 -2,-3 -3,-3 1,-4 2,-9 3,-13l0 15zm-6 125c1,-3 -5,7 -3,-11 2,-16 6,-28 10,-35l0 73c0,-2 -1,-4 -1,-5 1,6 0,16 -1,21l-2 -13c0,10 4,19 2,34 -3,-3 -7,9 -11,-3 -5,-29 8,-24 7,-60zm6 223l0 1 0 0 0 -2zm0 5l0 20c-2,-7 -1,-15 0,-20zm489 258l1 3c-1,2 -2,4 -1,-3zm-507 -427l0 0c-1,-6 -1,-9 0,0zm17 214l0 -2 0 412 29 0c-6,4 -12,7 -5,10l-9 -1c3,5 29,0 34,5l29 -5c-1,2 4,5 -1,5 7,0 14,0 4,3 70,-12 141,0 210,-7 5,0 2,2 0,3 13,-5 12,2 19,3l19 -7c8,2 2,4 2,5 35,1 69,-5 98,-1 9,-2 -2,-5 10,-6 -4,2 -4,3 -2,4 1,0 3,1 5,1 2,0 4,0 8,1 14,1 29,1 23,3 4,-2 10,-3 16,-4 -2,-20 -1,-41 -8,-37 -1,-16 4,-12 5,-8 0,-17 0,-30 3,-43 -2,-9 3,-76 -5,-90 5,10 3,-1 5,-10l4 9 0 -22c0,-4 0,-6 0,-6 0,-4 -3,1 -4,-9 0,-15 2,-16 4,-24l1 2 0 -10c0,-7 -4,26 -7,2 1,0 7,-15 4,-21 0,12 -3,11 -4,6l0 -17 6 6c0,-50 -4,-101 -4,-154 -5,1 0,-38 -7,-33l1 2c-1,13 -6,-4 -5,-14 2,11 7,-20 8,7l3 -21c14,-12 -1,-56 3,-87 -1,2 -1,3 -2,3 4,-28 -4,-63 -2,-69l-4 -2c6,-24 6,-27 4,-55 -1,0 -2,4 -3,-1 3,-7 6,-14 5,-33l-1 1 1 -31c-12,0 7,-52 -6,-62 3,-6 4,-28 6,-38 -1,0 -1,-1 -2,-2 6,-12 -2,-34 -1,-47 2,-8 3,-5 5,-1 -5,-17 6,-46 3,-52 0,-12 -4,-5 -7,-8 1,-18 11,3 6,-21 -1,3 -1,8 -2,6 -1,-9 -14,-26 -12,-35l2 6c3,-17 -9,-40 -2,-43l4 2c-2,-15 -2,-18 -2,-21 0,-2 0,-3 0,-6 0,-2 0,-4 0,-6 0,-3 -1,-7 -1,-12l-1 1c0,-11 -1,-17 -1,-23 -3,0 -5,-1 -7,-3l7 -1c-11,0 -17,0 -23,0 -5,0 -11,0 -21,0 -2,-1 -10,-1 -12,0 -1,-5 -38,-2 -46,-2 13,1 7,3 3,5 -8,-4 -13,-4 -24,-2 -2,-6 -4,-13 -25,-13 3,1 8,1 6,3 -2,1 -7,0 -9,-1 -2,1 5,2 2,4 -14,-6 -24,0 -45,-2 7,2 1,3 -1,5 -2,-7 -28,6 -20,-3 -40,5 -102,0 -118,6 -4,2 -15,-2 -22,-2l1 3c-20,-5 -15,-2 -38,-8 10,4 6,5 -4,8l-16 -6 -3 5c-7,-2 -14,-1 -21,0 4,0 2,0 1,1 -2,-3 -10,-5 -18,-6 -10,-1 -24,-2 -28,-3 -4,3 -11,3 -18,2 0,6 -1,13 2,18 -1,3 -2,7 -2,12 -3,-6 -6,-10 -4,1l0 2c1,2 2,3 4,5 0,4 -1,8 -1,11 0,3 0,6 0,8 0,-2 -1,-4 -2,-7 1,3 1,5 2,8l0 2 0 -1c1,4 1,8 0,14 6,23 -8,51 0,76 -1,-4 -1,-9 0,-11 0,21 5,42 2,55l-3 -1c-2,15 -3,27 -2,40l-4 1c1,18 -5,57 3,68 -3,4 1,25 0,35l3 3c1,13 0,22 -1,30 6,27 0,52 1,76l1 0 -2 24c3,-6 -2,5 -1,12 -1,8 -1,20 1,29l0 15c2,-17 4,1 8,2l-3 10c2,4 3,-6 3,1 -2,7 -2,26 -5,32 -1,-1 -2,-3 -2,-6l0 0 0 -1 0 1 -1 3c1,12 -1,8 -2,7 5,14 2,22 8,32 -7,-14 0,32 -7,23 5,10 0,7 5,14 -1,-14 3,-29 6,-41l3 11c6,-7 -2,-26 0,-33 -1,5 0,15 1,15l-5 -3c-2,-16 2,-29 4,-41 2,11 3,-13 6,-5l-1 9 1 1 0 93c-4,2 -6,22 -9,16 2,7 4,5 3,20 -3,10 -5,-12 -7,-16 -2,12 -3,12 -4,12 5,10 15,17 18,7l0 16c-1,-4 -2,1 -2,7l2 0z"/>
  <path class="fil1" d="M2250 1496c3,1 2,8 1,16l0 -1c-4,2 -3,-6 -1,-14z"/>
  <path class="fil1" d="M2251 1514c0,2 0,5 0,7 -2,1 0,-3 0,-7z"/>
  <path class="fil1" d="M2242 1415c1,4 -4,2 -3,4 -4,4 5,-25 3,-4z"/>
  <polygon class="fil1" points="2260,1503 2256,1500 2259,1496 "/>
  <path class="fil1" d="M2257 1441l1 13c-1,0 -1,1 -1,3 0,-8 -1,-16 0,-16z"/>
  <path class="fil1" d="M2257 1457c0,4 0,8 -1,10 0,-2 0,-7 1,-10z"/>
  <path class="fil1" d="M2259 1299c-1,3 -1,8 -3,6l1 -14c1,-1 2,2 2,7z"/>
  <polygon class="fil1" points="2289,2018 2278,2019 2285,2017 "/>
  <path class="fil1" d="M2269 2012l-2 5 -6 -4c2,0 7,1 9,0z"/>
  <path class="fil3" d="M9475 5770c0,2 -2121,4 -4737,4 -2617,0 -4738,-2 -4738,-4 0,-2 2121,-4 4738,-4 2616,0 4737,2 4737,4z"/>
  <path class="fil4" d="M5797 3262c0,0 659,115 740,-135 12,-36 61,-196 61,-196l-223 -76c0,0 -39,196 -71,206 -177,53 -382,31 -454,21 -8,-6 -18,-14 -29,-24 -9,-8 -20,-21 -30,-29 -22,-18 -36,-19 -45,-26 -22,-17 -36,1 -26,11 10,9 32,17 58,55 26,38 -41,30 -68,29 -29,-2 -85,-12 -85,-12 1,12 20,34 46,41 26,6 42,8 42,8 0,0 -49,4 -48,15 1,11 33,89 89,103l43 8z"/>
  <path class="fil4" d="M7314 5569c0,0 -323,-1026 -330,-1059 -6,-30 117,-768 133,-959l-436 16c0,0 0,1 0,3l-185 10 166 2098 201 0 -20 -696c124,332 301,671 301,671l171 -84z"/>
  <path class="fil5" d="M6850 5232c0,-6 -2,-233 -2,-233 -3,14 -77,-197 -75,-210 1,-7 78,443 78,443z"/>
  <path class="fil5" d="M6764 4690c0,0 -1,5 -1,13 0,8 -1,20 0,35 0,7 1,15 2,24 1,9 2,18 4,27 4,19 9,40 16,61 15,42 31,80 42,106 5,12 10,23 14,32 3,7 6,11 6,11 0,0 -1,-5 -4,-12 -3,-8 -7,-19 -12,-33 -10,-27 -26,-65 -40,-107 -7,-21 -13,-41 -17,-60 -2,-9 -3,-18 -5,-27 -1,-8 -2,-16 -3,-24 -1,-14 -2,-26 -2,-34 0,-8 -1,-13 -1,-13z"/>
  <path class="fil6" d="M6479 3968c-8,-292 25,-595 51,-687 2,-9 5,-18 7,-26l50 -208c0,0 21,-17 -35,-90 -26,-34 -21,-164 -21,-164l25 172 -219 -106c0,0 69,-329 104,-375 91,-118 256,-97 256,-97l216 -2c0,0 82,5 161,42l5 1 0 1c62,30 117,81 133,164 26,135 18,197 18,197l-176 -3 16 372c13,46 50,35 105,247 23,87 36,170 44,243 10,97 9,195 -4,291l-99 750 -598 0 -40 -722z"/>
  <polygon class="fil6" points="6970,2726 6937,2862 7240,2862 7220,2633 "/>
  <path class="fil3" d="M7240 2862c0,-1 -15,-3 -40,-4 -25,-1 -59,-3 -97,-3 -38,0 -72,2 -97,4 -25,2 -40,4 -40,5 0,1 15,1 40,0 25,-1 59,-2 97,-2 38,0 72,0 97,1 25,0 40,0 40,-1z"/>
  <path class="fil3" d="M6587 3056c0,0 1,-5 2,-13 0,-4 0,-10 -1,-16 -1,-6 -3,-13 -5,-20 -3,-7 -6,-15 -11,-23 -4,-8 -10,-16 -15,-25 -11,-17 -23,-36 -30,-58 -3,-11 -6,-22 -6,-33 -1,-11 0,-21 1,-31 2,-20 7,-37 11,-52 9,-29 16,-47 15,-47 0,0 -3,4 -6,12 -3,8 -8,19 -13,34 -5,15 -10,32 -13,53 -1,10 -2,21 -1,32 1,11 3,23 7,34 8,23 20,42 31,59 6,8 11,16 15,24 5,8 8,15 11,22 3,7 5,13 6,19 2,6 2,11 2,15 0,8 0,13 1,13z"/>
  <path class="fil3" d="M6956 2632c-1,0 -1,13 -1,35 0,21 1,51 2,84 1,33 3,62 4,84 1,21 3,35 4,35 1,0 1,-13 1,-35 0,-21 -1,-51 -2,-84 -1,-33 -3,-62 -4,-84 -1,-21 -3,-35 -4,-35z"/>
  <path class="fil6" d="M6657 5689l0 -19 206 -9 1 78 -13 1c-56,3 -287,13 -325,2 -42,-13 132,-52 132,-52z"/>
  <path class="fil7" d="M6863 5736l0 -2 -73 1c3,-16 13,-31 26,-41 12,-10 27,-15 43,-15 2,0 3,0 5,0l0 57z"/>
  <path class="fil8" d="M6667 5746c74,-1 154,-5 184,-7l13 -1c-49,4 -127,7 -197,7zm-139 -4c-5,-1 -8,-2 -8,-3 -1,-1 -1,-3 0,-5 -1,3 0,5 6,7 1,0 1,0 2,0zm30 -26c9,-3 15,-5 15,-5l0 0c-5,2 -10,3 -15,5z"/>
  <path class="fil7" d="M6650 5746c-56,0 -103,-1 -122,-5 -1,0 -1,0 -2,0 -6,-2 -8,-4 -6,-7 5,-6 24,-14 38,-18 5,-2 10,-3 15,-5 12,1 18,26 18,26l199 -2c0,1 0,2 0,2l74 -2 0 0 0 3 -13 1c-30,2 -110,5 -184,7 -6,0 -12,0 -17,0z"/>
  <path class="fil9" d="M6789 5738c0,-1 0,-2 0,-2l73 -1 0 2 0 0 -74 2z"/>
  <path class="fil3" d="M6866 5734c0,0 -1,0 -4,0 -3,0 -6,0 -10,1 -10,0 -23,1 -37,2 -31,1 -75,2 -123,3 -48,0 -91,-1 -123,-2 -15,-1 -27,-1 -37,-1 -4,0 -7,0 -10,-1 -2,0 -4,0 -4,0 0,0 1,0 4,0 3,0 6,0 10,0 10,0 23,0 37,1 31,1 75,1 123,1 48,0 91,-1 123,-2 15,0 27,-1 37,-1 4,0 7,0 10,0 2,0 4,0 4,0z"/>
  <path class="fil3" d="M6591 5741c-1,0 -1,-9 -7,-18 -5,-9 -13,-14 -13,-14 0,-1 9,3 15,13 6,10 6,19 5,19z"/>
  <path class="fil3" d="M6651 5710c-1,0 -3,-3 -6,-8 -3,-5 -5,-9 -4,-9 1,0 3,3 6,8 3,5 5,9 4,9z"/>
  <path class="fil3" d="M6668 5701c0,1 -4,-2 -7,-5 -4,-3 -6,-6 -6,-7 0,-1 4,2 7,5 4,3 6,6 6,7z"/>
  <path class="fil3" d="M6678 5682c0,1 -5,1 -11,1 -6,0 -11,0 -11,-1 0,-1 5,-1 11,-1 6,0 11,0 11,1z"/>
  <path class="fil3" d="M6682 5668c0,1 -5,3 -12,4 -7,1 -12,-1 -12,-2 0,-1 6,0 12,-1 7,0 12,-2 12,-1z"/>
  <path class="fil3" d="M6644 5692c0,0 -5,1 -13,0 -4,0 -9,-1 -14,-3 -3,-1 -5,-2 -8,-3 -1,-1 -3,-2 -3,-4 -1,-2 1,-4 2,-5 13,-7 25,0 30,7 3,3 4,7 4,9 1,2 1,4 0,4 0,0 -1,-5 -6,-11 -3,-3 -6,-6 -11,-7 -5,-1 -11,-2 -16,1 -2,2 -1,4 1,5 2,1 5,2 7,3 5,2 10,3 14,3 8,1 13,1 13,2z"/>
  <path class="fil3" d="M6641 5693c0,0 -2,-3 -2,-9 0,-3 1,-6 4,-10 2,-3 5,-7 11,-7 3,0 5,4 4,6 0,2 -1,4 -2,6 -2,3 -4,6 -6,8 -4,4 -7,6 -8,5 0,0 3,-2 6,-7 2,-2 4,-5 5,-8 2,-3 3,-8 0,-8 -3,0 -7,3 -9,6 -2,3 -3,6 -4,9 -1,5 0,9 0,9z"/>
  <path class="fil3" d="M6862 5678c0,0 -6,-1 -15,1 -9,1 -22,5 -33,14 -11,9 -17,20 -21,29 -3,9 -3,15 -4,15 0,0 0,-1 0,-4 0,-3 1,-6 2,-11 3,-9 9,-21 21,-31 12,-9 25,-13 34,-14 5,0 9,0 11,0 3,0 4,1 4,1z"/>
  <path class="fil3" d="M6764 5718c0,1 -13,3 -30,3 -17,0 -30,-2 -30,-3 0,-1 13,0 30,0 16,0 30,-1 30,0z"/>
  <path class="fil3" d="M6804 5717c1,1 -1,3 -2,6 -1,3 -2,6 -3,6 -1,0 -1,-3 1,-7 2,-4 4,-5 5,-5z"/>
  <path class="fil3" d="M6819 5699c1,0 -1,3 -3,5 -2,2 -4,4 -5,3 -1,0 1,-3 3,-5 2,-2 4,-4 5,-3z"/>
  <path class="fil3" d="M6840 5690c0,1 -3,1 -6,2 -3,1 -5,3 -6,2 -1,0 1,-3 5,-5 4,-1 7,0 7,1z"/>
  <path class="fil3" d="M6856 5686c0,1 -1,2 -3,2 -2,1 -3,1 -4,0 0,-1 1,-2 3,-2 2,-1 3,-1 4,0z"/>
  <path class="fil6" d="M7139 5671l-8 -17 184 -92 32 71 -11 6c-50,26 -257,129 -296,135 -44,6 99,-102 99,-102z"/>
  <polygon class="fil8" points="7324,5579 7323,5577 7323,5577 "/>
  <path class="fil7" d="M7279 5659c-4,-16 -1,-34 6,-48 8,-15 21,-27 37,-33l1 2 23 51 -1 -1 -67 31z"/>
  <path class="fil8" d="M7035 5773c-1,0 -1,0 -1,0 1,0 2,0 3,0 -1,0 -1,0 -2,0z"/>
  <path class="fil10" d="M7034 5773c0,0 0,0 0,0 -2,-1 -2,-2 -1,-4 0,2 1,4 5,4 1,0 2,0 3,0 1,0 1,0 2,0 -2,1 -4,1 -5,1 -1,0 -2,0 -3,0z"/>
  <path class="fil8" d="M7061 5735c4,-4 8,-7 9,-8 -3,3 -6,5 -9,8zm111 -16c67,-31 138,-67 165,-81l11 -6c-43,24 -113,58 -176,87z"/>
  <path class="fil7" d="M7038 5773c-4,0 -5,-1 -5,-4 2,-8 18,-24 29,-34 3,-3 6,-5 9,-8 0,0 1,-1 1,-1 1,0 2,-1 3,-1 11,0 24,17 24,17l181 -84c0,1 0,2 1,2l67 -32 0 0 1 3 -11 6c-27,14 -98,50 -165,81 -57,26 -109,48 -129,53 -1,0 -1,0 -2,0 -1,0 -2,0 -3,0z"/>
  <path class="fil9" d="M7280 5661c0,-1 0,-2 -1,-2l67 -31 1 1 0 0 -67 32z"/>
  <path class="fil3" d="M7349 5626c0,0 -1,1 -3,2 -3,1 -6,3 -9,5 -9,5 -20,10 -33,17 -28,14 -67,33 -111,53 -44,20 -84,37 -113,49 -14,6 -25,10 -35,14 -4,1 -7,3 -9,4 -2,1 -3,1 -3,1 0,0 1,-1 3,-2 3,-1 6,-3 9,-4 9,-4 21,-9 34,-15 29,-12 69,-30 112,-50 44,-20 83,-38 111,-52 13,-6 24,-12 34,-16 3,-2 6,-3 9,-4 2,-1 3,-1 3,-1z"/>
  <path class="fil3" d="M7100 5745c-1,0 -5,-7 -14,-13 -9,-6 -18,-7 -17,-8 0,-1 9,-1 19,6 9,6 13,15 12,15z"/>
  <path class="fil3" d="M7142 5693c0,1 -4,-1 -9,-4 -5,-3 -8,-6 -8,-7 0,-1 4,1 9,4 5,3 8,6 8,7z"/>
  <path class="fil3" d="M7154 5678c0,1 -4,0 -9,-1 -5,-1 -8,-3 -8,-4 0,-1 4,0 9,1 5,1 8,3 8,4z"/>
  <path class="fil3" d="M7155 5656c0,1 -4,3 -9,6 -5,3 -10,4 -10,3 0,-1 4,-3 9,-6 5,-2 10,-4 10,-3z"/>
  <path class="fil3" d="M7153 5642c0,0 -3,5 -9,8 -6,3 -12,4 -12,4 0,-1 5,-3 11,-6 6,-3 10,-6 11,-6z"/>
  <path class="fil3" d="M7128 5679c0,0 -4,3 -12,5 -4,1 -9,2 -14,3 -3,0 -5,1 -9,0 -2,0 -3,-1 -5,-2 -1,-2 -1,-4 0,-6 9,-11 23,-10 30,-6 4,2 6,4 8,6 1,2 2,3 2,3 0,0 -3,-4 -10,-8 -4,-2 -8,-3 -13,-2 -5,1 -11,3 -14,7 -1,2 1,4 3,4 3,0 5,0 8,0 5,0 10,-1 14,-2 8,-2 12,-4 12,-4z"/>
  <path class="fil3" d="M7126 5681c0,0 -3,-2 -5,-8 -1,-3 -1,-6 -1,-10 1,-4 2,-9 7,-11 3,-1 10,5 10,7 1,2 -3,1 -4,3 0,4 -1,7 -2,10 -2,5 -4,8 -5,8 0,0 1,-3 3,-9 1,-3 1,-6 2,-9 1,-3 0,-8 -4,-8 -3,1 -5,5 -6,9 -1,3 0,7 0,9 1,5 4,8 3,8z"/>
  <path class="fil3" d="M7322 5577c0,0 -6,2 -14,7 -8,5 -18,13 -24,26 -6,13 -8,26 -7,35 1,9 3,15 2,15 0,0 -1,-1 -2,-4 -1,-3 -2,-6 -3,-11 -1,-9 0,-23 6,-36 7,-13 17,-22 26,-26 4,-2 8,-4 10,-4 3,-1 4,-1 4,-1z"/>
  <path class="fil3" d="M7248 5654c0,1 -11,8 -26,15 -15,7 -28,11 -28,10 0,-1 12,-5 27,-12 15,-7 27,-13 27,-13z"/>
  <path class="fil3" d="M7284 5637c1,0 0,3 0,6 0,3 0,6 0,6 -1,0 -2,-3 -2,-6 0,-4 2,-7 2,-6z"/>
  <path class="fil3" d="M7290 5614c1,0 0,3 -1,6 -1,3 -2,5 -3,5 -1,0 0,-3 1,-6 1,-3 2,-5 3,-5z"/>
  <path class="fil3" d="M7307 5597c0,1 -2,2 -5,4 -2,2 -4,5 -4,4 -1,0 0,-3 3,-6 3,-3 6,-3 6,-2z"/>
  <path class="fil3" d="M7319 5587c0,0 0,2 -1,3 -1,1 -3,2 -3,1 0,0 0,-2 1,-3 1,-1 3,-2 3,-1z"/>
  <path class="fil4" d="M6657 2402c1,-53 2,-106 2,-106 0,0 -86,-8 -92,-96 -6,-88 -3,-290 -3,-290l156 -80 167 135 -7 444c-2,62 -55,110 -117,107 -60,-3 -106,-53 -105,-113z"/>
  <path class="fil3" d="M6582 2059c0,6 5,11 11,11 6,0 11,-5 11,-11 0,-6 -5,-11 -11,-11 -6,0 -11,5 -11,11z"/>
  <path class="fil3" d="M6571 2047c1,1 9,-6 21,-6 12,-1 21,5 22,3 1,-1 -1,-3 -5,-6 -4,-3 -10,-5 -18,-5 -7,1 -13,4 -17,7 -4,3 -5,6 -4,7z"/>
  <path class="fil3" d="M6708 2059c0,6 5,11 11,11 6,0 11,-5 11,-11 0,-6 -5,-11 -11,-11 -6,0 -11,5 -11,11z"/>
  <path class="fil3" d="M6701 2047c1,1 9,-6 21,-6 12,-1 21,5 22,3 1,-1 -1,-3 -5,-6 -4,-3 -10,-5 -18,-5 -7,1 -13,4 -17,7 -3,3 -5,6 -4,7z"/>
  <path class="fil3" d="M6660 2146c0,-1 -7,-2 -19,-2 -3,0 -6,-1 -7,-3 -1,-2 0,-6 2,-10 3,-8 5,-16 8,-25 11,-36 19,-65 17,-66 -1,0 -11,28 -22,64 -3,9 -5,17 -7,25 -1,4 -3,8 -1,13 1,2 3,4 5,4 2,1 4,0 5,0 12,0 19,-1 19,-1z"/>
  <path class="fil3" d="M7016 2044c-1,-6 1,7 0,-3l0 0 0 0c-2,-14 -4,-28 -6,-36 -49,-183 -206,-215 -237,-215 -33,0 -128,-2 -181,64 -70,88 -30,174 -30,174l139 -25c-10,-35 4,-78 12,-98l1 -1c26,131 168,161 168,161l2 192c103,-15 136,-138 134,-214z"/>
  <path class="fil4" d="M6879 2146c-1,-13 -7,-45 -3,-57 4,-12 18,-15 33,-15 15,0 33,14 33,33 0,15 -6,31 -19,39 -13,8 -30,8 -44,2l-1 -2z"/>
  <path class="fil5" d="M6896 2129c0,-1 4,1 10,-1 6,-2 11,-8 11,-17 0,-4 -1,-9 -3,-10 -2,-2 -6,-3 -9,-2 -6,1 -10,2 -10,1 0,-1 3,-4 10,-6 3,-1 9,-1 13,2 5,4 6,10 6,15 0,6 -2,11 -5,15 -3,4 -8,6 -11,6 -8,1 -12,-3 -11,-4z"/>
  <path class="fil3" d="M6695 2012c0,2 13,0 28,4 15,3 26,11 27,9 1,-1 -9,-12 -26,-16 -17,-4 -31,1 -30,3z"/>
  <path class="fil5" d="M6649 2294c0,1 8,3 21,4 13,1 31,0 50,-6 19,-6 35,-16 45,-25 10,-9 14,-16 13,-16 -1,-1 -6,5 -16,13 -10,8 -25,16 -43,22 -37,11 -69,6 -69,8z"/>
  <path class="fil3" d="M6990 1973c-6,-23 11,-48 34,-55 23,-7 48,0 68,13 27,18 47,47 51,79 4,32 -8,66 -34,86 -26,20 -64,23 -91,5 -23,-15 -36,-42 -40,-69 -4,-27 -1,-55 3,-82l10 22z"/>
  <path class="fil5" d="M6665 2193c-8,-7 -6,-20 2,-26 8,-6 21,-3 27,4 3,4 5,9 4,13 -2,6 -9,9 -15,10 -7,1 -15,1 -22,-1l4 0z"/>
  <path class="fil3" d="M6701 2160c2,1 -6,14 -22,22 -17,7 -32,4 -31,2 0,-2 14,-2 28,-8 15,-6 23,-16 25,-15z"/>
  <path class="fil4" d="M6663 3623c0,0 454,-246 522,-481 15,-51 27,-280 27,-280l-234 6c0,0 -15,226 -33,254 -100,155 -297,291 -359,330 -11,1 -23,1 -37,1 -13,0 -29,-3 -41,-2 -28,0 -40,9 -51,10 -28,2 -26,24 -12,25 13,1 35,-8 79,4 45,12 -12,50 -33,66 -23,18 -72,47 -72,47 9,9 37,13 61,1 24,-12 37,-21 37,-21 0,0 -35,35 -27,43 8,8 83,46 135,20l38 -22z"/>
  <polygon class="fil3" points="6816,2748 6924,2748 6924,2718 6816,2718 "/>
  <polygon class="fil11" points="3803,5151 3392,5522 3279,5378 3640,4931 "/>
  <path class="fil6" d="M3401 5536l14 -12 -130 -160 -59 51 8 10c35,44 181,223 215,244 37,23 -48,-133 -48,-133z"/>
  <path class="fil7" d="M3279 5467l-48 -56 -1 1 43 -38c12,12 19,28 20,46 1,17 -4,33 -14,47z"/>
  <path class="fil8" d="M3455 5672c-1,0 -4,-2 -7,-4 1,0 1,1 2,1 3,2 5,2 6,2 2,0 2,-1 3,-2 0,2 -1,3 -3,3 0,0 0,0 0,0zm-9 -45c-2,-4 -4,-8 -6,-13 1,1 3,6 6,13zm-95 -61c-46,-52 -96,-112 -125,-152l0 0 8 10c19,24 69,86 117,142z"/>
  <path class="fil7" d="M3456 5671c-1,0 -3,-1 -6,-2 0,0 -1,-1 -2,-1 -16,-13 -55,-54 -96,-101 -48,-56 -98,-118 -117,-142l-8 -10 2 -2 48 56c1,-1 1,-1 1,-2l130 151c0,0 13,-7 23,-7 3,0 7,1 9,3 0,0 0,0 0,0 2,4 4,9 6,13 6,14 14,34 12,42 -1,1 -1,2 -3,2z"/>
  <path class="fil9" d="M3277 5469l-48 -56 1 -1 48 56c0,1 -1,1 -1,2z"/>
  <path class="fil3" d="M3229 5409c0,0 1,1 2,3 2,2 4,5 6,8 6,8 14,18 23,29 20,24 48,58 80,94 32,36 61,68 83,91 10,11 19,20 26,27 3,3 5,5 7,7 2,2 3,2 3,2 0,0 -1,-1 -2,-3 -2,-2 -4,-5 -7,-8 -7,-7 -15,-17 -25,-27 -21,-23 -50,-55 -82,-91 -32,-36 -60,-69 -80,-93 -9,-11 -17,-21 -24,-28 -2,-3 -5,-5 -7,-8 -2,-2 -2,-3 -2,-3z"/>
  <path class="fil3" d="M3407 5620c0,1 7,-5 18,-7 10,-2 19,1 19,0 0,-1 -8,-5 -19,-3 -11,2 -18,9 -17,9z"/>
  <path class="fil3" d="M3390 5554c0,1 5,1 10,0 6,-1 10,-2 10,-3 0,-1 -5,-1 -10,0 -6,1 -10,2 -10,3z"/>
  <path class="fil3" d="M3385 5536c0,1 4,2 8,2 5,1 9,0 9,0 0,-1 -4,-2 -8,-2 -5,-1 -9,0 -9,0z"/>
  <path class="fil3" d="M3393 5516c-1,0 2,4 6,9 4,4 7,8 8,7 1,0 -2,-4 -6,-9 -4,-4 -7,-8 -8,-7z"/>
  <path class="fil3" d="M3401 5504c-1,0 1,6 5,11 4,6 9,9 9,8 0,-1 -3,-4 -7,-10 -4,-5 -7,-10 -7,-10z"/>
  <path class="fil3" d="M3408 5548c0,0 3,4 9,10 3,3 7,6 12,8 2,1 5,3 8,4 2,0 3,1 5,0 2,-1 3,-3 3,-5 -3,-14 -17,-19 -25,-18 -4,0 -7,2 -9,3 -2,1 -3,2 -3,2 0,0 4,-3 12,-3 4,0 9,1 13,4 4,3 9,7 10,12 0,3 -2,4 -5,3 -2,-1 -5,-2 -7,-3 -5,-3 -8,-5 -12,-8 -6,-5 -10,-9 -10,-8z"/>
  <path class="fil3" d="M3409 5551c0,0 4,-1 8,-5 2,-2 4,-5 5,-9 1,-4 2,-9 -2,-13 -2,-2 -6,-1 -7,1 -2,2 -2,4 -3,6 -1,4 -2,7 -2,10 0,6 1,9 1,9 0,0 0,-4 1,-9 0,-3 1,-6 2,-9 1,-3 4,-7 6,-5 2,2 2,7 2,10 -1,3 -2,6 -4,8 -3,4 -7,6 -7,6z"/>
  <path class="fil3" d="M3273 5376c0,0 4,4 10,12 5,8 11,20 12,34 1,14 -4,27 -8,35 -5,8 -9,12 -8,13 0,0 1,-1 3,-3 2,-2 4,-5 7,-9 5,-8 10,-21 9,-36 -1,-15 -7,-27 -13,-35 -3,-4 -6,-7 -8,-8 -2,-2 -3,-3 -3,-2z"/>
  <path class="fil3" d="M3309 5476c-1,0 7,12 18,24 11,13 21,21 22,21 0,-1 -9,-10 -20,-22 -11,-12 -19,-23 -20,-23z"/>
  <path class="fil3" d="M3283 5445c-1,0 -1,3 -3,6 -1,3 -3,5 -2,6 0,0 3,-1 5,-5 2,-4 1,-7 1,-7z"/>
  <path class="fil3" d="M3287 5422c-1,0 -1,2 -2,5 0,3 0,5 1,6 1,0 1,-2 2,-5 0,-3 0,-5 -1,-6z"/>
  <path class="fil3" d="M3279 5400c0,1 1,3 3,6 1,3 1,6 2,6 1,0 2,-3 0,-7 -2,-4 -5,-5 -5,-5z"/>
  <path class="fil3" d="M3272 5385c-1,0 -1,2 0,4 1,2 2,3 2,3 1,0 1,-2 0,-4 -1,-2 -2,-3 -2,-3z"/>
  <polygon class="fil11" points="4535,5147 4584,5707 4372,5707 4279,5147 "/>
  <path class="fil6" d="M4577 5713l-1 -19 -206 -1 2 78 13 0c57,1 288,2 325,-11 42,-14 -134,-47 -134,-47z"/>
  <path class="fil7" d="M4374 5768l-2 -57c3,0 5,0 7,0 15,0 29,5 41,14 13,10 23,24 27,40l-73 2 0 2 0 0z"/>
  <path class="fil10" d="M4456 5772c-31,0 -60,-1 -82,-2l0 0 13 0c14,0 40,1 70,1 34,0 75,0 113,-1 -38,1 -78,2 -114,2z"/>
  <path class="fil8" d="M4709 5760c1,0 1,0 2,-1 6,-2 7,-4 6,-7 1,2 2,3 1,5 -1,1 -4,2 -8,3zm-32 -25c-4,-1 -9,-3 -14,-4 1,0 7,2 14,4z"/>
  <path class="fil7" d="M4457 5772c-31,0 -56,0 -70,-1l-13 0 0 -3 74 -1c0,-1 0,-2 -1,-2l199 -5c0,0 5,-26 17,-27 0,0 0,0 0,0 5,1 9,3 14,4 14,4 34,11 40,17 2,3 0,5 -6,7 -1,0 -1,0 -2,1 -21,4 -76,8 -139,10 -39,1 -79,1 -113,1z"/>
  <path class="fil9" d="M4374 5768l0 -2 73 -2c0,1 0,2 1,2l-74 1z"/>
  <path class="fil3" d="M4370 5766c0,0 1,0 4,0 3,0 6,0 10,0 10,0 23,0 37,0 31,0 75,-1 123,-2 48,-2 91,-4 123,-6 15,-1 27,-2 37,-3 4,0 7,-1 10,-1 2,0 4,0 4,-1 0,0 -1,0 -4,0 -3,0 -6,0 -10,1 -10,1 -23,1 -37,2 -31,2 -75,4 -123,6 -48,2 -91,2 -123,3 -15,0 -27,0 -37,1 -4,0 -7,0 -10,0 -2,0 -4,0 -4,0z"/>
  <path class="fil3" d="M4646 5762c1,0 1,-9 6,-18 5,-9 13,-14 12,-15 0,-1 -9,4 -14,13 -6,10 -5,19 -4,19z"/>
  <path class="fil3" d="M4585 5734c1,0 3,-3 6,-8 3,-5 5,-9 4,-9 -1,0 -3,3 -6,8 -3,5 -5,9 -4,9z"/>
  <path class="fil3" d="M4568 5725c0,0 4,-2 7,-5 3,-3 6,-6 5,-7 0,0 -4,2 -7,5 -3,3 -6,6 -5,7z"/>
  <path class="fil3" d="M4557 5706c0,1 5,1 11,1 6,0 11,-1 11,-1 0,-1 -5,-1 -11,-1 -6,0 -11,1 -11,2z"/>
  <path class="fil3" d="M4553 5693c0,1 5,3 12,3 7,0 12,-1 12,-2 0,-1 -6,0 -12,0 -7,0 -12,-1 -12,-1z"/>
  <path class="fil3" d="M4591 5715c0,0 5,1 13,-1 4,-1 9,-2 14,-4 3,-1 5,-2 8,-4 1,-1 3,-2 3,-4 0,-2 -1,-4 -2,-5 -13,-6 -25,1 -30,8 -2,3 -4,7 -4,9 0,2 0,4 0,4 0,0 1,-5 6,-11 2,-3 6,-6 11,-8 5,-2 11,-2 16,1 2,1 1,4 -1,5 -2,1 -5,2 -7,3 -5,2 -10,3 -13,4 -8,2 -13,2 -13,2z"/>
  <path class="fil3" d="M4594 5716c0,0 2,-3 1,-9 0,-3 -2,-6 -4,-9 -2,-3 -6,-7 -11,-6 -3,0 -4,4 -4,6 0,2 1,4 2,6 2,3 4,6 6,8 4,4 8,5 8,5 0,0 -3,-2 -6,-6 -2,-2 -4,-5 -6,-8 -2,-3 -3,-8 0,-8 3,0 7,3 9,5 2,3 3,6 4,8 1,5 0,9 1,9z"/>
  <path class="fil3" d="M4373 5710c0,0 6,-1 15,0 9,1 22,4 33,12 11,8 18,20 22,28 3,9 4,15 4,14 0,0 0,-1 0,-4 0,-3 -1,-6 -3,-11 -3,-9 -10,-21 -22,-30 -12,-9 -25,-12 -35,-12 -5,0 -9,0 -11,1 -3,0 -4,1 -4,1z"/>
  <path class="fil3" d="M4473 5746c0,1 13,2 30,2 17,-1 30,-3 30,-4 0,-1 -13,1 -30,1 -16,1 -30,0 -30,1z"/>
  <path class="fil3" d="M4432 5747c0,1 1,3 3,6 2,3 2,6 3,6 1,0 1,-3 -1,-7 -2,-3 -4,-5 -5,-5z"/>
  <path class="fil3" d="M4417 5729c0,1 1,3 3,5 2,2 4,3 5,3 0,-1 -1,-3 -3,-5 -2,-2 -4,-3 -5,-3z"/>
  <path class="fil3" d="M4395 5721c0,1 3,1 6,2 3,1 5,2 6,2 1,0 -1,-3 -5,-4 -4,-1 -7,0 -7,1z"/>
  <path class="fil3" d="M4379 5717c0,1 1,2 3,2 2,1 3,1 4,0 0,-1 -1,-2 -3,-2 -2,-1 -3,-1 -4,0z"/>
  <path class="fil3" d="M4162 3501c0,0 166,1102 142,1155 -24,53 -561,603 -561,603l-202 -345c0,0 355,-394 350,-414 -5,-20 -256,-1087 -256,-1087l527 89z"/>
  <path class="fil3" d="M4221 3908c-2,-12 -135,-313 -135,-313l65 -92 12 -2 59 407z"/>
  <path class="fil3" d="M3541 3397l-10 41c-30,120 -11,248 51,355l450 779c32,55 55,115 69,177l112 504 369 0c0,0 -46,-345 -86,-598 -31,-190 -285,-782 -409,-1061l76 -94 -133 -22 -488 -82z"/>
  <path class="fil12" d="M4095 3593c-1,0 7,19 19,49 12,30 29,72 47,118 18,46 34,88 45,119 11,31 18,49 19,49 0,0 -1,-5 -3,-14 -2,-9 -6,-21 -11,-37 -10,-31 -25,-74 -43,-120 -18,-46 -36,-88 -49,-117 -7,-15 -12,-27 -17,-35 -4,-8 -7,-13 -7,-12z"/>
  <path class="fil12" d="M4136 4902c0,0 0,-3 0,-9 -1,-7 -2,-15 -3,-25 -1,-11 -3,-24 -6,-39 -3,-15 -6,-33 -11,-52 -2,-9 -5,-19 -7,-30 -3,-10 -6,-21 -9,-32 -6,-22 -15,-45 -23,-69 -18,-48 -41,-100 -68,-153 -55,-106 -114,-196 -157,-261 -22,-32 -40,-58 -52,-76 -6,-8 -11,-15 -15,-20 -3,-5 -5,-7 -6,-7 0,0 1,3 4,8 4,6 8,13 13,21 12,19 29,45 50,77 42,65 100,156 155,261 27,53 50,104 69,152 9,24 18,47 24,69 3,11 7,21 10,32 3,10 5,20 8,29 5,19 8,36 12,51 3,15 6,28 7,39 2,10 3,18 4,25 1,6 2,9 2,9z"/>
  <path class="fil11" d="M3101 3428l-18 49c-12,46 -21,71 -14,88 10,23 34,5 34,5 0,0 -1,36 20,41 14,3 21,-12 21,-12 0,0 1,33 10,43 13,14 29,-3 29,-3 9,48 34,53 40,45 6,-8 3,-44 3,-44 2,-28 7,-106 36,-66 29,40 66,60 80,58 14,-2 17,-21 3,-29 -11,-6 -26,-22 -36,-34 -9,-10 -16,-22 -21,-34 -6,-15 -10,-27 -13,-38l-26 -59 -149 -11z"/>
  <path class="fil11" d="M4662 2478l0 0 2 -6c16,-48 34,-105 40,-136 11,-58 6,-59 -1,-59 -19,-1 -23,101 -35,78 -12,-23 20,-123 0,-123 -25,0 -28,107 -29,116 -1,9 -14,8 -13,0 2,-12 17,-134 -8,-134 -14,0 -11,25 -11,25 0,0 -6,116 -18,115 -12,-1 -11,-69 -9,-92 2,-23 -8,-33 -19,-26 -7,5 -15,75 -17,97 -2,23 -5,85 -28,52l-1 -1c-22,-33 -50,-51 -62,-50 -11,0 -16,15 -8,23 1,1 2,3 4,4l2 2c9,7 19,21 26,31 7,10 12,21 16,33 4,13 7,25 9,35l-9 84 152 0 15 -49 0 -18z"/>
  <path class="fil6" d="M3817 2476c0,0 -268,-81 -276,263 -2,101 53,245 86,325 11,27 12,57 3,85 -29,90 -101,222 -113,296l645 56 -12 -567 147 11c-78,-493 -321,-474 -321,-474l-159 5z"/>
  <path class="fil6" d="M3687 2795c0,0 -123,72 -130,77 -65,44 -223,128 -223,128 -4,37 -50,484 -50,484l-245 -4c0,0 40,-425 44,-510 0,0 14,-114 136,-207 122,-92 357,-241 443,-277l26 308z"/>
  <path class="fil6" d="M4172 2593l205 220 106 -317 190 0 -113 452c-22,88 -101,149 -191,149 -54,0 -106,-22 -143,-62 -69,-73 -173,-185 -172,-190 3,-8 118,-253 118,-253z"/>
  <path class="fil3" d="M3674 2503c0,0 2,1 4,2 3,2 6,4 11,8 9,7 21,19 33,37 12,17 23,40 28,68 5,27 5,58 -3,90 -8,31 -27,58 -48,76 -21,19 -41,32 -59,43 -18,11 -32,19 -42,25 -10,6 -16,9 -16,9 0,0 5,-4 14,-11 9,-7 24,-16 41,-27 17,-12 37,-25 57,-44 20,-18 37,-43 45,-73 8,-30 8,-60 3,-87 -5,-26 -15,-49 -26,-66 -22,-35 -45,-49 -43,-50z"/>
  <path class="fil3" d="M4138 2998c-1,0 3,-17 9,-45 6,-28 14,-67 12,-110 -1,-21 -9,-40 -17,-57 -8,-17 -15,-33 -19,-47 -4,-14 -7,-25 -8,-33 -2,-8 -2,-12 -2,-12 1,0 6,17 15,44 5,13 11,29 20,46 8,17 17,37 18,60 2,44 -7,83 -14,111 -4,14 -7,25 -9,33 -2,8 -4,12 -5,12z"/>
  <path class="fil13" d="M3629 3068c-2,-4 -4,-9 -5,-13 1,3 2,6 4,9 0,1 1,1 1,2l1 2z"/>
  <path class="fil14" d="M3628 3066c0,-1 -1,-1 -1,-2 -1,-3 -2,-6 -4,-9 0,-2 -1,-3 -1,-5l6 15z"/>
  <path class="fil13" d="M3571 2908l-13 -36c1,0 2,-1 3,-1 3,12 7,25 10,37z"/>
  <path class="fil14" d="M3622 3051l-52 -143c-4,-12 -7,-25 -10,-37 8,-3 15,-7 23,-11 0,0 0,0 0,0 1,0 6,-3 16,-9 10,-6 24,-14 42,-25 13,-8 27,-17 42,-29 3,-2 5,-3 5,-3l0 -1c4,-3 8,-7 12,-10 17,-15 34,-36 43,-61 7,40 -9,81 -30,116 -22,35 -50,67 -69,104 -16,32 -29,74 -21,108z"/>
  <path class="fil14" d="M3682 2798c2,-1 3,-3 5,-4l0 1c0,0 -2,1 -5,3z"/>
  <path class="fil15" d="M3583 2860c0,0 0,0 0,0 27,-15 50,-36 77,-52 35,-21 66,-51 82,-89 0,1 0,2 1,3 -10,25 -26,46 -43,61 -4,4 -8,7 -12,10 -2,1 -3,3 -5,4 -15,12 -29,21 -42,29 -18,11 -32,19 -42,25 -9,6 -15,9 -16,9z"/>
  <path class="fil13" d="M4241 3049c-1,-1 -3,-2 -5,-4 2,2 3,3 5,4zm-14 -14c-24,-24 -65,-69 -75,-80 0,0 0,0 0,0 25,27 52,56 75,80 0,0 0,0 0,0z"/>
  <path class="fil14" d="M4241 3049c0,0 0,0 0,0 -2,-1 -3,-3 -5,-4 -3,-2 -6,-6 -9,-9 0,0 0,0 0,0 -23,-24 -50,-53 -75,-80 0,-1 0,-1 1,-2 6,-25 14,-59 14,-99 16,51 75,195 75,195z"/>
  <path class="fil15" d="M4151 2956c-1,-1 -2,-2 -2,-2 13,-43 9,-118 12,-118 0,0 1,2 2,5 1,3 2,8 4,14 0,39 -8,74 -14,99 0,1 0,1 -1,2 0,0 0,0 0,0z"/>
  <path class="fil3" d="M4076 1943c12,26 16,56 12,84 -3,19 -9,39 1,55 12,20 41,23 53,42 17,29 -17,66 -4,97 9,20 33,27 50,42 23,20 27,57 12,84 -13,23 -38,37 -62,50 -18,10 -36,20 -54,29 -10,5 -20,11 -31,9 -19,-4 -27,-28 -44,-37 -21,-12 -47,2 -71,2 -18,0 -36,-7 -48,-21 -12,-13 -18,-32 -16,-50l203 -387z"/>
  <path class="fil11" d="M3991 2492c-3,-61 -5,-125 -5,-125 0,0 78,-17 89,-120 10,-98 -17,-323 -17,-323 -115,-40 -247,-3 -323,92l32 494c4,57 56,100 117,95l0 0c62,-5 110,-55 107,-113z"/>
  <path class="fil3" d="M4055 2102c1,7 -5,13 -12,14 -7,1 -14,-4 -14,-11 -1,-7 5,-13 12,-14 7,-1 14,4 14,11z"/>
  <path class="fil3" d="M4058 2086c-2,2 -12,-5 -26,-4 -14,1 -24,8 -26,7 -1,-1 1,-4 5,-7 4,-4 12,-7 20,-7 9,0 16,2 21,6 5,3 6,6 5,7z"/>
  <path class="fil3" d="M3906 2112c1,7 -5,13 -12,14 -7,1 -14,-4 -14,-11 -1,-7 5,-13 12,-14 7,-1 14,4 14,11z"/>
  <path class="fil3" d="M3911 2099c-2,2 -12,-5 -26,-4 -14,1 -24,8 -26,7 -1,-1 1,-4 5,-7 4,-4 12,-7 20,-7 9,0 16,2 21,6 5,3 6,6 5,7z"/>
  <path class="fil3" d="M3968 2201c0,-1 9,-3 23,-5 4,-1 7,-1 7,-4 1,-3 -1,-6 -3,-11 -4,-9 -8,-17 -12,-27 -17,-38 -29,-70 -28,-71 2,-1 16,30 33,68 4,9 8,18 12,27 2,4 4,9 3,14 -1,3 -3,5 -6,6 -2,1 -4,1 -6,1 -14,2 -23,2 -23,1z"/>
  <path class="fil16" d="M3986 2367c0,0 -69,8 -139,-29 0,0 37,69 139,54l0 -24z"/>
  <path class="fil16" d="M3963 2235c-5,-6 -15,-10 -23,-8 -6,1 -12,4 -16,9 -3,5 -4,12 0,17 4,5 12,6 19,4 7,-2 12,-7 17,-12 1,-1 3,-3 4,-4 1,-2 1,-4 0,-5l-1 0z"/>
  <path class="fil3" d="M3927 2213c2,0 3,15 17,25 14,10 30,8 30,10 0,1 -3,3 -10,4 -7,1 -17,-1 -25,-7 -8,-6 -12,-15 -13,-21 -1,-6 1,-10 2,-10z"/>
  <path class="fil11" d="M3778 2127c-11,-2 -23,-1 -33,4 -10,4 -19,13 -23,23 -4,10 -3,22 1,33 4,10 12,19 20,27 6,5 13,10 21,12 8,2 17,1 23,-5l-9 -94z"/>
  <path class="fil16" d="M3775 2194c1,0 -3,7 -13,5 -5,-1 -10,-5 -13,-10 -3,-5 -5,-11 -6,-18 -1,-7 0,-14 4,-19 3,-5 9,-9 14,-9 10,-1 14,6 13,6 -1,1 -5,-3 -12,-1 -6,2 -12,11 -10,22 2,11 7,21 13,24 6,3 11,0 11,1z"/>
  <path class="fil3" d="M4032 1898c11,30 -2,67 -29,84 -27,18 -62,15 -94,19 -32,4 -68,21 -72,53 -2,19 9,40 1,58 -9,21 -39,26 -50,46 -18,32 23,70 16,106 -5,21 -26,36 -31,57 -8,30 17,67 -4,90 -16,18 -45,10 -66,-2 -20,-12 -42,-28 -66,-23 -14,3 -25,13 -38,19 -23,11 -53,6 -72,-11 -19,-17 -26,-47 -18,-71 6,-18 20,-32 32,-47 12,-15 22,-33 19,-52 -2,-15 -11,-27 -18,-40 -7,-13 -11,-29 -3,-42 14,-22 51,-14 68,-33 23,-27 -14,-71 2,-102 19,-36 84,-18 103,-54 7,-13 4,-29 8,-43 8,-32 46,-48 80,-48 33,-1 67,9 100,6 18,-2 36,-8 54,-10 18,-3 38,-3 53,6 16,9 27,29 21,46l4 -11z"/>
  <path class="fil3" d="M4006 1966c13,36 44,64 81,75 3,-25 6,-50 3,-75 -3,-25 -12,-50 -29,-68 -17,-18 -44,-29 -68,-24l14 93z"/>
  <path class="fil12" d="M3572 2401c0,0 -3,-1 -5,-6 -2,-5 -3,-13 3,-22 3,-4 7,-8 12,-10 5,-3 12,-5 19,-7 7,-2 14,-4 22,-8 7,-4 15,-10 17,-19 3,-9 0,-19 -4,-28 -4,-9 -10,-18 -13,-28 -7,-20 -4,-44 10,-63 7,-10 16,-18 27,-23 11,-5 24,-7 36,-12 6,-2 12,-6 17,-10 5,-5 8,-11 10,-18 3,-14 -1,-28 -2,-41 -1,-14 1,-27 7,-39 6,-12 14,-23 23,-31 19,-18 43,-27 65,-33 23,-6 46,-9 67,-12 21,-3 41,-6 58,-11 17,-5 33,-12 45,-19 12,-8 21,-16 28,-24 7,-8 10,-15 13,-20 2,-5 3,-8 3,-8 0,0 -1,3 -4,7 -2,5 -6,12 -13,19 -13,15 -38,33 -72,42 -17,5 -37,8 -58,10 -21,3 -44,5 -67,11 -23,6 -47,16 -67,34 -10,9 -18,20 -24,32 -6,12 -9,26 -7,40 1,14 5,27 2,40 -1,6 -4,12 -9,16 -5,4 -10,7 -16,10 -12,5 -25,7 -36,12 -12,5 -21,14 -28,24 -14,20 -17,45 -10,66 4,10 9,19 13,28 4,9 7,18 4,27 -2,9 -9,14 -16,18 -7,4 -14,6 -21,8 -7,2 -13,4 -19,7 -5,3 -10,7 -13,11 -5,9 -5,18 -2,23 2,5 6,6 5,6z"/>
  <path class="fil12" d="M3611 2087l1 0c1,0 2,1 4,1 3,1 8,2 14,3 6,1 14,2 23,0 9,-1 19,-6 27,-15 8,-8 14,-20 18,-33 4,-13 8,-27 14,-40 6,-13 17,-26 30,-35 13,-10 28,-17 45,-22 33,-10 67,-10 97,-11 15,-1 29,-1 43,-3 13,-2 26,-4 37,-7 22,-6 38,-16 48,-24 10,-8 14,-14 14,-14l-1 1 -3 3c-2,2 -6,6 -11,10 -10,8 -26,17 -48,23 -11,3 -23,5 -36,7 -13,2 -28,2 -43,3 -30,1 -64,1 -97,11 -17,5 -32,13 -46,22 -13,10 -24,23 -30,36 -6,14 -10,28 -14,41 -4,13 -10,24 -17,32 -7,8 -17,13 -26,14 -9,2 -17,1 -23,0 -6,-1 -11,-2 -14,-2 -3,-1 -5,-1 -5,-1z"/>
  <path class="fil12" d="M4135 2384c0,0 1,0 2,-1 1,0 3,-1 6,-3 5,-3 11,-7 17,-15 6,-7 11,-18 12,-31 1,-13 -2,-27 -11,-39 -9,-12 -21,-20 -33,-23 -12,-3 -24,-2 -32,-6 -8,-4 -13,-10 -14,-15 -1,-5 0,-8 0,-8 0,0 0,1 -1,2 0,1 -1,4 0,6 1,5 6,12 15,17 9,4 21,4 32,7 12,3 23,11 32,22 8,11 12,25 11,37 -1,12 -6,22 -11,30 -5,7 -12,12 -16,15 -4,3 -7,4 -7,4z"/>
  <path class="fil17" d="M2683 3952l78 -12c54,-9 98,-46 116,-97l95 -228 98 69 -96 300c-16,48 -56,84 -104,96l-156 39 -33 -177 2 11z"/>
  <path class="fil17" d="M3055 3723l0 0 3 -3c29,-24 63,-54 78,-72 29,-33 27,-36 22,-39 -12,-8 -54,56 -53,37 1,-19 60,-72 48,-80 -16,-10 -59,58 -63,63 -4,5 -12,0 -8,-5 6,-7 63,-80 47,-89 -9,-5 -17,12 -17,12 0,0 -49,72 -56,67 -8,-5 20,-48 30,-62 10,-14 8,-24 -2,-24 -7,0 -39,42 -49,56 -10,14 -36,53 -38,23l0 -1c-2,-30 -13,-52 -20,-56 -7,-4 -16,3 -14,12 0,1 0,3 1,4l1 2c3,8 4,20 5,30 1,9 0,18 -2,27 -3,10 -5,19 -8,26l95 72z"/>
  <path class="fil6" d="M2473 5752l4 -76 -143 -9 -8 112 9 1c39,5 200,21 227,15 30,-7 -90,-42 -90,-42z"/>
  <polygon class="fil18" points="2330,5736 2330,5736 2330,5737 "/>
  <path class="fil19" d="M2378 5779l-51 -4 0 1 3 -39 0 -1c0,0 0,0 1,0 12,0 23,5 32,13 9,8 14,19 16,30z"/>
  <path class="fil18" d="M2561 5794c0,0 1,0 1,0 4,-1 5,-3 5,-4 1,1 1,2 0,3 -1,1 -3,1 -6,1zm-98 -3c-48,-3 -103,-8 -137,-13l0 0 9 1c21,3 77,8 128,12zm78 -16c-1,-1 -3,-1 -5,-2l0 0c1,1 3,1 5,2z"/>
  <path class="fil20" d="M2537 5773l0 0c-2,-1 -4,-1 -6,-2l0 0c0,0 2,1 6,2z"/>
  <path class="fil19" d="M2544 5795c-19,0 -49,-1 -80,-3 -51,-4 -107,-10 -128,-12l-9 -1 0 -2 0 0 52 4c0,-1 0,-1 0,-2l139 10c0,0 5,-18 14,-18 0,0 0,0 0,0 2,1 4,1 6,2 2,1 3,1 5,2 9,4 23,10 26,15 1,2 0,3 -5,4 0,0 -1,0 -1,0 -4,0 -10,1 -17,1z"/>
  <path class="fil21" d="M2379 5780l-52 -4 0 0 0 -1 51 4c0,1 0,1 0,2z"/>
  <path class="fil3" d="M2325 5775c0,0 1,0 2,0 2,0 4,1 7,1 7,1 16,2 26,3 22,2 52,5 86,7 33,2 64,4 86,4 10,0 19,0 26,1 3,0 5,0 7,0 2,0 2,0 2,0 0,0 -1,0 -2,0 -2,0 -4,0 -7,0 -7,0 -16,-1 -26,-1 -22,-1 -52,-2 -86,-5 -33,-2 -64,-5 -86,-7 -10,-1 -19,-2 -26,-2 -3,0 -5,0 -7,-1 -2,0 -2,0 -2,0z"/>
  <path class="fil3" d="M2517 5791c1,0 1,-6 6,-12 4,-6 10,-9 9,-9 0,0 -6,2 -11,8 -5,6 -5,13 -4,13z"/>
  <path class="fil3" d="M2476 5767c0,0 3,-2 5,-5 2,-3 4,-6 3,-6 0,0 -3,2 -5,5 -2,3 -4,6 -3,6z"/>
  <path class="fil3" d="M2465 5760c0,0 3,-1 5,-3 3,-2 4,-4 4,-4 0,0 -3,1 -5,3 -3,2 -4,4 -4,4z"/>
  <path class="fil3" d="M2459 5746c0,0 3,1 7,1 4,0 7,0 8,0 0,0 -3,-1 -7,-1 -4,0 -7,0 -8,0z"/>
  <path class="fil3" d="M2457 5736c0,0 3,2 8,3 5,1 9,0 9,-1 0,-1 -4,0 -8,-1 -5,-1 -8,-2 -8,-1z"/>
  <path class="fil3" d="M2482 5755c0,0 3,1 9,1 3,0 6,-1 10,-2 2,-1 4,-1 6,-2 1,-1 2,-1 2,-3 0,-1 0,-3 -1,-4 -8,-5 -18,-1 -21,4 -2,2 -3,4 -3,6 0,2 0,2 0,2 0,0 1,-4 5,-8 2,-2 5,-4 8,-5 3,-1 8,-1 11,1 1,1 1,3 -1,4 -2,1 -4,1 -5,2 -4,1 -7,2 -10,2 -6,1 -9,0 -9,1z"/>
  <path class="fil3" d="M2484 5755c0,0 2,-2 1,-6 0,-2 -1,-4 -2,-7 -1,-2 -3,-5 -7,-5 -2,0 -3,2 -3,4 0,2 1,3 1,4 1,2 3,4 4,6 3,3 5,4 5,4 0,0 -2,-2 -4,-5 -1,-2 -2,-3 -3,-6 -1,-2 -2,-6 1,-6 2,0 5,2 6,4 1,2 2,4 2,6 0,4 -1,6 0,6z"/>
  <path class="fil3" d="M2330 5736c0,0 4,0 11,1 6,1 15,4 22,11 7,7 11,15 13,21 2,6 2,10 2,10 0,0 0,-1 0,-3 0,-2 0,-5 -1,-8 -1,-6 -5,-15 -13,-22 -8,-7 -17,-10 -23,-11 -3,0 -6,0 -8,0 -2,0 -3,0 -3,0z"/>
  <path class="fil3" d="M2349 5677c0,0 -2,13 -3,29 -1,16 -2,29 -1,29 0,0 2,-13 3,-29 1,-16 2,-29 1,-29z"/>
  <path class="fil3" d="M2397 5767c0,0 9,3 21,3 12,1 21,0 21,0 0,-1 -9,-1 -21,-1 -11,-1 -21,-2 -21,-2z"/>
  <path class="fil3" d="M2369 5766c0,0 1,2 1,4 1,2 1,4 2,4 0,0 1,-2 0,-5 -1,-3 -3,-4 -3,-4z"/>
  <path class="fil3" d="M2360 5752c0,0 0,2 2,3 1,2 3,3 3,2 0,0 0,-2 -2,-3 -1,-2 -3,-3 -3,-2z"/>
  <path class="fil3" d="M2345 5745c0,0 2,1 4,1 2,1 4,2 4,2 0,0 -1,-2 -3,-3 -3,-1 -5,0 -5,0z"/>
  <polygon class="fil3" points="2335,5741 2336,5743 2339,5743 2337,5741 "/>
  <path class="fil6" d="M2137 5532l62 -45 -84 -116 -91 65 5 8c21,33 111,168 133,185 24,19 -24,-96 -24,-96z"/>
  <path class="fil18" d="M2056 5412l2 -1c0,0 0,0 0,0l-2 1z"/>
  <path class="fil19" d="M2056 5476l-30 -42 -1 1 31 -22 2 -1c8,9 12,21 11,33 0,12 -5,23 -13,31z"/>
  <path class="fil18" d="M2165 5631c0,0 0,0 0,0 -1,0 -3,-1 -5,-4 0,0 1,1 1,1 2,1 3,2 4,2 1,0 2,0 2,-1 0,1 -1,2 -2,2zm-3 -33c-1,-3 -2,-6 -3,-8 0,1 1,4 3,8zm-62 -48c-28,-39 -59,-85 -76,-114l0 0 5 8c11,18 42,64 72,107z"/>
  <path class="fil19" d="M2165 5630c-1,0 -2,-1 -4,-2 0,0 -1,-1 -1,-1 -10,-10 -34,-41 -60,-77 -30,-42 -60,-89 -72,-107l-5 -8 2 -1 0 0 29 43c0,0 1,-1 1,-1l80 114c0,0 8,-3 15,-3 3,0 6,1 8,3 0,0 0,0 0,0 1,3 2,6 3,8 3,10 7,25 6,31 0,1 -1,1 -2,1z"/>
  <path class="fil21" d="M2055 5477l-29 -43 0 0 1 -1 30 42c0,0 -1,1 -1,1z"/>
  <path class="fil3" d="M2025 5432c0,0 0,1 1,2 1,2 2,4 4,6 4,6 9,13 14,22 12,18 29,43 49,71 20,27 38,52 51,69 6,8 12,15 16,20 2,2 3,4 4,5l2 2c0,0 0,-1 -1,-2 -1,-2 -3,-4 -4,-6 -4,-6 -9,-13 -16,-21 -13,-18 -31,-42 -51,-69 -20,-27 -37,-52 -49,-70 -6,-8 -11,-16 -15,-21 -2,-2 -3,-4 -4,-6 -1,-1 -1,-2 -2,-2z"/>
  <path class="fil3" d="M2134 5591c0,0 6,-3 13,-3 7,-1 13,2 13,1 0,0 -5,-4 -13,-3 -8,1 -13,5 -13,5z"/>
  <path class="fil3" d="M2127 5544c0,0 3,1 7,0 4,0 7,-1 7,-1 0,0 -3,-1 -7,0 -4,0 -7,1 -7,1z"/>
  <path class="fil3" d="M2125 5531c0,0 2,1 6,2 3,1 6,1 6,0 0,0 -2,-1 -6,-2 -3,-1 -6,-1 -6,0z"/>
  <path class="fil3" d="M2132 5517c0,0 1,3 4,7 2,3 5,6 5,6 0,0 -1,-3 -4,-7 -2,-3 -5,-6 -5,-6z"/>
  <path class="fil3" d="M2138 5510c0,0 0,4 3,8 3,4 6,7 6,6 0,0 -2,-3 -4,-7 -2,-4 -4,-7 -4,-7z"/>
  <path class="fil3" d="M2140 5541c0,0 2,3 5,7 2,2 4,4 7,7 2,1 3,2 5,3 1,0 2,1 4,0 1,-1 2,-2 2,-3 -1,-10 -11,-14 -16,-14 -3,0 -5,1 -7,1 -2,1 -2,1 -2,1 0,0 3,-2 9,-1 3,0 6,1 9,3 3,2 6,6 6,9 0,2 -2,2 -3,2 -2,-1 -3,-2 -5,-3 -3,-2 -6,-4 -8,-6 -4,-4 -6,-7 -6,-7z"/>
  <path class="fil3" d="M2141 5543c0,0 3,0 6,-3 2,-1 3,-3 4,-6 1,-3 2,-6 -1,-9 -1,-2 -4,-1 -5,0l-2 4c-1,2 -2,5 -2,7 -1,4 0,6 0,6 0,0 0,-2 1,-6 0,-2 1,-4 2,-6 1,-2 3,-5 5,-3 2,2 1,5 0,7 -1,2 -2,4 -3,6 -3,3 -5,3 -5,4z"/>
  <path class="fil3" d="M2059 5412c0,0 3,3 6,9 3,6 6,14 6,24 -1,10 -4,18 -8,24 -4,5 -7,8 -7,8 0,0 1,0 2,-2 1,-1 3,-3 5,-6 4,-5 8,-14 9,-24 1,-10 -3,-19 -6,-25 -2,-3 -3,-5 -5,-6 -1,-1 -2,-2 -2,-2z"/>
  <path class="fil3" d="M2116 5389c0,0 -11,7 -25,16 -13,9 -24,17 -24,18 0,0 11,-7 25,-16 13,-9 24,-17 24,-18z"/>
  <path class="fil3" d="M2077 5484c0,0 4,9 11,18 7,10 13,16 14,16 0,0 -6,-8 -12,-17 -7,-9 -11,-17 -12,-17z"/>
  <path class="fil3" d="M2060 5461c0,0 -1,2 -2,4 -1,2 -2,4 -2,4 0,0 2,-1 4,-3 1,-2 1,-5 1,-5z"/>
  <path class="fil3" d="M2065 5445c0,0 -1,2 -2,4 0,2 0,4 0,4 0,0 1,-2 1,-4 0,-2 0,-4 0,-4z"/>
  <path class="fil3" d="M2061 5429c0,0 1,2 1,4 1,2 1,4 1,4 0,0 1,-2 1,-5 -1,-3 -3,-4 -3,-4z"/>
  <polygon class="fil3" points="2057,5418 2057,5421 2058,5423 2058,5420 "/>
  <path class="fil12" d="M2616 4578c0,0 38,521 15,573 -12,27 -455,397 -455,397l-128 -198 294 -269 48 -502 226 0z"/>
  <path class="fil12" d="M2209 4584c0,0 0,4 -1,11 -5,71 1,142 18,211l95 381 -23 531 229 8 53 -574 -82 -574 -289 7z"/>
  <path class="fil3" d="M2573 5220c0,0 0,-5 1,-15 1,-11 2,-24 4,-41l0 1c-7,-46 -18,-119 -29,-202 -10,-71 -18,-135 -24,-182 -3,-22 -5,-41 -6,-55 -1,-13 -2,-20 -1,-20 0,0 2,7 4,20 2,14 5,33 9,55 7,46 16,111 26,182 11,82 21,156 27,202l0 0 0 0c-2,16 -4,30 -6,40 -1,9 -2,14 -3,14z"/>
  <path class="fil3" d="M2285 5063c0,0 2,4 4,11 3,9 6,20 10,32 8,28 19,67 31,112l0 1 0 1c-1,22 -2,46 -3,71 -3,64 -7,123 -11,165 -2,21 -4,38 -6,50 -2,12 -3,18 -4,18 -1,0 0,-7 1,-18 1,-13 2,-30 3,-50 2,-44 6,-101 9,-165 1,-25 3,-49 4,-71l0 1c-12,-46 -22,-85 -29,-113 -3,-13 -6,-24 -8,-33 -2,-8 -2,-12 -2,-12z"/>
  <path class="fil3" d="M2533 4579c2,0 9,42 11,94 1,26 2,50 -4,68 -6,18 -18,23 -18,22 -1,-1 9,-7 13,-23 5,-16 3,-40 2,-66 -2,-52 -6,-94 -4,-95z"/>
  <path class="fil3" d="M2500 4640c1,1 -2,4 0,10 1,3 3,6 6,7 3,1 7,0 10,-3 3,-3 3,-7 2,-10 -2,-3 -5,-5 -8,-5 -6,-1 -9,2 -10,1 -1,0 2,-6 11,-6 4,0 10,2 13,7 4,5 2,13 -2,18 -4,5 -12,8 -18,5 -6,-3 -8,-8 -9,-12 -1,-9 4,-12 5,-11z"/>
  <path class="fil3" d="M2377 4582c1,0 4,10 3,26 -1,16 -7,39 -24,58 -16,19 -38,29 -53,33 -16,4 -26,2 -26,2 0,-1 10,-2 25,-6 15,-5 34,-15 49,-33 15,-18 22,-39 24,-54 2,-15 1,-25 2,-25z"/>
  <polygon class="fil6" points="2645,4157 2799,4121 2766,3911 2518,3915 "/>
  <path class="fil6" d="M2310 3911c0,0 -179,3 -179,202l98 98 -33 407 434 -6 15 -455 13 -40c30,-93 -32,-193 -129,-201 -3,0 -7,0 -10,-1l-194 -4 -15 0z"/>
  <path class="fil3" d="M2604 3464c12,26 16,56 12,84 -3,19 -9,39 1,55 12,20 41,23 53,42 17,29 -17,66 -4,97 9,20 33,27 50,42 23,20 27,57 12,84 -13,23 -38,37 -62,50 -18,10 -36,20 -54,29 -10,5 -20,11 -31,9 -19,-4 -27,-28 -44,-37 -21,-12 -47,2 -71,2 -18,0 -36,-7 -48,-21 -12,-13 -18,-32 -16,-50l203 -387z"/>
  <path class="fil17" d="M2520 3932l-1 -77c0,0 84,-17 84,-87 0,-99 -17,-323 -17,-323 -115,-40 -247,-3 -323,92l33 413c4,57 56,100 117,95 62,-5 110,-55 107,-113z"/>
  <path class="fil3" d="M2437 3648c1,7 -5,13 -12,14 -7,1 -14,-4 -14,-11 -1,-7 5,-13 12,-14 7,-1 14,4 14,11z"/>
  <path class="fil3" d="M2437 3631c-1,2 -10,-5 -21,-5 -11,0 -19,8 -20,6 -1,-1 0,-4 4,-7 3,-3 9,-7 16,-7 7,0 13,3 17,6 4,3 5,6 4,7z"/>
  <path class="fil3" d="M2575 3641c1,7 -5,13 -12,14 -7,1 -14,-4 -14,-11 -1,-7 5,-13 12,-14 7,-1 14,4 14,11z"/>
  <path class="fil3" d="M2575 3624c-1,2 -10,-5 -21,-5 -11,0 -19,8 -20,6 -1,-1 0,-4 4,-7 3,-3 9,-7 16,-7 7,0 13,3 17,6 4,3 5,6 4,7z"/>
  <path class="fil22" d="M2520 3855c0,0 -70,5 -140,-33 0,0 38,70 140,55l0 -23z"/>
  <path class="fil3" d="M2511 3497c13,34 63,99 100,109 3,-24 8,-72 5,-96 -3,-24 -12,-48 -29,-65 -17,-17 -44,-28 -69,-23l-7 74z"/>
  <path class="fil3" d="M2494 3706c1,-1 10,7 25,6l-3 4c-4,-7 -7,-17 -11,-26 -11,-29 -14,-54 -12,-55 2,0 9,24 19,52 3,9 7,17 10,26l2 4 -4 0c-9,0 -16,-3 -20,-6 -4,-3 -6,-6 -5,-6z"/>
  <path class="fil3" d="M2514 3745c0,1 -3,4 -9,6 -6,2 -16,4 -26,1 -10,-3 -18,-9 -22,-14 -4,-5 -5,-9 -4,-10 2,-1 10,12 28,17 17,5 32,-2 33,0z"/>
  <path class="fil3" d="M2512 3432c24,25 23,64 7,94 -17,29 -46,51 -76,69 -48,29 -101,51 -156,67 -6,2 -13,3 -20,2 -9,-2 -15,-11 -19,-19 -27,-54 -4,-121 42,-162 46,-41 110,-61 173,-69 13,-2 26,-3 38,1 12,4 23,15 22,27l-11 -9z"/>
  <path class="fil3" d="M2253 3544c3,20 -14,37 -30,49 -16,12 -34,25 -38,45 -5,23 12,46 7,69 -4,19 -22,31 -37,43 -16,12 -32,27 -31,46 1,15 11,28 11,43 -1,16 -15,29 -27,39 -13,11 -26,24 -24,41 1,15 15,25 27,34 28,20 57,41 89,54 32,14 68,20 102,12 34,-8 64,-34 73,-68 6,-24 1,-50 -5,-74 -5,-24 -11,-47 -16,-71 -5,-21 -3,-41 -23,-45 -12,-3 -17,-12 -17,-12l-14 -11c-1,-3 -17,-10 -5,-19 14,-10 5,-39 21,-45 26,-9 45,-31 56,-56 11,-25 15,-52 17,-79l-136 5z"/>
  <path class="fil3" d="M2298 3525c-20,-1 -24,-33 -42,-41 -10,-5 -22,-2 -31,5 -9,6 -16,15 -24,22 -32,33 -79,51 -125,47 13,-9 27,-18 40,-26 -15,8 -34,9 -49,2 19,-3 33,-19 42,-36 9,-17 14,-36 25,-52 18,-28 52,-44 85,-42 21,1 43,11 54,29 9,16 9,35 15,53 6,17 22,35 40,30l-29 10z"/>
  <path class="fil17" d="M2326 3676c-10,-1 -20,-1 -29,3 -9,4 -17,11 -20,20 -4,9 -3,20 1,29 4,9 10,17 18,23 5,5 11,9 18,11 7,2 15,1 20,-4l-8 -83z"/>
  <path class="fil22" d="M2324 3734c1,0 -3,6 -12,4 -4,-1 -9,-4 -11,-9 -3,-5 -5,-10 -6,-16 -1,-6 0,-12 3,-17 3,-5 8,-8 12,-8 9,-1 12,5 11,6 -1,1 -4,-2 -10,-1 -6,1 -11,9 -9,19 2,10 6,19 11,21 6,3 9,0 10,1z"/>
  <path class="fil22" d="M2395 3696c-7,3 -11,10 -12,18 0,7 4,15 10,19 6,4 14,6 21,5 8,-2 16,-7 18,-15 3,-10 -3,-21 -12,-26 -9,-5 -16,-4 -25,0z"/>
  <path class="fil17" d="M2025 4740l0 0 -2 4c-13,35 -28,78 -33,101 -9,43 -5,44 0,45 14,1 19,-75 28,-58 8,17 -17,92 -3,93 19,1 23,-80 24,-86 1,-7 11,-5 10,1 -2,9 -16,100 3,101 10,0 9,-18 9,-18 0,0 7,-87 16,-86 9,1 7,52 5,69 -2,17 5,25 13,20 6,-4 13,-56 15,-73 2,-17 5,-64 22,-39l1 1c16,25 37,39 45,39 9,0 12,-11 7,-17 -1,-1 -2,-2 -3,-3l-2 -1c-6,-6 -14,-16 -19,-24 -5,-8 -9,-16 -11,-25 -3,-10 -5,-19 -6,-27l-118 -16z"/>
  <polygon class="fil17" points="2105,4157 2025,4740 2142,4774 2208,4337 2214,4256 "/>
  <path class="fil6" d="M2164 3989c0,0 -52,27 -87,252l159 56 12 -111 -84 -197z"/>
  <path class="fil23" d="M797 2422l232 -22c3,-26 -2,-152 -2,-152 0,0 95,-9 102,-102 7,-93 4,-308 4,-308 -106,-53 -232,-45 -330,21l-15 10 9 553z"/>
  <path class="fil3" d="M1096 1992c-1,-7 5,-14 12,-15 8,-1 14,5 15,12l-27 2z"/>
  <path class="fil3" d="M1123 1976c-2,2 -10,-6 -23,-7 -13,-1 -23,5 -24,4 -1,-1 1,-4 5,-6 4,-3 11,-5 19,-5 8,1 15,4 18,8 4,3 5,6 4,7z"/>
  <path class="fil3" d="M955 1990c0,-7 7,-13 14,-13 8,0 13,7 13,14l-27 -1z"/>
  <path class="fil3" d="M985 1980c-2,2 -10,-6 -23,-7 -13,-1 -23,5 -24,4 -1,-1 1,-4 5,-6 4,-3 11,-5 19,-5 8,1 15,4 18,8 4,3 5,6 4,7z"/>
  <path class="fil3" d="M1030 2089c0,-1 8,-2 21,-3 3,0 6,-1 7,-3 1,-2 0,-6 -2,-10 -3,-9 -6,-17 -9,-27 -12,-38 -20,-69 -18,-70 2,-1 13,30 25,68 3,9 5,18 8,27 1,4 3,9 1,14 -1,3 -4,4 -6,5 -2,1 -4,0 -6,0 -13,0 -21,-1 -21,-2z"/>
  <path class="fil17" d="M1028 2246c0,0 -60,1 -120,-42 0,0 27,74 121,71l-1 -29z"/>
  <path class="fil3" d="M1034 2116c1,1 -1,4 -6,6 -5,2 -13,4 -21,1 -8,-3 -13,-10 -15,-15 -2,-5 -1,-9 0,-9 2,-1 5,12 18,17 13,5 24,-2 25,-1z"/>
  <path class="fil3" d="M985 1935c-1,6 -16,8 -32,9 -16,1 -31,2 -33,-4 -2,-5 11,-16 31,-18 20,-2 35,7 34,13z"/>
  <path class="fil3" d="M1121 1937c-2,6 -15,6 -30,4 -15,-2 -27,-5 -28,-11 -1,-6 13,-12 30,-10 17,2 29,12 27,17z"/>
  <path class="fil3" d="M776 1951c-31,-44 -24,-109 14,-146 25,-24 61,-35 94,-45 23,-7 47,-14 70,-21 44,-13 92,-26 134,-9 30,12 52,39 65,69 12,30 15,63 14,95 -36,0 -71,-1 -107,-1 -4,-13 -9,-27 -13,-40 -6,15 -8,32 -7,48 -58,0 -115,3 -173,9 3,56 -1,149 -66,149l-25 -109z"/>
  <path class="fil23" d="M804 1967c-2,-1 -62,-8 -56,62 6,71 75,42 75,39 0,-2 -19,-102 -19,-102z"/>
  <path class="fil24" d="M800 2045c0,0 -1,1 -3,2 -2,1 -5,2 -9,1 -8,-2 -15,-14 -16,-26 -1,-6 0,-13 2,-18 2,-5 5,-9 9,-10 4,-1 7,1 8,3 1,2 1,3 1,3 0,0 1,-1 1,-4 0,-1 -1,-3 -3,-4 -2,-1 -4,-2 -7,-1 -5,1 -10,6 -12,12 -2,6 -3,13 -3,20 2,14 10,27 20,29 5,1 9,-1 11,-3 2,-2 2,-4 2,-4z"/>
  <path class="fil3" d="M899 1759c-2,0 -5,-14 -18,-24 -13,-11 -28,-10 -28,-12 0,-1 4,-2 10,-2 6,0 15,3 22,9 8,6 12,14 14,20 2,6 1,10 0,10z"/>
  <path class="fil3" d="M912 1725c2,1 -2,9 -4,19 -2,10 -1,19 -3,19 -2,1 -6,-9 -4,-20 2,-12 10,-19 11,-18z"/>
  <path class="fil12" d="M1149 1885c-1,0 -3,-12 -9,-30 -5,-19 -14,-44 -32,-68 -18,-23 -42,-37 -60,-41 -19,-5 -31,-2 -31,-4 0,0 3,-1 8,-2 6,-1 14,-1 24,1 20,3 46,17 65,42 19,25 27,52 31,71 4,19 5,32 4,32z"/>
  <path class="fil6" d="M911 5705l-21 88c0,0 -144,188 -189,178 -29,-6 7,-55 62,-197l12 -59 137 -10z"/>
  <path class="fil3" d="M695 5944c0,0 1,4 8,7 6,3 17,4 28,-4 20,-16 45,-40 72,-68 27,-28 49,-55 65,-75 7,-9 13,-17 18,-24 2,-2 3,-4 5,-6 1,-1 2,-2 2,-2 0,0 0,1 -1,2 -1,2 -3,4 -5,7 -4,6 -10,14 -18,24 -15,20 -38,47 -65,76 -27,28 -52,52 -73,68 -5,4 -11,6 -16,6 -5,0 -10,-1 -13,-3 -3,-2 -5,-4 -6,-6 -1,-2 -1,-3 -1,-3z"/>
  <path class="fil3" d="M716 5884c0,0 4,-2 12,-1 7,0 18,3 27,9 10,6 17,14 20,21 3,7 3,12 3,12 0,0 -1,-4 -5,-11 -3,-6 -10,-14 -19,-19 -9,-6 -19,-9 -26,-10 -4,-1 -7,-1 -9,0 -1,0 -2,0 -2,0z"/>
  <path class="fil3" d="M853 5840c0,0 -1,-1 -2,-4 -1,-3 -2,-7 -3,-12 -2,-10 -1,-26 7,-40 7,-15 20,-24 29,-28 5,-2 9,-3 12,-4 3,0 5,0 5,0 0,1 -6,1 -16,6 -9,4 -21,14 -28,28 -7,14 -9,28 -7,39 1,10 3,16 3,17z"/>
  <path class="fil3" d="M902 5720c1,0 -2,13 -5,28 -3,16 -7,28 -8,28 -1,0 2,-13 5,-28 3,-16 7,-28 8,-28z"/>
  <path class="fil3" d="M760 5787c0,-1 8,-2 19,0 10,2 17,7 17,8 0,1 -8,-3 -17,-5 -10,-2 -18,-2 -18,-3z"/>
  <path class="fil3" d="M757 5802c0,-1 7,-3 16,-1 9,2 14,7 14,8 0,1 -6,-3 -14,-5 -8,-2 -15,-1 -15,-2z"/>
  <path class="fil3" d="M746 5821c0,-1 7,-4 16,-2 9,2 14,9 14,9 -1,1 -6,-4 -14,-6 -8,-2 -15,0 -16,-1z"/>
  <path class="fil3" d="M770 5781c0,0 7,-2 17,-6 5,-2 11,-5 17,-8 3,-2 6,-4 10,-6 3,-2 6,-5 6,-9 0,-3 -4,-5 -8,-4 -3,1 -6,3 -9,6 -5,5 -10,10 -14,14 -7,8 -12,14 -12,13 0,0 1,-2 2,-4 2,-3 4,-6 8,-11 4,-4 8,-9 13,-14 3,-3 6,-6 10,-7 4,-1 11,1 11,7 0,6 -4,9 -7,11 -3,2 -7,4 -10,6 -7,4 -13,6 -18,8 -5,2 -10,3 -13,3 -3,1 -5,1 -5,1z"/>
  <path class="fil3" d="M778 5779c0,0 -1,-6 -3,-16 -1,-5 -2,-11 -5,-17 -1,-3 -3,-6 -5,-8 -2,-3 -5,-5 -8,-3 -3,1 -3,5 -3,9 1,3 2,7 3,10 3,6 6,11 9,15 7,7 12,11 12,11 0,0 -2,-1 -4,-2 -2,-2 -6,-4 -9,-8 -4,-4 -7,-9 -10,-15 -1,-3 -3,-7 -3,-10 0,-4 0,-9 4,-12 5,-3 9,1 12,4 3,3 4,6 6,9 3,6 4,12 5,17 1,5 1,9 1,12 0,3 0,4 0,4z"/>
  <path class="fil18" d="M711 5971c1,0 3,-1 4,-1 -1,0 -3,1 -4,1zm61 -44c2,-2 3,-3 5,-5 0,0 0,0 0,0 -2,2 -3,3 -5,5zm6 -5c0,0 0,0 0,0 2,-2 5,-4 7,-7 -2,2 -5,5 -7,7zm-71 -13c5,-13 10,-23 11,-25l0 0c-4,9 -8,18 -11,25zm161 -88c14,-17 22,-28 22,-28l5 -21c0,0 0,0 0,0l-5 21c-6,7 -13,17 -22,28zm28 -54l4 -17c0,0 0,0 0,0l-4 17 0 0z"/>
  <path class="fil20" d="M895 5772c0,0 0,0 0,0l1 -4 0 0 -1 4z"/>
  <path class="fil19" d="M705 5972c-7,0 -13,-3 -14,-13 0,-9 8,-32 16,-50 3,-8 7,-16 11,-25 0,0 0,0 1,0 1,0 1,0 2,0 2,0 4,0 7,1 7,1 17,4 26,10 8,5 14,11 18,17 0,0 0,0 0,0 -15,15 -29,27 -41,37 -6,4 -12,6 -18,6 -4,0 -7,-1 -10,-2 -6,-3 -7,-7 -8,-7 0,0 0,0 0,0 0,0 0,1 1,3 1,2 3,4 6,6 3,2 7,3 11,3 0,0 1,0 1,0 5,0 11,-2 16,-6 12,-9 26,-22 41,-36 0,0 0,0 0,0 2,4 3,7 4,9 -2,2 -3,3 -5,5 -28,26 -54,41 -56,42 0,0 0,0 0,0 -1,1 -3,1 -4,1 -2,1 -4,1 -7,1zm73 -50c0,-2 -1,-5 -3,-9 0,0 0,-1 0,-1 10,-9 20,-20 30,-30 17,-18 32,-35 45,-51 0,2 1,4 1,5 1,3 2,4 2,4 0,0 0,0 0,0 -20,24 -45,52 -68,76 0,0 0,0 0,0 -2,2 -5,5 -7,7zm-23 -31c-9,-6 -19,-9 -27,-9 -1,0 -2,0 -3,0 0,0 0,0 0,0 1,0 2,0 4,0 10,0 19,4 26,9zm45 -9l24 -26c-7,7 -14,15 -21,23 -1,1 -2,2 -3,3zm53 -43c0,-1 -1,-4 -2,-11 7,-8 13,-16 18,-23 8,-10 14,-18 18,-24 2,-2 3,-5 5,-7 1,-2 2,-2 1,-2l0 0c0,0 -1,1 -2,2 -2,2 -3,4 -5,6 -5,7 -12,15 -18,24 -5,6 -11,14 -17,21 0,-1 0,-2 0,-3 -1,-10 0,-25 7,-39 7,-14 18,-23 28,-28 3,-2 6,-3 8,-3 -2,13 -4,23 -4,23 0,0 0,0 0,0 1,0 4,-10 7,-24 2,-1 4,-1 4,-1l-4 17 -1 4 -5 21c0,0 -9,11 -22,28 -5,6 -10,12 -15,18z"/>
  <path class="fil20" d="M714 5955c-5,0 -9,-1 -11,-3 -3,-2 -5,-4 -6,-6 -1,-2 -1,-3 -1,-3 0,0 0,0 0,0 0,0 2,4 8,7 3,1 6,2 10,2 5,0 12,-2 18,-6 12,-9 26,-22 41,-37 0,1 1,1 1,1l0 0c0,0 0,1 1,1 -15,14 -29,27 -41,36 -5,4 -11,6 -16,6 0,0 -1,0 -1,0zm60 -43c0,0 0,-1 -1,-1l26 -28c1,-1 2,-2 3,-3 7,-8 14,-15 21,-23l25 -27c0,0 0,0 0,-1 0,1 0,1 1,2 -13,16 -28,33 -45,51 -10,11 -21,21 -30,30zm76 -83c0,-1 0,-2 0,-3 6,-8 12,-15 17,-21 7,-9 13,-17 18,-24 2,-2 3,-4 5,-6 1,-1 2,-2 2,-2l0 0c0,0 0,1 -1,2 -1,2 -3,4 -5,7 -4,6 -10,14 -18,24 -5,7 -12,15 -18,23z"/>
  <path class="fil20" d="M777 5923c0,0 0,0 0,0 -1,-2 -2,-5 -4,-9 0,0 0,0 0,0 0,0 0,-1 -1,-1l2 -2c0,0 1,1 1,1 0,0 0,1 0,1 2,4 3,7 3,9 0,0 0,0 0,0 0,0 0,0 -1,1zm-6 -12c-4,-6 -10,-12 -18,-17 -9,-6 -19,-9 -26,-10 -3,0 -5,-1 -7,-1 -1,0 -1,0 -2,0 0,0 0,0 -1,0l0 0c0,0 0,0 0,0 2,-1 5,-1 7,-1 0,0 0,0 0,0 1,0 2,0 3,0 7,0 17,3 27,9 9,7 15,16 17,19z"/>
  <path class="fil20" d="M853 5840c0,0 -1,-1 -2,-4 0,-1 -1,-3 -1,-5 0,-1 0,-1 -1,-2 0,-4 -1,-21 7,-45 7,-19 26,-28 37,-31 0,0 0,0 0,0 -2,1 -5,2 -8,3 -9,4 -21,14 -28,28 -7,14 -9,28 -7,39 0,1 0,2 0,3 0,1 0,2 0,3 1,6 2,10 2,11 0,0 0,0 0,0 0,0 0,0 0,0zm44 -88c0,0 0,0 0,0 3,-1 4,-1 4,-1l0 0c0,0 0,0 0,0 0,0 -2,1 -4,1z"/>
  <path class="fil20" d="M889 5776c0,0 0,0 0,0 -1,0 2,-10 4,-23 0,0 0,0 0,0 1,0 2,-1 3,-1 0,0 0,0 0,0 -3,14 -6,24 -7,24z"/>
  <path class="fil6" d="M1218 5700l-1 -118 -221 0 -1 172 14 1c61,3 310,13 350,0 45,-14 -142,-56 -142,-56z"/>
  <path class="fil19" d="M996 5751l0 0 0 -62c2,0 4,0 6,0 17,0 33,6 46,16 14,11 24,27 28,45l-79 -1 0 2z"/>
  <path class="fil18" d="M1207 5762c-75,0 -159,-3 -212,-7l0 0 14 1c32,2 119,5 198,6zm150 -5c1,0 1,0 2,-1 6,-2 8,-4 7,-7 1,2 2,3 0,5 -1,1 -4,2 -9,3zm-34 -28c-4,-1 -9,-3 -13,-4 2,1 7,2 13,4z"/>
  <path class="fil19" d="M1215 5762c-2,0 -5,0 -7,0 -79,-1 -166,-5 -198,-6l-14 -1 0 -3 80 1c0,-1 0,-2 0,-2l215 2c0,0 7,-28 20,-28 0,0 0,0 1,0 5,1 9,3 13,4 15,5 37,13 43,20 2,3 0,5 -7,7 -1,0 -1,0 -2,1 -21,4 -78,5 -143,5z"/>
  <path class="fil21" d="M1076 5753l-80 -1 0 -2 79 1c0,1 0,2 0,2z"/>
  <path class="fil3" d="M993 5749c0,0 1,0 4,0 3,0 7,0 11,1 11,0 24,1 40,2 34,1 81,2 132,2 52,0 99,-1 132,-2 16,-1 29,-1 40,-2 4,0 8,0 11,-1 2,0 4,0 4,0 0,0 -1,0 -4,0 -3,0 -7,0 -11,0 -11,0 -24,0 -40,1 -34,1 -81,1 -132,1 -52,0 -98,-1 -132,-2 -16,0 -29,-1 -40,-1 -4,0 -8,0 -11,0 -2,0 -4,0 -4,0z"/>
  <path class="fil3" d="M1290 5755c1,0 1,-9 7,-19 6,-10 14,-15 14,-15 0,-1 -10,4 -16,14 -6,10 -6,21 -5,21z"/>
  <path class="fil3" d="M1225 5722c1,0 4,-3 7,-8 3,-5 5,-10 5,-10 -1,0 -4,3 -7,8 -3,5 -5,10 -5,10z"/>
  <path class="fil3" d="M1207 5713c1,1 4,-2 8,-5 4,-3 6,-7 6,-7 0,-1 -4,2 -8,5 -4,3 -6,7 -6,7z"/>
  <path class="fil3" d="M1195 5692c0,1 5,1 12,1 6,0 12,0 12,-1 0,-1 -5,-1 -12,-1 -6,0 -12,0 -12,1z"/>
  <path class="fil3" d="M1192 5677c0,1 5,3 13,4 7,1 13,-1 13,-2 0,-1 -6,0 -13,-1 -7,-1 -13,-2 -13,-1z"/>
  <path class="fil3" d="M1232 5703c0,0 5,1 14,0 4,-1 10,-2 15,-3 3,-1 6,-2 9,-4 1,-1 3,-2 4,-4 1,-2 -1,-5 -2,-6 -14,-7 -27,1 -32,8 -3,4 -4,7 -5,9 -1,2 -1,4 0,4 1,0 1,-6 6,-12 3,-3 7,-6 12,-8 5,-1 12,-2 17,1 2,2 1,4 -1,6 -2,2 -5,2 -8,3 -5,2 -10,3 -15,4 -8,1 -14,2 -14,2z"/>
  <path class="fil3" d="M1236 5704c0,0 2,-3 2,-10 0,-3 -1,-7 -4,-10 -3,-3 -6,-7 -12,-7 -3,0 -5,4 -4,7 0,2 1,5 2,6 2,4 4,6 7,9 4,4 8,6 8,6 0,0 -3,-3 -7,-7 -2,-2 -4,-5 -6,-9 -2,-3 -3,-8 0,-9 4,0 7,3 9,6 2,3 3,6 4,9 1,6 0,9 0,10z"/>
  <path class="fil3" d="M997 5689c0,1 6,-1 16,1 10,1 24,5 36,15 12,10 19,22 22,31 3,9 4,16 4,16 0,0 0,-2 0,-4 0,-3 -1,-7 -2,-12 -3,-10 -10,-23 -22,-33 -12,-10 -27,-14 -37,-14 -5,0 -9,0 -12,0 -3,0 -4,1 -4,1z"/>
  <path class="fil3" d="M1020 5597c-1,0 -2,20 -2,45 0,25 0,45 1,45 1,0 2,-20 2,-45 0,-25 0,-45 -1,-45z"/>
  <path class="fil3" d="M1103 5731c0,1 14,3 32,3 18,0 32,-2 32,-3 0,-1 -14,0 -32,0 -18,0 -32,-1 -32,-1z"/>
  <path class="fil3" d="M1060 5731c-1,1 1,3 3,6 2,3 2,6 3,6 1,0 1,-3 -1,-7 -2,-4 -5,-6 -5,-5z"/>
  <path class="fil3" d="M1044 5711c-1,1 1,3 3,5 2,2 5,4 5,3 1,-1 -1,-3 -3,-5 -2,-2 -5,-4 -5,-3z"/>
  <path class="fil3" d="M1021 5701c0,1 3,1 6,2 3,1 6,3 6,2 1,0 -1,-4 -5,-5 -4,-1 -7,0 -7,1z"/>
  <path class="fil3" d="M1004 5697c0,1 1,2 3,3 2,1 4,1 4,0 0,-1 -1,-2 -3,-3 -2,-1 -4,-1 -4,0z"/>
  <path class="fil23" d="M1279 3376c0,0 -43,29 -91,73 -27,25 27,171 56,145 29,-26 110,-127 110,-127l-75 -91z"/>
  <path class="fil24" d="M1240 3597c0,0 84,-9 81,-26 -2,-17 -21,-38 -21,-38l-61 64z"/>
  <path class="fil3" d="M1002 5304c-7,-527 -14,-1424 -7,-1533 0,0 208,789 210,851 1,38 -114,402 -204,682zm271 -1800l-261 -19 -429 -34 51 2284 372 -5c0,0 0,-25 -1,-70l220 2c0,0 210,-656 282,-949 60,-244 -235,-1209 -235,-1209z"/>
  <path class="fil12" d="M1001 5258c0,0 1,6 1,18 0,13 0,29 1,49 1,42 2,99 3,161 2,62 3,118 5,161 1,20 1,36 1,49 0,11 0,18 0,18 0,0 -1,-6 -2,-18 -1,-11 -2,-28 -4,-49 -3,-41 -5,-98 -7,-161 -1,-63 -1,-120 -1,-161 0,-21 1,-37 1,-49 1,-12 1,-18 1,-18z"/>
  <path class="fil12" d="M1340 4615c0,2 -31,6 -70,9 -39,3 -70,4 -71,2 0,-2 31,-6 70,-9 39,-3 70,-4 71,-2z"/>
  <path class="fil12" d="M1316 4656c-1,2 -25,-3 -54,-12 -29,-8 -52,-17 -52,-19 1,-2 25,3 54,12 29,8 52,17 52,19z"/>
  <path class="fil12" d="M1018 3487c1,0 2,17 2,44 0,27 1,64 0,105 0,20 0,40 -1,58 0,18 -3,35 -9,47 -6,13 -15,21 -21,25 -6,4 -11,5 -11,5 0,-1 4,-2 9,-7 6,-5 13,-13 18,-25 5,-12 7,-28 7,-45 0,-18 0,-37 0,-58 0,-41 1,-78 2,-105 1,-27 2,-43 3,-43z"/>
  <path class="fil23" d="M535 3405c0,0 43,29 91,73 27,25 -26,171 -55,145 -29,-26 -110,-126 -110,-126l75 -91z"/>
  <path class="fil24" d="M574 3625c0,0 -84,-9 -81,-26 2,-17 21,-38 21,-38l61 64z"/>
  <path class="fil12" d="M1264 3325l-14 -123 -8 -428c58,74 142,183 160,224 24,55 -103,270 -138,327zm347 -492l-269 -300c-104,-150 -235,-183 -296,-190l0 -64c0,0 -252,-16 -261,-14 -7,2 -5,50 -4,78 -135,8 -280,73 -366,175 -13,15 -26,32 -40,50l-218 245c-83,100 -67,233 0,345 101,170 288,366 287,365 -3,-3 118,-147 118,-147 0,0 -223,-335 -195,-399 21,-49 148,-182 206,-242l36 373 -37 355 711 44 -17 -150c29,41 101,141 102,140 1,-2 142,-149 243,-319 66,-112 82,-245 -1,-345z"/>
  <path class="fil3" d="M822 2370c-1,1 -15,-21 -14,-52 1,-31 17,-52 18,-51 2,1 -10,22 -11,51 -1,29 9,51 7,51z"/>
  <path class="fil3" d="M891 2369c-2,0 -5,-22 -7,-49 -2,-27 -1,-49 1,-49 2,0 5,22 7,49 2,27 1,49 -1,49z"/>
  <path class="fil3" d="M973 2373c-2,0 2,-23 -1,-50 -3,-27 -13,-47 -11,-48 1,-1 15,19 18,47 4,29 -4,51 -6,50z"/>
  <path class="fil3" d="M1028 2376c-2,0 1,-22 0,-48 -1,-26 -7,-47 -5,-47 2,-1 11,20 13,47 2,27 -5,49 -7,48z"/>
  <path class="fil3" d="M679 2395c0,0 5,4 11,12 7,8 15,22 23,39 16,35 28,91 11,148 -17,58 -58,98 -90,118 -16,10 -31,17 -41,20 -10,3 -16,5 -16,4 -1,-1 23,-7 55,-28 31,-21 69,-61 86,-116 16,-56 6,-110 -8,-144 -15,-35 -31,-53 -30,-54z"/>
  <path class="fil3" d="M1236 2872c-2,0 -4,-59 -4,-133 0,-73 2,-133 4,-133 2,0 4,59 4,133 0,73 -2,133 -4,133z"/>
  <path class="fil3" d="M651 3485c-2,0 -3,-14 -3,-30 1,-17 3,-30 5,-30 2,0 3,14 3,30 -1,17 -3,30 -5,30z"/>
  <path class="fil3" d="M742 3490c-2,0 -4,-12 -4,-27 0,-15 2,-27 4,-27 2,0 4,12 4,27 0,15 -2,27 -4,27z"/>
  <path class="fil3" d="M843 3490c-2,0 -4,-10 -4,-23 0,-13 2,-23 4,-23 2,0 4,10 4,23 0,13 -2,23 -4,23z"/>
  <path class="fil3" d="M959 3495c-2,0 -4,-10 -4,-22 0,-12 2,-22 4,-22 2,0 4,10 4,22 0,12 -2,22 -4,22z"/>
  <path class="fil3" d="M1086 3513c-2,0 -4,-12 -4,-26 0,-14 2,-26 4,-26 2,0 4,12 4,26 0,14 -2,26 -4,26z"/>
  <path class="fil3" d="M1199 3521c-2,0 -5,-13 -7,-30 -2,-17 -1,-30 1,-30 2,0 5,13 7,30 2,17 1,30 -1,30z"/>
  <path class="fil3" d="M470 3500c-1,2 -12,-3 -22,-14 -10,-11 -14,-22 -12,-23 2,-1 8,8 18,18 9,10 17,17 16,19z"/>
  <path class="fil3" d="M501 3464c-2,1 -8,-8 -15,-19 -6,-12 -10,-22 -8,-23 2,-1 8,8 15,19 6,12 10,22 8,23z"/>
  <path class="fil3" d="M540 3425c-2,1 -9,-8 -16,-20 -7,-12 -12,-23 -10,-24 2,-1 9,8 16,20 7,12 12,23 10,24z"/>
  <path class="fil3" d="M1323 3347c2,1 -4,11 -13,23 -9,11 -17,20 -19,18 -2,-1 4,-11 13,-23 9,-11 17,-20 19,-18z"/>
  <path class="fil3" d="M1367 3399c1,2 -8,11 -20,22 -12,11 -23,18 -25,17 -1,-2 8,-11 20,-22 12,-11 23,-18 25,-17z"/>
  <path class="fil2" d="M1247 2856c0,0 -2,1 -7,1 -5,0 -12,1 -19,2 -17,1 -41,3 -71,4 -60,3 -143,5 -234,4 -91,-1 -174,-4 -234,-8 -30,-2 -54,-4 -71,-5 -8,-1 -14,-1 -19,-2 -4,-1 -7,-1 -7,-1 0,0 2,0 7,0 5,0 12,0 19,1 18,1 42,2 71,3 60,2 142,5 234,6 91,1 174,-1 234,-2 29,-1 53,-1 71,-2 8,0 14,0 19,0 4,0 7,0 7,0z"/>
  <path class="fil2" d="M1247 2902c0,0 -2,1 -7,1 -5,1 -11,1 -19,2 -17,2 -41,3 -70,5 -59,4 -142,7 -233,8 -91,1 -173,-2 -233,-5 -30,-1 -54,-3 -70,-4 -8,-1 -14,-1 -19,-2 -4,0 -7,-1 -7,-1 0,0 2,0 7,0 5,0 12,0 19,0 18,0 42,1 70,2 59,2 142,3 232,3 91,-1 173,-3 232,-6 29,-1 53,-2 70,-3 8,0 14,0 19,-1 4,0 7,0 7,0z"/>
  <path class="fil2" d="M506 2813c-1,1 -13,-7 -31,-21 -18,-14 -43,-35 -68,-60 -25,-25 -46,-49 -60,-68 -14,-18 -22,-30 -21,-31 1,-1 10,10 25,28 15,17 36,41 61,66 25,25 48,46 66,61 17,15 28,24 28,25z"/>
  <path class="fil2" d="M534 2778c-1,1 -13,-7 -32,-21 -19,-14 -43,-35 -68,-61 -25,-26 -45,-51 -58,-71 -13,-19 -20,-32 -19,-32 1,-1 9,11 23,29 14,18 34,43 59,69 24,26 48,47 66,62 18,15 29,24 28,25z"/>
  <path class="fil2" d="M1499 2707c1,2 -40,37 -92,79 -52,42 -95,75 -96,73 -1,-2 40,-37 92,-79 52,-42 95,-75 96,-73z"/>
  <path class="fil2" d="M1523 2752c1,2 -38,35 -87,74 -49,39 -90,69 -91,68 -1,-2 38,-34 87,-74 49,-39 90,-69 91,-68z"/>
  <polygon class="fil12" points="7948,4436 7948,3639 5011,3639 5011,5776 7899,5773 7899,5776 9051,5776 9051,4436 "/>
  <polygon class="fil12" points="4758,3639 8206,3639 8206,3498 4758,3498 "/>
  <polygon class="fil3" points="7976,3639 5011,3888 5011,3639 "/>
  <polygon class="fil3" points="5770,3495 5753,3226 5652,3253 5587,3495 "/>
  <polygon class="fil3" points="6264,3333 5131,3335 5166,2636 6286,2611 "/>
  <polygon class="fil0" points="5631,2992 5776,2992 5776,2967 5631,2967 "/>
  <polygon class="fil12" points="5760,3334 5631,3333 5623,3360 5763,3385 "/>
  <path class="fil6" d="M8556 3443c27,15 44,44 51,74 7,30 4,61 -3,91 -14,58 -54,113 -95,156 -44,-49 -47,-126 -46,-165 2,-62 42,-172 93,-157z"/>
  <path class="fil6" d="M8555 3867c-4,-34 14,-69 42,-89 28,-20 65,-25 99,-19 16,3 32,10 40,24 7,13 4,30 -4,42 -8,12 -21,21 -35,27 -46,22 -95,35 -141,14z"/>
  <path class="fil3" d="M8481 3996c-1,0 3,-15 11,-38 4,-12 11,-25 20,-38 9,-13 18,-28 31,-42 24,-29 54,-48 77,-56 12,-4 21,-6 28,-7 7,-1 11,-1 11,0 0,1 -15,3 -37,12 -22,9 -50,28 -74,56 -12,14 -22,28 -31,42 -9,13 -16,26 -20,37 -9,22 -15,36 -16,36z"/>
  <path class="fil3" d="M8532 3529c0,0 0,7 0,20 -1,13 -2,31 -4,54 -3,46 -9,109 -16,178 -8,69 -16,132 -23,177 -4,23 -7,41 -9,53 -2,13 -4,19 -4,19 0,0 0,-7 2,-20 2,-14 4,-32 7,-54 6,-45 14,-108 21,-177 7,-69 13,-131 18,-178 2,-22 4,-40 6,-54 1,-13 2,-20 3,-20z"/>
  <path class="fil6" d="M8478 3881c-13,-71 -62,-135 -128,-165 -17,-8 -39,-12 -52,0 -13,13 -10,35 -3,52 29,71 105,120 182,117l1 -5z"/>
  <path class="fil3" d="M8362 3769c0,0 4,1 9,5 6,3 14,9 24,15 19,14 46,35 67,66 10,16 17,32 21,48 4,16 5,30 5,42 -1,12 -2,22 -3,28 -1,7 -2,10 -3,10 -1,0 2,-15 2,-39 0,-12 -2,-26 -6,-41 -4,-15 -11,-31 -21,-46 -20,-30 -46,-51 -64,-66 -19,-15 -31,-23 -31,-24z"/>
  <path class="fil3" d="M8472 4441l0 0c-122,0 -221,-99 -221,-221l0 -221 441 0 0 221c0,122 -99,221 -221,221z"/>
  <path class="fil1" d="M8693 4108c0,0 -2,2 -6,6 -5,4 -11,10 -18,16 -17,15 -40,34 -67,57l-2 1 -2 -1c-37,-22 -81,-49 -128,-77l0 0 4 0c-44,28 -84,55 -119,77l-2 1 -2 -1c-30,-23 -54,-43 -73,-57 -8,-7 -15,-12 -20,-16 -5,-4 -7,-6 -7,-6 0,0 3,1 8,5 6,4 13,9 21,15 19,14 45,33 75,55l-4 0c34,-23 75,-49 118,-78l2 -1 2 1 0 0c47,29 90,55 127,78l-4 0c28,-22 51,-41 68,-55 8,-6 14,-11 19,-15 5,-3 7,-5 7,-5z"/>
  <path class="fil1" d="M8693 4064c0,0 -2,2 -6,6 -5,4 -11,10 -18,16 -17,15 -40,34 -67,57l-2 1 -2 -1c-37,-22 -81,-49 -128,-77l0 0 4 0c-44,28 -84,55 -119,77l-2 1 -2 -1c-30,-23 -54,-43 -73,-57 -8,-7 -15,-12 -20,-16 -5,-4 -7,-6 -7,-6 0,0 3,1 8,5 6,4 13,9 21,15 19,14 45,33 75,55l-4 0c34,-23 75,-49 118,-78l2 -1 2 1 0 0c47,29 90,55 127,78l-4 0c28,-22 51,-41 68,-55 8,-6 14,-11 19,-15 5,-3 7,-5 7,-5z"/>
  <path class="fil1" d="M8693 4153c0,0 -2,2 -6,6 -5,4 -11,10 -18,16 -17,15 -40,34 -67,57l-2 1 -2 -1c-37,-22 -81,-49 -128,-77l0 0 4 0c-44,28 -84,55 -119,77l-2 1 -2 -1c-30,-23 -54,-43 -73,-57 -8,-7 -15,-12 -20,-16 -5,-4 -7,-6 -7,-6 0,0 3,1 8,5 6,4 13,9 21,15 19,14 45,33 75,55l-4 0c34,-23 75,-49 118,-78l2 -1 2 1 0 0c47,29 90,55 127,78l-4 0c28,-22 51,-41 68,-55 8,-6 14,-11 19,-15 5,-3 7,-5 7,-5z"/>
 </g>
</svg>
