<?xml version="1.0" encoding="UTF-8"?>
<!DOCTYPE svg PUBLIC "-//W3C//DTD SVG 1.1//EN" "http://www.w3.org/Graphics/SVG/1.1/DTD/svg11.dtd">
<!-- Creator: CorelDRAW X6 -->
<svg xmlns="http://www.w3.org/2000/svg" xml:space="preserve" width="8.65278in" height="5.48611in" version="1.1" style="shape-rendering:geometricPrecision; text-rendering:geometricPrecision; image-rendering:optimizeQuality; fill-rule:evenodd; clip-rule:evenodd"
viewBox="0 0 8653 5486"
 xmlns:xlink="http://www.w3.org/1999/xlink">
 <defs>
  <style type="text/css">
   <![CDATA[
    .fil4 {fill:#2C3C43;fill-rule:nonzero}
    .fil8 {fill:#42616A;fill-rule:nonzero}
    .fil12 {fill:#A13F48;fill-rule:nonzero}
    .fil6 {fill:#C28879;fill-rule:nonzero}
    .fil3 {fill:#D9DAD9;fill-rule:nonzero}
    .fil10 {fill:#DA515A;fill-rule:nonzero}
    .fil1 {fill:#E5E6E5;fill-rule:nonzero}
    .fil11 {fill:#EAEAE9;fill-rule:nonzero}
    .fil0 {fill:#EFEFEF;fill-rule:nonzero}
    .fil9 {fill:#F1626C;fill-rule:nonzero}
    .fil13 {fill:#F69775;fill-rule:nonzero}
    .fil7 {fill:#F7F7F6;fill-rule:nonzero}
    .fil5 {fill:#F9B39B;fill-rule:nonzero}
    .fil2 {fill:#FEFEFE;fill-rule:nonzero}
   ]]>
  </style>
 </defs>
 <g id="Layer_x0020_1">
  <metadata id="CorelCorpID_0Corel-Layer"/>
  <polygon class="fil0" points="6836,2353 8659,2353 8659,1132 6836,1132 "/>
  <polygon class="fil1" points="6836,1254 8659,1254 8659,1132 6836,1132 "/>
  <path class="fil2" d="M6915 1193c0,8 -7,14 -15,14 -8,0 -15,-6 -15,-14 0,-8 7,-14 15,-14 8,0 15,6 15,14z"/>
  <path class="fil2" d="M6963 1193c0,8 -7,14 -15,14 -8,0 -15,-6 -15,-14 0,-8 7,-14 15,-14 8,0 15,6 15,14z"/>
  <path class="fil2" d="M7010 1193c0,8 -7,14 -15,14 -8,0 -15,-6 -15,-14 0,-8 7,-14 15,-14 8,0 15,6 15,14z"/>
  <polygon class="fil3" points="3050,2421 6471,2421 6471,129 3050,129 "/>
  <polygon class="fil3" points="3050,358 6471,358 6471,129 3050,129 "/>
  <path class="fil2" d="M3198 244c0,14 -12,26 -28,26 -15,0 -28,-12 -28,-26 0,-14 12,-26 28,-26 15,0 28,12 28,26z"/>
  <path class="fil2" d="M3287 244c0,14 -12,26 -28,26 -15,0 -28,-12 -28,-26 0,-14 12,-26 28,-26 15,0 28,12 28,26z"/>
  <path class="fil2" d="M3377 244c0,14 -12,26 -28,26 -15,0 -28,-12 -28,-26 0,-14 12,-26 28,-26 15,0 28,12 28,26z"/>
  <polygon class="fil3" points="5931,3880 8501,3880 8501,2158 5931,2158 "/>
  <polygon class="fil3" points="5931,2330 8501,2330 8501,2158 5931,2158 "/>
  <path class="fil2" d="M6042 2244c0,11 -9,19 -21,19 -11,0 -21,-9 -21,-19 0,-11 9,-19 21,-19 11,0 21,9 21,19z"/>
  <path class="fil2" d="M6109 2244c0,11 -9,19 -21,19 -11,0 -21,-9 -21,-19 0,-11 9,-19 21,-19 11,0 21,9 21,19z"/>
  <path class="fil2" d="M6176 2244c0,11 -9,19 -21,19 -11,0 -21,-9 -21,-19 0,-11 9,-19 21,-19 11,0 21,9 21,19z"/>
  <polygon class="fil0" points="2675,4672 4498,4672 4498,3451 2675,3451 "/>
  <polygon class="fil1" points="2675,3573 4498,3573 4498,3451 2675,3451 "/>
  <path class="fil2" d="M2754 3512c0,8 -7,14 -15,14 -8,0 -15,-6 -15,-14 0,-8 7,-14 15,-14 8,0 15,6 15,14z"/>
  <path class="fil2" d="M2802 3512c0,8 -7,14 -15,14 -8,0 -15,-6 -15,-14 0,-8 7,-14 15,-14 8,0 15,6 15,14z"/>
  <path class="fil2" d="M2849 3512c0,8 -7,14 -15,14 -8,0 -15,-6 -15,-14 0,-8 7,-14 15,-14 8,0 15,6 15,14z"/>
  <polygon class="fil0" points="0,1740 1823,1740 1823,519 0,519 "/>
  <polygon class="fil1" points="0,641 1823,641 1823,519 0,519 "/>
  <path class="fil2" d="M79 580c0,8 -7,14 -15,14 -8,0 -15,-6 -15,-14 0,-8 7,-14 15,-14 8,0 15,6 15,14z"/>
  <path class="fil2" d="M126 580c0,8 -7,14 -15,14 -8,0 -15,-6 -15,-14 0,-8 7,-14 15,-14 8,0 15,6 15,14z"/>
  <path class="fil2" d="M174 580c0,8 -7,14 -15,14 -8,0 -15,-6 -15,-14 0,-8 7,-14 15,-14 8,0 15,6 15,14z"/>
  <polygon class="fil3" points="941,1186 2713,1186 2713,-1 941,-1 "/>
  <polygon class="fil3" points="941,118 2713,118 2713,-1 941,-1 "/>
  <path class="fil2" d="M1018 59c0,7 -6,13 -14,13 -8,0 -14,-6 -14,-13 0,-7 6,-13 14,-13 8,0 14,6 14,13z"/>
  <path class="fil2" d="M1064 59c0,7 -6,13 -14,13 -8,0 -14,-6 -14,-13 0,-7 6,-13 14,-13 8,0 14,6 14,13z"/>
  <path class="fil2" d="M1110 59c0,7 -6,13 -14,13 -8,0 -14,-6 -14,-13 0,-7 6,-13 14,-13 8,0 14,6 14,13z"/>
  <polygon class="fil0" points="2790,2655 6212,2655 6212,364 2790,364 "/>
  <polygon class="fil1" points="2790,593 6212,593 6212,364 2790,364 "/>
  <path class="fil2" d="M2939 478c0,14 -12,26 -28,26 -15,0 -28,-12 -28,-26 0,-14 12,-26 28,-26 15,0 28,12 28,26z"/>
  <path class="fil2" d="M3028 478c0,14 -12,26 -28,26 -15,0 -28,-12 -28,-26 0,-14 12,-26 28,-26 15,0 28,12 28,26z"/>
  <path class="fil2" d="M3117 478c0,14 -12,26 -28,26 -15,0 -28,-12 -28,-26 0,-14 12,-26 28,-26 15,0 28,12 28,26z"/>
  <polygon class="fil0" points="1815,3162 5237,3162 5237,870 1815,870 "/>
  <polygon class="fil1" points="1815,1099 5237,1099 5237,870 1815,870 "/>
  <path class="fil2" d="M1963 985c0,14 -12,26 -28,26 -15,0 -28,-12 -28,-26 0,-14 12,-26 28,-26 15,0 28,12 28,26z"/>
  <path class="fil2" d="M2053 985c0,14 -12,26 -28,26 -15,0 -28,-12 -28,-26 0,-14 12,-26 28,-26 15,0 28,12 28,26z"/>
  <path class="fil2" d="M2142 985c0,14 -12,26 -28,26 -15,0 -28,-12 -28,-26 0,-14 12,-26 28,-26 15,0 28,12 28,26z"/>
  <path class="fil4" d="M7699 5465c0,2 -1654,4 -3695,4 -2041,0 -3695,-2 -3695,-4 0,-2 1654,-4 3695,-4 2040,0 3695,2 3695,4z"/>
  <path class="fil5" d="M6274 1817c0,0 -98,-99 -113,-123 -73,-126 -395,-665 -395,-665l-178 121c0,0 368,662 443,753 76,91 181,182 181,182l62 -266z"/>
  <path class="fil6" d="M2162 1321c0,0 123,-213 184,-201 61,12 116,57 116,57l-156 184 -143 -39z"/>
  <polygon class="fil4" points="1448,1838 1890,1670 2164,1254 2332,1341 2014,1909 1490,2108 "/>
  <polygon class="fil7" points="2347,2902 5817,2902 5817,577 2347,577 "/>
  <polygon class="fil8" points="2347,809 5817,809 5817,577 2347,577 "/>
  <path class="fil2" d="M2497 693c0,14 -13,26 -28,26 -16,0 -28,-12 -28,-26 0,-14 13,-26 28,-26 15,0 28,12 28,26z"/>
  <path class="fil2" d="M2588 693c0,14 -13,26 -28,26 -15,0 -28,-12 -28,-26 0,-14 13,-26 28,-26 15,0 28,12 28,26z"/>
  <path class="fil2" d="M2679 693c0,14 -13,26 -28,26 -15,0 -28,-12 -28,-26 0,-14 13,-26 28,-26 15,0 28,12 28,26z"/>
  <path class="fil4" d="M5817 2902c0,-24 -1,-908 -3,-2324l3 3c-956,0 -2163,0 -3470,1l0 0 4 -4c0,828 0,1615 0,2324l-3 -3c2044,2 3441,3 3470,3 -30,0 -1426,1 -3470,3l-3 0 0 -3c0,-709 0,-1496 0,-2324l0 -4 4 0c1307,0 2514,1 3470,1l3 0 0 3c-2,1416 -3,2301 -3,2324z"/>
  <polygon class="fil4" points="3348,1745 3310,1745 3310,1738 3341,1738 3341,1707 3348,1707 "/>
  <path class="fil4" d="M2809 1745l-72 0 0 -7 72 0 0 7zm143 0l-72 0 0 -7 72 0 0 7zm143 0l-72 0 0 -7 72 0 0 7zm143 0l-72 0 0 -7 72 0 0 7z"/>
  <polygon class="fil4" points="2666,1745 2628,1745 2628,1707 2635,1707 2635,1738 2666,1738 "/>
  <path class="fil4" d="M2635 1206l-7 0 0 -72 7 0 0 72zm0 143l-7 0 0 -72 7 0 0 72zm0 143l-7 0 0 -72 7 0 0 72zm0 143l-7 0 0 -72 7 0 0 72z"/>
  <polygon class="fil4" points="2635,1063 2628,1063 2628,1025 2666,1025 2666,1032 2635,1032 "/>
  <path class="fil4" d="M2809 1032l-72 0 0 -7 72 0 0 7zm143 0l-72 0 0 -7 72 0 0 7zm143 0l-72 0 0 -7 72 0 0 7zm143 0l-72 0 0 -7 72 0 0 7z"/>
  <polygon class="fil4" points="3348,1063 3341,1063 3341,1032 3310,1032 3310,1025 3348,1025 "/>
  <path class="fil4" d="M3348 1206l-7 0 0 -72 7 0 0 72zm0 143l-7 0 0 -72 7 0 0 72zm0 143l-7 0 0 -72 7 0 0 72zm0 143l-7 0 0 -72 7 0 0 72z"/>
  <polygon class="fil8" points="2591,1927 3380,1927 3380,1874 2591,1874 "/>
  <polygon class="fil8" points="3611,1194 4400,1194 4400,1142 3611,1142 "/>
  <path class="fil8" d="M5573 1338c0,2 -439,4 -981,4 -542,0 -981,-2 -981,-4 0,-2 439,-4 981,-4 542,0 981,2 981,4z"/>
  <path class="fil8" d="M5573 1453c0,2 -439,4 -981,4 -542,0 -981,-2 -981,-4 0,-2 439,-4 981,-4 542,0 981,2 981,4z"/>
  <path class="fil8" d="M5573 1569c0,2 -439,4 -981,4 -542,0 -981,-2 -981,-4 0,-2 439,-4 981,-4 542,0 981,2 981,4z"/>
  <path class="fil8" d="M5573 1684c0,2 -439,4 -981,4 -542,0 -981,-2 -981,-4 0,-2 439,-4 981,-4 542,0 981,2 981,4z"/>
  <path class="fil8" d="M5573 1799c0,2 -439,4 -981,4 -542,0 -981,-2 -981,-4 0,-2 439,-4 981,-4 542,0 981,2 981,4z"/>
  <path class="fil8" d="M4377 1915c0,2 -172,4 -383,4 -212,0 -383,-2 -383,-4 0,-2 171,-4 383,-4 212,0 383,2 383,4z"/>
  <path class="fil8" d="M5559 2138c0,2 -289,4 -645,4 -356,0 -645,-2 -645,-4 0,-2 289,-4 645,-4 356,0 645,2 645,4z"/>
  <path class="fil8" d="M5559 2261c0,2 -289,4 -645,4 -356,0 -645,-2 -645,-4 0,-2 289,-4 645,-4 356,0 645,2 645,4z"/>
  <path class="fil8" d="M5559 2383c0,2 -289,4 -645,4 -356,0 -645,-2 -645,-4 0,-2 289,-4 645,-4 356,0 645,2 645,4z"/>
  <path class="fil8" d="M5559 2505c0,2 -289,4 -645,4 -356,0 -645,-2 -645,-4 0,-2 289,-4 645,-4 356,0 645,2 645,4z"/>
  <path class="fil8" d="M3382 2127c0,2 -172,4 -384,4 -212,0 -385,-2 -385,-4 0,-2 172,-4 385,-4 212,0 384,2 384,4z"/>
  <path class="fil8" d="M3382 2223c0,2 -172,4 -384,4 -212,0 -385,-2 -385,-4 0,-2 172,-4 385,-4 212,0 384,2 384,4z"/>
  <path class="fil8" d="M3382 2319c0,2 -172,4 -384,4 -212,0 -385,-2 -385,-4 0,-2 172,-4 385,-4 212,0 384,2 384,4z"/>
  <path class="fil8" d="M3382 2415c0,2 -172,4 -384,4 -212,0 -385,-2 -385,-4 0,-2 172,-4 385,-4 212,0 384,2 384,4z"/>
  <path class="fil8" d="M3382 2511c0,2 -172,4 -384,4 -212,0 -385,-2 -385,-4 0,-2 172,-4 385,-4 212,0 384,2 384,4z"/>
  <polygon class="fil8" points="3610,2621 4170,2621 4170,2080 3610,2080 "/>
  <polygon class="fil9" points="3654,2575 3808,2296 3935,2475 4012,2380 4127,2575 "/>
  <path class="fil9" d="M3989 2242c0,22 -18,40 -40,40 -22,0 -40,-18 -40,-40 0,-22 18,-40 40,-40 22,0 40,18 40,40z"/>
  <path class="fil4" d="M4127 2577c0,0 0,-1 0,-2 0,-2 0,-4 0,-6 0,-6 0,-14 0,-24 0,-21 0,-53 -1,-92 0,-79 -1,-192 -1,-327l2 2c-137,0 -299,0 -473,0 -1,1 5,-5 3,-3l0 31c0,10 0,20 0,31 0,20 0,40 0,60 0,40 0,79 0,117 0,76 0,148 0,214l-2 -2c141,1 259,1 342,1 41,0 74,0 96,1 11,0 20,0 26,0 3,0 5,0 7,0 2,0 2,0 2,0 0,0 -1,0 -2,0 -2,0 -4,0 -6,0 -6,0 -14,0 -25,0 -22,0 -55,0 -96,1 -83,0 -202,1 -344,1l-2 0 0 -2c0,-66 0,-138 0,-214 0,-38 0,-77 0,-117 0,-20 0,-40 0,-60 0,-10 0,-20 0,-31l0 -31c-2,2 3,-3 3,-3 174,0 336,0 473,0l2 0 0 2c0,136 -1,249 -1,328 0,39 0,70 -1,91 0,10 0,18 0,24 0,3 0,5 0,6 0,1 0,2 0,2z"/>
  <polygon class="fil9" points="2395,1710 3186,1710 3186,945 2395,945 "/>
  <polygon class="fil7" points="2456,1645 2675,1251 2854,1502 2963,1369 3125,1645 "/>
  <path class="fil7" d="M2930 1174c0,31 -25,57 -57,57 -31,0 -57,-25 -57,-57 0,-31 25,-57 57,-57 31,0 57,25 57,57z"/>
  <path class="fil7" d="M3125 1647c0,0 0,-1 0,-3 0,-2 0,-5 0,-9 0,-8 0,-20 0,-34 0,-30 0,-74 -1,-130 0,-112 -1,-271 -2,-462l3 3c-194,0 -423,0 -668,1 -1,1 7,-7 4,-4l0 43c0,14 0,29 0,43 0,29 0,57 0,85 0,56 0,111 0,165 0,107 0,209 0,302l-3 -3c199,1 366,1 483,2 58,0 104,1 136,1 16,0 28,0 36,0 4,0 7,0 9,0 2,0 3,0 3,0 0,0 -1,0 -3,0 -2,0 -5,0 -9,0 -8,0 -20,0 -36,0 -32,0 -77,0 -136,1 -118,0 -285,1 -485,2l-3 0 0 -3c0,-93 0,-195 0,-302 0,-54 0,-109 0,-165 0,-28 0,-57 0,-85 0,-14 0,-29 0,-43l0 -43c-3,3 5,-5 4,-4 245,0 475,0 668,1l3 0 0 3c-1,192 -1,352 -2,464 0,55 -1,99 -1,129 0,15 0,26 0,34 0,4 0,6 0,9 0,2 0,3 0,3z"/>
  <path class="fil6" d="M2615 1312c34,-40 73,-88 91,-115 33,-51 28,-55 22,-58 -18,-8 -61,88 -63,62 -3,-26 66,-111 48,-119 -24,-10 -68,92 -72,100 -4,8 -16,2 -12,-5 6,-10 68,-122 44,-132 -13,-5 -20,20 -20,20 0,0 -50,109 -62,104 -11,-5 16,-70 27,-91 11,-21 5,-35 -8,-32 -9,2 -43,66 -54,87 -10,21 -37,80 -47,40 -10,-40 -33,-68 -44,-71 -11,-3 -19,11 -11,22 6,8 13,25 17,38 4,11 6,22 6,33 0,10 0,18 -1,26l-4 83 94 65 49 -56z"/>
  <path class="fil6" d="M1503 3845l98 1498 227 -25c0,0 6,-1461 -5,-1460 -11,1 -320,-13 -320,-13z"/>
  <polygon class="fil6" points="1009,3802 753,5288 955,5318 1309,3873 "/>
  <path class="fil6" d="M1330 1304l-2 515 221 11 6 -125c0,0 79,16 99,-57 13,-47 10,-406 10,-406l-334 63z"/>
  <path class="fil4" d="M1714 1292c-15,31 -86,87 -86,87l-32 86c-28,-22 -65,-21 -72,28 -5,35 39,42 39,42 -26,44 -43,79 -80,120 -40,45 -63,49 -107,50l-48 0c0,0 -99,-82 -79,-299 19,-217 197,-176 261,-208 8,-4 254,-9 204,93z"/>
  <path class="fil4" d="M1244 1449c-37,-21 -87,-16 -118,12 -32,28 -43,72 -51,113 -8,42 -14,85 -40,119 -7,9 -14,17 -17,28 -3,15 8,31 23,37 15,5 32,1 44,-8 13,-9 21,-23 28,-37 -1,26 27,50 53,44 25,-5 40,-31 48,-55 10,-29 14,-61 11,-92 -2,-28 -9,-57 -4,-85 5,-28 27,-56 55,-55l-32 -20z"/>
  <path class="fil4" d="M1596 1465c0,0 12,64 -18,71 -13,3 -28,-4 -28,-4l-30 66c0,0 -19,95 36,107 51,11 104,4 109,-77l1 -58c0,0 -40,9 -44,-9 -4,-18 -7,-145 -7,-145l-19 50z"/>
  <path class="fil4" d="M1030 1635c0,1 -8,-2 -17,6 -4,4 -9,10 -8,18 1,8 7,17 16,19 10,2 21,-3 29,-12 8,-9 13,-22 16,-36 6,-28 2,-59 3,-93 0,-17 2,-34 8,-49 6,-15 15,-28 27,-38 23,-20 51,-26 73,-25 22,1 40,8 50,14 5,3 9,6 12,7 3,2 4,3 4,3 0,1 -6,-3 -17,-8 -11,-5 -28,-11 -49,-11 -21,0 -47,6 -68,25 -10,9 -19,21 -24,36 -5,14 -7,30 -7,47 -1,33 3,65 -4,94 -4,14 -9,28 -18,38 -9,10 -22,16 -34,13 -12,-3 -19,-14 -19,-23 -1,-10 5,-17 10,-21 11,-7 19,-4 19,-3z"/>
  <path class="fil4" d="M1602 1294c0,-1 4,1 12,1 8,0 19,-1 32,-7 12,-6 24,-20 26,-38 1,-9 0,-18 -4,-27 -4,-9 -11,-16 -20,-22 -17,-12 -39,-14 -57,-12 -19,2 -35,6 -49,10 -28,8 -46,9 -46,8 0,-1 4,-1 12,-3 8,-2 19,-5 33,-9 14,-4 30,-9 50,-11 19,-2 42,0 62,13 10,6 18,15 22,25 5,10 6,21 4,31 -3,20 -17,35 -30,41 -14,7 -26,7 -34,6 -8,-1 -12,-3 -12,-4z"/>
  <path class="fil2" d="M1260 1588c0,0 2,0 6,0 4,0 10,0 17,-2 15,-3 36,-12 56,-30 21,-18 39,-46 57,-77 19,-31 39,-67 74,-91 36,-24 77,-28 112,-36 36,-7 67,-16 89,-33 22,-17 33,-37 36,-52 4,-15 2,-24 2,-24 0,0 2,9 -1,24 -3,15 -14,36 -36,53 -22,17 -54,28 -90,34 -35,7 -76,12 -111,35 -35,24 -55,60 -74,90 -19,31 -37,59 -58,77 -21,18 -42,27 -58,30 -15,3 -24,1 -24,1z"/>
  <path class="fil2" d="M1281 1642c0,0 1,-1 4,-3 3,-2 7,-5 13,-8 11,-7 26,-19 43,-35 17,-17 35,-38 50,-66 16,-27 27,-60 50,-89 24,-29 59,-40 89,-48 30,-8 58,-14 80,-24 22,-9 37,-21 46,-31 9,-10 12,-17 12,-16 0,0 -3,7 -12,17 -9,10 -24,22 -46,32 -22,10 -49,16 -80,24 -30,8 -64,20 -87,48 -23,28 -35,61 -50,88 -16,27 -34,49 -51,66 -17,17 -33,28 -44,35 -11,7 -18,10 -18,10z"/>
  <path class="fil2" d="M1136 1742c0,0 3,-4 7,-12 4,-8 8,-21 10,-37 1,-16 0,-36 -5,-57 -4,-21 -11,-44 -13,-70 -2,-25 2,-50 14,-69 12,-19 30,-30 46,-34 16,-5 30,-4 39,-3 9,2 14,4 14,4 0,0 -5,-2 -14,-3 -9,-1 -23,-2 -38,3 -15,5 -33,16 -44,34 -12,18 -15,43 -13,67 2,25 8,48 13,69 4,21 6,41 4,58 -2,17 -6,29 -11,38 -4,8 -8,12 -8,12z"/>
  <path class="fil2" d="M1046 1756c0,-1 6,1 15,-5 9,-6 17,-19 23,-37 6,-18 10,-40 13,-64 3,-25 3,-52 8,-80 4,-28 14,-55 28,-76 14,-21 34,-34 52,-39 18,-5 34,-3 44,0 10,3 15,7 15,7 0,0 -5,-3 -15,-6 -10,-3 -26,-4 -43,1 -18,5 -37,18 -51,39 -14,20 -23,46 -27,75 -4,28 -5,55 -8,80 -2,25 -7,47 -13,65 -6,18 -15,31 -24,37 -9,6 -16,3 -16,4z"/>
  <path class="fil9" d="M1245 1495c-2,0 -5,-13 -8,-29 -2,-12 -2,-22 -1,-27l1 1 0 0 0 1 -1 0c0,0 -1,-3 2,-3l1 0 1 2c2,5 4,15 6,27 2,16 2,30 0,30z"/>
  <polygon class="fil9" points="1108,2946 882,4066 1293,4136 1440,3332 1503,4136 1883,4082 1786,2890 "/>
  <path class="fil4" d="M1667 3317c0,1 -6,1 -18,2 -13,1 -29,2 -48,4 -41,3 -97,7 -159,14 -62,6 -118,13 -158,18 -19,2 -35,4 -48,6 -11,1 -18,2 -18,1 0,-1 6,-2 17,-4 11,-2 28,-5 48,-8 40,-6 96,-14 158,-20 62,-6 118,-10 159,-11 20,-1 37,-1 48,-1 11,0 18,0 18,1z"/>
  <path class="fil9" d="M1840 3548c0,5 59,94 59,94l-30 13c0,0 64,89 -4,203l-25 -310z"/>
  <path class="fil9" d="M1014 3482c-5,3 -73,109 -73,109l13 0c0,0 -79,102 -17,203l77 -312z"/>
  <path class="fil10" d="M1865 3858l-25 -310c0,5 59,94 59,94l-30 13 0 0c0,0 27,38 27,96 0,31 -8,67 -32,107z"/>
  <path class="fil10" d="M937 3794c-17,-29 -24,-57 -24,-84 0,-67 41,-120 41,-120l-13 0c0,0 68,-106 73,-109l-77 312z"/>
  <path class="fil4" d="M1882 4012c0,0 -5,2 -15,3 -11,2 -25,3 -41,6 -36,5 -83,11 -135,18 -52,8 -98,15 -135,20 -16,2 -30,4 -41,6 -10,1 -15,2 -15,1 0,-1 5,-2 15,-4 10,-2 23,-5 40,-8 34,-6 82,-15 134,-22 53,-7 101,-13 135,-16 17,-2 31,-3 41,-3 10,-1 15,-1 15,0z"/>
  <path class="fil4" d="M1299 4086c0,0 -6,0 -16,-2 -12,-2 -26,-6 -43,-9 -38,-8 -88,-19 -142,-31 -55,-11 -104,-22 -143,-30 -17,-4 -31,-7 -43,-9 -10,-2 -16,-4 -16,-4 0,0 6,0 16,2 10,1 25,4 44,7 37,6 87,16 143,28 56,12 106,24 142,33 18,5 33,8 43,11 10,3 16,5 15,5z"/>
  <path class="fil4" d="M1405 3362c-2,0 -3,-5 -1,-11 1,-6 4,-10 6,-9 2,0 3,5 1,11 -1,6 -4,10 -6,9z"/>
  <path class="fil4" d="M1388 3444c-2,0 -2,-10 1,-21 2,-11 6,-20 8,-20 2,0 2,10 -1,21 -2,11 -6,20 -8,20z"/>
  <path class="fil4" d="M1370 3526c-2,0 -2,-10 1,-21 2,-11 6,-20 8,-20 2,0 2,10 -1,21 -2,11 -6,20 -8,20z"/>
  <path class="fil4" d="M1352 3608c-2,0 -2,-10 1,-21 2,-11 6,-20 8,-20 2,0 2,10 -1,21 -2,11 -6,20 -8,20z"/>
  <path class="fil4" d="M1334 3690c-2,0 -2,-10 1,-21 2,-11 6,-20 8,-20 2,0 2,10 -1,21 -2,11 -6,20 -8,20z"/>
  <path class="fil4" d="M1316 3772c-2,0 -2,-10 1,-21 2,-11 6,-20 8,-20 2,0 2,10 -1,21 -2,11 -6,20 -8,20z"/>
  <path class="fil4" d="M1299 3855c-2,0 -2,-10 1,-21 2,-11 6,-20 8,-20 2,0 2,10 -1,21 -2,11 -6,20 -8,20z"/>
  <path class="fil4" d="M1281 3937c-2,0 -2,-10 1,-21 2,-11 6,-20 8,-20 2,0 2,10 -1,21 -2,11 -6,20 -8,20z"/>
  <path class="fil4" d="M1263 4019c-2,0 -2,-10 1,-21 2,-11 6,-20 8,-20 2,0 2,10 -1,21 -2,11 -6,20 -8,20z"/>
  <path class="fil4" d="M1250 4080c-2,0 -3,-5 -1,-11 1,-6 4,-10 6,-9 2,0 3,5 1,11 -1,6 -4,10 -6,9z"/>
  <path class="fil4" d="M1761 2993c-2,0 -4,-4 -4,-10 0,-6 1,-11 3,-11 2,0 4,4 4,10 0,6 -1,11 -3,11z"/>
  <path class="fil4" d="M1767 3075c-2,0 -4,-9 -5,-20 -1,-11 0,-20 2,-21 2,0 4,9 5,20 1,11 0,20 -2,21z"/>
  <path class="fil4" d="M1773 3156c-2,0 -4,-9 -5,-20 -1,-11 0,-20 2,-21 2,0 4,9 5,20 1,11 0,20 -2,21z"/>
  <path class="fil4" d="M1779 3238c-2,0 -4,-9 -5,-20 -1,-11 0,-20 2,-21 2,0 4,9 5,20 1,11 0,20 -2,21z"/>
  <path class="fil4" d="M1785 3319c-2,0 -4,-9 -5,-20 -1,-11 0,-20 2,-21 2,0 4,9 5,20 1,11 0,20 -2,21z"/>
  <path class="fil4" d="M1792 3400c-2,0 -4,-9 -5,-20 -1,-11 0,-20 2,-21 2,0 4,9 5,20 1,11 0,20 -2,21z"/>
  <path class="fil4" d="M1799 3481c-2,0 -4,-9 -5,-20 -1,-11 0,-20 2,-21 2,0 4,9 5,20 1,11 0,20 -2,21z"/>
  <path class="fil4" d="M1807 3563c-2,0 -4,-9 -5,-20 -1,-11 0,-20 2,-21 2,0 4,9 5,20 1,11 0,20 -2,21z"/>
  <path class="fil4" d="M1814 3644c-2,0 -4,-9 -6,-20 -1,-11 0,-20 2,-21 2,0 4,9 6,20 1,11 0,20 -2,21z"/>
  <path class="fil4" d="M1822 3725c-2,0 -5,-9 -6,-20 -1,-11 0,-20 2,-21 2,0 5,9 6,20 1,11 0,20 -2,21z"/>
  <path class="fil4" d="M1831 3806c-2,0 -5,-9 -6,-20 -1,-11 -1,-20 1,-21 2,0 5,9 6,20 1,11 1,20 -1,21z"/>
  <path class="fil4" d="M1839 3887c-2,0 -5,-9 -6,-20 -1,-11 -1,-20 1,-21 2,0 5,9 6,20 1,11 1,20 -1,21z"/>
  <path class="fil4" d="M1848 3968c-2,0 -5,-9 -6,-20 -1,-11 -1,-20 1,-21 2,0 5,9 6,20 1,11 1,20 -1,21z"/>
  <path class="fil4" d="M1855 4030c-2,0 -4,-4 -5,-10 -1,-6 0,-11 2,-11 2,0 4,4 5,10 1,6 0,11 -2,11z"/>
  <polygon class="fil11" points="757,5244 794,5050 1017,5090 963,5286 "/>
  <polygon class="fil8" points="757,5244 723,5396 959,5426 968,5274 "/>
  <path class="fil4" d="M864 5251c2,0 -2,32 -8,70 -6,38 -13,69 -15,69 -2,0 2,-32 8,-70 6,-38 13,-69 15,-69z"/>
  <path class="fil4" d="M960 5409c0,1 -13,-1 -34,-4 -24,-4 -51,-8 -82,-13 -32,-5 -61,-11 -82,-15 -21,-5 -34,-8 -33,-9 0,-1 13,1 34,4 24,4 51,8 82,13 32,5 61,11 82,15 21,5 34,8 33,9z"/>
  <path class="fil4" d="M1008 5121c0,1 -13,0 -33,-4 -20,-3 -48,-8 -78,-14 -29,-6 -55,-11 -78,-15 -20,-4 -32,-6 -32,-7 0,-1 13,0 33,2 20,3 48,7 78,13 30,6 58,12 77,16 20,4 32,8 32,9z"/>
  <path class="fil9" d="M999 5145c0,1 -13,0 -33,-3 -20,-3 -47,-7 -77,-12 -30,-5 -57,-10 -77,-14 -20,-4 -32,-7 -32,-8 0,-1 13,0 32,3 20,3 47,7 78,12 30,5 57,10 77,15 20,4 32,7 32,8z"/>
  <path class="fil11" d="M1602 5376c-3,-17 -15,-249 -15,-249l247 -19 9 240 -241 28z"/>
  <path class="fil8" d="M1861 5370l-4 -27 -256 33 11 90 16 -1c71,-5 360,-30 405,-50 50,-22 -172,-44 -172,-44z"/>
  <path class="fil8" d="M1705 5452c-6,-21 -21,-39 -39,-50 -19,-11 -41,-15 -62,-11l9 71 92 -10z"/>
  <path class="fil8" d="M1971 5385c0,0 79,12 71,26 -8,14 -299,50 -428,55l0 -6 340 -39c0,0 4,-33 18,-36z"/>
  <path class="fil4" d="M1608 5460c0,0 2,0 4,0 4,0 8,-1 13,-1 13,-1 28,-2 47,-4 39,-3 93,-9 153,-16 60,-7 114,-15 153,-21 18,-3 34,-6 46,-8 5,-1 9,-2 12,-2 3,-1 4,-1 4,-1 0,0 -2,0 -4,0 -4,1 -8,1 -13,2 -13,2 -28,4 -46,7 -39,6 -93,13 -153,21 -60,7 -114,13 -153,17 -18,2 -34,3 -46,5 -5,1 -9,1 -13,1 -3,0 -4,1 -4,1z"/>
  <path class="fil4" d="M1953 5424c1,0 0,-11 6,-23 5,-12 14,-19 14,-20 0,-1 -11,5 -16,18 -6,13 -4,25 -3,24z"/>
  <path class="fil4" d="M1873 5396c1,0 4,-4 7,-11 3,-6 5,-12 4,-12 -1,0 -4,4 -7,11 -3,6 -5,12 -4,12z"/>
  <path class="fil4" d="M1851 5387c1,1 4,-3 8,-7 4,-4 7,-9 6,-9 -1,-1 -4,3 -8,7 -4,4 -7,9 -6,9z"/>
  <path class="fil4" d="M1835 5365c0,1 6,1 14,0 7,-1 13,-2 13,-3 0,-1 -6,-1 -14,0 -7,1 -13,2 -13,3z"/>
  <path class="fil4" d="M1828 5348c0,1 7,3 15,2 9,0 15,-3 15,-4 0,-1 -7,0 -15,1 -8,0 -15,0 -15,1z"/>
  <path class="fil4" d="M1878 5372c0,0 6,0 16,-2 5,-1 11,-3 17,-6 3,-2 6,-3 9,-5 1,-1 3,-3 3,-6 0,-3 -1,-5 -3,-6 -17,-6 -31,5 -36,13 -3,5 -4,9 -4,12 0,3 0,4 0,4 1,0 0,-7 6,-15 3,-4 7,-8 13,-11 6,-2 14,-4 20,-1 3,2 2,5 0,7 -2,2 -6,4 -9,5 -6,3 -12,5 -16,6 -10,3 -16,4 -16,4z"/>
  <path class="fil4" d="M1883 5373c0,0 2,-4 0,-12 -1,-4 -3,-8 -6,-11 -3,-3 -8,-8 -15,-7 -4,1 -5,6 -4,8 1,3 2,5 4,7 3,4 6,7 9,9 6,4 10,6 10,5 0,0 -4,-3 -9,-7 -3,-2 -5,-5 -8,-9 -3,-3 -5,-9 -1,-10 4,-1 9,3 12,6 3,3 5,7 6,10 2,6 1,11 2,11z"/>
  <path class="fil4" d="M1605 5390c0,1 7,-2 19,-2 12,0 28,3 43,12 15,9 25,23 30,33 5,10 7,18 7,18 0,0 0,-2 -1,-5 -1,-3 -2,-8 -4,-13 -5,-11 -15,-25 -31,-35 -16,-10 -33,-12 -45,-11 -6,0 -11,1 -14,2 -3,1 -5,2 -5,2z"/>
  <path class="fil4" d="M1734 5423c0,1 17,1 38,-1 21,-2 37,-7 37,-8 0,-1 -17,2 -37,5 -21,2 -37,3 -37,4z"/>
  <path class="fil4" d="M1684 5429c-1,1 2,3 4,7 2,4 4,7 4,7 1,0 1,-4 -2,-8 -3,-4 -6,-6 -7,-5z"/>
  <path class="fil4" d="M1662 5408c-1,1 1,3 4,5 3,2 6,4 6,3 1,-1 -1,-3 -4,-5 -3,-2 -6,-4 -6,-3z"/>
  <path class="fil4" d="M1634 5401c0,1 4,0 8,1 4,1 7,2 7,2 1,-1 -2,-4 -7,-5 -5,-1 -9,1 -8,2z"/>
  <path class="fil4" d="M1614 5398c0,1 1,2 4,3 2,1 4,0 4,0 0,-1 -1,-2 -4,-3 -2,-1 -4,0 -4,1z"/>
  <path class="fil4" d="M1831 5148c0,2 -55,6 -123,10 -68,3 -123,5 -123,2 0,-2 55,-6 123,-10 68,-3 123,-4 123,-3z"/>
  <path class="fil9" d="M1831 5179c0,2 -54,7 -121,11 -67,4 -121,6 -121,3 0,-2 54,-7 121,-11 67,-4 121,-6 121,-3z"/>
  <path class="fil8" d="M1073 2453l16 306 3 268 705 -52 -30 -493c-5,-115 -7,-235 -10,-342 48,-18 496,-188 526,-192 32,-5 326,-547 326,-547 9,-65 -167,-107 -167,-107 0,0 -274,413 -297,436 -23,23 -452,68 -452,68 -132,-30 -465,-34 -545,25 0,0 -182,90 -74,629z"/>
  <path class="fil4" d="M2183 1824c-2,1 -13,-19 -22,-45 -9,-26 -18,-47 -16,-48 2,-1 13,19 22,45 9,26 18,47 16,48z"/>
  <path class="fil4" d="M2214 1789c-1,1 -17,-11 -37,-26 -20,-15 -34,-30 -33,-32 1,-1 17,11 37,26 20,15 34,30 33,32z"/>
  <path class="fil4" d="M1763 1794c0,1 -17,1 -41,10 -25,8 -57,27 -80,59 -23,32 -30,69 -30,95 0,26 6,42 4,42 0,0 -2,-4 -4,-11 -2,-7 -4,-18 -5,-31 -2,-27 5,-65 29,-99 24,-34 59,-53 84,-60 13,-4 24,-5 31,-6 7,0 12,0 12,0z"/>
  <path class="fil4" d="M1552 1784c0,2 -50,4 -112,4 -62,0 -112,-1 -112,-3 0,-2 50,-4 112,-4 62,0 112,1 112,3z"/>
  <path class="fil4" d="M1445 2047c0,0 2,4 5,11 3,7 8,18 18,27 5,5 12,9 20,11 8,2 18,-1 25,-7 8,-6 15,-15 25,-21 10,-7 24,-9 38,-6 13,3 26,10 35,22 9,12 13,28 11,44 -2,16 -8,32 -20,44 -12,12 -27,20 -42,29 -15,9 -29,19 -35,35 -6,16 -5,34 -7,53 -1,9 -2,19 -7,29 -4,9 -11,17 -19,24 -16,13 -38,18 -59,12 -10,-3 -19,-8 -27,-15 -8,-7 -13,-16 -17,-25 -9,-17 -17,-36 -34,-40 -17,-5 -34,5 -53,4 -20,0 -37,-13 -44,-30 -8,-17 -3,-37 8,-51 5,-7 13,-12 21,-15 8,-3 15,-5 23,-7 7,-2 14,-4 20,-8 5,-4 9,-10 11,-16 2,-13 -2,-26 -5,-39 -6,-27 6,-52 23,-65 16,-14 37,-16 51,-14 15,2 25,9 31,14 6,5 8,9 8,9 0,0 -3,-3 -9,-7 -6,-4 -16,-10 -30,-12 -14,-2 -33,1 -48,14 -15,13 -26,36 -20,61 2,12 8,26 5,41 -1,8 -6,15 -13,20 -7,5 -14,7 -22,9 -15,4 -31,7 -40,20 -10,12 -13,29 -7,44 6,15 22,26 38,26 17,1 35,-10 55,-4 10,3 18,10 24,18 6,8 10,17 14,25 4,8 9,17 16,23 7,6 15,11 24,14 18,6 38,1 52,-10 7,-6 13,-13 17,-21 4,-8 5,-17 6,-26 2,-18 0,-37 7,-55 8,-18 24,-29 38,-38 15,-9 30,-17 40,-28 11,-11 17,-26 19,-40 2,-14 -2,-29 -10,-40 -8,-11 -20,-18 -32,-21 -12,-3 -24,-1 -34,5 -10,6 -17,15 -25,21 -8,7 -19,9 -28,7 -9,-2 -16,-7 -22,-12 -10,-11 -14,-22 -17,-29 -1,-4 -2,-6 -3,-8 -1,-2 -1,-3 -1,-3z"/>
  <path class="fil4" d="M1783 2669c0,0 -2,1 -6,1 -4,0 -10,1 -18,-1 -8,-2 -17,-5 -26,-12 -9,-7 -16,-18 -23,-30 -6,-12 -12,-26 -25,-35 -13,-9 -30,-4 -47,-1 -9,2 -19,2 -29,-1 -10,-3 -18,-9 -25,-18 -6,-8 -10,-19 -10,-30 0,-11 4,-22 11,-30 7,-9 17,-15 27,-17 10,-3 20,-5 28,-8 9,-3 15,-10 17,-18 2,-8 1,-17 -1,-26 -2,-9 -4,-17 -5,-26 -1,-9 1,-18 4,-26 6,-16 17,-28 29,-35 12,-7 26,-9 37,-8 11,1 20,4 27,8 7,4 11,8 14,11 3,3 4,5 4,5 -1,1 -6,-7 -19,-13 -7,-3 -16,-6 -26,-6 -10,0 -23,2 -34,9 -11,7 -21,18 -26,33 -3,7 -4,15 -3,23 0,8 3,16 5,25 2,9 4,19 1,29 -3,10 -12,19 -21,22 -19,8 -41,8 -53,24 -12,15 -13,37 -2,52 5,7 13,13 21,16 8,3 17,3 26,1 9,-1 17,-4 26,-4 9,-1 18,1 26,6 14,10 20,26 26,37 6,12 12,22 21,29 8,7 17,10 24,12 15,4 23,1 23,2z"/>
  <path class="fil4" d="M1131 1833c1,-1 6,8 21,12 7,2 17,2 26,-5 9,-6 17,-17 30,-25 13,-7 32,-8 48,0 8,4 16,9 22,17 6,8 10,17 12,27 3,20 -2,42 -16,59 -14,17 -35,26 -53,38 -9,6 -17,12 -23,21 -6,8 -9,18 -10,28 -3,20 0,41 -7,60 -7,19 -23,32 -40,38 -17,6 -35,3 -48,-3 -13,-7 -24,-16 -28,-28 -3,-12 0,-22 -1,-30 0,-8 -2,-14 -6,-16 -3,-3 -5,-3 -5,-4 0,0 2,0 6,2 4,2 8,9 7,17 0,8 -1,18 2,29 3,10 14,19 26,25 13,6 29,8 44,2 15,-5 29,-18 36,-35 6,-17 4,-37 7,-58 1,-11 4,-22 11,-31 7,-9 16,-17 25,-23 19,-12 39,-21 51,-36 12,-15 18,-35 15,-53 -1,-9 -5,-17 -10,-24 -5,-7 -12,-12 -19,-15 -14,-7 -31,-7 -43,-1 -12,6 -20,17 -30,23 -10,7 -22,7 -29,4 -8,-3 -13,-7 -16,-10 -3,-3 -4,-5 -4,-5z"/>
  <path class="fil4" d="M2008 1842c1,0 3,5 7,14 4,8 11,22 26,30 7,4 17,6 26,2 9,-3 16,-12 25,-20 9,-8 22,-15 35,-15 14,0 28,5 39,14 11,9 18,23 20,36 2,13 0,27 -4,38 -5,11 -11,21 -19,28 -8,7 -17,12 -25,16 -17,7 -29,12 -37,19 -7,6 -10,12 -10,11 0,0 0,-1 1,-4 1,-2 3,-6 7,-9 7,-8 20,-14 36,-22 8,-4 16,-9 23,-15 7,-7 13,-16 17,-26 4,-10 6,-22 4,-34 -2,-12 -8,-23 -18,-31 -10,-8 -22,-12 -34,-13 -12,0 -23,5 -31,12 -9,7 -17,16 -28,20 -11,4 -22,1 -30,-3 -16,-10 -22,-25 -26,-34 -4,-9 -5,-15 -4,-15z"/>
  <path class="fil4" d="M2367 1410c0,0 -2,5 -7,14 -4,9 -11,22 -9,39 1,8 5,17 14,22 8,5 19,6 31,9 12,2 25,9 33,20 8,11 13,25 12,39 -1,14 -7,28 -17,38 -9,10 -21,16 -33,19 -12,3 -24,3 -34,1 -11,-2 -20,-7 -28,-11 -15,-9 -28,-16 -37,-18 -9,-2 -15,-1 -15,-2 0,0 1,-1 4,-1 3,0 7,-1 12,0 10,1 24,8 39,16 8,4 16,8 26,10 10,2 21,1 32,-2 11,-3 21,-9 30,-18 8,-9 14,-20 14,-33 1,-13 -3,-25 -10,-35 -7,-10 -17,-15 -29,-17 -11,-3 -23,-4 -33,-10 -10,-6 -14,-17 -15,-26 -2,-19 7,-33 12,-41 5,-8 9,-13 9,-12z"/>
  <path class="fil4" d="M1937 2073c0,0 -5,-2 -15,-7l0 0c-8,-3 -19,-1 -33,2 -7,2 -15,3 -24,3 -9,0 -19,-4 -27,-10 -8,-6 -15,-15 -18,-26 -3,-11 -2,-24 4,-35 5,-11 15,-21 28,-25 12,-5 25,-6 35,-11 7,-3 12,-8 15,-15 3,-7 2,-14 1,-21 -3,-15 -8,-30 -5,-45 5,-30 28,-51 50,-55 22,-5 40,3 50,9 5,3 9,7 11,9 2,3 3,4 3,4 -1,1 -5,-5 -15,-11 -10,-6 -27,-12 -48,-7 -20,5 -41,24 -45,51 -2,13 3,27 6,43 1,8 2,17 -1,25 -3,9 -11,15 -18,19 -12,6 -25,7 -36,11 -11,4 -19,12 -24,21 -5,10 -6,20 -4,30 2,10 8,18 16,23 7,6 16,9 23,9 8,0 16,-1 23,-2 14,-3 27,-4 35,0l0 0 0 0c9,6 14,9 13,9z"/>
  <path class="fil4" d="M1472 2999c0,0 -1,-3 1,-7 1,-5 6,-11 13,-16 8,-5 19,-8 32,-8 13,-1 28,0 42,-5 14,-6 28,-18 34,-35 6,-17 4,-38 -8,-54 -12,-17 -33,-24 -53,-36 -10,-6 -20,-14 -26,-26 -6,-11 -8,-24 -9,-36 -2,-24 -3,-49 -16,-67 -13,-18 -33,-29 -53,-28 -20,1 -37,15 -45,30 -4,8 -5,17 -4,25 1,8 4,16 6,24 2,8 3,16 1,24 -2,8 -7,13 -12,18 -11,8 -22,10 -31,11 -9,0 -16,0 -21,-1 -5,-1 -7,-1 -7,-1 0,-1 10,1 28,-1 9,-1 20,-3 29,-11 5,-4 9,-9 10,-16 2,-6 1,-14 -1,-21 -2,-8 -5,-15 -7,-24 -2,-9 0,-19 4,-28 8,-18 27,-33 50,-35 23,-1 46,11 60,31 7,10 12,22 14,34 2,12 3,24 4,36 1,12 3,24 9,33 5,10 14,17 23,23 19,12 42,19 55,38 13,18 15,42 8,60 -7,19 -22,32 -38,37 -16,6 -31,4 -44,5 -13,0 -23,2 -31,6 -7,4 -12,10 -13,14 -2,4 -2,7 -2,7z"/>
  <path class="fil4" d="M1373 3006c0,0 -1,-4 -1,-11 0,-7 4,-17 3,-28 -1,-6 -3,-12 -8,-16 -5,-5 -11,-8 -19,-10 -8,-2 -16,-3 -25,-6 -9,-3 -18,-7 -25,-14 -15,-13 -23,-32 -23,-49 0,-17 7,-32 15,-42 8,-10 17,-15 24,-18 7,-3 11,-3 11,-3 1,1 -16,5 -31,24 -7,9 -13,23 -12,39 0,15 8,32 21,44 13,13 31,14 47,19 8,2 16,6 22,12 6,6 8,13 9,20 0,7 -1,12 -3,17 -1,5 -2,9 -3,12 -1,7 -1,10 -2,11z"/>
  <path class="fil4" d="M1065 2409c0,0 3,-4 10,-8 4,-2 10,-3 16,-2 6,1 13,5 18,12l0 0 0 0c5,13 11,30 26,41 7,5 17,9 26,7 10,-2 18,-9 26,-17 8,-8 20,-17 33,-18 13,-1 27,2 39,10 12,8 21,20 24,35 3,14 2,30 -4,44 -4,11 -11,21 -20,28 -8,8 -18,13 -27,19 -18,10 -36,21 -44,37 -8,16 -7,35 -8,53 -1,17 -6,34 -16,46 -10,12 -22,19 -34,21 -11,3 -23,2 -30,-3 -7,-5 -10,-11 -13,-14 -2,-4 -4,-5 -3,-6 0,0 2,1 5,5 3,3 7,8 13,13 6,5 17,5 27,2 11,-3 22,-10 31,-21 9,-11 13,-26 14,-43 1,-17 -1,-36 8,-55 19,-39 75,-41 90,-84 5,-13 7,-27 4,-40 -3,-13 -11,-24 -21,-31 -10,-7 -23,-10 -35,-9 -12,1 -21,8 -30,16 -8,8 -18,16 -30,18 -12,2 -23,-3 -31,-9 -16,-13 -21,-31 -26,-44l0 0c-4,-6 -10,-10 -16,-11 -6,-2 -11,-1 -14,1 -8,3 -11,6 -11,6z"/>
  <path class="fil6" d="M2304 1206c15,4 29,15 35,30 25,-20 56,-30 88,-29 -2,18 -15,34 -29,45 -14,11 -31,20 -45,31 -15,11 -27,26 -30,44l-17 -121z"/>
  <path class="fil9" d="M6788 5417l-12 -113 212 -23 19 165 -13 2c-58,10 -296,45 -336,37 -45,-8 130,-68 130,-68z"/>
  <path class="fil9" d="M6930 5453c1,-18 9,-35 22,-48 13,-13 30,-20 48,-21l6 59 -76 10z"/>
  <path class="fil9" d="M6703 5449c0,0 -61,25 -52,35 9,10 250,-17 356,-38l-1 -5 -281 33c0,0 -9,-26 -22,-25z"/>
  <path class="fil4" d="M7009 5441c0,0 -1,0 -4,1 -3,1 -7,1 -10,2 -10,2 -23,4 -38,6 -32,5 -77,11 -127,16 -50,5 -95,9 -127,12 -15,1 -28,2 -39,3 -4,0 -7,0 -11,1 -2,0 -4,0 -4,0 0,0 1,0 4,-1 3,0 7,-1 10,-1 10,-1 23,-2 39,-3 33,-3 77,-7 127,-13 50,-5 94,-11 127,-15 15,-2 28,-4 38,-5 4,0 7,-1 10,-1 2,0 4,0 4,0z"/>
  <path class="fil4" d="M6725 5478c-1,0 -2,-9 -9,-18 -7,-9 -15,-13 -15,-13 0,-1 10,2 17,12 7,9 8,19 7,19z"/>
  <path class="fil4" d="M6784 5439c-1,0 -4,-3 -8,-7 -4,-5 -6,-9 -6,-9 1,0 4,3 8,7 4,5 6,9 6,9z"/>
  <path class="fil4" d="M6800 5428c0,1 -4,-1 -8,-4 -4,-3 -7,-6 -6,-6 0,-1 4,1 8,4 4,3 7,6 7,6z"/>
  <path class="fil4" d="M6809 5407c0,1 -5,2 -11,3 -6,1 -11,1 -11,0 0,-1 5,-2 11,-3 6,-1 11,-1 11,0z"/>
  <path class="fil4" d="M6811 5393c0,1 -5,4 -12,5 -7,1 -13,0 -13,0 0,-1 6,-1 12,-2 7,-1 12,-3 12,-2z"/>
  <path class="fil4" d="M6775 5421c0,0 -5,1 -14,1 -4,0 -9,-1 -15,-2 -3,-1 -6,-1 -9,-3 -1,-1 -3,-2 -4,-4 -1,-2 0,-4 1,-6 12,-8 26,-2 32,4 3,3 5,6 5,9 1,2 1,4 1,4 0,0 -2,-5 -7,-11 -3,-3 -7,-5 -12,-6 -5,-1 -12,-1 -16,3 -2,2 -1,4 2,5 2,1 5,2 8,2 5,1 10,2 14,2 8,1 13,0 14,0z"/>
  <path class="fil4" d="M6771 5422c0,0 -3,-3 -3,-9 0,-3 1,-7 3,-10 2,-3 5,-8 11,-8 3,0 5,3 5,6 0,2 -1,5 -2,6 -2,4 -4,7 -6,9 -4,5 -7,7 -7,6 0,0 2,-3 6,-7 2,-2 3,-5 5,-9 2,-3 2,-8 -1,-9 -3,0 -7,4 -8,7 -2,3 -3,6 -3,9 0,6 1,9 1,9z"/>
  <path class="fil4" d="M6999 5383c0,0 -6,0 -16,2 -9,2 -22,7 -33,18 -10,10 -16,23 -18,32 -2,9 -2,16 -2,16 0,0 0,-2 0,-4 0,-3 0,-7 1,-12 2,-10 7,-23 18,-34 11,-11 24,-16 34,-18 5,-1 9,-1 12,-1 3,0 4,0 4,0z"/>
  <path class="fil4" d="M6967 5298c1,0 4,19 7,43 3,24 5,43 4,44 -1,0 -4,-19 -7,-43 -3,-24 -5,-43 -4,-44z"/>
  <path class="fil4" d="M6901 5435c0,1 -13,4 -31,6 -17,2 -31,2 -31,1 0,-1 14,-1 31,-3 17,-2 31,-5 31,-4z"/>
  <path class="fil4" d="M6943 5430c1,0 -1,3 -2,6 -1,3 -2,6 -2,6 -1,0 -1,-3 0,-7 1,-4 4,-6 4,-6z"/>
  <path class="fil4" d="M6956 5409c1,0 -1,3 -3,5 -2,2 -4,4 -5,4 -1,0 1,-3 3,-5 2,-2 4,-4 5,-4z"/>
  <path class="fil4" d="M6978 5398c0,1 -3,1 -6,2 -3,1 -5,3 -6,3 -1,0 1,-4 5,-5 4,-2 7,-1 7,0z"/>
  <path class="fil4" d="M6993 5392c0,1 -1,2 -2,3 -2,1 -3,1 -4,0 0,-1 1,-2 2,-3 2,-1 3,-1 4,0z"/>
  <path class="fil9" d="M6170 5419l3 -114 213 5 -3 166 -13 1c-59,2 -299,5 -338,-7 -43,-14 138,-51 138,-51z"/>
  <path class="fil9" d="M6306 5473c3,-18 14,-34 28,-45 14,-11 32,-16 50,-14l-1 59 -77 0z"/>
  <path class="fil9" d="M6081 5440c0,0 -64,17 -56,27 8,11 250,16 358,9l0 -5 -283 -4c0,0 -6,-27 -18,-28z"/>
  <path class="fil4" d="M6386 5472c0,0 -1,0 -4,0 -3,0 -7,0 -11,0 -11,0 -23,0 -39,1 -33,0 -78,0 -128,-1 -50,-1 -95,-3 -128,-5 -15,-1 -28,-2 -39,-2 -4,0 -7,-1 -10,-1 -2,0 -4,0 -4,0 0,0 1,0 4,0 3,0 7,0 11,0 11,0 23,1 39,2 33,1 78,3 128,4 50,1 95,1 128,1 15,0 28,0 39,0 4,0 7,0 11,0 2,0 4,0 4,0z"/>
  <path class="fil4" d="M6099 5471c-1,0 -1,-9 -7,-19 -5,-10 -13,-14 -13,-15 0,-1 9,4 15,14 6,10 5,20 5,20z"/>
  <path class="fil4" d="M6163 5441c-1,0 -4,-3 -7,-8 -3,-5 -5,-9 -4,-10 1,0 4,3 7,8 3,5 5,9 4,10z"/>
  <path class="fil4" d="M6180 5432c0,1 -4,-2 -7,-5 -4,-3 -6,-7 -6,-7 0,-1 4,2 7,5 4,3 6,7 6,7z"/>
  <path class="fil4" d="M6192 5412c0,1 -5,1 -11,1 -6,0 -11,-1 -11,-1 0,-1 5,-1 11,-1 6,0 11,1 11,1z"/>
  <path class="fil4" d="M6196 5398c0,1 -5,3 -12,3 -7,0 -13,-1 -13,-2 0,-1 6,0 13,-1 7,0 12,-1 13,-1z"/>
  <path class="fil4" d="M6156 5422c0,0 -5,1 -14,0 -4,-1 -9,-2 -14,-4 -3,-1 -5,-2 -8,-4 -1,-1 -3,-2 -3,-4 -1,-2 1,-4 2,-5 13,-6 26,1 31,8 3,4 4,7 4,9 1,2 0,4 0,4 0,0 -1,-5 -6,-12 -3,-3 -6,-6 -12,-8 -5,-2 -12,-2 -16,1 -2,2 -1,4 1,6 2,1 5,2 8,3 5,2 10,3 14,4 8,2 13,2 13,2z"/>
  <path class="fil4" d="M6152 5423c0,0 -2,-3 -1,-10 0,-3 2,-7 4,-10 3,-3 6,-7 12,-7 3,0 5,4 4,6 0,2 -1,4 -2,6 -2,3 -4,6 -7,8 -4,4 -8,6 -8,5 0,0 3,-2 7,-7 2,-2 4,-5 6,-8 2,-3 3,-8 0,-9 -3,0 -7,3 -9,6 -2,3 -3,6 -4,9 -1,6 0,9 0,9z"/>
  <path class="fil4" d="M6383 5414c0,0 -6,-1 -16,0 -10,1 -23,4 -35,13 -12,9 -19,21 -22,30 -3,9 -4,15 -4,15 0,0 0,-2 0,-4 0,-3 1,-7 3,-11 3,-9 10,-22 22,-31 12,-9 26,-13 36,-13 5,0 9,0 12,1 3,0 4,1 4,1z"/>
  <path class="fil4" d="M6363 5325c1,0 1,20 1,44 0,24 -1,44 -2,44 -1,0 -1,-20 -1,-44 0,-24 1,-44 2,-44z"/>
  <path class="fil4" d="M6279 5452c0,1 -14,3 -31,2 -17,0 -31,-3 -31,-3 0,-1 14,0 31,1 17,0 31,-1 31,0z"/>
  <path class="fil4" d="M6321 5453c1,1 -1,3 -3,6 -2,3 -2,6 -3,6 -1,0 -1,-3 1,-7 2,-4 5,-5 5,-5z"/>
  <path class="fil4" d="M6337 5434c1,1 -1,3 -3,5 -2,2 -4,4 -5,3 0,-1 1,-3 3,-5 2,-2 4,-4 5,-3z"/>
  <path class="fil4" d="M6360 5425c0,1 -3,1 -6,2 -3,1 -5,3 -6,2 -1,0 1,-3 5,-5 4,-1 7,0 7,1z"/>
  <path class="fil4" d="M6376 5421c0,1 -1,2 -3,2 -2,1 -3,1 -4,0 0,-1 1,-2 3,-2 2,-1 3,-1 4,0z"/>
  <path class="fil9" d="M6950 2942c0,0 151,790 116,800 -35,10 -820,18 -820,18l-85 -753 374 -124 414 58z"/>
  <path class="fil12" d="M6513 3757c4,-83 8,-160 12,-227l1 0 0 0c0,0 0,-2 0,-6 10,-158 20,-259 31,-259 0,0 0,0 0,0 15,0 30,249 41,491 -29,0 -57,1 -84,1zm414 -8l-8 -768 40 7c28,150 113,612 113,727 0,16 -2,25 -5,26 -9,2 -63,5 -140,7zm-750 -602l-16 -140 22 -5 -6 146 0 0z"/>
  <path class="fil4" d="M6917 2739l15 1434 120 1180 -364 0 -73 -1146c0,0 -29,-942 -58,-943 -49,-1 -87,2116 -106,2120 -32,7 -370,0 -370,0l108 -2472 729 -173z"/>
  <path class="fil8" d="M6570 3255c0,0 -3,-3 -9,-9 -5,-6 -12,-16 -18,-29 -6,-13 -11,-30 -15,-48 -3,-19 -5,-40 -5,-61 0,-44 1,-83 2,-111 1,-28 2,-46 3,-46 1,0 2,18 2,46 0,31 0,69 0,111 0,43 7,82 18,108 10,26 23,39 22,40z"/>
  <path class="fil8" d="M6770 3047c1,0 1,18 1,48 1,29 3,71 24,110 10,19 25,36 40,46 16,10 33,15 47,16 29,2 45,-9 46,-8 0,0 -3,3 -11,7 -8,3 -20,7 -35,6 -15,-1 -33,-5 -50,-16 -17,-11 -32,-28 -43,-48 -22,-41 -23,-84 -23,-114 0,-15 1,-27 2,-35 1,-8 1,-13 2,-13z"/>
  <path class="fil8" d="M6162 3274c0,0 4,3 10,6 7,3 17,7 31,6 13,-1 29,-7 43,-18 14,-11 27,-26 39,-44 24,-35 34,-72 39,-99 4,-27 3,-45 4,-45 0,0 1,4 2,12 0,8 1,19 -1,33 -3,28 -13,67 -38,103 -12,18 -26,34 -41,45 -15,11 -32,17 -47,17 -15,0 -26,-4 -33,-9 -7,-4 -9,-8 -9,-9z"/>
  <path class="fil8" d="M6863 4131c0,1 -10,6 -28,12 -18,7 -43,15 -71,21 -28,7 -54,11 -73,13 -19,2 -30,3 -31,2 0,-2 46,-9 101,-22 56,-13 99,-29 100,-27z"/>
  <path class="fil8" d="M6836 4115c0,2 -30,5 -68,7 -37,2 -68,2 -68,0 0,-2 30,-5 68,-7 37,-2 68,-2 68,0z"/>
  <path class="fil8" d="M6390 4276c0,2 -38,12 -86,23 -48,11 -88,18 -88,16 0,-2 38,-12 86,-23 48,-11 88,-18 88,-16z"/>
  <path class="fil8" d="M6377 4238c0,2 -36,2 -81,1 -45,-2 -81,-5 -81,-7 0,-2 36,-2 81,-1 45,2 81,5 81,7z"/>
  <path class="fil9" d="M6714 1820l115 0c0,0 114,2 189,108 53,74 62,171 29,256l-12 31 -113 265c-9,35 0,107 0,384l-735 48 32 -462 12 -134 6 -167c0,0 -135,-91 -243,-227l219 -218c0,0 162,142 205,138 43,-4 296,-22 296,-22z"/>
  <path class="fil5" d="M6702 1839l-226 17c-3,-26 -7,-128 -7,-128 0,0 -94,-9 -101,-102 -7,-93 -4,-309 -4,-309 105,-53 231,-45 329,21l15 10 -5 492z"/>
  <path class="fil4" d="M6394 1476c5,-5 5,-14 0,-19 -5,-5 -14,-5 -19,0 -5,5 -5,14 0,19 5,5 14,5 19,0z"/>
  <path class="fil4" d="M6370 1456c2,2 10,-6 23,-7 13,-1 23,5 24,3 1,-1 -1,-4 -5,-6 -4,-3 -11,-5 -19,-5 -8,1 -15,4 -18,8 -4,3 -5,6 -4,7z"/>
  <path class="fil4" d="M6519 1458c-6,4 -8,13 -3,19 4,6 13,8 19,3 6,-4 8,-13 3,-19 -4,-6 -13,-8 -19,-3z"/>
  <path class="fil4" d="M6511 1458c2,2 10,-6 23,-7 13,-1 23,5 24,3 1,-1 -1,-4 -5,-6 -4,-3 -11,-5 -19,-5 -8,1 -15,4 -18,8 -4,3 -5,7 -4,7z"/>
  <path class="fil4" d="M6466 1568c0,1 -8,2 -21,2 -2,0 -4,0 -6,0 -2,0 -5,-2 -6,-5 -2,-5 0,-10 1,-14 3,-9 5,-18 8,-27 12,-38 23,-69 25,-68 2,1 -6,32 -18,70 -3,9 -6,18 -9,27 -1,4 -3,8 -2,10 0,2 3,2 6,3 13,1 21,2 21,3z"/>
  <path class="fil2" d="M6509 1580c13,-9 -36,22 -62,22 0,0 17,23 43,12 27,-12 19,-34 19,-34z"/>
  <path class="fil13" d="M6468 1727c0,0 59,1 120,-42 0,0 -25,69 -119,66l-1 -24z"/>
  <path class="fil5" d="M6686 1450c2,-1 69,-10 63,70 -6,80 -85,47 -85,45 0,-2 22,-115 22,-115z"/>
  <path class="fil13" d="M6691 1539c0,0 1,1 4,2 2,1 6,2 10,1 9,-2 17,-15 18,-30 1,-7 0,-14 -2,-20 -2,-6 -5,-10 -10,-11 -4,-1 -7,1 -8,3 -1,2 -1,4 -1,4 0,0 -2,-1 -1,-5 0,-2 2,-3 4,-5 2,-1 5,-2 8,-1 6,1 11,7 13,14 3,7 4,14 3,23 -2,16 -11,30 -23,33 -6,1 -10,-1 -13,-3 -2,-2 -3,-4 -2,-4z"/>
  <path class="fil9" d="M6370 1322c-23,-6 -39,-30 -39,-54 1,-24 17,-46 39,-56 22,-10 48,-9 69,1 7,-35 40,-62 76,-61 35,1 67,30 72,65 2,-18 23,-28 41,-29 18,-1 38,4 49,18 12,14 13,37 0,49 20,-2 42,2 58,14 16,12 27,32 26,53 -2,20 -17,40 -37,44 -7,1 -15,2 -19,8 -2,3 -2,7 -2,11 1,22 1,45 2,67 -12,-6 -27,3 -33,15 -6,12 -5,26 -4,39 -6,9 -20,6 -27,-2 -6,-8 -7,-19 -7,-30 0,-36 -1,-72 -1,-108 -11,6 -24,6 -35,0 -11,-6 -18,-17 -18,-30 -15,15 -37,22 -58,19 -21,-3 -41,-15 -52,-33 -11,9 -22,18 -36,24 -13,6 -28,8 -42,4 -13,-5 -25,-17 -24,-32 2,-1 3,-3 5,-4l-5 7z"/>
  <path class="fil9" d="M6326 1334c0,0 1,-3 6,-4 2,0 5,1 8,3 3,2 4,7 3,11 -1,4 -4,9 -9,11 -5,2 -10,2 -16,1 -11,-3 -20,-15 -18,-28 1,-13 11,-23 21,-26 10,-4 20,-3 27,0 15,5 21,13 20,14 -1,1 -8,-5 -22,-9 -7,-2 -15,-2 -23,2 -8,3 -15,11 -16,21 -1,10 6,18 13,21 8,3 16,0 17,-6 2,-6 -3,-10 -6,-10 -2,0 -3,0 -4,0 -1,0 -1,1 -2,0z"/>
  <path class="fil9" d="M6703 1313c-1,-1 6,-6 14,-15 4,-5 9,-11 11,-18 3,-7 3,-16 -2,-24 -4,-8 -12,-11 -20,-10 -8,1 -15,4 -20,7 -11,6 -16,12 -17,12 -1,0 3,-8 14,-16 6,-4 12,-8 22,-10 5,-1 10,-1 15,2 5,2 9,6 12,11 6,10 5,22 2,30 -3,9 -9,15 -14,20 -10,9 -17,12 -18,12z"/>
  <path class="fil9" d="M6524 1217c-1,0 2,-8 9,-20 4,-6 9,-13 16,-19 7,-6 18,-11 29,-11 11,-1 23,5 28,13 6,8 7,17 7,24 -1,14 -5,22 -6,22 -1,0 1,-9 0,-22 0,-6 -2,-14 -7,-20 -5,-6 -13,-11 -23,-10 -20,0 -33,15 -41,26 -8,11 -12,18 -13,18z"/>
  <path class="fil12" d="M6659 1512c-6,0 -12,-3 -16,-8 -6,-8 -7,-19 -7,-30 0,-36 -1,-72 -1,-108 -5,3 -11,4 -17,4 -6,0 -12,-1 -17,-4 -11,-6 -18,-17 -18,-30 -13,13 -32,20 -50,20 -3,0 -6,0 -8,-1 -21,-3 -41,-15 -52,-33 -11,9 -22,18 -36,24 -8,4 -17,6 -26,6 -5,0 -10,-1 -15,-2 -12,-4 -23,-15 -24,-28 -3,-1 -5,-1 -7,-3 -7,-3 -13,-8 -18,-13 1,0 1,0 2,0 13,3 20,9 21,9 0,0 0,0 0,0 0,0 0,0 0,0 0,-1 -6,-8 -20,-13 -2,-1 -5,-1 -8,-2 -6,-9 -9,-19 -9,-30 0,-1 0,-1 0,-2 1,-24 17,-46 39,-56 10,-5 21,-7 32,-7 13,0 25,3 37,8 6,-34 39,-61 74,-61 1,0 1,0 2,0 16,0 32,7 44,17 -4,2 -8,4 -11,7 -7,6 -12,13 -16,19 -6,11 -9,18 -9,20 0,0 0,0 0,0 0,0 0,0 0,0 1,0 6,-7 13,-18 6,-8 16,-19 29,-24 12,11 20,26 22,42 1,-10 9,-18 18,-23 1,3 1,6 2,9 0,2 0,3 0,5 0,8 -1,13 -1,15 0,1 0,1 0,1 0,0 0,0 0,0 1,0 5,-8 5,-22 0,0 0,-1 0,-1 0,-3 0,-7 -1,-11 6,-2 11,-3 17,-4 2,0 3,0 5,0 17,0 34,6 45,18 6,7 9,16 9,26 0,6 -2,12 -5,18 -9,7 -13,13 -13,15 0,0 0,0 0,0 0,0 0,0 0,0 1,0 5,-4 13,-9 2,0 4,0 5,0 15,0 30,4 42,11 0,1 0,1 0,2 0,4 -1,8 -2,11 -3,8 -7,14 -11,18 -8,9 -14,14 -14,15 0,0 0,0 0,0 0,0 0,0 0,0 1,0 8,-4 18,-12 5,-5 10,-11 14,-20 1,-3 2,-7 3,-11 15,11 24,29 24,47 0,1 0,3 0,4 -2,20 -17,40 -37,44 -7,1 -15,2 -19,8 -2,3 -2,6 -2,9 0,1 0,2 0,2 1,22 1,45 2,67 -3,-1 -5,-2 -8,-2 -4,0 -9,1 -13,4 -5,3 -9,8 -12,13 -4,7 -5,15 -5,24 0,5 0,10 1,16 -2,4 -7,5 -11,5z"/>
  <path class="fil12" d="M6326 1358c-2,0 -5,0 -7,-1 -10,-3 -19,-13 -19,-26 0,-1 0,-2 0,-3 1,-13 11,-23 21,-26 5,-2 9,-2 14,-2 2,0 4,0 6,0 3,0 5,1 8,2 14,5 20,12 20,13 0,0 0,0 0,0 0,0 0,0 0,0 -2,0 -9,-6 -21,-9 -3,-1 -6,-1 -9,-1 -5,0 -9,1 -14,3 -8,3 -15,11 -16,21 0,1 0,1 0,2 0,9 6,17 14,19 2,1 4,1 6,1 6,0 10,-3 12,-8 0,-1 0,-2 0,-3 0,-4 -4,-7 -7,-7 -1,0 -1,0 -1,0 -1,0 -2,0 -3,0 -1,0 -1,0 -1,0 0,0 0,0 0,0 0,0 0,0 0,0 0,-1 2,-3 6,-3 0,0 0,0 1,0 2,0 5,1 8,3 2,2 3,5 3,8 0,1 0,2 0,3 -1,4 -4,9 -9,11 -3,1 -5,2 -8,2z"/>
  <path class="fil12" d="M6703 1313c0,0 0,0 0,0 0,0 0,0 0,0 0,-1 6,-6 14,-15 4,-5 9,-11 11,-18 1,-3 2,-7 2,-11 0,-1 0,-1 0,-2 0,-4 -1,-7 -3,-11 -4,-7 -10,-10 -17,-10 -1,0 -2,0 -3,0 -8,1 -15,4 -20,7 -1,1 -3,2 -4,2 -8,5 -12,9 -13,9 0,0 0,0 0,0 0,0 0,0 0,0 0,-1 4,-8 13,-15 1,0 1,-1 2,-1 6,-4 12,-8 22,-10 2,0 3,0 5,0 3,0 7,1 10,2 5,2 9,6 12,11 3,5 4,11 4,16 0,5 -1,10 -3,14 -3,9 -9,15 -14,20 -9,8 -16,12 -18,12z"/>
  <path class="fil12" d="M6607 1226c0,0 0,0 0,0 0,0 0,0 0,-1 0,-2 1,-8 1,-15 0,-2 0,-3 0,-5 0,-3 -1,-6 -2,-9 -1,-4 -3,-8 -6,-11 -5,-6 -13,-10 -22,-10 0,0 -1,0 -1,0 -4,0 -8,1 -12,2 -13,4 -23,15 -29,24 -8,10 -12,18 -13,18 0,0 0,0 0,0 0,0 0,0 0,0 0,-2 3,-9 9,-20 4,-6 9,-13 16,-19 7,-6 18,-11 29,-11 1,0 1,0 2,0 11,0 21,5 27,13 6,8 7,17 7,23 0,0 0,1 0,1 -1,14 -5,22 -5,22z"/>
  <path class="fil5" d="M6775 2144c0,0 -143,257 -196,302 -54,45 -453,-54 -453,-54l-6 -11c0,0 -19,-22 -42,-68 -6,-12 -10,-25 -12,-38 -2,-16 -5,-38 -2,-50 3,-15 -14,-26 -24,-17 -10,9 -19,51 -8,99 11,48 -49,0 -71,-17 -22,-17 -94,-66 -104,-63 -15,4 -14,22 9,38 23,17 87,71 78,82 -9,11 -121,-77 -121,-77 0,0 -21,-23 -32,-10 -20,23 106,108 118,116 8,5 -1,18 -10,12 -9,-6 -110,-90 -131,-67 -16,18 103,71 115,100 12,29 -86,-49 -101,-31 -5,7 -8,12 54,49 45,26 150,70 210,94 54,27 254,123 418,164 126,32 259,10 333,-98l227 -360 -248 -96z"/>
  <polygon class="fil9" points="6162,3007 6548,2912 6548,2870 6183,2840 "/>
  <path class="fil12" d="M6162 3007l22 -167 324 26c-9,2 -20,8 -28,19 -8,12 -10,25 -9,34 1,5 2,8 3,11l-290 71 -22 5zm315 -78c0,-2 0,-5 0,-9 0,-8 2,-20 9,-30 2,-3 4,-5 6,-7 2,0 5,0 9,-1 2,0 3,0 5,0 6,0 14,1 21,4 9,4 15,12 16,18 1,2 1,4 1,6l-54 -19c0,0 -5,13 -14,37zm71 -24c0,-1 0,-1 0,-2 -1,-8 -7,-19 -18,-24 -6,-3 -13,-4 -18,-4 -4,0 -8,1 -11,1 -1,0 -1,0 -2,1 4,-3 9,-5 13,-7 5,-2 9,-3 12,-3l26 2 0 34c0,1 0,1 -1,2z"/>
  <path class="fil9" d="M6932 2813c-26,8 -384,57 -384,57l0 42 411 77 -27 -176z"/>
  <path class="fil12" d="M6959 2989l-40 -7 -370 -69c3,-3 7,-9 8,-17 2,-13 -3,-23 -5,-23 0,0 0,0 0,0 -2,1 0,10 -2,22 -1,3 -1,7 -2,9l0 -34c0,0 358,-48 384,-57l27 176z"/>
  <path class="fil4" d="M6476 2933c-1,0 -4,-4 -5,-14 -1,-9 0,-23 9,-34 8,-12 21,-18 30,-19 9,-2 15,0 15,1 0,1 -5,1 -13,4 -8,3 -18,9 -25,19 -7,10 -9,22 -9,30 0,8 1,13 0,14z"/>
  <path class="fil4" d="M6489 2882c0,-1 4,-3 11,-5 7,-2 19,-3 30,3 11,5 18,16 18,24 1,8 -2,12 -3,12 -1,0 0,-5 -2,-11 -2,-6 -7,-14 -16,-18 -9,-4 -19,-4 -26,-4 -7,0 -11,1 -12,0z"/>
  <path class="fil4" d="M6552 2872c2,-1 8,9 5,23 -2,14 -11,22 -12,20 -2,-1 4,-10 5,-22 2,-12 0,-21 2,-22z"/>
  <path class="fil4" d="M6218 2934c0,-2 57,-11 127,-20 70,-9 128,-15 128,-13 0,2 -57,11 -127,20 -70,9 -128,15 -128,13z"/>
  <path class="fil4" d="M6820 2862c0,2 -58,11 -131,21 -73,9 -132,15 -132,14 0,-2 58,-11 131,-21 73,-9 132,-15 132,-14z"/>
  <path class="fil4" d="M6778 2898c0,1 -12,1 -32,1 -23,0 -49,0 -78,-1 -29,0 -55,0 -78,0 -20,0 -32,0 -32,-1 0,-1 12,-3 32,-4 20,-1 47,-3 78,-3 30,0 58,1 78,3 20,2 32,3 32,4z"/>
  <path class="fil9" d="M6490 2891c0,0 -107,276 -117,549l0 83 153 7c0,0 -23,-427 22,-618l-58 -21z"/>
  <path class="fil12" d="M6526 3530l-1 0 -152 -7 0 -83c10,-273 117,-549 117,-549l58 21c-8,32 -13,71 -18,114 -3,31 -5,63 -7,96 -3,56 -4,115 -4,169 0,131 6,239 6,239z"/>
  <path class="fil4" d="M6522 3494c0,2 -34,1 -75,0 -41,-1 -75,-1 -75,-3 0,-2 34,-5 75,-4 42,1 75,5 75,7z"/>
  <path class="fil4" d="M6415 3525c-2,0 -5,-7 -6,-17 -1,-10 1,-18 3,-18 2,0 3,8 4,18 1,10 1,18 -1,18z"/>
  <path class="fil4" d="M6478 3528c-2,1 -6,-7 -7,-17 -1,-10 2,-19 4,-18 2,0 3,8 4,18 1,9 2,17 0,18z"/>
  <path class="fil4" d="M6454 3158c-1,0 0,-16 4,-42 4,-26 10,-61 19,-100 10,-39 20,-73 29,-98 9,-25 15,-39 16,-39 1,0 -4,16 -11,41 -8,25 -18,59 -27,98 -9,38 -17,74 -21,99 -5,26 -8,41 -9,41z"/>
 </g>
</svg>
