<?xml version="1.0" encoding="UTF-8" standalone="no"?>
<svg
   xmlns:dc="http://purl.org/dc/elements/1.1/"
   xmlns:cc="http://creativecommons.org/ns#"
   xmlns:rdf="http://www.w3.org/1999/02/22-rdf-syntax-ns#"
   xmlns:svg="http://www.w3.org/2000/svg"
   xmlns="http://www.w3.org/2000/svg"
   viewBox="0 0 535.46667 459.92001"
   height="459.92001"
   width="535.46667"
   xml:space="preserve"
   id="svg2"
   version="1.1"><metadata
     id="metadata8"><rdf:RDF><cc:Work
         rdf:about=""><dc:format>image/svg+xml</dc:format><dc:type
           rdf:resource="http://purl.org/dc/dcmitype/StillImage" /></cc:Work></rdf:RDF></metadata><defs
     id="defs6" /><g
     transform="matrix(1.3333333,0,0,-1.3333333,0,459.92)"
     id="g10"><g
       transform="scale(0.1)"
       id="g12"><path
         id="path14"
         style="fill:#e3e3e2;fill-opacity:1;fill-rule:nonzero;stroke:none"
         d="m 3118.1,2493 -406.03,-192.62 740.02,-171.8 -281.24,352.34 c -12.62,15.81 -34.5,20.82 -52.75,12.08" /><path
         id="path16"
         style="fill:#e3e3e2;fill-opacity:1;fill-rule:nonzero;stroke:none"
         d="m 3345.61,1697.49 -725.32,168.38 c -4.77,1.11 -7.74,5.87 -6.63,10.64 l 97.57,420.26 c 0.46,1.99 2.45,3.23 4.44,2.77 l 735.37,-170.72 c 2,-0.46 3.24,-2.46 2.77,-4.45 l -97.55,-420.25 c -1.12,-4.77 -5.87,-7.74 -10.65,-6.63" /><path
         id="path18"
         style="fill:#ffffff;fill-opacity:1;fill-rule:nonzero;stroke:none"
         d="m 3404.11,2129.12 -347.33,-116.79 -305.54,253.77 53.89,203.18 c 5.48,21.97 27.56,35.48 49.6,30.36 l 562.52,-130.59 c 22.3,-5.18 36.18,-27.45 31.01,-49.75 l -44.15,-190.18" /><path
         id="path20"
         style="fill:#e3e3e2;fill-opacity:1;fill-rule:nonzero;stroke:none"
         d="m 3034.8,2046.68 -415.65,-145.02 c -4.24,-18.25 7.13,-36.47 25.37,-40.71 l 677.31,-157.16 c 18.25,-4.23 36.48,7.13 40.72,25.38 l 0.58,2.53 -290.73,305.87 c -9.66,10.16 -24.37,13.72 -37.6,9.11" /><path
         id="path22"
         style="fill:#e3e3e2;fill-opacity:1;fill-rule:nonzero;stroke:none"
         d="m 3075.35,2327.84 -220.1,51.06 5.22,22.49 220.09,-51.07 -5.21,-22.48" /><path
         id="path24"
         style="fill:#f8f8f9;fill-opacity:1;fill-rule:nonzero;stroke:none"
         d="m 3329.67,2205.76 -488.3,113.3 5.89,25.38 488.3,-113.3 -5.89,-25.38" /><path
         id="path26"
         style="fill:#f8f8f9;fill-opacity:1;fill-rule:nonzero;stroke:none"
         d="m 3315.28,2143.72 -488.31,113.3 5.9,25.38 488.3,-113.3 -5.89,-25.38" /><path
         id="path28"
         style="fill:#f8f8f9;fill-opacity:1;fill-rule:nonzero;stroke:none"
         d="m 3293.11,2091.56 -20.49,-6.65 -412.28,90.48 -41.86,35.38 0.84,6.07 486.72,-112.94 -1.95,-8.41 -10.98,-3.93" /><path
         id="path30"
         style="fill:#f8f8f9;fill-opacity:1;fill-rule:nonzero;stroke:none"
         d="m 3151.72,2044.25 -184.68,42.85 -44.25,37.02 275.99,-64.04 -47.06,-15.83" /><path
         id="path32"
         style="fill:#eeeeee;fill-opacity:1;fill-rule:nonzero;stroke:none"
         d="m 3019.64,2041.39 c 0.11,-0.34 -5.42,-2.59 -15.52,-6.36 -10.99,-3.97 -25.46,-9.2 -42.96,-15.52 -36.36,-12.89 -86.7,-30.36 -142.41,-49.34 -55.73,-18.99 -106.25,-35.91 -142.91,-47.9 -17.72,-5.68 -32.37,-10.38 -43.48,-13.95 -10.31,-3.18 -16.06,-4.78 -16.16,-4.44 -0.11,0.34 5.43,2.6 15.53,6.37 10.99,3.97 25.47,9.2 42.97,15.52 36.36,12.89 86.69,30.35 142.41,49.34 55.68,18.98 106.19,35.89 142.85,47.88 17.71,5.68 32.37,10.38 43.49,13.95 10.32,3.18 16.07,4.78 16.19,4.45" /><path
         id="path34"
         style="fill:#eeeeee;fill-opacity:1;fill-rule:nonzero;stroke:none"
         d="m 3363.12,1731.71 c -1.03,-0.98 -63.84,63.27 -140.24,143.5 -76.44,80.25 -137.54,146.09 -136.5,147.09 1.04,0.99 63.83,-63.25 140.27,-143.51 76.4,-80.22 137.52,-146.08 136.47,-147.08" /><path
         id="path36"
         style="fill:#eeeeee;fill-opacity:1;fill-rule:nonzero;stroke:none"
         d="m 3420.7,2134.81 c 0.13,-0.34 -4.37,-2.34 -12.58,-5.68 -8.21,-3.35 -20.16,-7.99 -35,-13.6 -29.65,-11.2 -70.81,-26.14 -116.57,-41.81 -45.77,-15.67 -87.46,-29.09 -117.76,-38.39 -15.16,-4.65 -27.46,-8.29 -36,-10.67 -8.55,-2.38 -13.32,-3.53 -13.43,-3.19 -0.11,0.34 4.46,2.15 12.81,5.13 9.33,3.22 21.23,7.33 35.48,12.24 30.96,10.51 71.93,24.42 117.22,39.81 45.2,15.59 86.09,29.69 117.01,40.35 14.27,4.83 26.19,8.87 35.55,12.03 8.43,2.75 13.14,4.12 13.27,3.78" /><path
         id="path38"
         style="fill:#eeeeee;fill-opacity:1;fill-rule:nonzero;stroke:none"
         d="m 3019.64,2041.39 c -0.24,-0.27 -4.68,3.2 -12.5,9.71 -8.53,7.1 -19.66,16.39 -33.08,27.59 -28.81,23.64 -67.31,55.24 -109.85,90.17 -43,35.14 -81.62,67.38 -108.96,91.42 -13.69,12 -24.63,21.86 -32.03,28.87 -7.41,6.97 -11.4,10.96 -11.15,11.23 0.23,0.27 4.67,-3.21 12.5,-9.72 8.51,-7.1 19.65,-16.39 33.07,-27.58 28.81,-23.65 67.31,-55.25 109.87,-90.19 42.98,-35.13 81.59,-67.36 108.93,-91.4 13.69,-12 24.64,-21.87 32.04,-28.87 7.41,-6.98 11.4,-10.97 11.16,-11.23" /><path
         id="path40"
         style="fill:#e3e3e2;fill-opacity:1;fill-rule:nonzero;stroke:none"
         d="m 3404.11,2129.12 c -0.09,0.02 0.04,0.99 0.39,2.86 0.43,2.15 0.97,4.88 1.65,8.27 1.65,7.61 3.94,18.21 6.85,31.68 6.26,27.85 15.18,67.48 26.16,116.3 1.39,6.14 2.82,12.42 4.27,18.84 1.32,6.42 3.39,13.05 3.79,19.44 0.85,13.05 -5.64,26.97 -17.43,34.73 -5.83,4.14 -12.7,5.72 -20.32,7.33 -7.45,1.71 -15.02,3.45 -22.71,5.21 -15.36,3.53 -31.17,7.16 -47.38,10.88 -64.87,15 -136.12,31.47 -210.92,48.76 -74.79,17.44 -146.03,34.05 -210.88,49.17 -16.2,3.79 -31.99,7.5 -47.34,11.1 -7.62,1.6 -15.39,4.08 -22.42,4.68 -7.21,0.55 -14.43,-1.09 -20.65,-4.32 -6.25,-3.2 -11.44,-8.08 -15.08,-13.79 -3.83,-5.66 -5.15,-12.31 -7.01,-19.02 -3.58,-13.25 -7.01,-25.98 -10.29,-38.14 -13.17,-48.28 -23.86,-87.47 -31.37,-115.01 -3.73,-13.26 -6.67,-23.7 -8.78,-31.19 -0.99,-3.32 -1.78,-5.99 -2.41,-8.09 -0.57,-1.81 -0.91,-2.73 -0.99,-2.71 -0.09,0.03 0.07,0.99 0.48,2.85 0.49,2.13 1.12,4.84 1.91,8.21 1.88,7.56 4.5,18.08 7.83,31.45 7.13,27.63 17.27,66.96 29.77,115.41 3.17,12.19 6.5,24.94 9.96,38.22 1.75,6.46 3.17,13.91 7.37,20.24 3.99,6.36 9.71,11.79 16.61,15.4 6.87,3.62 14.89,5.5 22.94,4.93 8.22,-0.71 15.37,-3.08 23.17,-4.66 15.37,-3.53 31.18,-7.16 47.39,-10.89 64.87,-15 136.14,-31.47 210.97,-48.77 74.77,-17.43 145.98,-34.04 210.83,-49.15 16.19,-3.8 31.98,-7.5 47.33,-11.1 7.67,-1.8 15.23,-3.58 22.67,-5.33 7.27,-1.56 15.4,-3.48 21.73,-8.09 13.04,-8.71 20.07,-24.15 19.04,-38.53 -0.56,-7.33 -2.69,-13.64 -4.05,-20.09 -1.51,-6.4 -2.99,-12.67 -4.45,-18.8 -11.65,-48.66 -21.11,-88.17 -27.76,-115.93 -3.32,-13.37 -5.93,-23.9 -7.81,-31.46 -0.88,-3.34 -1.6,-6.03 -2.15,-8.15 -0.52,-1.83 -0.82,-2.76 -0.91,-2.74" /><path
         id="path42"
         style="fill:#eeeeee;fill-opacity:1;fill-rule:nonzero;stroke:none"
         d="m 2446.09,3320.6 692.51,128.78 103.45,-467.98 -719.18,-121.47 -76.78,460.67" /><path
         id="path44"
         style="fill:#e3e3e2;fill-opacity:1;fill-rule:nonzero;stroke:none"
         d="m 3138.6,3449.38 c 0.07,-0.06 -0.34,-0.72 -1.2,-1.96 -1.06,-1.47 -2.34,-3.26 -3.91,-5.43 -3.78,-5.06 -8.92,-11.93 -15.42,-20.61 -13.86,-18.14 -33.46,-43.78 -57.61,-75.36 -49.35,-63.75 -117.23,-151.43 -192.67,-248.88 l -1.34,-1.72 -1.93,1.02 c -4.24,2.24 -8.82,4.66 -13.42,7.09 -111.88,59.49 -213.13,113.32 -286.9,152.54 -36.29,19.58 -65.8,35.5 -86.66,46.76 -9.88,5.46 -17.7,9.77 -23.44,12.95 -2.43,1.4 -4.41,2.54 -6.04,3.48 -1.34,0.81 -2.02,1.26 -1.97,1.34 0.04,0.08 0.79,-0.21 2.22,-0.87 1.7,-0.82 3.76,-1.81 6.28,-3.03 5.85,-2.95 13.82,-6.99 23.89,-12.08 21.06,-10.91 50.82,-26.32 87.43,-45.29 73.97,-38.88 175.47,-92.23 287.63,-151.19 4.59,-2.44 9.17,-4.85 13.41,-7.1 l -3.27,-0.7 c 75.94,97.07 144.25,184.4 193.91,247.9 24.69,31.17 44.73,56.46 58.91,74.36 6.82,8.43 12.22,15.11 16.18,20.02 1.73,2.05 3.15,3.73 4.31,5.12 0.99,1.13 1.53,1.69 1.61,1.64" /><path
         id="path46"
         style="fill:#e3e3e2;fill-opacity:1;fill-rule:nonzero;stroke:none"
         d="m 2522.87,2859.93 c -1.21,0.78 43.33,71.4 99.46,157.71 56.15,86.34 102.64,155.67 103.84,154.88 1.21,-0.78 -43.32,-71.38 -99.47,-157.72 -56.14,-86.31 -102.63,-155.66 -103.83,-154.87" /><path
         id="path48"
         style="fill:#e3e3e2;fill-opacity:1;fill-rule:nonzero;stroke:none"
         d="m 3242.05,2981.4 c -0.89,-1.13 -65.67,48.46 -144.66,110.74 -79.02,62.31 -142.34,113.72 -141.46,114.85 0.89,1.13 65.66,-48.45 144.68,-110.76 79,-62.28 142.33,-113.71 141.44,-114.83" /><path
         id="path50"
         style="fill:#f8f8f9;fill-opacity:1;fill-rule:nonzero;stroke:none"
         d="m 3556.74,2996.98 459.24,-111.27 -65.13,-314.85 -473.57,123.07 79.46,303.05" /><path
         id="path52"
         style="fill:#e3e3e2;fill-opacity:1;fill-rule:nonzero;stroke:none"
         d="m 4015.98,2885.71 c 0.08,-0.15 -1.67,-1.28 -5.07,-3.27 -3.91,-2.22 -8.88,-5.04 -15.02,-8.52 -13.75,-7.52 -32.67,-17.87 -55.84,-30.56 -47.95,-25.68 -113.39,-60.72 -186.12,-99.67 l -1.92,-1.03 -1.35,1.73 c -1.98,2.54 -4.12,5.27 -6.27,8.02 -51.97,67.05 -99,127.73 -133.54,172.28 -16.59,21.81 -30.15,39.63 -39.99,52.58 -4.37,5.91 -7.9,10.71 -10.68,14.46 -2.39,3.33 -3.57,5.14 -3.44,5.25 0.14,0.12 1.62,-1.48 4.27,-4.61 2.97,-3.6 6.76,-8.19 11.44,-13.85 10.16,-12.7 24.18,-30.18 41.31,-51.56 34.84,-44.32 82.29,-104.66 134.74,-171.35 2.14,-2.75 4.28,-5.48 6.26,-8.02 l -3.27,0.7 c 73.02,38.4 138.71,72.95 186.88,98.28 23.47,12.08 42.65,21.94 56.59,29.11 6.32,3.13 11.44,5.67 15.47,7.67 3.56,1.7 5.46,2.51 5.55,2.36" /><path
         id="path54"
         style="fill:#e3e3e2;fill-opacity:1;fill-rule:nonzero;stroke:none"
         d="m 3477.28,2693.93 c -0.78,1.2 45.67,32.53 103.71,69.95 58.08,37.43 105.76,66.79 106.55,65.58 0.78,-1.21 -45.65,-32.53 -103.73,-69.96 -58.04,-37.42 -105.75,-66.79 -106.53,-65.57" /><path
         id="path56"
         style="fill:#e3e3e2;fill-opacity:1;fill-rule:nonzero;stroke:none"
         d="m 3950.85,2570.86 c -1.28,-0.67 -27.66,47.29 -58.91,107.1 -31.27,59.83 -55.58,108.86 -54.3,109.52 1.27,0.67 27.65,-47.27 58.91,-107.11 31.26,-59.81 55.57,-108.85 54.3,-109.51" /><path
         id="path58"
         style="fill:#1d2a30;fill-opacity:1;fill-rule:nonzero;stroke:none"
         d="m 3079.02,190.648 c 0,0 3.79,-1.257 11.07,-3.949 7.25,-2.801 18.23,-6.48 32.81,-10.597 29.05,-7.973 73.57,-17.211 131.12,-13.34 28.68,1.867 60.41,6.718 94.35,15.269 33.92,8.59 70.32,20.059 107.33,37.399 74.08,34.09 151.44,89.422 218.75,167.179 16.48,19.512 31.76,41.403 40.01,66.789 8.09,25.043 8.84,54.321 -3.76,78.954 -6.21,12.226 -16.1,22.57 -27.91,30.027 -11.81,7.582 -25.72,11.801 -39.9,13.859 -28.68,4.223 -58.34,-1.957 -85.91,-14 -14,-5.656 -28.19,-11.769 -43.46,-15.41 -15.14,-3.738 -31.82,-4.066 -47.15,1.184 -15.22,4.808 -29.65,16.648 -34.01,33.129 -4.67,16.339 0.34,33.847 9.38,47.558 9.02,14.153 23.23,24.27 38.14,31.332 15.02,7.207 31.02,11.821 46.77,16.879 31.47,10.121 62.57,22.852 92.81,38.25 30.24,15.391 59.62,33.418 87.59,54.031 14.07,10.258 27.59,21.168 38.65,34.598 10.91,13.18 19.95,29.199 19.69,46.34 -0.21,8.41 -2.56,16.902 -7.26,23.992 -4.6,7.18 -11.27,12.938 -18.69,17.469 -15.11,9.031 -32.81,12.73 -50.76,14.25 -17.96,1.75 -36.56,2.23 -54.71,7.441 -18.09,4.86 -35.47,17.27 -42.42,36.008 -3.26,9.359 -2.13,20.582 3.59,28.891 5.59,8.402 13.77,13.961 21.55,19.129 15.64,10.191 30.96,20.891 45.89,32.291 29.87,22.78 58.22,48.06 84.61,75.59 26.01,27.7 52.43,56.51 68.72,91.31 7.95,17.29 13.09,36.26 11.74,55.28 -0.86,19.05 -9,37.27 -21.66,51.59 -25.7,28.6 -66.79,41.86 -104.14,34.2 -37.72,-6.85 -71.04,-29.01 -97.13,-56.17 -52.74,-55.5 -78.69,-128.72 -121.93,-189.43 -10.76,-15.23 -22.62,-29.66 -35.86,-42.67 -6.66,-6.36 -13.5,-12.96 -22.05,-17.46 -8.19,-4.57 -19.61,-6.59 -28.56,-1.03 -8.82,5.42 -13.17,15.08 -14.99,24.23 -1.93,9.42 -0.83,18.77 -0.2,27.68 0.65,8.9 1.25,17.78 -1.05,25.98 -2.06,8.23 -6.52,15.8 -12.59,21.79 -12.12,12.06 -29.44,18.61 -46.37,18.31 -16.98,-0.4 -33.19,-8.52 -45.82,-19.69 -12.75,-11.29 -22.45,-25.78 -29.05,-41.33 -6.56,-15.64 -10.19,-32.35 -12.31,-49.08 -2.12,-16.75 -2.77,-33.63 -3.34,-50.419 -0.55,-16.801 -1.1,-33.5 -1.65,-50.09 -1.09,-33.179 -2.18,-65.902 -3.24,-98.16 -0.61,-16.16 -0.91,-32.082 -1.75,-48.09 -1.05,-15.941 -3.11,-32 -9.03,-46.992 -5.64,-14.879 -17.12,-28.57 -32.7,-33.648 -15.47,-5.379 -32.01,-2.391 -46.28,3 -28.61,11.719 -52.56,31.277 -71.34,54 -9.41,11.39 -17.31,23.847 -23.81,36.758 -6.5,12.871 -12.09,25.929 -19.7,37.492 -7.45,11.508 -17.65,21.418 -30.33,25.488 -12.6,4.34 -26.52,2.281 -38.51,-2.738 -12.01,-5.262 -22.65,-13.512 -30.45,-23.75 -7.96,-10.121 -12.7,-22.321 -15.63,-34.61 -5.55,-24.871 -4.47,-50.312 -6.55,-74.75 -1.68,-24.421 -2.49,-48.242 -2.81,-71.421 -0.52,-46.34 2.45,-90.059 7.92,-130.52 5.51,-40.461 13.37,-77.82 24.21,-111.09 4.64,-16.89 11.47,-32.23 16.91,-47.23 3.12,-7.34 6.58,-14.321 9.72,-21.219 3.26,-6.84 6.08,-13.699 9.84,-19.84 27.36,-50.641 57.05,-84.82 78.96,-105.621 5.12,-5.621 10.39,-9.73 14.76,-13.469 4.36,-3.722 8.03,-6.851 11.02,-9.39 5.91,-5.039 8.86,-7.743 8.86,-7.743 0,0 -3.16,2.411 -9.19,7.332 -3.04,2.489 -6.78,5.551 -11.21,9.192 -4.43,3.687 -9.78,7.746 -14.96,13.316 -22.21,20.602 -52.27,54.703 -80.03,105.422 -3.81,6.16 -6.67,13.02 -9.98,19.879 -3.19,6.91 -6.71,13.91 -9.87,21.27 -5.54,15.031 -12.47,30.41 -17.19,47.363 -11.03,33.367 -19.06,70.84 -24.74,111.43 -5.61,40.597 -8.74,84.457 -8.35,130.937 0.27,23.25 1.01,47.141 2.64,71.633 2.02,24.328 0.82,49.699 6.45,75.348 2.98,12.66 7.88,25.39 16.23,36.089 8.18,10.762 19.27,19.403 31.92,24.981 12.63,5.332 27.52,7.629 41.26,2.941 13.83,-4.402 24.73,-15.109 32.46,-27.011 7.89,-11.981 13.54,-25.161 19.99,-37.848 6.43,-12.692 14.15,-24.832 23.38,-35.973 18.34,-22.179 42.09,-41.398 69.66,-52.609 13.74,-5.18 29.3,-7.828 43.31,-2.899 14.15,4.668 24.61,16.989 30,31.168 11.04,28.84 8.62,61.52 10.33,93.571 1.02,32.25 2.07,64.992 3.12,98.16 0.54,16.582 1.07,33.289 1.61,50.101 0.55,16.809 1.18,33.819 3.32,50.869 2.14,17.02 5.83,34.13 12.6,50.36 6.85,16.13 16.89,31.21 30.28,43.11 13.32,11.75 30.39,20.46 48.94,20.95 18.3,0.32 36.78,-6.61 50.01,-19.73 6.62,-6.53 11.61,-14.9 13.91,-24.06 2.55,-9.2 1.84,-18.64 1.2,-27.6 -0.65,-8.99 -1.61,-17.89 0.15,-26.31 1.62,-8.36 5.67,-16.68 12.63,-20.88 7.02,-4.36 16.08,-2.96 23.63,1.17 7.72,4.04 14.27,10.3 20.85,16.6 12.96,12.77 24.62,26.96 35.24,42 21.32,30.11 38.59,63.29 57.08,96.2 18.48,32.84 38.5,65.84 65.29,93.86 26.63,27.74 60.73,50.57 99.94,57.72 38.94,7.94 81.94,-5.77 108.96,-35.87 13.35,-15.04 22.07,-34.59 22.96,-54.72 1.41,-20.15 -4.03,-39.97 -12.22,-57.78 -16.84,-35.88 -43.55,-64.86 -69.7,-92.73 -26.59,-27.71 -55.14,-53.15 -85.22,-76.09 -15.03,-11.47 -30.52,-22.272 -46.2,-32.479 -7.71,-5.082 -15.3,-10.402 -20.09,-17.672 -4.88,-7.16 -5.79,-16.3 -3.04,-24.437 6.07,-16.442 22,-28.293 39,-32.762 17.29,-5 35.6,-5.539 53.78,-7.301 18.14,-1.539 36.85,-5.371 52.87,-14.968 7.91,-4.84 15.19,-11.09 20.29,-19.051 5.21,-7.879 7.82,-17.301 8.05,-26.629 0.21,-19.039 -9.6,-35.922 -20.87,-49.563 -11.43,-13.867 -25.46,-25.148 -39.55,-35.386 -28.22,-20.762 -57.82,-38.903 -88.31,-54.383 -30.48,-15.481 -61.85,-28.277 -93.57,-38.438 -15.83,-5.062 -31.64,-9.632 -46.19,-16.601 -14.52,-6.871 -27.83,-16.379 -36.31,-29.66 -8.55,-12.899 -13.06,-29.18 -8.86,-43.801 3.9,-14.789 16.78,-25.559 31.09,-30.149 14.42,-4.941 30.06,-4.718 44.72,-1.128 14.76,3.488 28.78,9.476 42.85,15.136 27.76,12.102 58.63,18.59 88.1,14.133 14.65,-2.16 29.11,-6.539 41.49,-14.531 12.39,-7.828 22.8,-18.77 29.31,-31.649 13.18,-25.972 12.22,-56.191 3.85,-81.972 -8.55,-26.11 -24.19,-48.34 -40.87,-67.989 -67.89,-78.082 -145.74,-133.421 -220.34,-167.449 -37.26,-17.301 -73.89,-28.691 -107.95,-37.16 -34.1,-8.449 -65.99,-13.152 -94.81,-14.883 -57.85,-3.578 -102.5,6.032 -131.55,14.344 -14.56,4.297 -25.49,8.156 -32.69,11.117 -7.24,2.86 -10.89,4.449 -10.89,4.449" /><path
         id="path60"
         style="fill:#1d2a30;fill-opacity:1;fill-rule:nonzero;stroke:none"
         d="m 3134.9,312.699 c 32.98,98.731 78.11,203.949 129.1,312.371 12.84,27.059 25.54,53.789 38.05,80.141 12.55,26.269 24.99,52.328 38.73,77.059 27.28,49.601 57.29,95.21 87.13,137.609 29.82,42.422 59.67,81.601 87.86,118.021 28.27,36.38 55.25,69.79 81.15,99.2 51.63,59.02 98.82,101.6 132.4,129.51 16.78,14.02 30.14,24.46 39.3,31.42 4.4,3.3 7.85,5.9 10.46,7.84 2.37,1.74 3.62,2.59 3.68,2.51 0.07,-0.08 -1.05,-1.1 -3.31,-3 -2.5,-2.06 -5.85,-4.82 -10.09,-8.31 -8.89,-7.28 -22.01,-18.01 -38.53,-32.28 -33.07,-28.44 -79.64,-71.36 -130.71,-130.57 -25.62,-29.49 -52.35,-62.97 -80.41,-99.44 -27.99,-36.53 -57.64,-75.76 -87.28,-118.159 -29.63,-42.391 -59.42,-87.891 -86.48,-137.25 -13.63,-24.621 -25.93,-50.461 -38.49,-76.812 -12.5,-26.329 -25.17,-53.059 -38.01,-80.098 -50.94,-108.352 -96.11,-213.25 -129.3,-311.57" /><path
         id="path62"
         style="fill:#1d2a30;fill-opacity:1;fill-rule:nonzero;stroke:none"
         d="m 3342.52,782.449 c -0.41,-0.051 -1.33,4.981 -2.67,14.129 -1.38,9.152 -2.92,22.434 -4.6,38.883 -3.38,32.891 -6.49,78.461 -9.74,128.719 -3.24,50.29 -6.99,95.68 -10.86,128.42 -1.89,16.38 -3.55,29.62 -4.82,38.75 -1.21,9.15 -1.69,14.25 -1.28,14.34 0.41,0.07 1.67,-4.88 3.59,-13.93 1.99,-9.03 4.3,-22.22 6.73,-38.58 4.98,-32.72 9.43,-78.25 12.67,-128.578 3.08,-49.602 5.85,-94.481 7.98,-128.762 1.05,-15.481 1.95,-28.531 2.67,-39.012 0.6,-9.207 0.75,-14.328 0.33,-14.379" /><path
         id="path64"
         style="fill:#1d2a30;fill-opacity:1;fill-rule:nonzero;stroke:none"
         d="m 3767.9,845.02 c -0.01,-0.411 -6.05,-0.879 -16.93,-1.36 -10.88,-0.551 -26.61,-1.25 -46.02,-2.75 -38.84,-2.672 -92.38,-8.25 -151.15,-16.988 -52.15,-7.852 -102.8,-17.133 -149.66,-27.641 -19.06,-4.14 -34.38,-7.902 -44.98,-10.429 -10.6,-2.571 -16.52,-3.813 -16.64,-3.403 -0.11,0.41 5.59,2.41 16.02,5.699 10.45,3.243 25.66,7.653 44.63,12.34 37.87,9.633 90.79,20.614 149.76,29.5 58.95,8.75 112.75,13.672 151.77,15.242 19.52,0.95 35.33,1 46.24,0.801 10.92,-0.25 16.95,-0.582 16.96,-1.011" /><path
         id="path66"
         style="fill:#1d2a30;fill-opacity:1;fill-rule:nonzero;stroke:none"
         d="m 3140.39,320.27 c -0.2,-0.079 -1.12,1.742 -2.7,5.261 -1.8,4.207 -3.98,9.348 -6.63,15.559 -5.69,13.539 -13.43,33.34 -22.67,57.93 -18.49,49.171 -41.92,117.89 -66.73,194.07 -24.84,76.211 -47.59,145.07 -65.03,194.539 -8.57,24.07 -15.61,43.851 -20.84,58.57 -2.24,6.371 -4.07,11.641 -5.59,15.961 -1.21,3.668 -1.76,5.641 -1.55,5.731 0.19,0.07 1.11,-1.743 2.69,-5.282 1.79,-4.211 3.98,-9.328 6.63,-15.539 5.7,-13.539 13.43,-33.34 22.67,-57.929 18.5,-49.172 41.91,-117.891 66.75,-194.102 24.82,-76.199 57.52,-156.09 74.97,-205.578 8.56,-24.039 5.65,-32.789 10.89,-47.492 2.22,-6.391 4.07,-11.66 5.57,-15.981 1.22,-3.668 1.76,-5.636 1.57,-5.718" /><path
         id="path68"
         style="fill:#1d2a30;fill-opacity:1;fill-rule:nonzero;stroke:none"
         d="m 3708.58,479.41 c 0.05,-0.199 -1.9,-0.91 -5.65,-2.078 -4.45,-1.301 -9.91,-2.891 -16.52,-4.82 -15.23,-4.301 -35.82,-10.102 -60.85,-17.153 -51.37,-14.488 -122.1,-35.32 -200.22,-58.449 -73.16,-21.648 -141.13,-41.25 -200.84,-56.762 -25.84,-6.726 -46.81,-11.949 -61.37,-15.257 -6.73,-1.5 -12.27,-2.731 -16.79,-3.731 -3.85,-0.781 -5.9,-1.101 -5.95,-0.89 -0.05,0.199 1.9,0.921 5.66,2.101 4.43,1.289 9.88,2.879 16.5,4.809 15.25,4.3 35.82,10.09 60.84,17.148 51.38,14.481 122.12,35.32 200.27,58.453 78.12,23.129 149.11,43.328 200.8,56.758 25.85,6.731 46.81,11.949 61.38,15.262 6.73,1.488 12.27,2.738 16.79,3.73 3.85,0.778 5.9,1.098 5.95,0.879" /><path
         id="path70"
         style="fill:#f9ad95;fill-opacity:1;fill-rule:nonzero;stroke:none"
         d="m 2058.82,2623.13 c 0,0 -5.81,27.81 -15.52,108.17 l -88.45,173.3 c 0,0 19.68,36.25 65.19,-40.54 20.74,-35 90.31,-20.34 78.75,34.59 -11.56,54.94 -82.76,79.63 -126.59,25.6 0,0 -28.32,-2.81 -31.61,19.25 -3.28,22.05 60.64,76.75 115,60.79 35.27,-10.35 60.24,-33.95 60.24,-33.95 0,0 -11.82,182.11 2.92,183.74 14.74,1.63 35.38,-9.51 46.56,-209.26 0,0 6.15,157.67 9.24,177.76 3,19.45 30.29,33.76 33.63,-16.8 0.37,-5.62 10.31,-160.54 10.31,-160.54 0,0 17.68,102.42 19.59,110.62 5.05,21.61 26.36,19.37 28.39,-9.29 1.54,-21.67 8.55,-114.25 8.55,-114.25 l 13.25,-285.57 1.78,0.18" /><path
         id="path72"
         style="fill:#f03658;fill-opacity:1;fill-rule:nonzero;stroke:none"
         d="m 2341.59,2716.82 -331.96,8.54 -33.07,-803.33 -375.28,165.71 -0.59,-1.36 c -22.57,10.08 -42.33,19.05 -52.83,24.77 -207.5,113.19 -343.71,126.91 -566.317,47.44 h -0.004 L 554.871,1987.82 c -82.535,-38.93 -297.519,-74.8 -371.187,-414.66 l -9.731,-40.57 340.863,-244.93 234.071,-616.922 280.433,-617.6599 644.5,20.9532 336.78,419.6487 -285.79,545.93 -177.61,611.34 c 125.48,-83.26 358.42,-196.65 637.31,-137.52 302.09,64.06 157.08,1203.39 157.08,1203.39" /><path
         id="path74"
         style="fill:#b2b1b0;fill-opacity:1;fill-rule:nonzero;stroke:none"
         d="M 1014.47,83.8594 834.434,482.332 1015.34,83.8906 l -0.87,-0.0312 m -267.747,592.5816 -0.008,0.02 v 0 l 0.008,-0.02 m 986.947,346.229 -8.86,16.94 -25.69,88.4 c 0.19,0.02 0.38,0.04 0.57,0.05 l 33.98,-105.39" /><path
         id="path76"
         style="fill:#bc283b;fill-opacity:1;fill-rule:nonzero;stroke:none"
         d="m 1015.34,83.8906 -180.906,398.4414 -87.711,194.109 -0.004,0.02 c 55.187,-33.563 102.133,-52.641 164,-71.231 17.371,-5.218 36.16,-9.66 54.203,-9.66 14.531,0 28.582,2.879 41.028,10.532 27.89,17.16 32.21,68.109 1.1,78.339 90.14,20.34 180.29,40.68 270.43,61.02 -36.69,105.648 23.8,226.18 115.33,290.429 91.38,64.14 195.11,82.48 306.31,92.12 l 25.69,-88.4 8.86,-16.94 100.94,-313.092 -450.9,-614.9882 -368.37,-10.6992" /><path
         id="path78"
         style="fill:#f03658;fill-opacity:1;fill-rule:nonzero;stroke:none"
         d="m 605.191,1254.55 c 0,0 -169.078,-369.812 -130.402,-554.39 C 496.402,597 834.129,508.852 1049.27,482.551 l -64.454,-361.16 c 0,0 -799.656,76.078 -949.5113,392.808 -85.0235,179.692 1.0703,619.961 162.9573,1117.951 l 406.929,-377.6" /><path
         id="path80"
         style="fill:#ffffff;fill-opacity:1;fill-rule:nonzero;stroke:none"
         d="m 1375.4,821.301 c 0.07,-0.16 -1.9,-1.211 -5.74,-3.063 -4.36,-2.027 -9.96,-4.636 -16.9,-7.867 -14.69,-6.781 -36.17,-16.121 -62.88,-27.23 -53.42,-22.262 -128.18,-50.809 -212.28,-77.821 -84.155,-26.949 -161.584,-47.218 -217.975,-60.199 -28.199,-6.5 -51.098,-11.391 -66.992,-14.422 -7.52,-1.41 -13.594,-2.551 -18.317,-3.429 -4.195,-0.731 -6.418,-1.02 -6.453,-0.848 -0.035,0.18 2.114,0.816 6.239,1.879 4.668,1.129 10.671,2.578 18.101,4.379 15.75,3.629 38.512,9.07 66.559,16.031 56.113,13.871 133.242,34.66 217.248,61.559 83.95,26.968 158.77,54.929 212.48,76.281 26.87,10.66 48.54,19.48 63.47,25.679 7.09,2.86 12.82,5.168 17.27,6.969 3.98,1.539 6.1,2.27 6.17,2.102" /><path
         id="path82"
         style="fill:#ffffff;fill-opacity:1;fill-rule:nonzero;stroke:none"
         d="m 1598.1,2099.1 c 0.49,-1.35 -314.71,-115.63 -703.932,-255.21 -389.352,-139.63 -705.273,-251.68 -705.762,-250.33 -0.484,1.36 314.653,115.61 704,255.23 389.224,139.58 705.214,251.66 705.694,250.31" /><path
         id="path84"
         style="fill:#1d2a30;fill-opacity:1;fill-rule:nonzero;stroke:none"
         d="m 523.02,1067.46 c -0.079,0.04 0.171,0.78 0.73,2.2 0.715,1.7 1.574,3.75 2.621,6.25 2.535,5.87 5.984,13.85 10.324,23.91 8.848,20.79 21.325,51.06 34.008,89.38 12.414,38.34 24.957,85 30.68,137.98 5.941,52.83 3.715,112.28 -12.363,171.56 -16.29,59.09 -45.739,111.63 -83.407,149.06 -37.574,37.64 -81.211,60.5 -119.539,72.09 -38.617,11.4 -71.769,12.24 -94.101,9.98 -5.528,-0.68 -10.485,-1.29 -14.86,-1.83 -4.289,-0.63 -7.855,-1.55 -10.777,-2.07 -2.668,-0.5 -4.852,-0.91 -6.656,-1.25 -1.508,-0.25 -2.297,-0.34 -2.317,-0.25 -0.023,0.09 0.715,0.35 2.184,0.77 1.777,0.48 3.93,1.05 6.555,1.76 2.898,0.68 6.453,1.78 10.746,2.57 4.394,0.68 9.363,1.45 14.91,2.31 22.461,2.91 56.07,2.64 95.359,-8.47 38.988,-11.28 83.481,-34.13 121.887,-72.21 38.523,-37.9 68.535,-91.21 85.039,-151.08 16.285,-60.05 18.371,-120.19 12.109,-173.45 -6.035,-53.43 -19.043,-100.28 -31.957,-138.64 -13.187,-38.34 -26.211,-68.46 -35.644,-89.03 -4.75,-10.28 -8.524,-18.21 -11.227,-23.53 -1.238,-2.42 -2.25,-4.4 -3.09,-6.03 -0.722,-1.35 -1.132,-2.02 -1.214,-1.98" /><path
         id="path86"
         style="fill:#1d2a30;fill-opacity:1;fill-rule:nonzero;stroke:none"
         d="m 1326.47,2182.41 c 0.08,0.16 2.05,-0.71 5.75,-2.52 3.68,-1.82 9.02,-4.74 15.52,-9.08 13.07,-8.54 30.78,-23.18 48.23,-45.16 17.49,-21.9 34.17,-51.24 47.39,-85.77 13.49,-34.45 23.76,-73.76 34.75,-114.71 21.66,-81.81 41.25,-155.84 55.64,-210.2 6.75,-26.48 12.27,-48.13 16.28,-63.85 1.7,-7.13 3.09,-12.91 4.18,-17.43 0.89,-4.01 1.28,-6.13 1.1,-6.17 -0.17,-0.04 -0.89,1.99 -2.12,5.89 -1.33,4.47 -3.02,10.15 -5.12,17.18 -4.4,15.62 -10.47,37.12 -17.88,63.42 -14.77,54.27 -34.88,128.15 -57.11,209.81 -11,41 -21.09,80.14 -34.2,114.34 -12.85,34.29 -28.94,63.33 -45.82,85.22 -16.83,21.95 -33.89,36.8 -46.47,45.76 -12.6,9 -20.36,12.83 -20.12,13.27" /><path
         id="path88"
         style="fill:#ffffff;fill-opacity:1;fill-rule:nonzero;stroke:none"
         d="m 1879.5,1967.38 c 0,0 -1.47,-0.8 -4.44,-2.12 -3.18,-1.38 -7.58,-3.29 -13.24,-5.75 -11.91,-5.04 -29.09,-12.32 -51.12,-21.65 -44.41,-18.74 -108.87,-45.4 -188.69,-77.94 -159.62,-65.11 -380.99,-152.98 -627.076,-245.86 -246.204,-92.84 -470.469,-173.1 -633.321,-229.64 -81.422,-28.29 -147.422,-50.84 -193.144,-66.1 -22.696,-7.55 -40.403,-13.44 -52.668,-17.51 -5.871,-1.9 -10.438,-3.37 -13.738,-4.44 -3.106,-0.96 -4.7427,-1.33 -4.7427,-1.33 0,0 1.5195,0.71 4.5707,1.84 3.261,1.18 7.769,2.81 13.57,4.92 12.191,4.29 29.789,10.49 52.348,18.43 45.695,16.05 111.433,39.15 192.589,67.67 162.52,57.43 386.54,138.21 632.7,231.03 246.042,92.86 467.572,180.17 627.532,244.4 79.76,32.2 144.39,58.28 189.3,76.41 22.18,8.94 39.49,15.91 51.49,20.74 5.74,2.25 10.21,4 13.44,5.27 3.04,1.16 4.64,1.63 4.64,1.63" /><path
         id="path90"
         style="fill:#ffffff;fill-opacity:1;fill-rule:nonzero;stroke:none"
         d="m 1586.7,1568.5 c 0.03,-0.08 -1.26,-0.7 -3.83,-1.82 -2.79,-1.2 -6.57,-2.82 -11.41,-4.89 -10.33,-4.28 -25.13,-10.44 -44.07,-18.3 -38.28,-15.87 -93.93,-38.22 -162.91,-65.27 -137.94,-54.16 -329.7,-126.03 -543.656,-199.23 -214.058,-73.13 -409.695,-133.73 -551.922,-175.36 -71.101,-20.84 -128.785,-37.24 -168.765,-48.14 -19.7893,-5.37 -35.2542,-9.57 -46.0393,-12.5 -5.0938,-1.32 -9.0704,-2.36 -12.0118,-3.13 -2.7148,-0.67 -4.1171,-0.98 -4.1406,-0.89 -0.0234,0.09 1.332,0.56 4,1.41 2.9063,0.89 6.836,2.09 11.8711,3.62 10.7227,3.15 26.0977,7.67 45.7695,13.45 39.8051,11.48 97.3161,28.42 168.2731,49.7 141.918,42.53 337.297,103.66 551.282,176.76 213.869,73.19 405.759,144.47 544.009,197.74 69.13,26.61 124.98,48.43 163.49,63.72 19.09,7.48 34.02,13.32 44.43,17.4 4.92,1.86 8.77,3.32 11.6,4.4 2.63,0.96 3.99,1.42 4.03,1.33" /><path
         id="path92"
         style="fill:#ffffff;fill-opacity:1;fill-rule:nonzero;stroke:none"
         d="m 2368.53,1914.71 c 0.11,-0.14 -1.92,-1.87 -5.88,-5.02 -4.38,-3.41 -10.19,-7.93 -17.47,-13.58 -7.59,-5.9 -16.96,-13 -28.1,-20.88 -11.12,-7.93 -23.61,-17.21 -37.93,-26.71 -28.28,-19.54 -62.8,-41.6 -101.85,-64.86 -39.22,-22.98 -83.07,-47.01 -130.17,-70.16 -47.22,-22.94 -93.14,-42.77 -135.38,-59.59 -42.36,-16.52 -80.97,-30.18 -113.77,-40.5 -16.29,-5.45 -31.28,-9.6 -44.37,-13.49 -13.07,-3.95 -24.43,-6.98 -33.75,-9.35 -8.93,-2.25 -16.06,-4.06 -21.45,-5.43 -4.91,-1.19 -7.52,-1.73 -7.56,-1.55 -0.05,0.18 2.47,1.05 7.3,2.57 5.31,1.59 12.35,3.72 21.17,6.37 9.22,2.65 20.48,5.97 33.45,10.17 12.99,4.15 27.88,8.55 44.07,14.22 32.58,10.73 70.98,24.73 113.14,41.44 42.04,17.03 87.77,36.94 134.86,59.82 46.97,23.08 90.78,46.91 130.03,69.62 39.09,22.98 73.73,44.66 102.23,63.77 14.42,9.29 27.04,18.34 38.29,26.03 11.29,7.65 20.83,14.5 28.59,20.14 7.51,5.33 13.52,9.58 18.04,12.79 4.16,2.88 6.39,4.32 6.51,4.18" /><path
         id="path94"
         style="fill:#ffffff;fill-opacity:1;fill-rule:nonzero;stroke:none"
         d="m 2384.07,2181.45 c 0.52,-1.34 -91.27,-38.24 -204.99,-82.41 -113.77,-44.19 -206.39,-78.91 -206.91,-77.57 -0.51,1.34 91.25,38.23 205.02,82.42 113.72,44.17 206.36,78.9 206.88,77.56" /><path
         id="path96"
         style="fill:#ffffff;fill-opacity:1;fill-rule:nonzero;stroke:none"
         d="m 2363.92,2430.27 c 0.4,-1.38 -80.22,-25.44 -180.05,-53.74 -99.85,-28.3 -181.09,-50.12 -181.48,-48.74 -0.39,1.39 80.21,25.45 180.07,53.75 99.82,28.29 181.07,50.12 181.46,48.73" /><path
         id="path98"
         style="fill:#ffffff;fill-opacity:1;fill-rule:nonzero;stroke:none"
         d="m 2346.26,2673.69 c 0.3,-1.41 -77.66,-19.73 -174.12,-40.94 -96.5,-21.2 -174.95,-37.25 -175.25,-35.84 -0.31,1.4 77.64,19.73 174.13,40.93 96.46,21.2 174.92,37.25 175.24,35.85" /><path
         id="path100"
         style="fill:#ffffff;fill-opacity:1;fill-rule:nonzero;stroke:none"
         d="m 1649.7,1293.22 c 0.53,-1.34 -221.97,-90.29 -496.89,-198.65 C 877.789,986.16 654.484,899.398 653.957,900.738 c -0.527,1.34 221.918,90.274 496.943,198.672 274.92,108.37 498.28,195.15 498.8,193.81" /><path
         id="path102"
         style="fill:#ffffff;fill-opacity:1;fill-rule:nonzero;stroke:none"
         d="m 473.348,852.949 c 0.058,-0.179 -1.512,-0.937 -4.559,-2.25 -3.621,-1.48 -8.055,-3.281 -13.418,-5.469 -11.687,-4.66 -28.699,-11.128 -49.808,-18.921 C 363.355,810.75 304.676,790.238 239.27,769.371 173.84,748.52 114.109,731.281 70.6758,719.539 48.9609,713.668 31.3438,709.102 19.1172,706.129 13.4766,704.809 8.82031,703.719 5.01172,702.828 1.76953,702.129 0.046875,701.84 0,702.02 c -0.0429688,0.171 1.58984,0.789 4.73828,1.82 3.73828,1.148 8.30862,2.551 13.84762,4.25 12.8282,3.762 30.0938,8.832 51.0938,14.988 43.1443,12.641 102.6443,30.422 168.0083,51.25 65.335,20.844 124.144,40.781 166.64,55.453 20.688,7.141 37.703,13 50.34,17.348 5.504,1.82 10.047,3.332 13.758,4.562 3.164,0.981 4.855,1.418 4.922,1.258" /><path
         id="path104"
         style="fill:#ffffff;fill-opacity:1;fill-rule:nonzero;stroke:none"
         d="m 592.031,599.539 c 0.543,-1.328 -107.273,-46.367 -240.781,-100.57 -133.559,-54.231 -242.227,-97.09 -242.766,-95.758 -0.543,1.34 107.25,46.359 240.805,100.578 133.512,54.211 242.203,97.09 242.742,95.75" /><path
         id="path106"
         style="fill:#ffffff;fill-opacity:1;fill-rule:nonzero;stroke:none"
         d="m 788.301,529.48 c 1.09,-0.941 -59.367,-72.582 -135.02,-159.98 -75.676,-87.43 -137.883,-157.531 -138.972,-156.578 -1.086,0.93 59.359,72.547 135.035,159.988 75.648,87.399 137.871,157.512 138.957,156.57" /><path
         id="path108"
         style="fill:#ffffff;fill-opacity:1;fill-rule:nonzero;stroke:none"
         d="m 989.004,478.5 c 1.367,-0.461 -22.902,-76.691 -54.199,-170.238 -31.301,-93.59 -57.778,-169.063 -59.141,-168.602 -1.367,0.449 22.902,76.66 54.203,170.258 31.297,93.543 57.778,169.031 59.137,168.582" /><path
         id="path110"
         style="fill:#ffffff;fill-opacity:1;fill-rule:nonzero;stroke:none"
         d="m 2300.94,1603.74 c 0.53,-1.34 -56.99,-25.12 -128.45,-53.1 -71.5,-27.99 -129.86,-49.58 -130.37,-48.24 -0.53,1.34 56.98,25.11 128.46,53.09 71.47,27.98 129.84,49.58 130.36,48.25" /><path
         id="path112"
         style="fill:#b2b1b0;fill-opacity:1;fill-rule:nonzero;stroke:none"
         d="m 1737.85,1552.4 c -57.7,21.16 -121.73,51.32 -184.03,94.2 v 0 c 47.8,-31.17 110.2,-66 184.03,-94.2" /><path
         id="path114"
         style="fill:#bc283b;fill-opacity:1;fill-rule:nonzero;stroke:none"
         d="m 1943.63,1503.74 c 0,0 -90.18,6.27 -205.78,48.66 -73.83,28.2 -136.23,63.03 -184.04,94.2 l -29.39,103.61 c -5.17,19.54 -10.8,40.81 -16.79,63.44 13.16,5.28 26.04,10.47 38.65,15.55 60.45,-87.32 135.46,-158.08 224.59,-220.82 -6.36,-2 -12.41,-3.86 -18.1,-5.68 -12.97,-4.2 -24.23,-7.52 -33.45,-10.17 -8.82,-2.65 -15.86,-4.78 -21.17,-6.37 -4.83,-1.52 -7.35,-2.39 -7.3,-2.57 0.01,-0.02 0.05,-0.03 0.13,-0.03 0.6,0 3.13,0.54 7.43,1.58 5.39,1.37 12.52,3.18 21.45,5.43 9.32,2.37 20.68,5.4 33.75,9.35 6.45,1.91 13.37,3.9 20.67,6.07 51.76,-36.18 108.23,-69.7 169.35,-102.25 m -437.1,314.04 c -8.82,33.35 -18.4,69.53 -28.42,107.39 -5.58,20.79 -10.98,41.17 -16.7,60.7 23.45,-56.5 50.97,-107.16 82.5,-153.22 -12.21,-4.87 -24.66,-9.82 -37.38,-14.87" /><path
         id="path116"
         style="fill:#161c1e;fill-opacity:1;fill-rule:nonzero;stroke:none"
         d="m 1524.42,1750.21 -17.88,63 c 0.37,0.15 0.73,0.29 1.09,0.44 5.99,-22.63 11.62,-43.9 16.79,-63.44 m -19.04,67.11 -57.92,204.15 c 4.47,-12.12 9.13,-23.99 13.95,-35.6 5.72,-19.53 11.12,-39.91 16.7,-60.7 10.02,-37.86 19.6,-74.04 28.42,-107.39 -0.38,-0.15 -0.77,-0.3 -1.15,-0.46" /><path
         id="path118"
         style="fill:#b2b1b0;fill-opacity:1;fill-rule:nonzero;stroke:none"
         d="m 1506.54,1813.21 -1.16,4.11 c 0.38,0.16 0.77,0.31 1.15,0.46 12.72,5.05 25.17,10 37.38,14.87 0.79,-1.17 1.57,-2.29 2.37,-3.45 -12.61,-5.08 -25.49,-10.27 -38.65,-15.55 -0.36,-0.15 -0.72,-0.29 -1.09,-0.44" /><path
         id="path120"
         style="fill:#b2b1b0;fill-opacity:1;fill-rule:nonzero;stroke:none"
         d="m 1690.98,1583.56 c -0.08,0 -0.12,0.01 -0.13,0.03 -0.05,0.18 2.47,1.05 7.3,2.57 5.31,1.59 12.35,3.72 21.17,6.37 9.22,2.65 20.48,5.97 33.45,10.17 5.69,1.82 11.74,3.68 18.1,5.68 1.13,-0.8 2.28,-1.6 3.41,-2.39 -7.3,-2.17 -14.22,-4.16 -20.67,-6.07 -13.07,-3.95 -24.43,-6.98 -33.75,-9.35 -8.93,-2.25 -16.06,-4.06 -21.45,-5.43 -4.3,-1.04 -6.83,-1.58 -7.43,-1.58" /><path
         id="path122"
         style="fill:#365462;fill-opacity:1;fill-rule:nonzero;stroke:none"
         d="M 1363.42,17.1914 H 3144.74 V 778.238 c 0,142.551 -115.56,258.112 -258.12,258.112 H 1621.55 c -142.56,0 -258.13,-115.561 -258.13,-258.112 V 17.1914" /><path
         id="path124"
         style="fill:#365462;fill-opacity:1;fill-rule:nonzero;stroke:none"
         d="m 1968.52,17.1914 h -591.76 c -7.36,0 -13.34,5.9805 -13.34,13.3399 V 805.48 c 0,127.508 103.37,230.87 230.88,230.87 h 283.01 c 57.74,0 104.55,-46.799 104.55,-104.549 V 30.5313 c 0,-7.3594 -5.97,-13.3399 -13.34,-13.3399" /><path
         id="path126"
         style="fill:#1d2a30;fill-opacity:1;fill-rule:nonzero;stroke:none"
         d="M 1494.81,17.1914 V 779.328 c 0,141.961 115.07,257.022 257.02,257.022 h -183.28 c 0,0 -215.09,-28.58 -215.09,-297.799 0,-269.223 6.93,-721.3596 6.93,-721.3596 h 134.42" /><path
         id="path128"
         style="fill:#1d2a30;fill-opacity:1;fill-rule:nonzero;stroke:none"
         d="M 1981.86,4.78125 H 487.352 V 89.6016 H 1981.86 V 4.78125" /><path
         id="path130"
         style="fill:#365462;fill-opacity:1;fill-rule:nonzero;stroke:none"
         d="M 3202.83,4.78125 H 1981.86 V 89.6016 H 3202.83 V 4.78125" /><path
         id="path132"
         style="fill:#1d2a30;fill-opacity:1;fill-rule:nonzero;stroke:none"
         d="m 1981.86,47.1914 c -0.09,0 -0.17,1.0274 -0.24,3.0391 -0.05,2.3008 -0.12,5.2383 -0.2,8.9297 -0.06,8.2109 -0.14,19.6914 -0.24,34.3007 0.02,30.1601 0.04,73.1681 0.07,126.1481 0.56,106.84 1.34,253.821 2.2,416.18 0.45,40.641 1.3,80.27 -1.14,118.402 -2.54,38.039 -8.04,74.688 -19.2,107.848 -10.76,33.262 -27.47,62.602 -47.67,86.109 -20.52,23.313 -43.92,41.043 -67,53.862 -46.53,25.64 -90.48,31.9 -119.86,32.11 -7.42,0.31 -13.99,-0.14 -19.69,-0.55 -5.72,-0.21 -10.53,-0.75 -14.39,-1.41 -3.64,-0.46 -6.55,-0.85 -8.83,-1.14 -2,-0.23 -3.03,-0.31 -3.05,-0.22 -0.02,0.08 0.98,0.34 2.95,0.74 2.26,0.43 5.15,0.98 8.78,1.67 3.85,0.82 8.66,1.52 14.41,1.9 5.72,0.58 12.34,1.19 19.83,1.04 29.62,0.4 74.18,-5.31 121.63,-30.92 23.52,-12.789 47.43,-30.609 68.47,-54.242 20.74,-23.84 37.93,-53.707 48.97,-87.429 11.47,-33.641 17.11,-70.707 19.74,-109.039 2.54,-38.399 1.71,-78.2 1.27,-118.821 -1.47,-162.34 -2.78,-309.32 -3.74,-416.14 -0.72,-52.981 -1.31,-95.977 -1.73,-126.1293 -0.31,-14.6094 -0.56,-26.0899 -0.73,-34.2891 -0.14,-3.6797 -0.24,-6.6093 -0.33,-8.9218 -0.09,-2 -0.19,-3.0274 -0.28,-3.0274" /><path
         id="path134"
         style="fill:#1d2a30;fill-opacity:1;fill-rule:nonzero;stroke:none"
         d="m 3194.48,91.6992 c 0,-1.4492 -278.15,-3.0781 -621.18,-3.6601 -343.16,-0.5703 -621.24,0.1211 -621.24,1.5625 -0.01,1.4375 278.07,3.0703 621.23,3.6484 343.03,0.5703 621.18,-0.1211 621.19,-1.5508" /><path
         id="path136"
         style="fill:#1d2a30;fill-opacity:1;fill-rule:nonzero;stroke:none"
         d="m 3194.46,1.42188 c 0,-1.4335988 -276.13,-1.851568 -616.68,-0.933599 -340.66,0.933599 -616.73,2.863279 -616.73,4.292969 0,1.4375 276.08,1.85938 616.74,0.92969 340.55,-0.92969 616.68,-2.85156 616.67,-4.28906" /><path
         id="path138"
         style="fill:#1d2a30;fill-opacity:1;fill-rule:nonzero;stroke:none"
         d="m 3033.74,186.379 c -0.05,0.051 -0.1,1.281 -0.16,3.652 -0.04,2.551 -0.09,5.989 -0.17,10.438 -0.08,9.363 -0.21,22.851 -0.38,40.293 -0.19,35.168 -0.48,86.269 -0.86,150.828 l 1.57,-1.57 c -180.91,-0.231 -471.83,-0.61 -799.39,-1.04 1.14,1.161 -2.63,-2.601 2.56,2.61 v -0.059 -0.101 -0.2 -0.421 -0.821 -1.648 -3.301 -6.578 l -0.01,-13.133 c 0,-8.75 0,-17.457 0,-26.137 0,-17.382 0,-34.632 -0.01,-51.75 -0.01,-34.242 -0.03,-67.961 -0.04,-101.062 l -2.55,2.551 c 227.8,-0.461 427.27,-0.86 570.03,-1.149 71.36,-0.312 128.53,-0.562 168.1,-0.73 19.59,-0.153 34.8,-0.262 45.36,-0.34 5.05,-0.063 8.95,-0.121 11.83,-0.16 2.67,-0.063 4.12,-0.172 4.12,-0.172 0.06,-0.059 -1.23,-0.098 -3.8,-0.16 -2.8,-0.039 -6.59,-0.09 -11.51,-0.168 -10.43,-0.082 -25.46,-0.192 -44.81,-0.332 -39.42,-0.18 -96.4,-0.418 -167.51,-0.731 -143.2,-0.289 -343.3,-0.699 -571.81,-1.156 h -2.55 v 2.547 c -0.02,33.101 -0.03,66.82 -0.03,101.062 -0.01,17.118 -0.01,34.368 -0.01,51.75 0,8.68 -0.01,17.387 -0.01,26.137 v 13.133 6.578 3.301 1.648 0.821 0.421 0.2 0.101 0.059 c 5.21,5.199 1.47,1.441 2.65,2.609 327.56,-0.429 618.48,-0.808 799.39,-1.039 l 1.58,-0.012 -0.01,-1.558 c -0.37,-64.961 -0.67,-116.371 -0.87,-151.77 -0.17,-17.289 -0.29,-30.64 -0.38,-39.922 -0.07,-4.347 -0.13,-7.699 -0.17,-10.179 -0.05,-2.258 -0.09,-3.387 -0.15,-3.34" /><path
         id="path140"
         style="fill:#1d2a30;fill-opacity:1;fill-rule:nonzero;stroke:none"
         d="m 2582.29,338.75 v -91.219 h -9.25 v 72.957 l -35.84,-61.359 h -4.56 l -35.83,60.973 v -72.571 h -9.26 v 91.219 h 7.95 l 39.62,-67.641 39.22,67.641 h 7.95" /><path
         id="path142"
         style="fill:#1d2a30;fill-opacity:1;fill-rule:nonzero;stroke:none"
         d="m 2665.68,279.711 -21.89,49 -21.9,-49 z m 3.52,-7.82 h -50.82 l -10.95,-24.36 h -10.03 l 41.7,91.219 h 9.51 l 41.7,-91.219 h -10.17 l -10.94,24.36" /><path
         id="path144"
         style="fill:#1d2a30;fill-opacity:1;fill-rule:nonzero;stroke:none"
         d="m 2705.41,338.75 h 9.64 v -91.219 h -9.64 v 91.219" /><path
         id="path146"
         style="fill:#1d2a30;fill-opacity:1;fill-rule:nonzero;stroke:none"
         d="m 2744.75,338.75 h 9.65 v -82.891 h 51.07 v -8.328 h -60.72 v 91.219" /><path
         id="path148"
         style="fill:#f03658;fill-opacity:1;fill-rule:nonzero;stroke:none"
         d="m 2930.83,1245.01 v 149.83 H 2650.7 V 793.371 c -34.89,-20.691 -58.36,-58.621 -58.36,-102.121 0,-65.59 53.17,-118.762 118.76,-118.762 65.6,0 118.76,53.172 118.76,118.762 0,45.852 -26.03,85.559 -64.07,105.352 v 448.408 h 165.04" /><path
         id="path150"
         style="fill:#1d2a30;fill-opacity:1;fill-rule:nonzero;stroke:none"
         d="m 2760.26,693.148 c 0,-25.32 -20.52,-45.847 -45.84,-45.847 -25.32,0 -45.85,20.527 -45.85,45.847 0,25.321 20.53,45.852 45.85,45.852 25.32,0 45.84,-20.531 45.84,-45.852" /><path
         id="path152"
         style="fill:#1d2a30;fill-opacity:1;fill-rule:nonzero;stroke:none"
         d="m 993.871,2154.41 c 0.168,0.07 1.07,-2.05 2.641,-6.14 1.699,-4.06 3.678,-10.22 5.878,-18.27 4.32,-16.08 8.44,-40.22 6.8,-70.17 -1.83,-29.74 -9.432,-65.57 -29.073,-100.25 -19.324,-34.62 -51.765,-66.9 -93.515,-86.24 -41.536,-19.55 -87.426,-24.12 -126.18,-15.08 -38.996,8.7 -70.25,28.32 -92.539,48.08 -22.242,20.16 -36.102,40.41 -44.086,55.01 -3.977,7.34 -6.809,13.16 -8.375,17.26 -1.695,4.05 -2.504,6.2 -2.34,6.27 0.574,0.26 3.938,-8.34 12.465,-22.52 8.449,-14.15 22.594,-33.78 44.766,-53.26 22.226,-19.08 53.062,-37.93 91.128,-46.14 37.797,-8.55 82.418,-3.97 122.954,15.09 40.734,18.88 72.449,50.22 91.554,83.9 19.43,33.78 27.301,68.87 29.561,98.11 2.08,29.46 -1.41,53.38 -5.09,69.46 -3.639,16.14 -7.147,24.68 -6.549,24.89" /><path
         id="path154"
         style="fill:#eeeeee;fill-opacity:1;fill-rule:nonzero;stroke:none"
         d="m 1845.09,606.379 136.49,1.801 -5.29,-463.68 -126.72,-5.051 -4.48,466.93" /><path
         id="path156"
         style="fill:#1d2a30;fill-opacity:1;fill-rule:nonzero;stroke:none"
         d="m 1849.57,139.449 c -1.05,0.981 26.05,31.942 60.53,69.16 34.49,37.243 63.3,66.61 64.36,65.629 1.05,-0.968 -26.05,-31.937 -60.54,-69.168 -34.48,-37.211 -63.29,-66.601 -64.35,-65.621" /><path
         id="path158"
         style="fill:#1d2a30;fill-opacity:1;fill-rule:nonzero;stroke:none"
         d="m 1981.58,452.031 c -1.08,-0.961 -32.5,32.231 -70.18,74.129 -37.7,41.91 -67.38,76.66 -66.31,77.629 1.07,0.949 32.48,-32.23 70.18,-74.148 37.69,-41.903 67.37,-76.653 66.31,-77.61" /><path
         id="path160"
         style="fill:#1d2a30;fill-opacity:1;fill-rule:nonzero;stroke:none"
         d="m 822.508,2640.2 c -0.035,-14 8.91,-27.61 21.769,-33.13 12.864,-5.53 28.895,-2.64 39.024,7.01 19.246,18.36 12.683,50.56 0.664,74.29 -12.016,23.72 -28.602,47.92 -25.07,74.27 2.699,20.17 16.73,36.66 26.117,54.72 16.343,31.45 18.269,70.71 2.441,102.43 -15.836,31.71 -49.976,54.23 -85.422,53.52 -36.179,-0.72 -74.211,-23.36 -106.336,-6.68 -23.277,12.08 -33.023,40.43 -53.246,57.14 -31.402,25.92 -78.679,17.3 -115.719,0.38 -37.042,-16.92 -72.632,-41.16 -113.304,-43.14 -33.965,-1.66 -66.555,12.6 -100.246,17.22 -73.032,10.03 -150.289,-30.59 -183.434,-96.43 -33.1483,-65.85 -19.754,-152.1 31.805,-204.79 18.515,-18.93 42.355,-34.02 68.722,-36.44" /><path
         id="path162"
         style="fill:#f9ad95;fill-opacity:1;fill-rule:nonzero;stroke:none"
         d="m 867.754,1875.99 v 0 c -105.922,-34.88 -220.121,22.54 -255.379,128.33 -20.18,60.54 -37.047,111.57 -37.047,111.57 0,0 -161.058,-24.62 -211.43,128.27 -50.371,152.9 -130.21,493.18 -130.21,493.18 l -4.868,20.57 c 153.559,132.48 371.981,154.63 562.489,85.07 l 9.765,-31.68 199.536,-693.09 c 26.26,-103.11 -31.794,-208.94 -132.856,-242.22" /><path
         id="path164"
         style="fill:#1d2a30;fill-opacity:1;fill-rule:nonzero;stroke:none"
         d="m 368.609,2511.83 c 17.129,13.41 10.121,39.52 -11.589,42.45 -5.614,0.76 -11.5,-0.88 -15.965,-4.36 -17.168,-13.4 -10.149,-39.56 11.59,-42.48 5.613,-0.75 11.503,0.9 15.964,4.39" /><path
         id="path166"
         style="fill:#1d2a30;fill-opacity:1;fill-rule:nonzero;stroke:none"
         d="m 304.703,2531.02 c 3.242,-1.9 14.652,14.46 35.758,21.23 21.012,7.09 39.902,0.7 41.383,4.16 0.761,1.57 -3.153,5.6 -11.457,8.58 -8.168,2.99 -20.985,4.3 -34.117,-0.02 -13.118,-4.32 -22.653,-12.99 -27.45,-20.25 -4.914,-7.33 -5.656,-12.89 -4.117,-13.7" /><path
         id="path168"
         style="fill:#1d2a30;fill-opacity:1;fill-rule:nonzero;stroke:none"
         d="m 562.746,2597.61 c -8.449,-9.76 -7.387,-24.51 2.371,-32.97 9.762,-8.44 24.524,-7.38 32.969,2.38 8.453,9.76 7.391,24.52 -2.371,32.96 -9.758,8.46 -24.524,7.4 -32.969,-2.37" /><path
         id="path170"
         style="fill:#1d2a30;fill-opacity:1;fill-rule:nonzero;stroke:none"
         d="m 534.676,2582.47 c 3.246,-1.9 14.656,14.46 35.762,21.23 21.007,7.09 39.902,0.71 41.378,4.16 0.762,1.57 -3.148,5.61 -11.453,8.58 -8.168,2.99 -20.988,4.3 -34.117,-0.02 -13.125,-4.32 -22.656,-12.99 -27.449,-20.24 -4.914,-7.33 -5.656,-12.9 -4.121,-13.71" /><path
         id="path172"
         style="fill:#1d2a30;fill-opacity:1;fill-rule:nonzero;stroke:none"
         d="m 504.992,2381.29 c -0.363,1.61 -14.254,0.04 -36.422,-3.79 -5.683,-1.16 -10.582,-1.36 -12.086,1.65 -2.148,3.18 -1.843,9.81 -1.125,17.28 1.004,15.61 2.039,31.53 3.118,48.23 3.769,68.5 4.16,124.15 0.875,124.33 -3.282,0.18 -9,-55.18 -12.762,-123.68 -0.758,-16.71 -1.481,-32.65 -2.188,-48.28 -0.035,-7.05 -1.488,-15.67 4.145,-23.75 2.91,-4.01 8.187,-5.91 12.09,-5.73 3.965,0.05 7.07,1.02 9.761,1.73 21.704,5.93 34.946,10.4 34.594,12.01" /><path
         id="path174"
         style="fill:#ffffff;fill-opacity:1;fill-rule:nonzero;stroke:none"
         d="m 581.047,2379.63 c 17.887,20.07 -50.469,-51.38 -94.16,-62.87 0,0 37.144,-31.65 76.285,-1.48 40.629,31.32 17.875,64.35 17.875,64.35" /><path
         id="path176"
         style="fill:#f6865e;fill-opacity:1;fill-rule:nonzero;stroke:none"
         d="m 574.375,2118.02 c 0,0 99.496,22.75 182.141,120.07 0,0 -12.407,-125.41 -169.934,-159.95 l -12.207,39.88" /><path
         id="path178"
         style="fill:#f9ad95;fill-opacity:1;fill-rule:nonzero;stroke:none"
         d="m 823.711,2706.54 c 3.062,2.12 111.695,44.71 134.148,-90.52 22.442,-135.22 -121.554,-113.17 -122.429,-109.32 -0.879,3.83 -11.719,199.84 -11.719,199.84" /><path
         id="path180"
         style="fill:#f6865e;fill-opacity:1;fill-rule:nonzero;stroke:none"
         d="m 868.98,2561.02 c 0.524,0.53 2.633,-1.26 6.918,-2.42 4.172,-1.13 11.051,-1.25 17.668,2.56 13.414,7.61 21.672,32.29 18.282,56.77 -1.692,12.37 -6.215,23.66 -12.188,32.64 -5.765,9.2 -13.316,15.05 -20.719,15.14 -7.429,0.46 -11.804,-4.69 -12.832,-8.76 -1.179,-4.09 0.121,-6.65 -0.554,-7 -0.325,-0.4 -3.278,1.78 -3.121,7.56 0.121,2.77 1.175,6.22 3.914,9.35 2.808,3.18 7.359,5.32 12.461,5.6 10.543,1.01 21.523,-7.03 28.086,-16.88 7.144,-9.81 12.519,-22.45 14.421,-36.34 3.661,-27.38 -6.054,-55.2 -24.668,-64.09 -9.097,-4.06 -17.511,-2.51 -22.14,0 -4.742,2.64 -5.957,5.55 -5.528,5.87" /><path
         id="path182"
         style="fill:#1d2a30;fill-opacity:1;fill-rule:nonzero;stroke:none"
         d="m 216.258,2663.1 c 0,0 106.156,-19.07 210.805,75.74 68.671,62.21 156.273,107.74 181.289,97.43 25.007,-10.3 52.382,-91.34 138.199,-93.21 0,0 38.535,-158.46 99.543,-135.34 61.008,23.13 -46.199,255.26 -46.199,255.26 l -172.145,63.09 -175.898,-15.25 -178.551,-72.11 -86.977,-92.85 29.934,-82.76" /><path
         id="path184"
         style="fill:#1d2a30;fill-opacity:1;fill-rule:nonzero;stroke:none"
         d="m 774.289,2997.49 c 0.309,-1.55 -16.601,-4.09 -32.621,-16.49 -16.258,-12.11 -23.23,-27.71 -24.641,-27 -1.343,0.15 3.942,17.99 21.489,31.15 17.382,13.37 35.98,13.67 35.773,12.34" /><path
         id="path186"
         style="fill:#1d2a30;fill-opacity:1;fill-rule:nonzero;stroke:none"
         d="m 692.594,3041.13 c 0.629,0.26 3.531,-4.69 7.179,-13.23 3.606,-8.52 7.934,-20.76 9.973,-34.96 2.203,-14.18 1.051,-27.36 -0.922,-36.48 -2.07,-9.16 -4.636,-14.39 -5.211,-14.19 -1.586,0.38 5.383,22.47 0.985,49.92 -4.231,27.27 -13.746,48.29 -12.004,48.94" /><path
         id="path188"
         style="fill:#e3e3e2;fill-opacity:1;fill-rule:nonzero;stroke:none"
         d="M 1103.62,613.449 1796.13,742.219 1899.59,274.238 1180.4,152.77 1103.62,613.449" /><path
         id="path190"
         style="fill:#1d2a30;fill-opacity:1;fill-rule:nonzero;stroke:none"
         d="m 1796.13,742.219 c 0.07,-0.047 -0.33,-0.707 -1.19,-1.949 -1.06,-1.481 -2.34,-3.258 -3.91,-5.438 -3.78,-5.051 -8.93,-11.922 -15.42,-20.613 -13.87,-18.129 -33.47,-43.758 -57.62,-75.36 -49.35,-63.75 -117.22,-151.418 -192.67,-248.871 l -1.33,-1.718 -1.94,1.011 c -4.24,2.25 -8.82,4.668 -13.41,7.09 -111.88,59.488 -213.13,113.328 -286.91,152.551 -36.28,19.578 -65.79,35.5 -86.66,46.758 -9.88,5.449 -17.7,9.781 -23.44,12.941 -2.42,1.41 -4.4,2.547 -6.03,3.488 -1.35,0.813 -2.01,1.262 -1.98,1.34 0.05,0.082 0.8,-0.219 2.23,-0.879 1.69,-0.808 3.75,-1.8 6.27,-3.019 5.85,-2.961 13.83,-6.992 23.9,-12.082 21.06,-10.91 50.83,-26.328 87.44,-45.297 73.95,-38.871 175.46,-92.231 287.62,-151.192 4.59,-2.429 9.17,-4.851 13.4,-7.089 l -3.26,-0.7 c 75.93,97.059 144.25,184.399 193.91,247.899 24.69,31.16 44.73,56.461 58.91,74.359 6.81,8.43 12.21,15.102 16.18,20.012 1.73,2.059 3.14,3.738 4.31,5.117 0.99,1.141 1.53,1.703 1.6,1.641" /><path
         id="path192"
         style="fill:#1d2a30;fill-opacity:1;fill-rule:nonzero;stroke:none"
         d="m 1180.4,152.77 c -1.2,0.789 43.33,71.41 99.46,157.71 56.16,86.34 102.64,155.68 103.85,154.899 1.2,-0.789 -43.33,-71.391 -99.48,-157.738 C 1228.1,221.332 1181.61,151.988 1180.4,152.77" /><path
         id="path194"
         style="fill:#1d2a30;fill-opacity:1;fill-rule:nonzero;stroke:none"
         d="m 1899.59,274.238 c -0.9,-1.129 -65.67,48.461 -144.67,110.75 -79.02,62.313 -142.34,113.723 -141.45,114.852 0.89,1.121 65.66,-48.461 144.68,-110.762 78.99,-62.289 142.32,-113.707 141.44,-114.84" /><path
         id="path196"
         style="fill:#f9ad95;fill-opacity:1;fill-rule:nonzero;stroke:none"
         d="m 1121.8,508.988 c 0,0 4.92,-90.636 48.56,-89.629 43.64,1.02 197.89,84.93 215.81,55.762 17.93,-29.172 -29.42,-69.672 -29.42,-69.672 0,0 54.35,0.821 34.14,-31.687 -20.21,-32.512 -80.66,-184.641 -136.57,-198.93 -80.41,-20.543 -265.308,-28.57 -265.308,-28.57 l 57.118,318.718 75.67,44.008" /><path
         id="path198"
         style="fill:#f6865e;fill-opacity:1;fill-rule:nonzero;stroke:none"
         d="m 1373.57,424.422 c 0.24,-0.262 -1.84,-2.563 -5.81,-6.492 -3.96,-3.961 -9.96,-9.399 -17.58,-15.871 -15.23,-12.95 -37.4,-29.629 -63.58,-45.411 -26.21,-15.757 -51.32,-27.539 -69.89,-34.949 -9.29,-3.711 -16.9,-6.449 -22.26,-8.097 -5.33,-1.672 -8.33,-2.442 -8.45,-2.102 -0.28,0.762 11.16,5.359 29.25,13.59 18.09,8.219 42.7,20.41 68.67,36.012 25.93,15.636 48.22,31.687 63.95,43.828 15.73,12.129 25.16,20.09 25.7,19.492" /><path
         id="path200"
         style="fill:#f6865e;fill-opacity:1;fill-rule:nonzero;stroke:none"
         d="m 1371.17,334.609 c 0.48,-0.328 -4.88,-9.578 -15.9,-22.839 -10.97,-13.258 -28.07,-30.168 -49.75,-45.211 -21.72,-14.981 -43.58,-25.02 -59.86,-30.61 -16.3,-5.621 -26.85,-7.379 -26.98,-6.808 -0.22,0.828 9.93,3.828 25.67,10.257 15.74,6.391 36.89,16.743 58.21,31.454 21.27,14.75 38.42,30.878 49.95,43.347 11.56,12.473 17.96,20.91 18.66,20.41" /></g></g></svg>