<?xml version="1.0" encoding="UTF-8" standalone="no"?>
<svg
   xmlns:dc="http://purl.org/dc/elements/1.1/"
   xmlns:cc="http://creativecommons.org/ns#"
   xmlns:rdf="http://www.w3.org/1999/02/22-rdf-syntax-ns#"
   xmlns:svg="http://www.w3.org/2000/svg"
   xmlns="http://www.w3.org/2000/svg"
   viewBox="0 0 510.97333 539.71997"
   height="539.71997"
   width="510.97333"
   xml:space="preserve"
   id="svg2"
   version="1.1"><metadata
     id="metadata8"><rdf:RDF><cc:Work
         rdf:about=""><dc:format>image/svg+xml</dc:format><dc:type
           rdf:resource="http://purl.org/dc/dcmitype/StillImage" /></cc:Work></rdf:RDF></metadata><defs
     id="defs6" /><g
     transform="matrix(1.3333333,0,0,-1.3333333,0,539.72)"
     id="g10"><g
       transform="scale(0.1)"
       id="g12"><path
         id="path14"
         style="fill:#e9e9e8;fill-opacity:1;fill-rule:nonzero;stroke:none"
         d="m 2277.85,1726.94 c 0.03,0.04 0.73,-0.61 2.02,-1.93 1.39,-1.45 3.28,-3.39 5.71,-5.91 5.12,-5.42 12.48,-13.23 22,-23.32 19.3,-20.68 47.35,-50.74 82.94,-88.88 71.29,-76.87 172.77,-186.3 294.16,-317.18 l -3.39,-0.05 c 98.33,112.76 212.28,243.41 333.6,382.51 l 2.23,2.57 1.89,-2.83 c 7.71,-11.59 16.03,-24.09 24.38,-36.64 89.88,-135.24 175.39,-263.9 252.36,-379.69 l -3.49,0.54 c 90.03,71.94 171.76,137.23 242.59,193.83 l 1.43,1.15 1.22,-1.38 c 77.99,-88.31 141.25,-159.93 185.16,-209.65 21.69,-24.74 38.59,-44.03 50.21,-57.28 5.61,-6.49 9.92,-11.48 12.96,-15 2.91,-3.41 4.29,-5.25 4.29,-5.25 0,0 -1.67,1.59 -4.71,4.87 -3.14,3.44 -7.58,8.31 -13.38,14.64 -11.78,13.09 -28.95,32.14 -50.98,56.6 -44.21,49.43 -107.91,120.67 -186.44,208.5 l 2.65,-0.22 c -70.66,-56.8 -152.2,-122.34 -242.01,-194.53 l -2.03,-1.64 -1.46,2.17 c -77.06,115.73 -162.7,244.31 -252.7,379.46 -8.35,12.55 -16.66,25.04 -24.38,36.64 l 4.12,-0.28 C 2897.31,1529.81 2783.21,1399.3 2684.73,1286.67 l -1.68,-1.91 -1.72,1.87 c -120.81,131.4 -221.82,241.27 -292.78,318.44 -35.2,38.52 -62.93,68.87 -82,89.74 -9.32,10.3 -16.51,18.26 -21.51,23.8 -2.31,2.62 -4.11,4.65 -5.45,6.16 -1.2,1.4 -1.79,2.13 -1.74,2.17" /><path
         id="path16"
         style="fill:#e3e3e2;fill-opacity:1;fill-rule:nonzero;stroke:none"
         d="m 2650.19,1287.2 c 0.14,-19.29 15.9,-34.82 35.19,-34.68 19.3,0.14 34.84,15.9 34.7,35.2 -0.15,19.3 -15.91,34.82 -35.2,34.69 -19.3,-0.15 -34.84,-15.91 -34.69,-35.21" /><path
         id="path18"
         style="fill:#e3e3e2;fill-opacity:1;fill-rule:nonzero;stroke:none"
         d="m 3262.83,1245.46 c 0.14,-19.29 15.89,-34.82 35.19,-34.67 19.31,0.13 34.84,15.89 34.69,35.19 -0.15,19.3 -15.9,34.83 -35.2,34.69 -19.29,-0.15 -34.83,-15.9 -34.68,-35.21" /><path
         id="path20"
         style="fill:#e3e3e2;fill-opacity:1;fill-rule:nonzero;stroke:none"
         d="m 3501.12,1438.19 c 0.13,-19.3 15.9,-34.83 35.19,-34.68 19.31,0.14 34.83,15.9 34.69,35.2 -0.15,19.29 -15.91,34.82 -35.21,34.68 -19.29,-0.14 -34.82,-15.9 -34.67,-35.2" /><path
         id="path22"
         style="fill:#e3e3e2;fill-opacity:1;fill-rule:nonzero;stroke:none"
         d="m 2981.89,1667.14 c 0.14,-19.3 15.91,-34.83 35.2,-34.68 19.3,0.13 34.83,15.89 34.68,35.19 -0.14,19.3 -15.9,34.84 -35.19,34.69 -19.3,-0.15 -34.83,-15.9 -34.69,-35.2" /><path
         id="path24"
         style="fill:#e3e3e2;fill-opacity:1;fill-rule:nonzero;stroke:none"
         d="m 3762.37,1160.68 c 0.14,-19.3 15.91,-34.83 35.2,-34.68 19.3,0.14 34.83,15.9 34.68,35.2 -0.14,19.29 -15.9,34.82 -35.2,34.68 -19.29,-0.14 -34.82,-15.9 -34.68,-35.2" /><path
         id="path26"
         style="fill:#e9e9e8;fill-opacity:1;fill-rule:nonzero;stroke:none"
         d="M 697.016,2915.25 H 472.27 v 893.65 h 224.746 v -893.65" /><path
         id="path28"
         style="fill:#e9e9e8;fill-opacity:1;fill-rule:nonzero;stroke:none"
         d="M 1027.55,2915.25 H 802.805 v 698.71 h 224.745 v -698.71" /><path
         id="path30"
         style="fill:#e9e9e8;fill-opacity:1;fill-rule:nonzero;stroke:none"
         d="m 1363.12,2915.25 h -224.74 v 539.11 h 224.74 v -539.11" /><path
         id="path32"
         style="fill:#e9e9e8;fill-opacity:1;fill-rule:nonzero;stroke:none"
         d="m 1673.79,2915.25 h -224.74 v 320.15 h 224.74 v -320.15" /><path
         id="path34"
         style="fill:#e9e9e8;fill-opacity:1;fill-rule:nonzero;stroke:none"
         d="m 1493.92,4032.13 c 0,0 -2.02,-2.63 -6.2,-7.5 -4.35,-5.01 -10.57,-12.17 -18.62,-21.46 -16.57,-18.84 -40.64,-46.24 -71.28,-81.1 -61.83,-69.89 -150.08,-169.66 -256.36,-289.8 l -1.36,-1.54 -1.64,1.25 c -51.4,39.25 -107.86,82.38 -167.265,127.74 l 3.414,0.42 c -72.332,-91.66 -151.504,-192 -234.043,-296.6 l -2.816,-3.57 -1.707,-2.16 -2.059,1.82 C 622.316,3558.09 515.82,3652 418.813,3737.54 l 3.511,0.35 C 298.691,3575.15 193.363,3436.52 118.816,3338.39 81.5508,3289.63 51.9844,3250.95 31.6055,3224.28 21.5039,3211.21 13.6836,3201.09 8.26563,3194.07 c -2.60157,-3.29 -4.60938,-5.84 -6.09375,-7.72 -1.382817,-1.72 -2.1132862,-2.58 -2.16797375,-2.53 -0.05468755,0.04 0.57031275,0.98 1.84375375,2.78 1.40625,1.93 3.3125,4.56 5.77734,7.95 5.2773,7.13 12.8945,17.4 22.7344,30.67 20.1289,26.87 49.3203,65.83 86.1176,114.95 74.175,98.39 178.98,237.43 302.003,400.63 l 1.563,2.08 1.953,-1.73 c 97.09,-85.45 203.676,-179.26 315.43,-277.61 l -3.766,-0.34 2.817,3.57 c 82.625,104.53 161.882,204.81 234.285,296.41 l 1.5,1.9 1.914,-1.47 c 59.304,-45.5 115.664,-88.75 166.974,-128.11 l -3,-0.29 c 106.86,119.63 195.59,218.97 257.75,288.57 31.03,34.51 55.41,61.63 72.19,80.29 8.27,9.09 14.65,16.11 19.11,21.01 4.35,4.72 6.72,7.05 6.72,7.05" /><path
         id="path36"
         style="fill:#e9e9e8;fill-opacity:1;fill-rule:nonzero;stroke:none"
         d="m 1456.72,3824.54 c -0.17,0.03 0.03,1.59 0.55,4.53 0.69,3.5 1.53,7.72 2.53,12.79 2.59,11.87 6.05,27.71 10.25,46.98 8.89,39.7 21.56,94.66 35.96,155.87 l 3.3,-3.08 c -3.59,-1.11 -7.45,-2.29 -11.33,-3.49 -62.7,-19.25 -119.53,-36.4 -160.75,-48.57 -20.05,-5.8 -36.56,-10.57 -48.9,-14.14 -5.31,-1.43 -9.72,-2.62 -13.37,-3.59 -3.07,-0.77 -4.71,-1.09 -4.76,-0.92 -0.05,0.17 1.48,0.83 4.46,1.92 3.56,1.23 7.88,2.73 13.08,4.53 12.21,3.97 28.56,9.27 48.41,15.72 40.94,13.07 97.61,30.78 160.3,50.04 3.89,1.18 7.74,2.37 11.33,3.47 l 4.34,1.33 -1.04,-4.41 c -14.48,-61.2 -27.73,-116.02 -37.53,-155.51 -4.85,-19.12 -8.84,-34.83 -11.83,-46.6 -1.37,-4.99 -2.51,-9.14 -3.46,-12.58 -0.84,-2.85 -1.37,-4.33 -1.54,-4.29" /><path
         id="path38"
         style="fill:#e3e3e2;fill-opacity:1;fill-rule:nonzero;stroke:none"
         d="m 3234.76,2186.97 c 59.53,0.95 107.2,50.17 106.24,109.7 -0.96,59.53 -50.18,107.19 -109.71,106.24 -59.53,-0.96 -107.18,-50.18 -106.23,-109.71 0.96,-59.53 50.17,-107.18 109.7,-106.23 z m -5.35,333.77 c 124.5,2 227.43,-97.67 229.42,-222.18 2,-124.5 -97.66,-227.43 -222.17,-229.43 -124.52,-2 -227.44,97.67 -229.44,222.18 -2,124.51 97.68,227.43 222.19,229.43" /><path
         id="path40"
         style="fill:#f4f4f4;fill-opacity:1;fill-rule:nonzero;stroke:none"
         d="m 3228.95,2548.82 c 139.99,2.25 255.72,-109.81 257.97,-249.81 L 3333,2294.94 c -1.07,66.93 -46.3,94.12 -99.99,97.58 -43.93,2.83 -102.55,-30.65 -101.47,-97.58 l -152.4,-4.08 c -2.25,139.99 109.82,255.72 249.81,257.96" /><path
         id="path42"
         style="fill:#f8f8f9;fill-opacity:1;fill-rule:nonzero;stroke:none"
         d="m 1861.2,1100.36 c 76.67,81.22 72.27,209.02 -9.81,284.89 -82.09,75.87 -211.26,71.52 -287.94,-9.7 -76.68,-81.22 -72.28,-209.02 9.8,-284.89 82.09,-75.87 211.27,-71.52 287.95,9.7 z m -460.24,425.37 c 160.38,169.87 430.54,178.97 602.21,20.29 171.69,-158.68 180.89,-425.98 20.51,-595.84 -160.38,-169.871 -430.53,-178.969 -602.21,-20.289 -171.69,158.679 -180.89,425.969 -20.51,595.839" /><path
         id="path44"
         style="fill:#e3e3e2;fill-opacity:1;fill-rule:nonzero;stroke:none"
         d="m 1400.96,1525.73 c 160.38,169.86 430.53,178.96 602.21,20.29 l -151.79,-160.77 c -82.08,75.87 -211.25,71.51 -287.93,-9.7 -76.68,-81.22 -72.28,-209.02 9.81,-284.89 L 1421.47,929.891 c -171.69,158.679 -180.89,425.959 -20.51,595.839" /><path
         id="path46"
         style="fill:#eeeeee;fill-opacity:1;fill-rule:nonzero;stroke:none"
         d="m 1985.78,1614.92 c 210.31,-194.39 235.48,-510.39 39.02,-718.479 l -213.35,183.969 c 93.93,99.5 114.34,232.34 13.79,325.29 l 160.54,209.22" /><path
         id="path48"
         style="fill:#e3e3e2;fill-opacity:1;fill-rule:nonzero;stroke:none"
         d="m 1789.27,1067.15 126.68,-250.56 c 56.3,22.332 103.34,51.871 138.18,90.922 l -227.56,183.788 -37.3,-24.15" /><path
         id="path50"
         style="fill:#fcfdfd;fill-opacity:1;fill-rule:nonzero;stroke:none"
         d="m 3106.6,3393.83 c -2.41,149.71 -126.17,269.55 -275.87,267.15 -149.72,-2.41 -269.56,-126.17 -267.15,-275.87 2.4,-149.72 126.15,-269.56 275.87,-267.16 149.7,2.41 269.55,126.17 267.15,275.88 z m -839.37,-13.48 c -5.03,313.11 245.63,571.94 558.73,576.97 313.12,5.03 571.95,-245.62 576.97,-558.73 5.03,-313.12 -245.61,-571.94 -558.73,-576.97 -313.11,-5.03 -571.94,245.61 -576.97,558.73" /><path
         id="path52"
         style="fill:#e3e3e2;fill-opacity:1;fill-rule:nonzero;stroke:none"
         d="m 2267.24,3380.34 c -5.03,313.12 245.62,571.95 558.72,576.97 l 4.77,-296.33 c -149.72,-2.41 -269.56,-126.17 -267.15,-275.88 2.4,-149.71 126.15,-269.55 275.87,-267.14 l 4.75,-296.34 c -313.11,-5.03 -571.93,245.61 -576.96,558.72" /><path
         id="path54"
         style="fill:#f4f4f4;fill-opacity:1;fill-rule:nonzero;stroke:none"
         d="m 2774.97,4002.89 c 366.32,5.88 658.55,-277.1 664.44,-643.42 l -346.7,-5.56 c -2.81,175.14 -136.7,285.42 -311.85,282.61 l -5.89,366.37" /><path
         id="path56"
         style="fill:#1d2a30;fill-opacity:1;fill-rule:nonzero;stroke:none"
         d="M 3443.78,2.60938 C 3443.78,1.17969 2696.08,0 1773.94,0 851.492,0 103.938,1.17969 103.938,2.60938 c 0,1.4414 747.554,2.60937 1670.002,2.60937 922.14,0 1669.84,-1.16797 1669.84,-2.60937" /><path
         id="path58"
         style="fill:#1d2a30;fill-opacity:1;fill-rule:nonzero;stroke:none"
         d="m 1128.59,1389.14 1852.96,13.35 v -26 l -1852.96,-16.64 v 29.29" /><path
         id="path60"
         style="fill:#ffffff;fill-opacity:1;fill-rule:nonzero;stroke:none"
         d="m 1088.19,3273.09 42.14,-1899.42 1851.22,14.42 v 1916.86 l -1893.36,-31.86" /><path
         id="path62"
         style="fill:#1d2a30;fill-opacity:1;fill-rule:nonzero;stroke:none"
         d="m 1088.19,3273.09 c 19.24,0.35 758.55,13.67 1893.32,34.11 l 2.29,0.04 v -2.29 c 0.11,-548.68 0.23,-1196.22 0.35,-1887.02 0,-10.03 0,-20.04 0,-29.84 v -2.59 l -2.57,-0.01 c -677.41,-5.15 -1312,-9.98 -1851.23,-14.08 l -2.23,-0.01 -0.05,2.22 c -23.9,1138.34 -39.47,1880.2 -39.88,1899.47 0.45,-19.25 17.79,-761.09 44.4,-1899.36 l -2.27,2.19 c 539.22,4.31 1173.81,9.37 1851.22,14.78 l -2.59,-2.61 c 0,9.8 0,19.81 0,29.84 0.13,690.8 0.25,1338.34 0.35,1887.02 l 2.29,-2.26 c -1134.82,-17.74 -1874.18,-29.3 -1893.4,-29.6" /><path
         id="path64"
         style="fill:#1d2a30;fill-opacity:1;fill-rule:nonzero;stroke:none"
         d="m 1080.74,3260.34 1908.93,10.87 2.37,80.18 -1911.3,-11.92 v -79.13" /><path
         id="path66"
         style="fill:#1d2a30;fill-opacity:1;fill-rule:nonzero;stroke:none"
         d="m 1994.59,1322.21 c -3.26,-0.14 -6.62,14.84 -7.51,33.45 -0.88,18.64 1.04,33.86 4.3,34.01 3.26,0.15 6.62,-14.82 7.5,-33.43 0.89,-18.65 -1.02,-33.86 -4.29,-34.03" /><path
         id="path68"
         style="fill:#1d2a30;fill-opacity:1;fill-rule:nonzero;stroke:none"
         d="m 1994.26,1335.57 c 0.2,0.68 3.23,0.88 8.18,-1.12 2.47,-0.99 5.39,-2.57 8.37,-5.01 3,-2.41 6.08,-5.71 8.56,-10.1 5.16,-8.56 6.56,-22.61 -0.83,-34.57 -1.84,-2.98 -4.21,-5.8 -7.15,-8.15 -2.9,-2.39 -6.47,-4.21 -10.22,-5.31 -7.54,-2.21 -15.84,-1.59 -23.28,1.66 -3.73,1.65 -7.14,3.92 -10.03,6.77 -2.91,2.81 -5.2,6.27 -6.69,9.84 -3.02,7.21 -3.26,14.79 -1.75,21.47 1.57,6.7 4.87,12.62 9.33,16.91 4.44,4.35 9.69,6.82 14.52,8.13 9.82,2.46 17.93,0.33 22.69,-1.97 4.82,-2.47 6.61,-4.93 6.18,-5.53 -0.48,-0.73 -3.09,0.3 -7.66,1.18 -4.53,0.76 -11.39,1.17 -18.68,-1.64 -3.55,-1.48 -7.2,-3.67 -9.98,-6.95 -2.83,-3.18 -4.85,-7.53 -5.74,-12.32 -0.81,-4.79 -0.38,-10.08 1.69,-14.62 2.01,-4.6 5.88,-8.23 10.87,-10.45 4.96,-2.19 10.61,-2.63 15.36,-1.34 4.77,1.21 8.66,4.26 11.38,8.21 2.72,3.94 4.2,8.56 4.5,12.92 0.16,2.19 0.04,4.3 -0.3,6.32 -0.37,2.03 -0.97,3.94 -1.7,5.72 -3,7.23 -8.1,11.96 -11.72,14.83 -3.7,2.93 -6.17,4.27 -5.9,5.12" /><path
         id="path70"
         style="fill:#365462;fill-opacity:1;fill-rule:nonzero;stroke:none"
         d="m 2269.21,2233.65 -1.13,-0.15 c -0.77,-0.04 -1.89,-0.12 -3.38,-0.21 -2.99,-0.15 -7.41,-0.37 -13.24,-0.65 -11.63,-0.5 -28.8,-1.2 -50.89,-2.13 -44.23,-1.65 -108.19,-4.06 -187.24,-7.05 -158.11,-5.77 -376.53,-13.46 -617.78,-21.74 -28.42,-0.97 -56.53,-1.93 -82.98,-2.82 l -1.91,-0.07 -0.14,1.91 c -16.94,221.67 -31.82,418.94 -42.34,560.78 -5.18,70.93 -9.34,128 -12.2,167.35 -1.36,19.67 -2.41,34.9 -3.12,45.24 -0.31,5.15 -0.55,9.09 -0.71,11.74 -0.06,1.32 -0.1,2.32 -0.13,3 l 0.01,1.01 0.18,-1.01 c 0.07,-0.67 0.18,-1.66 0.32,-2.97 0.24,-2.65 0.61,-6.57 1.09,-11.72 0.87,-10.31 2.16,-25.53 3.82,-45.18 3.16,-39.33 7.74,-96.36 13.43,-167.25 11.23,-141.79 26.58,-339.03 43.62,-560.69 l -2.05,1.83 c 26.45,0.91 54.55,1.87 82.98,2.85 241.25,8.26 459.68,15.53 617.81,20.58 79.07,2.43 143.05,4.41 187.28,5.77 22.11,0.59 39.28,1.06 50.93,1.37 5.82,0.11 10.26,0.21 13.25,0.26 1.49,0 2.62,0 3.38,0.02 l 1.14,-0.07" /><path
         id="path72"
         style="fill:#1d2a30;fill-opacity:1;fill-rule:nonzero;stroke:none"
         d="m 1598.99,3051.76 v -25.44 l 263.79,12.51 v 21.48 l -263.79,-8.55" /><path
         id="path74"
         style="fill:#f03658;fill-opacity:1;fill-rule:nonzero;stroke:none"
         d="m 1399.26,2255.44 h 91.65 l -14.38,248.89 h -89.84 l 12.57,-248.89" /><path
         id="path76"
         style="fill:#f03658;fill-opacity:1;fill-rule:nonzero;stroke:none"
         d="m 1565.47,2255.37 h 91.64 l -14.37,347.91 h -89.85 l 12.58,-347.91" /><path
         id="path78"
         style="fill:#f03658;fill-opacity:1;fill-rule:nonzero;stroke:none"
         d="m 1721.09,2266.45 h 91.64 l -14.38,455.49 h -89.84 l 12.58,-455.49" /><path
         id="path80"
         style="fill:#f03658;fill-opacity:1;fill-rule:nonzero;stroke:none"
         d="m 2078.06,2284.18 h 91.64 l -14.37,620.75 h -89.85 l 12.58,-620.75" /><path
         id="path82"
         style="fill:#f03658;fill-opacity:1;fill-rule:nonzero;stroke:none"
         d="m 1904.33,2282.04 h 91.64 l -14.37,534.27 h -89.85 l 12.58,-534.27" /><path
         id="path84"
         style="fill:#f03658;fill-opacity:1;fill-rule:nonzero;stroke:none"
         d="m 1341.63,2568.87 c -2.38,3.73 161.4,112.94 365.77,243.91 204.44,131.01 372.06,234.17 374.44,230.44 2.4,-3.73 -161.35,-112.91 -365.8,-243.93 -204.37,-130.96 -372.02,-234.14 -374.41,-230.42" /><path
         id="path86"
         style="fill:#f03658;fill-opacity:1;fill-rule:nonzero;stroke:none"
         d="m 1991.13,3043.22 c -0.82,4.32 58.5,19.12 132.73,33.12 l 18.83,3.54 -10.71,-15.9 -0.59,-0.87 c -42.47,-63.04 -79.87,-112.13 -83.53,-109.66 -3.68,2.47 27.77,55.57 70.25,118.62 l 0.59,0.86 8.12,-12.34 c -74.23,-13.93 -134.88,-21.69 -135.69,-17.37" /><path
         id="path88"
         style="fill:#1d2a30;fill-opacity:1;fill-rule:nonzero;stroke:none"
         d="m 1386.69,2171.37 h 95.8 l 3.02,-17.05 h -98.82 v 17.05" /><path
         id="path90"
         style="fill:#1d2a30;fill-opacity:1;fill-rule:nonzero;stroke:none"
         d="m 1556.27,2178.4 h 95.82 l 3,-17.07 h -98.82 v 17.07" /><path
         id="path92"
         style="fill:#1d2a30;fill-opacity:1;fill-rule:nonzero;stroke:none"
         d="m 1730.88,2183.41 h 95.81 l 3.01,-17.05 h -98.82 v 17.05" /><path
         id="path94"
         style="fill:#1d2a30;fill-opacity:1;fill-rule:nonzero;stroke:none"
         d="m 1894.46,2187.44 h 95.8 l 3.01,-17.07 h -98.81 v 17.07" /><path
         id="path96"
         style="fill:#1d2a30;fill-opacity:1;fill-rule:nonzero;stroke:none"
         d="m 2097.14,2193.45 h 95.82 l 3.02,-17.05 h -98.84 v 17.05" /><path
         id="path98"
         style="fill:#f03658;fill-opacity:1;fill-rule:nonzero;stroke:none"
         d="m 2832.68,1821.51 c 0,-168.89 -136.91,-305.8 -305.8,-305.8 -168.89,0 -305.8,136.91 -305.8,305.8 0,168.9 136.91,305.8 305.8,305.8 168.89,0 305.8,-136.9 305.8,-305.8" /><path
         id="path100"
         style="fill:#bc283b;fill-opacity:1;fill-rule:nonzero;stroke:none"
         d="m 2526.88,1515.71 c -156.45,0 -285.46,117.5 -303.62,269.05 1.28,-9.97 3.03,-20.11 5.27,-30.38 l 298.35,67.13 v 58.39 l 0.38,-58.39 298.47,-65.13 c -29.85,-137.6 -152.31,-240.67 -298.85,-240.67 m 305.8,305.45 c -0.32,45.38 -10.69,91.44 -30.45,133.55 19.51,-40.27 30.45,-85.45 30.45,-133.2 0,-0.11 0,-0.24 0,-0.35 m -510.49,227.55 c 53.83,48.53 124.98,78.19 203.08,78.6 v 0 c -72.41,-0.42 -146.23,-28.87 -203.08,-78.6 m 226.52,77.83 c -7.16,0.47 -14.43,0.73 -21.83,0.77 v 0 0 0 0 c 7.34,0 14.62,-0.26 21.83,-0.77 m -22.63,0.77 c -0.02,0 0,0 -0.01,0 0.13,0 0.27,0 0.4,0 -0.13,0 -0.26,0 -0.39,0" /><path
         id="path102"
         style="fill:#e7e6f5;fill-opacity:1;fill-rule:nonzero;stroke:none"
         d="m 2526.88,1821.51 v 305.8 -305.8" /><path
         id="path104"
         style="fill:#f03658;fill-opacity:1;fill-rule:nonzero;stroke:none"
         d="m 2526.88,1821.51 -298.35,-67.13 c -47.93,220.03 129.46,372.93 298.35,372.93 v -305.8" /><path
         id="path106"
         style="fill:#f03658;fill-opacity:1;fill-rule:nonzero;stroke:none"
         d="m 2527.26,1821.51 -1.99,305.8 c 225.19,-0.07 336.76,-205.99 300.77,-370.99 v -0.01 l -298.78,65.2" /><path
         id="path108"
         style="fill:#f03658;fill-opacity:1;fill-rule:nonzero;stroke:none"
         d="m 2527.26,1821.51 -1.99,305.8 c 225.19,-0.07 336.76,-205.99 300.77,-370.99 v -0.01 l -298.78,65.2" /><path
         id="path110"
         style="fill:#ef2f4b;fill-opacity:1;fill-rule:nonzero;stroke:none"
         d="m 2526.88,1879.9 -1.61,247.41 c 0,-0.01 0,-0.01 0,-0.01 l 1.61,-247.4" /><path
         id="path112"
         style="fill:#ef2f4b;fill-opacity:1;fill-rule:nonzero;stroke:none"
         d="m 2826.04,1756.31 -298.78,65.2 -0.38,58.39 -1.61,247.41 c 197.37,-0.06 307.46,-158.25 307.42,-308.43 -0.01,-21.17 -2.2,-42.17 -6.65,-62.56 v -0.01" /><path
         id="path114"
         style="fill:#1d2a30;fill-opacity:1;fill-rule:nonzero;stroke:none"
         d="m 2840.58,2545.56 c -0.39,-0.59 -5.98,5.11 -18.88,9.59 -12.7,4.7 -33.32,6.13 -56.47,-1.55 -23.4,-7.29 -46.58,-25.94 -69.09,-49.23 -22.69,-22.85 -46.61,-51.53 -81.79,-68.02 -17.32,-8.17 -36.7,-12.02 -54.87,-9.12 -18.17,2.82 -33.93,10.7 -48.68,17.45 -14.7,6.94 -28.91,12.94 -42.93,15.12 -13.99,2.26 -27.32,-0.17 -38.41,-4.83 -22.45,-9.58 -35.05,-26.43 -41.06,-38.36 -5.81,-12.36 -6.31,-20.19 -6.91,-20.06 0,0 -0.32,7.93 5.08,20.92 5.6,12.53 18.13,30.4 41.42,40.87 11.5,5.12 25.68,7.93 40.51,5.74 14.78,-2.12 29.52,-8.21 44.31,-15.04 14.83,-6.67 30.31,-14.2 47.42,-16.76 17.06,-2.66 35.27,0.95 51.93,8.79 33.82,15.81 57.51,43.78 80.57,66.68 22.81,23.24 46.99,42.27 71.37,49.35 24.04,7.49 45.41,5.4 58.3,-0.04 6.52,-2.58 11.12,-5.56 14.03,-7.76 2.84,-2.33 4.26,-3.61 4.15,-3.74" /><path
         id="path116"
         style="fill:#1d2a30;fill-opacity:1;fill-rule:nonzero;stroke:none"
         d="m 2866.42,2347.96 c 0,-1.44 -108.56,-2.6 -242.45,-2.6 -133.94,0 -242.48,1.16 -242.48,2.6 0,1.43 108.54,2.6 242.48,2.6 133.89,0 242.45,-1.17 242.45,-2.6" /><path
         id="path118"
         style="fill:#1d2a30;fill-opacity:1;fill-rule:nonzero;stroke:none"
         d="m 2839.48,2347.96 c -1.44,0 -2.6,61.82 -2.6,138.07 0,76.26 1.16,138.07 2.6,138.07 1.44,0 2.6,-61.81 2.6,-138.07 0,-76.25 -1.16,-138.07 -2.6,-138.07" /><path
         id="path120"
         style="fill:#1d2a30;fill-opacity:1;fill-rule:nonzero;stroke:none"
         d="m 2430.33,2464.26 c -0.28,0.02 -0.69,1.04 -0.12,2.85 0.54,1.79 2.39,4.12 5.51,5.46 2.98,1.22 7.7,1.85 11.77,-1.51 4.23,-3.4 4.11,-10.44 0.85,-14.61 -2.88,-4.44 -9.48,-6.83 -14.06,-4 -4.49,2.65 -5.61,7.23 -5.57,10.46 0.12,3.38 1.57,5.94 2.99,7.12 1.43,1.22 2.52,1.27 2.66,1.02 0.48,-0.61 -2.69,-2.91 -1.96,-7.99 0.32,-2.36 1.69,-5.27 4.1,-6.36 2.33,-1.21 5.54,-0.08 7.61,2.77 2.03,2.87 2.04,6.31 0.13,8.07 -1.8,1.86 -5.02,2.11 -7.33,1.54 -4.99,-1.17 -5.83,-5.01 -6.58,-4.82" /><path
         id="path122"
         style="fill:#1d2a30;fill-opacity:1;fill-rule:nonzero;stroke:none"
         d="m 2757.4,2564.55 c -0.2,0.2 0.15,1.22 1.72,2.19 1.54,0.99 4.36,1.57 7.54,0.65 3.02,-0.93 6.96,-3.37 8.04,-8.4 1.18,-5.16 -3.11,-10.54 -8.12,-11.83 -4.91,-1.71 -11.48,0.37 -13.33,5.34 -1.89,4.81 0.09,9.01 2.11,11.44 2.17,2.51 4.88,3.56 6.7,3.54 1.85,0.02 2.7,-0.65 2.64,-0.93 -0.04,-0.77 -3.85,-0.51 -6.38,-4.8 -1.19,-1.98 -1.89,-5.03 -0.72,-7.25 1.06,-2.28 4.19,-3.32 7.45,-2.35 3.26,1 5.29,3.6 4.9,6.1 -0.24,2.52 -2.5,4.67 -4.58,5.7 -4.46,2.21 -7.52,-0.03 -7.97,0.6" /><path
         id="path124"
         style="fill:#1d2a30;fill-opacity:1;fill-rule:nonzero;stroke:none"
         d="m 2830.83,2891.62 c 0,-1.44 -105.17,-2.61 -234.88,-2.61 -129.76,0 -234.91,1.17 -234.91,2.61 0,1.43 105.15,2.6 234.91,2.6 129.71,0 234.88,-1.17 234.88,-2.6" /><path
         id="path126"
         style="fill:#1d2a30;fill-opacity:1;fill-rule:nonzero;stroke:none"
         d="m 2830.83,2826.36 c 0,-1.44 -105.17,-2.61 -234.88,-2.61 -129.76,0 -234.91,1.17 -234.91,2.61 0,1.43 105.15,2.6 234.91,2.6 129.71,0 234.88,-1.17 234.88,-2.6" /><path
         id="path128"
         style="fill:#1d2a30;fill-opacity:1;fill-rule:nonzero;stroke:none"
         d="m 2830.83,2761.1 c 0,-1.44 -105.17,-2.61 -234.88,-2.61 -129.76,0 -234.91,1.17 -234.91,2.61 0,1.43 105.15,2.6 234.91,2.6 129.71,0 234.88,-1.17 234.88,-2.6" /><path
         id="path130"
         style="fill:#1d2a30;fill-opacity:1;fill-rule:nonzero;stroke:none"
         d="m 2830.83,2695.84 c 0,-1.44 -105.17,-2.61 -234.88,-2.61 -129.76,0 -234.91,1.17 -234.91,2.61 0,1.44 105.15,2.6 234.91,2.6 129.71,0 234.88,-1.16 234.88,-2.6" /><path
         id="path132"
         style="fill:#1d2a30;fill-opacity:1;fill-rule:nonzero;stroke:none"
         d="m 2611.04,2989.86 h -250 v 21.1 h 250 v -21.1" /><path
         id="path134"
         style="fill:#1d2a30;fill-opacity:1;fill-rule:nonzero;stroke:none"
         d="m 1579.03,1942.23 h -250 v 21.11 h 250 v -21.11" /><path
         id="path136"
         style="fill:#1d2a30;fill-opacity:1;fill-rule:nonzero;stroke:none"
         d="m 2013.17,1841.04 c 0,-1.44 -151.73,-2.61 -338.85,-2.61 -187.19,0 -338.88,1.17 -338.88,2.61 0,1.44 151.69,2.61 338.88,2.61 187.12,0 338.85,-1.17 338.85,-2.61" /><path
         id="path138"
         style="fill:#1d2a30;fill-opacity:1;fill-rule:nonzero;stroke:none"
         d="m 2017.13,1781.59 c 0,-1.44 -154.38,-2.6 -344.79,-2.6 -190.47,0 -344.83,1.16 -344.83,2.6 0,1.44 154.36,2.6 344.83,2.6 190.41,0 344.79,-1.16 344.79,-2.6" /><path
         id="path140"
         style="fill:#1d2a30;fill-opacity:1;fill-rule:nonzero;stroke:none"
         d="m 2025.05,1726.11 c 0,-1.45 -155.26,-2.61 -346.77,-2.61 -191.56,0 -346.8,1.16 -346.8,2.61 0,1.43 155.24,2.6 346.8,2.6 191.51,0 346.77,-1.17 346.77,-2.6" /><path
         id="path142"
         style="fill:#1d2a30;fill-opacity:1;fill-rule:nonzero;stroke:none"
         d="m 1692.14,1666.66 c 0,-1.44 -79.86,-2.61 -178.34,-2.61 -98.52,0 -178.36,1.17 -178.36,2.61 0,1.43 79.84,2.59 178.36,2.59 98.48,0 178.34,-1.16 178.34,-2.59" /><path
         id="path144"
         style="fill:#f03658;fill-opacity:1;fill-rule:nonzero;stroke:none"
         d="M 603.133,47.8594 V 138.238 L 433.836,139.32 432.434,7.08984 442.93,6.35156 C 489.629,3.46094 680.578,-5.05859 711.867,4.19922 746.766,14.5508 603.133,47.8594 603.133,47.8594" /><path
         id="path146"
         style="fill:#1d2a30;fill-opacity:1;fill-rule:nonzero;stroke:none"
         d="m 715.875,12.4805 c 0,-1.6016 -63.328,-2.89847 -141.43,-2.89847 -78.125,0 -141.437,1.29687 -141.437,2.89847 0,1.5976 63.312,2.8984 141.437,2.8984 78.102,0 141.43,-1.3008 141.43,-2.8984" /><path
         id="path148"
         style="fill:#1d2a30;fill-opacity:1;fill-rule:nonzero;stroke:none"
         d="m 606.113,29.4102 c -1.386,0.7617 -0.168,5.6211 3.477,10.3398 3.633,4.7305 8.031,7.1484 9.113,6.0117 1.125,-1.1797 -1.195,-5.1914 -4.523,-9.5429 -3.36,-4.3282 -6.657,-7.5977 -8.067,-6.8086" /><path
         id="path150"
         style="fill:#1d2a30;fill-opacity:1;fill-rule:nonzero;stroke:none"
         d="m 616.914,23.4492 c -1.473,0.5821 -0.699,6.0196 2.641,11.6602 3.324,5.6719 7.707,8.9804 8.922,7.9726 1.253,-1.0234 -0.868,-5.6718 -3.93,-10.9101 -3.098,-5.211 -6.137,-9.3203 -7.633,-8.7227" /><path
         id="path152"
         style="fill:#1d2a30;fill-opacity:1;fill-rule:nonzero;stroke:none"
         d="m 484.012,13.082 c -0.66,-0.4804 -3.203,1.9063 -6.903,5.918 -3.722,3.9609 -8.621,9.5781 -14.98,14.25 -6.332,4.6211 -13.18,6.9297 -18.238,7.5313 -5.082,0.6601 -8.422,-0.043 -8.703,0.7968 -0.286,0.6328 2.828,2.8907 8.816,3.293 5.906,0.457 14.266,-1.6211 21.527,-6.9492 7.203,-5.293 11.86,-11.75 14.828,-16.4336 2.942,-4.75 4.282,-7.9375 3.653,-8.4063" /><path
         id="path154"
         style="fill:#1d2a30;fill-opacity:1;fill-rule:nonzero;stroke:none"
         d="m 606.625,46.3984 c 0.805,-1.3593 -2.141,-4.5781 -6.965,-6.2695 -4.816,-1.6992 -9.125,-1.0273 -9.347,0.5313 -0.243,1.6015 3.191,3.4296 7.429,4.9414 4.25,1.4687 8.067,2.1992 8.883,0.7968" /><path
         id="path156"
         style="fill:#f03658;fill-opacity:1;fill-rule:nonzero;stroke:none"
         d="m 603.969,55.1289 c 0.144,-1.5898 -4.367,-2.9492 -10.074,-3.0273 -5.711,-0.0703 -10.258,1.1679 -10.153,2.7695 0.106,1.5898 4.617,2.9492 10.074,3.0273 5.461,0.0625 10.004,-1.1796 10.153,-2.7695" /><path
         id="path158"
         style="fill:#1d2a30;fill-opacity:1;fill-rule:nonzero;stroke:none"
         d="m 715.875,12.4805 c 0,-1.6016 -63.328,-2.89847 -141.43,-2.89847 -78.125,0 -141.437,1.29687 -141.437,2.89847 0,1.5976 63.312,2.8984 141.437,2.8984 78.102,0 141.43,-1.3008 141.43,-2.8984" /><path
         id="path160"
         style="fill:#1d2a30;fill-opacity:1;fill-rule:nonzero;stroke:none"
         d="m 606.113,29.4102 c -1.386,0.7617 -0.168,5.6211 3.477,10.3398 3.633,4.7305 8.031,7.1484 9.113,6.0117 1.125,-1.1797 -1.195,-5.1914 -4.523,-9.5429 -3.36,-4.3282 -6.657,-7.5977 -8.067,-6.8086" /><path
         id="path162"
         style="fill:#1d2a30;fill-opacity:1;fill-rule:nonzero;stroke:none"
         d="m 616.914,23.4492 c -1.473,0.5821 -0.699,6.0196 2.641,11.6602 3.324,5.6719 7.707,8.9804 8.922,7.9726 1.253,-1.0234 -0.868,-5.6718 -3.93,-10.9101 -3.098,-5.211 -6.137,-9.3203 -7.633,-8.7227" /><path
         id="path164"
         style="fill:#1d2a30;fill-opacity:1;fill-rule:nonzero;stroke:none"
         d="m 484.012,13.082 c -0.66,-0.4804 -3.203,1.9063 -6.903,5.918 -3.722,3.9609 -8.621,9.5781 -14.98,14.25 -6.332,4.6211 -13.18,6.9297 -18.238,7.5313 -5.082,0.6601 -8.422,-0.043 -8.703,0.7968 -0.286,0.6328 2.828,2.8907 8.816,3.293 5.906,0.457 14.266,-1.6211 21.527,-6.9492 7.203,-5.293 11.86,-11.75 14.828,-16.4336 2.942,-4.75 4.282,-7.9375 3.653,-8.4063" /><path
         id="path166"
         style="fill:#1d2a30;fill-opacity:1;fill-rule:nonzero;stroke:none"
         d="m 606.625,46.3984 c 0.805,-1.3593 -2.141,-4.5781 -6.965,-6.2695 -4.816,-1.6992 -9.125,-1.0273 -9.347,0.5313 -0.243,1.6015 3.191,3.4296 7.429,4.9414 4.25,1.4687 8.067,2.1992 8.883,0.7968" /><path
         id="path168"
         style="fill:#1d2a30;fill-opacity:1;fill-rule:nonzero;stroke:none"
         d="m 603.969,55.1289 c 0.144,-1.5898 -4.367,-2.9492 -10.074,-3.0273 -5.711,-0.0703 -10.258,1.1679 -10.153,2.7695 0.106,1.5898 4.617,2.9492 10.074,3.0273 5.461,0.0625 10.004,-1.1796 10.153,-2.7695" /><path
         id="path170"
         style="fill:#f03658;fill-opacity:1;fill-rule:nonzero;stroke:none"
         d="M 781.73,79.8906 808.488,166.219 647.109,217.379 606.625,91.5 616.426,87.6797 C 660.176,71.1016 840.043,6.42188 872.676,6.01172 909.063,5.55078 781.73,79.8906 781.73,79.8906" /><path
         id="path172"
         style="fill:#1d2a30;fill-opacity:1;fill-rule:nonzero;stroke:none"
         d="M 878.945,12.7188 C 878.477,11.1992 817.602,28.7109 743.004,51.832 668.379,74.9688 608.289,94.9492 608.762,96.4688 609.238,97.9883 670.094,80.4883 744.715,57.3594 819.316,34.2305 879.422,14.25 878.945,12.7188" /><path
         id="path174"
         style="fill:#1d2a30;fill-opacity:1;fill-rule:nonzero;stroke:none"
         d="m 779.113,61.3906 c -1.097,1.1289 1.512,5.418 6.391,8.8477 4.871,3.4531 9.781,4.4531 10.484,3.043 0.727,-1.4493 -2.679,-4.6016 -7.152,-7.7696 -4.488,-3.1406 -8.602,-5.2929 -9.723,-4.1211" /><path
         id="path176"
         style="fill:#1d2a30;fill-opacity:1;fill-rule:nonzero;stroke:none"
         d="m 787.672,52.5 c -1.238,0.9883 1.109,5.9492 5.973,10.3594 4.855,4.4219 10.015,6.289 10.878,4.9687 0.895,-1.3476 -2.5,-5.1562 -6.98,-9.25 -4.5,-4.0664 -8.617,-7.0898 -9.871,-6.0781" /><path
         id="path178"
         style="fill:#365462;fill-opacity:1;fill-rule:nonzero;stroke:none"
         d="m 657.66,81.9492 c -0.773,-0.2695 -2.496,2.7617 -4.844,7.6914 -2.382,4.8985 -5.394,11.6994 -10.093,18.0394 -4.676,6.289 -10.532,10.531 -15.192,12.601 -4.656,2.141 -8.054,2.449 -8.074,3.34 -0.082,0.68 3.563,1.918 9.398,0.527 5.778,-1.308 13.145,-5.769 18.508,-13 5.309,-7.187 7.848,-14.7496 9.297,-20.0894 1.406,-5.4102 1.738,-8.8594 1,-9.1094" /><path
         id="path180"
         style="fill:#1d2a30;fill-opacity:1;fill-rule:nonzero;stroke:none"
         d="m 784.637,77.4688 c 0.367,-1.5391 -3.399,-3.7383 -8.504,-3.918 -5.11,-0.211 -9.024,1.7109 -8.77,3.2695 0.239,1.5899 4.059,2.3281 8.555,2.5117 4.492,0.1563 8.352,-0.2812 8.719,-1.8632" /><path
         id="path182"
         style="fill:#1d2a30;fill-opacity:1;fill-rule:nonzero;stroke:none"
         d="m 784.688,86.6016 c -0.333,-1.5703 -5.047,-1.5313 -10.524,0.0781 -5.48,1.6289 -9.449,4.1523 -8.879,5.6484 0.578,1.4922 5.285,1.4532 10.524,-0.0898 5.23,-1.5469 9.203,-4.0781 8.879,-5.6367" /><path
         id="path184"
         style="fill:#365462;fill-opacity:1;fill-rule:nonzero;stroke:none"
         d="m 663.906,412.082 c -4.465,417.367 -9.511,1127.148 -3.41,1213.978 0,0 162.734,-624.89 164.281,-674.208 0.95,-29.993 -89.695,-318.391 -160.871,-539.77 z M 896.637,1835.6 674.5,1852.67 337.813,1879.95 375.457,71.6406 667.754,75.4609 c 0,0 -0.254,20.1211 -0.676,55.4181 L 838.41,84 c 0,0 167.02,564.129 223.97,795.68 47.49,193.14 -165.743,955.92 -165.743,955.92" /><path
         id="path186"
         style="fill:#365462;fill-opacity:1;fill-rule:nonzero;stroke:none"
         d="m 669.336,144.148 c 0,-1.597 -65.375,-2.886 -146.012,-2.886 -80.652,0 -146.019,1.289 -146.019,2.886 0,1.614 65.367,2.903 146.019,2.903 80.637,0 146.012,-1.289 146.012,-2.903" /><path
         id="path188"
         style="fill:#365462;fill-opacity:1;fill-rule:nonzero;stroke:none"
         d="m 666.809,209.129 c 0.289,0.762 9.601,-2.617 26.754,-8.527 19.019,-6.641 41.753,-14.602 66.878,-23.383 25.149,-8.77 47.895,-16.699 66.914,-23.328 17.106,-6.051 27.618,-10.039 27.375,-10.809 -0.234,-0.742 -11.175,1.859 -28.628,6.906 -17.45,5.063 -41.387,12.633 -67.563,21.774 -26.172,9.129 -49.613,18.117 -66.422,25 -16.812,6.91 -25.59,11.629 -25.308,12.367" /><path
         id="path190"
         style="fill:#365462;fill-opacity:1;fill-rule:nonzero;stroke:none"
         d="m 934.516,957.301 c 0.117,-1.59 -24.532,-4.75 -55.059,-7.031 -30.527,-2.301 -55.371,-2.848 -55.492,-1.258 -0.117,1.59 24.523,4.738 55.062,7.027 30.52,2.293 55.371,2.852 55.489,1.262" /><path
         id="path192"
         style="fill:#365462;fill-opacity:1;fill-rule:nonzero;stroke:none"
         d="m 915.492,924.5 c -0.441,-1.539 -19.324,2.582 -42.179,9.172 -22.856,6.598 -41.008,13.199 -40.571,14.726 0.446,1.543 19.332,-2.566 42.184,-9.168 22.84,-6.601 41.004,-13.191 40.566,-14.73" /><path
         id="path194"
         style="fill:#365462;fill-opacity:1;fill-rule:nonzero;stroke:none"
         d="m 687.34,1850.41 c 0.719,-0.01 1.258,-13.17 1.551,-34.45 0.289,-21.28 0.332,-50.68 0.058,-83.14 -0.215,-16.16 -0.422,-31.56 -0.605,-45.79 -0.219,-14.12 -2.047,-27.35 -6.934,-37.3 -4.73,-10 -11.426,-16.33 -16.445,-19.69 -5.059,-3.41 -8.395,-4.22 -8.488,-3.98 -0.204,0.4 2.804,1.84 7.265,5.6 4.442,3.71 10.305,10.03 14.309,19.58 4.137,9.47 5.531,21.92 5.492,35.86 0.062,14.23 0.129,29.61 0.199,45.77 0.274,32.46 0.813,61.85 1.469,83.12 0.648,21.28 1.41,34.43 2.129,34.42" /><path
         id="path196"
         style="fill:#365462;fill-opacity:1;fill-rule:nonzero;stroke:none"
         d="m 520.082,1860.55 c 0.09,-0.01 0.117,-1.5 0.082,-4.42 -0.066,-3.16 -0.164,-7.45 -0.281,-12.95 -0.371,-11.65 -0.906,-28.38 -1.586,-49.8 -1.41,-43.49 -3.434,-105.98 -5.93,-183.1 -4.668,-154.61 -9.472,-368.26 -10.715,-604.26 -1.16,-236.079 1.473,-449.79 4.563,-604.442 1.711,-77.137 3.094,-139.648 4.062,-183.148 0.465,-21.418 0.825,-38.149 1.078,-49.789 0.067,-5.512 0.114,-9.813 0.153,-12.961 0,-2.918 -0.039,-4.418 -0.125,-4.418 -0.094,-0.012 -0.231,1.488 -0.414,4.398 -0.16,3.149 -0.379,7.442 -0.664,12.942 -0.481,11.636 -1.168,28.359 -2.055,49.769 -1.727,43.231 -3.719,105.789 -5.719,183.117 -4.035,154.66 -7.25,368.422 -6.082,604.562 1.239,236.05 6.625,449.75 12.235,604.35 2.789,77.31 5.418,139.86 7.586,183.07 1.101,21.4 1.964,38.12 2.562,49.75 0.344,5.5 0.606,9.78 0.801,12.94 0.211,2.91 0.359,4.39 0.449,4.39" /><path
         id="path198"
         style="fill:#365462;fill-opacity:1;fill-rule:nonzero;stroke:none"
         d="m 823.965,1815.07 c 0.082,0.02 0.582,-1.36 1.465,-4.1 0.929,-2.98 2.195,-7.01 3.812,-12.19 3.184,-10.76 8.324,-26.52 13.922,-47.1 11.488,-41.07 26.984,-100.82 44.34,-175.06 17.266,-74.27 36.609,-162.98 56.625,-261.78 19.922,-98.82 41.094,-207.61 60.171,-322.41 2.4,-14.348 4.53,-28.692 6.46,-42.981 0.25,-3.789 0.68,-7.679 0.67,-11.398 l -1.8,-10.61 c -1.29,-7.05 -2.22,-14.16 -3.82,-21.082 -5.7,-27.82 -12.177,-55.019 -19.052,-81.589 -13.641,-53.168 -28.008,-104.122 -42.18,-152.508 -28.23,-96.801 -55.43,-183.422 -78.523,-256.071 -23.168,-72.64 -42.434,-131.242 -56.008,-171.652 -6.789,-19.988 -12.098,-35.609 -15.789,-46.488 -1.809,-5.121 -3.215,-9.102 -4.25,-12.039 -0.985,-2.703 -1.528,-4.071 -1.617,-4.043 -0.082,0.019 0.293,1.441 1.117,4.211 0.91,2.968 2.156,7.019 3.75,12.199 3.48,10.953 8.469,26.66 14.859,46.781 12.934,40.891 31.5,99.641 54.422,172.129 22.641,72.781 49.469,159.492 77.43,256.313 14.039,48.386 28.297,99.32 41.847,152.429 6.825,26.528 13.254,53.668 18.914,81.348 1.59,6.891 2.5,13.902 3.77,20.891 l 1.79,10.5 c -0.06,3.39 -0.5,6.679 -0.7,10.05 -1.92,14.168 -4.03,28.43 -6.438,42.782 -19.043,114.648 -40.07,223.468 -59.726,322.288 -19.75,98.81 -38.715,187.56 -55.512,261.9 -16.883,74.31 -31.824,134.16 -42.703,175.36 -5.293,20.64 -10.117,36.48 -12.977,47.33 -1.41,5.24 -2.504,9.33 -3.312,12.34 -0.719,2.78 -1.047,4.22 -0.957,4.25" /><path
         id="path200"
         style="fill:#365462;fill-opacity:1;fill-rule:nonzero;stroke:none"
         d="m 662.98,448.609 c 0.364,-0.007 0.653,-5.05 0.856,-14.148 0.148,-10.102 0.332,-23.051 0.559,-38.563 0.496,-33.527 1.152,-78 1.878,-127.136 1.344,-49.153 2.563,-93.602 3.477,-127.121 0.43,-15.512 0.793,-28.45 1.07,-38.551 0.176,-9.1017 0.102,-14.1486 -0.261,-14.1681 -0.356,-0.0235 -0.965,4.9883 -1.762,14.0581 -0.809,9.079 -1.742,22.231 -2.723,38.481 -1.965,32.519 -3.949,77.48 -5.008,127.199 -1.039,49.68 -0.949,94.68 -0.355,127.25 0.293,16.289 0.676,29.469 1.098,38.57 0.418,9.098 0.816,14.129 1.171,14.129" /><path
         id="path202"
         style="fill:#1d2a30;fill-opacity:1;fill-rule:nonzero;stroke:none"
         d="m 663.906,412.082 c -4.465,417.367 -9.511,1127.148 -3.41,1213.978 0,0 162.734,-624.89 164.281,-674.208 0.95,-29.993 -89.695,-318.391 -160.871,-539.77 z M 896.637,1835.6 674.5,1852.67 337.813,1879.95 375.457,71.6406 667.754,75.4609 c 0,0 -0.254,20.1211 -0.676,55.4181 L 838.41,84 c 0,0 167.02,564.129 223.97,795.68 47.49,193.14 -165.743,955.92 -165.743,955.92" /><path
         id="path204"
         style="fill:#365462;fill-opacity:1;fill-rule:nonzero;stroke:none"
         d="m 669.336,144.148 c 0,-1.597 -65.375,-2.886 -146.012,-2.886 -80.652,0 -146.019,1.289 -146.019,2.886 0,1.614 65.367,2.903 146.019,2.903 80.637,0 146.012,-1.289 146.012,-2.903" /><path
         id="path206"
         style="fill:#365462;fill-opacity:1;fill-rule:nonzero;stroke:none"
         d="m 666.809,209.129 c 0.289,0.762 9.601,-2.617 26.754,-8.527 19.019,-6.641 41.753,-14.602 66.878,-23.383 25.149,-8.77 47.895,-16.699 66.914,-23.328 17.106,-6.051 27.618,-10.039 27.375,-10.809 -0.234,-0.742 -11.175,1.859 -28.628,6.906 -17.45,5.063 -41.387,12.633 -67.563,21.774 -26.172,9.129 -49.613,18.117 -66.422,25 -16.812,6.91 -25.59,11.629 -25.308,12.367" /><path
         id="path208"
         style="fill:#365462;fill-opacity:1;fill-rule:nonzero;stroke:none"
         d="m 934.516,957.301 c 0.117,-1.59 -24.532,-4.75 -55.059,-7.031 -30.527,-2.301 -55.371,-2.848 -55.492,-1.258 -0.117,1.59 24.523,4.738 55.062,7.027 30.52,2.293 55.371,2.852 55.489,1.262" /><path
         id="path210"
         style="fill:#365462;fill-opacity:1;fill-rule:nonzero;stroke:none"
         d="m 915.492,924.5 c -0.441,-1.539 -19.324,2.582 -42.179,9.172 -22.856,6.598 -41.008,13.199 -40.571,14.726 0.446,1.543 19.332,-2.566 42.184,-9.168 22.84,-6.601 41.004,-13.191 40.566,-14.73" /><path
         id="path212"
         style="fill:#365462;fill-opacity:1;fill-rule:nonzero;stroke:none"
         d="m 687.34,1850.41 c 0.719,-0.01 1.258,-13.17 1.551,-34.45 0.289,-21.28 0.332,-50.68 0.058,-83.14 -0.215,-16.16 -0.422,-31.56 -0.605,-45.79 -0.219,-14.12 -2.047,-27.35 -6.934,-37.3 -4.73,-10 -11.426,-16.33 -16.445,-19.69 -5.059,-3.41 -8.395,-4.22 -8.488,-3.98 -0.204,0.4 2.804,1.84 7.265,5.6 4.442,3.71 10.305,10.03 14.309,19.58 4.137,9.47 5.531,21.92 5.492,35.86 0.062,14.23 0.129,29.61 0.199,45.77 0.274,32.46 0.813,61.85 1.469,83.12 0.648,21.28 1.41,34.43 2.129,34.42" /><path
         id="path214"
         style="fill:#365462;fill-opacity:1;fill-rule:nonzero;stroke:none"
         d="m 520.082,1860.55 c 0.09,-0.01 0.117,-1.5 0.082,-4.42 -0.066,-3.16 -0.164,-7.45 -0.281,-12.95 -0.371,-11.65 -0.906,-28.38 -1.586,-49.8 -1.41,-43.49 -3.434,-105.98 -5.93,-183.1 -4.668,-154.61 -9.472,-368.26 -10.715,-604.26 -1.16,-236.079 1.473,-449.79 4.563,-604.442 1.711,-77.137 3.094,-139.648 4.062,-183.148 0.465,-21.418 0.825,-38.149 1.078,-49.789 0.067,-5.512 0.114,-9.813 0.153,-12.961 0,-2.918 -0.039,-4.418 -0.125,-4.418 -0.094,-0.012 -0.231,1.488 -0.414,4.398 -0.16,3.149 -0.379,7.442 -0.664,12.942 -0.481,11.636 -1.168,28.359 -2.055,49.769 -1.727,43.231 -3.719,105.789 -5.719,183.117 -4.035,154.66 -7.25,368.422 -6.082,604.562 1.239,236.05 6.625,449.75 12.235,604.35 2.789,77.31 5.418,139.86 7.586,183.07 1.101,21.4 1.964,38.12 2.562,49.75 0.344,5.5 0.606,9.78 0.801,12.94 0.211,2.91 0.359,4.39 0.449,4.39" /><path
         id="path216"
         style="fill:#365462;fill-opacity:1;fill-rule:nonzero;stroke:none"
         d="m 823.965,1815.07 c 0.082,0.02 0.582,-1.36 1.465,-4.1 0.929,-2.98 2.195,-7.01 3.812,-12.19 3.184,-10.76 8.324,-26.52 13.922,-47.1 11.488,-41.07 26.984,-100.82 44.34,-175.06 17.266,-74.27 36.609,-162.98 56.625,-261.78 19.922,-98.82 41.094,-207.61 60.171,-322.41 2.4,-14.348 4.53,-28.692 6.46,-42.981 0.25,-3.789 0.68,-7.679 0.67,-11.398 l -1.8,-10.61 c -1.29,-7.05 -2.22,-14.16 -3.82,-21.082 -5.7,-27.82 -12.177,-55.019 -19.052,-81.589 -13.641,-53.168 -28.008,-104.122 -42.18,-152.508 -28.23,-96.801 -55.43,-183.422 -78.523,-256.071 -23.168,-72.64 -42.434,-131.242 -56.008,-171.652 -6.789,-19.988 -12.098,-35.609 -15.789,-46.488 -1.809,-5.121 -3.215,-9.102 -4.25,-12.039 -0.985,-2.703 -1.528,-4.071 -1.617,-4.043 -0.082,0.019 0.293,1.441 1.117,4.211 0.91,2.968 2.156,7.019 3.75,12.199 3.48,10.953 8.469,26.66 14.859,46.781 12.934,40.891 31.5,99.641 54.422,172.129 22.641,72.781 49.469,159.492 77.43,256.313 14.039,48.386 28.297,99.32 41.847,152.429 6.825,26.528 13.254,53.668 18.914,81.348 1.59,6.891 2.5,13.902 3.77,20.891 l 1.79,10.5 c -0.06,3.39 -0.5,6.679 -0.7,10.05 -1.92,14.168 -4.03,28.43 -6.438,42.782 -19.043,114.648 -40.07,223.468 -59.726,322.288 -19.75,98.81 -38.715,187.56 -55.512,261.9 -16.883,74.31 -31.824,134.16 -42.703,175.36 -5.293,20.64 -10.117,36.48 -12.977,47.33 -1.41,5.24 -2.504,9.33 -3.312,12.34 -0.719,2.78 -1.047,4.22 -0.957,4.25" /><path
         id="path218"
         style="fill:#365462;fill-opacity:1;fill-rule:nonzero;stroke:none"
         d="m 662.98,448.609 c 0.364,-0.007 0.653,-5.05 0.856,-14.148 0.148,-10.102 0.332,-23.051 0.559,-38.563 0.496,-33.527 1.152,-78 1.878,-127.136 1.344,-49.153 2.563,-93.602 3.477,-127.121 0.43,-15.512 0.793,-28.45 1.07,-38.551 0.176,-9.1017 0.102,-14.1486 -0.261,-14.1681 -0.356,-0.0235 -0.965,4.9883 -1.762,14.0581 -0.809,9.079 -1.742,22.231 -2.723,38.481 -1.965,32.519 -3.949,77.48 -5.008,127.199 -1.039,49.68 -0.949,94.68 -0.355,127.25 0.293,16.289 0.676,29.469 1.098,38.57 0.418,9.098 0.816,14.129 1.171,14.129" /><path
         id="path220"
         style="fill:#f4b0a3;fill-opacity:1;fill-rule:nonzero;stroke:none"
         d="m 513.43,2703.37 169.859,-12.56 c 2.27,19.65 5.566,96.02 5.566,96.02 0,0 70.946,6.59 76.145,76.79 5.199,70.2 2.977,232.26 2.977,232.26 -79.164,39.98 -173.762,33.97 -247.235,-15.7 l -10.91,-7.37 3.598,-369.44" /><path
         id="path222"
         style="fill:#1d2a30;fill-opacity:1;fill-rule:nonzero;stroke:none"
         d="m 744.359,2976.15 c -3.941,4.04 -3.855,10.51 0.188,14.45 4.043,3.94 10.512,3.86 14.457,-0.19 3.934,-4.03 3.855,-10.51 -0.188,-14.45 -4.043,-3.94 -10.515,-3.86 -14.457,0.19" /><path
         id="path224"
         style="fill:#1d2a30;fill-opacity:1;fill-rule:nonzero;stroke:none"
         d="m 762.383,2991.13 c -1.18,-1.14 -7.75,4.59 -17.418,5.23 -9.668,0.79 -17.008,-3.92 -17.996,-2.61 -0.496,0.58 0.742,2.71 3.949,4.85 3.148,2.13 8.449,4.05 14.477,3.6 6.027,-0.45 10.988,-3.12 13.789,-5.69 2.863,-2.58 3.765,-4.87 3.199,-5.38" /><path
         id="path226"
         style="fill:#1d2a30;fill-opacity:1;fill-rule:nonzero;stroke:none"
         d="m 650.387,2989.58 c 4.613,-3.25 5.726,-9.63 2.476,-14.24 -3.246,-4.62 -9.621,-5.73 -14.242,-2.48 -4.613,3.24 -5.726,9.62 -2.48,14.23 3.246,4.62 9.625,5.73 14.246,2.49" /><path
         id="path228"
         style="fill:#1d2a30;fill-opacity:1;fill-rule:nonzero;stroke:none"
         d="m 656.758,2989.1 c -1.172,-1.15 -7.746,4.58 -17.418,5.23 -9.664,0.78 -17,-3.92 -17.996,-2.62 -0.492,0.58 0.742,2.71 3.953,4.85 3.148,2.14 8.445,4.05 14.476,3.61 6.028,-0.45 10.989,-3.12 13.79,-5.69 2.859,-2.6 3.761,-4.88 3.195,-5.38" /><path
         id="path230"
         style="fill:#1d2a30;fill-opacity:1;fill-rule:nonzero;stroke:none"
         d="m 690.633,2906.88 c -0.02,0.72 6.043,1.52 15.851,2.24 2.539,0.11 4.633,0.54 4.954,1.98 0.578,1.58 -0.258,4.36 -1.344,7.45 -2.082,6.51 -4.207,13.16 -6.434,20.13 -8.836,28.67 -14.89,52.24 -13.515,52.66 1.371,0.43 9.656,-22.46 18.496,-51.12 2.089,-7.01 4.082,-13.7 6.035,-20.26 0.762,-2.99 2.285,-6.49 0.754,-10.51 -0.813,-2.01 -2.852,-3.38 -4.528,-3.71 -1.683,-0.4 -3.105,-0.32 -4.32,-0.3 -9.84,0.22 -15.93,0.72 -15.949,1.44" /><path
         id="path232"
         style="fill:#ffffff;fill-opacity:1;fill-rule:nonzero;stroke:none"
         d="m 658.539,2898.13 c -9.711,6.63 26.848,-16.46 46.598,-16.71 0,0 -12.414,-17.37 -32.207,-8.7 -20.551,8.99 -14.391,25.41 -14.391,25.41" /><path
         id="path234"
         style="fill:#ef716a;fill-opacity:1;fill-rule:nonzero;stroke:none"
         d="m 689.035,2787.84 c 0,0 -44.621,-0.88 -89.98,31.68 0,0 18.527,-51.9 89.019,-49.9 l 0.961,18.22" /><path
         id="path236"
         style="fill:#f4b0a3;fill-opacity:1;fill-rule:nonzero;stroke:none"
         d="m 523.32,3010.48 c -1.523,0.58 -52.121,7.16 -47.343,-52.59 4.781,-59.75 63.543,-35.16 63.507,-33.44 -0.031,1.72 -16.164,86.03 -16.164,86.03" /><path
         id="path238"
         style="fill:#ef716a;fill-opacity:1;fill-rule:nonzero;stroke:none"
         d="m 519.5,2943.95 c -0.277,0.18 -0.98,-0.81 -2.676,-1.76 -1.648,-0.92 -4.558,-1.7 -7.769,-0.78 -6.492,1.81 -12.61,11.41 -13.758,22.15 -0.59,5.43 0.133,10.7 1.719,15.14 1.472,4.52 4.058,7.8 7.187,8.62 3.106,0.98 5.508,-0.74 6.371,-2.36 0.934,-1.61 0.656,-2.84 0.977,-2.91 0.179,-0.14 1.203,1.1 0.527,3.53 -0.348,1.17 -1.156,2.52 -2.648,3.56 -1.532,1.05 -3.688,1.48 -5.887,1.06 -4.578,-0.69 -8.387,-5.26 -10.125,-10.14 -1.996,-4.91 -2.941,-10.85 -2.277,-16.94 1.343,-12.01 8.41,-22.78 17.246,-24.58 4.289,-0.77 7.695,0.78 9.39,2.34 1.735,1.62 1.942,2.98 1.723,3.07" /><path
         id="path240"
         style="fill:#1d2a30;fill-opacity:1;fill-rule:nonzero;stroke:none"
         d="m 773.078,3121.16 c 16.11,0.47 29.137,18.47 24.543,33.91 -4.594,15.45 -25.344,23.41 -39.086,15 7.887,7.47 15.985,15.26 20.145,25.3 4.16,10.04 3.293,23.01 -4.969,30.06 -8.141,6.95 -20.563,6.02 -30.406,1.82 -14.922,-6.37 -26.7,-18.98 -42.024,-24.32 -15.496,-5.39 -32.468,-2.67 -48.859,-3.39 -18.125,-0.79 -36.426,-6.14 -50.578,-17.49 -12.313,-9.88 -21.078,-24.64 -22.477,-40.24 -1.941,2.53 -4.054,5.08 -6.531,7.6 -13.887,14.39 -29.41,20.15 -29.84,18.89 -0.719,-1.37 13,-8.89 26.106,-22.52 3.664,-3.73 6.816,-7.45 9.55,-10.92 -22.761,2.78 -47.91,2.99 -65.879,-11.19 -15.293,-12.06 -22.043,-32.48 -22.093,-51.96 -0.051,-19.48 8.015,-37.96 13.722,-56.57 l -0.007,0.06 c 3.418,-10.86 7.015,-14.67 7.015,-14.67 l 8.535,-50.36 31.293,0.6 -2.019,104.91 c 0,0 -3.153,44.17 34.875,40.3 38.023,-3.86 89.707,-46.75 163.761,-35.94 11.993,1.75 24.485,3.1 34.508,9.9 10.028,6.81 17.246,18.69 15.844,30.74 -1.398,12.03 -13.207,22.68 -25.129,20.48" /><path
         id="path242"
         style="fill:#f4b0a3;fill-opacity:1;fill-rule:nonzero;stroke:none"
         d="m 1409.01,2603.5 4.62,31.75 c 0,0 5.89,18.74 8.83,53.21 0.77,8.94 -0.08,17.94 -2.35,26.62 -2.76,10.53 -6.99,24.37 -11.66,31.23 -5.78,8.48 1.77,19.58 10.55,16.46 8.79,-3.12 25.29,-26.11 30.75,-58.71 5.47,-32.6 31.17,12.62 40.83,28.94 9.66,16.32 41.91,65.39 49.28,66.39 10.8,1.47 14.38,-9.83 4.35,-25.9 -10.15,-16.26 -36.7,-66.37 -27.84,-71.06 0,0 13.44,2 20.2,-0.95 2.25,-0.98 3.76,-2.51 3.78,-4.84 0.07,-9.35 1.66,-14.93 1.66,-14.93 0,0 13.03,2.92 15.73,-2.74 2.69,-5.66 2.53,-18.13 2.53,-18.13 0,0 10.02,3.42 14.8,-0.33 10.33,-8.12 -2.83,-22.07 -2.83,-22.07 -30.64,-40.01 -94.67,-99.45 -94.67,-99.45 l -68.87,66.4" /><path
         id="path244"
         style="fill:#ef716a;fill-opacity:1;fill-rule:nonzero;stroke:none"
         d="m 1537.28,2679.45 c 0.54,-0.41 -3.63,-7 -11.68,-16.69 -4.02,-4.83 -9.02,-10.43 -14.9,-16.32 -3.01,-2.9 -5.85,-6.1 -9.94,-9 -3.91,-2.88 -10.35,-4.75 -15.84,-1.57 -2.77,1.53 -4.72,4.75 -4.88,7.75 -0.27,2.97 0.59,5.77 1.82,8.03 2.61,4.52 5.6,7.35 8.03,10.69 5.05,6.44 9.3,12.47 12.77,17.62 6.92,10.31 10.78,17.02 11.47,16.67 0.6,-0.29 -2.11,-7.63 -8.34,-18.61 -3.12,-5.48 -7.13,-11.84 -12.07,-18.58 -2.36,-3.4 -5.54,-6.82 -7.34,-10.17 -1.83,-3.35 -1.69,-7.4 1.17,-8.91 3.07,-1.75 7.12,-0.99 10.36,1.31 3.31,2.24 6.43,5.45 9.44,8.2 5.97,5.63 11.18,10.89 15.51,15.35 8.65,8.94 13.83,14.71 14.42,14.23" /><path
         id="path246"
         style="fill:#ef716a;fill-opacity:1;fill-rule:nonzero;stroke:none"
         d="m 1554.72,2658.94 c 0.48,-0.46 -3.56,-6.04 -11.17,-14.28 -3.85,-4.07 -8.66,-8.8 -14.72,-13.29 -3.05,-2.26 -6.31,-4.4 -10.07,-6.38 -1.95,-0.97 -4.09,-1.82 -6.6,-2.14 -2.44,-0.35 -5.59,0.13 -7.89,2.13 -4.62,4.26 -3.84,10.62 -1.75,14.55 2.17,4.12 4.9,6.81 7.16,9.69 4.34,5.15 8.53,10.11 12.59,14.92 7.29,8.39 12.08,13.36 12.65,12.91 0.56,-0.44 -3.21,-6.22 -9.77,-15.21 -3.78,-5.03 -7.68,-10.22 -11.72,-15.61 -2.18,-2.94 -4.85,-5.91 -6.33,-8.95 -1.57,-2.9 -1.38,-6.68 0.56,-8.34 1.83,-1.72 5.62,-0.99 8.85,0.63 3.34,1.69 6.6,3.69 9.53,5.7 5.9,4.05 10.83,8.35 14.94,12.02 8.13,7.43 13.18,12.18 13.74,11.65" /><path
         id="path248"
         style="fill:#ef716a;fill-opacity:1;fill-rule:nonzero;stroke:none"
         d="m 1558.9,2630.34 c 0.46,-0.27 -0.24,-4.44 -4.71,-10.04 -2.32,-2.64 -6.08,-5.65 -11.5,-5.88 -2.71,-0.05 -5.54,0.78 -7.93,2.67 -2.42,1.84 -4.04,5.25 -3.89,8.45 0.46,6.44 3.85,10.35 6,14.08 2.41,3.7 4.78,6.9 6.9,9.47 4.25,5.15 7.41,7.84 7.94,7.4 0.58,-0.47 -1.55,-3.97 -4.93,-9.53 -2.06,-3.49 -3.98,-6.74 -5.8,-9.83 -2.02,-3.73 -4.79,-7.91 -4.9,-11.69 -0.26,-3.61 3.26,-6.11 6.61,-6.22 3.43,-0.12 6.67,1.74 8.88,3.68 4.46,4.13 6.6,7.91 7.33,7.44" /><path
         id="path250"
         style="fill:#e3e3e2;fill-opacity:1;fill-rule:nonzero;stroke:none"
         d="m 1401.58,2644.73 c 0,0 -262.29,-258.02 -299.13,-259.77 -42.03,-2 -171.192,181.25 -171.192,181.25 l -0.008,-0.01 c -82.648,127.59 -191.781,148.21 -231.551,151.38 l 0.25,15.76 -195.449,16.01 c 0,0 0.316,-16.82 -0.133,-31.5 l -86.492,-0.12 c 0,0 -155.023,7.09 -178.258,-201.11 l 111.446,-88.08 45.664,-170 c 15.882,-59.13 -40.844,-153.48 -67.985,-306.12 -4.414,-24.84 -0.625,-46.42 12.129,-74.45 l 564.469,-64.88 -29.781,431.54 -9.055,99.79 c 46.414,-63.54 130.223,-153.34 232.256,-151.37 174.5,3.36 416.93,369.68 416.93,369.68 l -114.11,82" /><path
         id="path252"
         style="fill:#fcfdfd;fill-opacity:1;fill-rule:nonzero;stroke:none"
         d="m 633.605,2735.97 c 0.598,-0.03 0.719,-10.05 -0.375,-26.69 -1.16,-16.62 -3.328,-39.92 -8.953,-66.13 l -0.699,-3.26 -2.969,1.56 c -6.879,3.63 -13.988,7.46 -21.109,11.66 -28.039,16.45 -51.895,33.49 -69.496,45.22 -17.524,11.86 -28.594,18.86 -28.219,19.51 0.176,0.31 3.176,-1.05 8.442,-3.81 5.23,-2.81 12.722,-7.04 21.765,-12.6 18.18,-10.98 42.363,-27.53 70.137,-43.83 7.051,-4.16 14.07,-7.98 20.844,-11.63 l -3.668,-1.7 c 5.777,25.75 8.59,48.86 10.636,65.32 1.981,16.48 3.008,26.42 3.664,26.38" /><path
         id="path254"
         style="fill:#fcfdfd;fill-opacity:1;fill-rule:nonzero;stroke:none"
         d="m 700.277,2716.3 c 0.723,-0.25 -1.957,-9.83 -5.621,-25.47 -1.894,-7.82 -3.933,-17.22 -7.304,-27.5 -1.696,-5.13 -3.754,-10.42 -6.258,-15.79 -0.778,-1.54 -1.676,-3.15 -3.645,-4.45 -1.922,-1.54 -5.73,-1.07 -7.25,0.84 -2.886,3.53 -3.086,6.09 -4.547,8.96 -9.511,22.67 -17.855,43.3 -23.652,58.34 -5.801,15.03 -9.051,24.47 -8.387,24.75 0.657,0.27 5.117,-8.66 11.782,-23.33 6.664,-14.67 15.546,-35.08 25.062,-57.75 1.195,-2.63 2.363,-6.25 3.402,-7.31 l 0.868,-0.14 c 0.531,0.3 1.277,1.27 1.765,2.3 2.461,5.11 4.563,10.21 6.324,15.14 3.516,9.89 5.934,19.17 8.282,26.89 4.597,15.5 8.543,24.74 9.179,24.52" /><path
         id="path256"
         style="fill:#f8f8f9;fill-opacity:1;fill-rule:nonzero;stroke:none"
         d="m 663.559,2017.87 c -0.18,0 -0.442,2.45 -0.774,7.12 -0.305,5.18 -0.699,11.97 -1.199,20.42 -0.84,18.34 -2.012,43.87 -3.441,75.17 -2.426,64.01 -5.739,151.46 -9.395,248.06 -3.066,96.67 -5.84,184.14 -7.871,248.17 -0.746,31.31 -1.356,56.86 -1.793,75.23 -0.094,8.46 -0.164,15.26 -0.219,20.45 0.004,4.69 0.098,7.15 0.274,7.16 0.179,0 0.437,-2.44 0.769,-7.11 0.309,-5.19 0.703,-11.97 1.203,-20.42 0.84,-18.35 2.012,-43.87 3.442,-75.17 2.425,-64.01 5.738,-151.47 9.398,-248.11 3.063,-96.63 5.84,-184.1 7.867,-248.13 0.746,-31.32 1.356,-56.87 1.793,-75.23 0.09,-8.46 0.164,-15.27 0.223,-20.47 -0.008,-4.67 -0.098,-7.13 -0.277,-7.14" /><path
         id="path258"
         style="fill:#f03658;fill-opacity:1;fill-rule:nonzero;stroke:none"
         d="m 628.262,2672.8 16.355,-45.27 14.113,48.58 -21.863,48.59 -8.605,-51.9" /><path
         id="path260"
         style="fill:#f03658;fill-opacity:1;fill-rule:nonzero;stroke:none"
         d="m 647.617,2641.09 -10.758,-508.86 76.758,-160.57 30.328,180.75 -96.328,488.68" /><path
         id="path262"
         style="fill:#fcfdfd;fill-opacity:1;fill-rule:nonzero;stroke:none"
         d="m 1105.28,2322.17 c 0.4,-0.11 0.4,-1.5 0.04,-4 l -0.56,-3.8 -1.68,3.83 c -2.31,5.31 -5.78,17.27 -6.64,31.52 -1.39,20.12 2.89,36.08 4.2,35.76 1.51,-0.25 -0.35,-16.05 1,-35.42 0.83,-13.78 3.04,-25.56 3.68,-31.26 l -2.23,0.02 c 1.04,2.3 1.79,3.47 2.19,3.35" /><path
         id="path264"
         style="fill:#fcfdfd;fill-opacity:1;fill-rule:nonzero;stroke:none"
         d="m 1127.75,2323.54 c -1.18,-0.72 -9.55,11.16 -16.2,27.68 -6.72,16.5 -8.97,30.85 -7.62,31.15 1.44,0.36 5.88,-13.1 12.44,-29.2 6.49,-16.12 12.67,-28.88 11.38,-29.63" /><path
         id="path266"
         style="fill:#fcfdfd;fill-opacity:1;fill-rule:nonzero;stroke:none"
         d="m 1499.02,2538.99 c -0.8,-1.19 -28.62,16.18 -62.12,38.78 -33.51,22.62 -60.02,41.91 -59.22,43.1 0.81,1.19 28.62,-16.17 62.13,-38.78 33.5,-22.61 60.02,-41.9 59.21,-43.1" /><path
         id="path268"
         style="fill:#f4b0a3;fill-opacity:1;fill-rule:nonzero;stroke:none"
         d="m 408.754,2457.24 c 0,0 -41.559,-289.71 -21.914,-306.22 108.785,-91.45 259.906,-139.44 314.027,-154.53 7.848,1.88 17.125,4.37 27.735,7.74 9.179,2.9 17.769,7.43 25.449,13.25 9.308,7.05 21.304,16.92 26.191,24.36 6.047,9.21 20.149,6.27 20.656,-3.72 0.512,-10 -15.539,-35.78 -45.632,-54.57 0,0 69.32,-111.5 91.394,-121.53 22.07,-10.02 85.281,-38.52 74.629,-44 -10.66,-5.48 -87.676,16.95 -87.676,16.95 l -155.996,41.69 c 0,0 -515.992,80.9 -481.613,317.61 21.07,145.08 44.051,275.84 52.387,308.9 l 160.363,-45.93" /><path
         id="path270"
         style="fill:#e3e3e2;fill-opacity:1;fill-rule:nonzero;stroke:none"
         d="m 239.617,2516.62 -46.281,-316.05 c -10.711,-97.34 54.477,-174.61 142.23,-218.08 133.516,-66.16 331.723,-113.33 330.059,-113.01 -2.695,0.5 13.406,141.05 13.406,141.05 0,0 -277.871,120.38 -286.582,172.09 -8.711,51.7 35.328,267.94 35.328,267.94 l -188.16,66.06" /><path
         id="path272"
         style="fill:#fcfdfd;fill-opacity:1;fill-rule:nonzero;stroke:none"
         d="m 665.625,1869.48 c -0.09,0 -0.094,0.85 -0.027,2.5 0.121,1.95 0.261,4.36 0.437,7.31 0.531,6.85 1.258,16.22 2.184,28.1 2.156,24.82 5.219,60 8.988,103.32 l 1.043,-1.84 c -39.82,19.3 -87.152,42.24 -139.73,67.72 -13.157,6.41 -26.637,12.99 -40.411,19.69 -13.589,7.21 -27.191,15.09 -40.64,23.79 -13.438,8.7 -26.68,18.27 -39.399,28.9 -6.351,5.32 -12.566,10.92 -18.57,16.83 -2.793,2.74 -6.395,6.35 -8.086,10.63 -0.988,2.07 -1.812,4.17 -2.266,6.33 -0.609,2.14 -1.14,4.29 -1.382,6.45 -4.536,34.52 4.734,67.18 9.519,98.25 5.395,31.25 10.606,61.39 15.574,90.12 10.02,57.34 19.055,109.01 26.664,152.57 3.915,21.69 7.274,41.32 7.024,58.7 -0.024,17.38 -3.793,32.11 -9.016,43.11 -5.179,11.08 -11.633,18.28 -16.351,22.61 -4.782,4.31 -7.758,6.04 -7.614,6.26 0,0 3.211,-1.34 8.301,-5.47 5.028,-4.13 11.895,-11.3 17.492,-22.51 5.625,-11.12 9.793,-26.23 10.102,-43.95 0.527,-17.73 -2.633,-37.67 -6.309,-59.37 -7.304,-43.64 -15.964,-95.39 -25.574,-152.83 -4.879,-28.76 -9.984,-58.94 -15.289,-90.22 -1.351,-7.83 -2.715,-15.73 -4.086,-23.69 -1.629,-7.82 -2.957,-15.81 -4.062,-23.86 -2.004,-16.05 -3.668,-32.75 -1.231,-48.88 0.219,-2.05 0.711,-3.99 1.258,-5.9 0.406,-1.99 1.133,-3.79 1.965,-5.52 1.426,-3.58 3.953,-6.06 7.019,-9.13 5.891,-5.8 11.996,-11.31 18.243,-16.56 12.519,-10.48 25.582,-19.96 38.859,-28.59 13.273,-8.63 26.738,-16.48 40.187,-23.67 13.727,-6.76 27.168,-13.38 40.282,-19.84 52.343,-25.83 99.457,-49.09 139.093,-68.65 l 1.172,-0.57 -0.129,-1.26 c -4.461,-43.26 -8.078,-78.38 -10.636,-103.17 -1.328,-11.82 -2.383,-21.18 -3.149,-28 -0.383,-2.94 -0.691,-5.32 -0.945,-7.26 -0.246,-1.63 -0.41,-2.46 -0.504,-2.45" /><path
         id="path274"
         style="fill:#fcfdfd;fill-opacity:1;fill-rule:nonzero;stroke:none"
         d="m 639.879,2029.87 c 0.707,-0.12 0.023,-8.35 -1.691,-21.56 -1.723,-13.22 -4.485,-31.43 -8.243,-51.42 -3.742,-20.01 -7.875,-37.99 -11.324,-50.88 -3.445,-12.89 -6.141,-20.71 -6.816,-20.55 -0.715,0.19 0.707,8.31 3.234,21.37 2.899,15.12 6.176,32.19 9.789,51.02 7.406,39.88 13.539,72.27 15.051,72.02" /><path
         id="path276"
         style="fill:#fcfdfd;fill-opacity:1;fill-rule:nonzero;stroke:none"
         d="m 665.625,1869.48 c -0.047,-0.18 -1.719,0.1 -4.875,0.81 -3.727,0.9 -8.25,1.99 -13.727,3.31 -12.648,3.31 -29.628,7.74 -50.246,13.14 -42.308,11.48 -101.129,26.42 -164.14,49.56 -31.465,11.64 -60.793,24.62 -86.407,38.47 -25.632,13.82 -47.57,28.34 -64.988,41.81 -17.469,13.41 -30.39,25.74 -38.949,34.56 -4.289,4.4 -7.469,7.96 -9.539,10.45 -2.098,2.47 -3.133,3.82 -3,3.94 0.348,0.31 5,-4.63 13.961,-12.95 8.949,-8.32 22.144,-20.14 39.746,-33.06 17.555,-12.98 39.488,-27.04 65.023,-40.51 25.52,-13.51 54.672,-26.24 85.961,-37.82 62.641,-23.02 121.285,-38.53 163.309,-50.9 20.434,-6.05 37.254,-11.02 49.789,-14.73 5.371,-1.7 9.82,-3.1 13.477,-4.26 3.062,-1.03 4.652,-1.66 4.605,-1.82" /><path
         id="path278"
         style="fill:#fcfdfd;fill-opacity:1;fill-rule:nonzero;stroke:none"
         d="m 669.086,1996.03 c 0.094,-4.94 -3.832,-9.02 -8.781,-9.12 -4.942,-0.1 -9.024,3.83 -9.114,8.77 -0.097,4.94 3.832,9.03 8.774,9.12 4.941,0.1 9.023,-3.83 9.121,-8.77" /></g></g></svg>