<svg xmlns="http://www.w3.org/2000/svg" viewBox="0 0 55.6 68.6"> <title>mascot</title> <g> <path fill="#57D1E5" stroke="#3B2D55" stroke-width="1.26" stroke-linecap="round" stroke-linejoin="round" d="M15.3 63.5c.4 2.1-.9 4.1-3 4.6-2.1.4-4.1-.9-4.6-3 0 0-7.1-33.3-7.1-40.1 0-14.2 11.3-24.3 27.2-24.3s27.2 10 27.2 24.2c0 6.8-7.1 40.1-7.1 40.1-.4 2.1-2.4 3.5-4.5 3.1s-3.5-2.4-3.1-4.5"></path> <path fill="#57D1E5" d="M46.2 54l-1.9 10.8c-.3 2.1-2.3 3.6-4.4 3.3-2.1-.3-3.6-2.3-3.3-4.4"></path> <path fill="#3B2D55" d="M46.6 54l-.9 5.7-.5 2.8-.2 1.5-.3 1.5c-.7 2.4-3.2 3.7-5.6 3-1-.3-1.8-.9-2.4-1.7-.6-.9-.9-2.1-.7-3.2 0-.3.4-.6.7-.5.3 0 .6.4.5.7-.2 1.7.9 3.2 2.6 3.5 1.6.3 3.3-.6 3.8-2.2.1-.3.2-.9.3-1.3l.3-1.4.5-2.8c.4-1.9.7-3.8 1.1-5.6.1-.2.3-.3.5-.3s.3.2.3.3z"></path> <circle fill="#fff" stroke="#3B2D55" stroke-width="1.26" stroke-linecap="round" stroke-linejoin="round" cx="18.6" cy="22.4" r="12.1"></circle> <path fill="#3B2D55" d="M21.1 14.4c-2.1.4-2.5 5-1.3 6.3.8.8 2.5 1.1 2.5 1.7s-1.7.9-2.5 1.7c-1.3 1.3-.8 5.9 1.3 6.3 2.5.5 6.3-2.5 6.3-8s-3.8-8.5-6.3-8z"></path> <path fill="#fff" stroke="#3B2D55" stroke-width="1.05" stroke-linecap="round" stroke-linejoin="round" d="M12.8 38.7c.4 1.3 1.7 3.3 3.4 2.9.8-.2 1.3-1.3 1.3-2.9"></path> <path fill="#fff" stroke="#3B2D55" stroke-width="1.26" stroke-linecap="round" stroke-linejoin="round" d="M23.6 37.9c.4 1.7.8 2.9 2.1 2.9s2.9-1.7 2.5-4.6"></path> <path fill="#3B2D55" d="M10.3 37.8c8.1 1.2 16.3-.8 23-5.4.3-.1.7 0 .8.3.1.2.1.5-.1.7-7 4.8-15.5 6.7-23.9 5.5-.3-.1-.4-.4-.3-.7.2-.3.3-.4.5-.4zm24-3.5c-.2-1.1-1.2-2-2.3-2.1-.3.1-.7-.1-.7-.5-.1-.3.1-.7.5-.7h.4c1.6.3 2.8 1.6 3 3.2 0 .2-.2.4-.4.4-.3.1-.5-.1-.5-.3z"></path> <path fill="#57D1E5" d="M19 63.7c.3 2.1-1.1 4.1-3.3 4.4-2.1.3-4.1-1.1-4.4-3.3l-1.8-10.8"></path> <path fill="#3B2D55" d="M19.7 63.6c.3 2.5-1.5 4.7-3.9 5-2.2.3-4.2-1.1-4.8-3.1l-.3-1.5-.2-1.4-.4-2.8c-.5-2-.8-3.9-1.1-5.8 0-.2.2-.4.4-.4s.4.1.4.3c.4 1.9.8 3.7 1.1 5.6l.6 2.8.3 1.4c.1.5.2 1 .3 1.3.5 1.6 2.1 2.6 3.8 2.2 1.6-.4 2.7-1.9 2.5-3.5 0-.3.2-.7.5-.7.4-.1.7.2.8.6z"></path> <path fill="#57D1E5" d="M24.6 63.9c.1 2.1-1.5 4-3.7 4.1-2 .1-3.8-1.4-4-3.4l-1.2-10.8"></path> <path fill="#3B2D55" d="M25.3 63.9c.1 2.5-1.8 4.6-4.3 4.7-2.2.1-4.1-1.3-4.6-3.4-.1-.5-.2-1-.2-1.5l-.1-1.4-.3-2.8c-.2-1.9-.4-3.8-.5-5.7 0-.2.2-.4.4-.4s.4.1.4.3l.8 5.7.4 2.8.2 1.4c.1.5.1 1 .2 1.3.4 1.6 2 2.7 3.6 2.4 1.6-.3 2.8-1.7 2.8-3.4 0-.3.3-.6.7-.6.2.1.4.3.5.6z"></path> <path fill="#57D1E5" d="M39.9 53.7l-1.2 10.9c-.2 2.1-2 3.7-4.2 3.5-2.1-.2-3.7-2-3.5-4.2"></path> <path fill="#3B2D55" d="M40.4 53.7c-.1 1.9-.3 3.8-.5 5.7l-.3 2.8-.1 1.4c0 .5-.1 1-.2 1.5-.3 1.1-.9 2-1.9 2.7-2.1 1.4-4.8.9-6.2-1.2-.6-.8-.8-1.8-.8-2.8.1-.3.4-.6.7-.5.3 0 .5.3.5.6-.1 1.7 1.1 3.1 2.8 3.4 1.6.2 3.2-.8 3.6-2.4l.2-1.3.2-1.4.4-2.8c.2-1.9.5-3.8.8-5.7.1-.2.3-.4.5-.3.1 0 .2.1.3.3z"></path> <path fill="#57D1E5" d="M32 53.3l-.3 10.9c0 2.1-1.7 3.9-3.9 3.9-2.1 0-3.9-1.7-3.9-3.9l-.3-10.9"></path> <path fill="#3B2D55" d="M32.4 53.4c0 2.8 0 5.6-.1 8.4v2.1c0 .8-.1 1.6-.5 2.3-1.1 2.2-3.9 3.1-6.1 1.9-1.2-.6-2.1-1.8-2.3-3.1-.1-.4-.1-.8-.1-1.2v-2.1l-.1-8.4c0-.2.2-.4.4-.4s.4.2.4.4c.2 2.8.3 5.6.4 8.4l.1 2.1c0 .3 0 .6.1.9.1.3.2.6.3.8.9 1.6 2.8 2.2 4.4 1.3.6-.3 1-.8 1.3-1.3l.3-.8c.1-.3.1-.6.1-.9l.1-2.1c.1-2.8.2-5.6.4-8.4 0-.2.2-.4.4-.4.4 0 .5.2.5.5z"></path> </g> </svg>